<svg width="320" height="398" viewBox="0 0 320 398" fill="none" xmlns="http://www.w3.org/2000/svg">
<path d="M1.04956 36.5384C0.3207 39.3691 0 42.0325 0 43.3567V398H320V36.5384C320 36.5384 296 3.38604 228.863 23.3689V23.3682C228.863 22.1792 228.863 21.0252 228.781 20.1933C220.735 -23.743 153.308 39.9312 151.191 38.3573C149.164 36.8507 146.645 34.4204 144.308 32.7732C131.404 23.6802 116.347 37.2472 109.322 32.8606C108.518 32.3584 109.805 29.3126 109.322 26.9617C108.912 24.9604 109.322 23.9914 104.383 19.4463C101.195 16.5131 94.8219 9.7094 83.7805 12.1307C77.3199 13.5475 64.1758 18.7362 62.9228 26.9617C61.9968 33.0407 63.0733 13.692 59.3563 8.8702C52.9236 0.525699 36.396 -3.23564 27.2838 3.38604C16.2287 11.4196 4.63973 22.5948 1.04956 36.5384Z" fill="white"/>
</svg>
