<svg width="1920" height="427" viewBox="0 0 1920 427" fill="none" xmlns="http://www.w3.org/2000/svg">
<g filter="url(#filter0_d_4060_834)">
<path d="M-17.2969 0.989082C-15.5967 -0.000659287 -12.2768 -0.130783 -9.62695 0.339668C-0.276969 1.99962 13.0885 2.2949 48.4531 4.33967C77.1629 5.99965 102.797 7.23589 116.713 12.0096C130.443 16.7196 146.585 27.0807 155.033 34.0194C162.363 40.0394 167.084 52.6648 175.033 51.3299C179.023 50.6593 180.806 40.4127 190.383 38.9891C197.043 37.9991 206.656 37.8924 215.033 40.3397C223.043 42.6799 229.773 53.5079 236.692 50.6492C238.362 49.9593 239.457 47.7164 241.362 46.3094C249.042 40.6394 255.848 31.7592 265.033 28.3192C273.043 25.319 288.481 16.3052 301.373 14.3299C312.403 12.6399 357.867 9.94122 388.073 11.6697C405.723 12.6797 416.497 13.4955 437.402 19.3494C451.722 23.3594 463.153 28.9814 513.793 45.0399C533.723 51.3598 550.58 59.973 563.032 62.0096C571.042 63.3196 579.022 59.3192 587.032 53.9793C595.042 48.6394 602.803 42.7323 611.032 39.9891C619.042 37.3191 628.331 36.1488 637.373 38.0096C647.043 39.9996 662.459 44.2604 673.373 52.3592C680.35 57.5366 689.287 64.0669 696.398 68.785C705.518 55.7218 718.064 44.689 730.235 35.8543C746.011 24.4043 774.624 30.9084 785.761 45.3377C792.196 53.6756 790.333 87.1337 791.936 76.6229C794.105 62.3993 816.86 53.4263 828.045 50.9764C847.16 46.7894 858.194 58.5545 863.713 63.6268C872.264 71.4863 871.554 73.1623 872.265 76.6229C873.099 80.688 870.873 85.9546 872.265 86.8231C884.426 94.4078 910.493 70.9481 932.833 86.6717C936.88 89.5202 941.241 93.7227 944.749 96.3279C948.416 99.0477 1065.15 -11.0563 1079.08 64.9188C1079.22 66.3574 1079.22 68.3537 1079.22 70.41C1188.35 37.9649 1231.65 86.5252 1236.53 92.576C1244.01 92.2742 1253.19 91.9589 1264.51 91.6697C1279.81 91.2789 1291.6 85.3597 1304.61 82.3397C1322.51 78.1854 1330.96 84.0003 1340.63 87.9803C1350.31 91.9665 1358.96 97.3195 1366.97 103.309C1373.92 108.509 1390.88 113.28 1403.96 117.66C1416.34 121.806 1424.96 112.679 1445.25 100.72C1460.37 91.8097 1468.96 84.0401 1478.96 77.3602C1493.58 67.5948 1508.96 56.0395 1520.62 51.6795C1531.39 47.6505 1540.28 41.3597 1549.3 38.3397C1561.09 34.3929 1589.48 34.0003 1613.93 37.6502C1626.91 39.5881 1631.64 49.9595 1638.97 56.6395C1648.39 65.2232 1654.32 73.9597 1660.64 81.9696C1668.12 91.4464 1678.96 100.64 1687.63 105.32C1698.26 111.06 1724.8 108 1749.9 109.66C1787.59 112.153 1796.96 101.36 1804.97 94.6903C1812.99 88.0139 1824.96 84.6795 1833.63 80.6795C1836.13 79.5253 1839.6 80.0003 1841.3 81.9803C1845.32 86.6679 1844.98 93.9795 1848.97 97.6395C1866.45 113.678 1875.55 112.696 1898.29 112.66C1908.15 112.644 1914.96 120 1926.29 123.65C1931.01 125.171 1934.98 127.32 1938.64 130.309C1946.17 136.463 1946.32 149.28 1948.66 159.62C1954.51 185.477 1960.32 216.6 1961.33 228.29L1961.44 229.584C1962.67 243.801 1964.33 262.902 1964.67 317.12C1964.8 337.368 1962.34 346.64 1961.34 369.45C1960.46 389.604 1961 427.24 1960.67 448.27C1960.18 479.341 1953.72 511.08 1950.67 539.93C1949.46 551.358 1946.36 563.28 1944.67 583.59C1943.68 589.959 1942.34 593.98 1941.01 597.97C1940.34 599.979 1939.68 601.96 1937 608L1135 597.97L1135.83 592H712.07C708.415 594.832 704.196 597.254 699.183 599.05C690.723 602.08 676.862 606.04 570.992 611.08C465.122 616.12 273.063 622.059 174.993 624.689C78.8468 627.268 73.1504 626.728 69.1797 626.351L68.9424 626.33C50.8825 624.64 30.344 620.717 25.3125 611.3C-6.66699 696 2.18354 611.147 1.00293 599.05C-0.68702 581.73 8.32212 563.739 -26.0078 563.739C-54.6472 563.739 -1.65613 522.178 -7.35742 505.92C-14.3573 485.96 -24.0429 476.055 -26.0098 463.5C-26.9996 457.18 -21.4854 454.428 -20.3174 447.62C-18.3174 435.96 -15.8374 427.928 -12.9873 418.3C-10.3173 409.28 -7.04981 400.15 -4.9873 391.63C-2.31731 380.6 1.36315 368.65 1.00293 354.559C0.322922 327.959 -2.3504 299.927 -2.66699 271.8C-2.99699 242.48 -1.689 221.294 -1.32715 191.139C-0.997145 163.639 -0.0654746 112.791 -1.33691 86.3895C-2.9969 51.9198 -4.45021 40.0023 -6.66699 28.6297C-8.35701 19.9598 -13.6887 12.9672 -18.0068 5.63947C-18.9968 3.95949 -18.9968 1.97906 -17.2969 0.989082Z" fill="white"/>
</g>
<defs>
<filter id="filter0_d_4060_834" x="-38.5547" y="0.0771484" width="2007.23" height="656.396" filterUnits="userSpaceOnUse" color-interpolation-filters="sRGB">
<feFlood flood-opacity="0" result="BackgroundImageFix"/>
<feColorMatrix in="SourceAlpha" type="matrix" values="0 0 0 0 0 0 0 0 0 0 0 0 0 0 0 0 0 0 127 0" result="hardAlpha"/>
<feOffset dy="4"/>
<feGaussianBlur stdDeviation="2"/>
<feComposite in2="hardAlpha" operator="out"/>
<feColorMatrix type="matrix" values="0 0 0 0 0 0 0 0 0 0 0 0 0 0 0 0 0 0 0.25 0"/>
<feBlend mode="normal" in2="BackgroundImageFix" result="effect1_dropShadow_4060_834"/>
<feBlend mode="normal" in="SourceGraphic" in2="effect1_dropShadow_4060_834" result="shape"/>
</filter>
</defs>
</svg>
