<svg width="243" height="469" viewBox="0 0 243 469" fill="none" xmlns="http://www.w3.org/2000/svg">
<path d="M81.9449 205.973C81.9527 205.946 83.5152 200.482 84.8276 207.88C84.4689 208.489 84.3578 209.048 84.4474 210.036L84.7467 209.886C84.4776 210.445 84.6281 210.966 84.6281 211.485C84.867 211.803 85.0162 211.126 85.1755 211.734C85.0659 212.822 85.1152 212.273 85.0056 213.361C84.8371 213.27 84.9462 212.714 84.6982 212.833C84.7969 212.935 84.7424 213.613 84.9625 213.685L84.7171 213.672C84.786 213.891 84.5366 214.021 84.5067 214.29C84.5764 214.43 84.6859 214.549 84.7656 214.251C84.8156 214.82 85.0446 215.648 84.7656 216.047C84.7056 216.586 84.4268 216.386 84.1777 216.505C84.1977 216.665 84.3189 216.936 84.4285 216.946L84.3881 217.005L84.5688 217.254C84.0305 218.292 84.7556 219.391 84.2074 220.26C84.1775 220.01 84.3579 219.582 84.0888 219.542L84.0591 220.33C84.0292 220.001 83.8994 219.721 83.7004 219.819C83.6905 220.938 83.9385 221.938 83.8488 223.266C83.4915 223.277 83.6704 224.124 83.3418 224.543C83.4116 224.493 83.4521 224.482 83.482 224.492C83.5418 224.293 83.6104 224.224 83.6303 224.673C83.6107 224.663 83.6011 224.672 83.5818 224.673C83.6017 224.742 83.6302 224.822 83.6897 224.882C83.5005 225.201 83.4328 225.141 83.4227 224.972C83.3928 225.231 83.3914 225.53 83.2124 225.272C82.9932 225.96 83.5112 226.091 83.571 226.5C83.4416 227.288 83.4105 227.598 83.3607 228.665L83.3229 228.526C83.2232 228.806 82.8826 228.875 82.8726 229.444C83.9391 230.043 82.7029 230.922 82.9023 232.21C83.291 232.1 83.0527 232.719 83.3418 232.699C82.8435 233.857 83.3904 234.895 82.9319 236.193L82.913 236.123C82.5944 236.452 82.6834 237.379 82.9023 237.719C82.6635 237.502 82.4946 238.138 82.2955 237.869C82.6203 238.184 82.3114 239.318 82.3036 239.346C81.9356 239.527 82.144 240.435 81.8155 240.954L82.1661 241.722L81.8964 241.434C81.8964 241.823 81.6663 241.863 81.5566 241.694C81.4872 241.863 81.5663 241.963 81.5863 242.222L81.3679 242.072C81.1984 242.522 81.767 242.791 81.767 242.412C82.3052 243.45 81.3585 242.922 81.7373 243.841L82.0555 244.052C82.2033 245.027 81.3972 244.31 81.616 245.307H81.3679C81.3978 245.567 81.3493 245.806 81.6483 245.756C81.449 246.645 81.0499 247.674 80.7908 248.352C80.7909 248.921 81.0385 248.163 81.198 248.463C81.4767 249.101 81.0278 249.231 80.8285 249.74L81.0982 249.621L80.8393 250.678L80.6614 250.499L80.5319 251.217C80.6712 251.446 80.6894 251.137 80.7989 250.918C80.6296 251.686 81.2487 252.415 80.691 253.144L80.4618 253.014C80.5309 253.033 80.5517 252.914 80.5319 252.844C80.2432 252.017 80.2118 253.39 80.033 253.404C80.3012 253.664 79.9729 254.332 80.3405 254.681C79.6029 255.989 80.2615 257.167 79.793 258.175C79.6236 257.886 79.5925 258.504 79.3831 258.444C79.1639 258.883 79.6438 258.825 79.5342 259.235L79.1539 259.574C79.5025 260.612 78.6158 260.183 78.6955 261.142C79.0436 261.8 78.1673 262.509 78.496 263.467H78.2479C78.3674 264.195 77.8499 264.495 77.9297 265.074C77.6506 265.184 77.8091 264.914 77.4901 264.894C77.6396 265.493 76.9913 264.675 77.2205 265.094C76.8126 265.863 78.0497 266.831 77.8703 267.6C78.1489 268.478 77.072 269.068 77.66 269.298L77.7598 268.877L77.66 270.026H77.4416C77.5305 270.506 77.0932 271.572 77.3715 272.191C77.3612 272.182 77.3316 272.223 77.2825 272.253C77.3916 272.861 77.0612 272.981 77.3499 273.55L77.2717 273.47C77.6799 274.459 77.2608 276.454 77.1611 277.912C76.8229 277.913 76.8321 278.761 76.8321 279.369C76.8518 279.181 76.6951 279.14 76.6542 279.101C76.9424 279.979 76.0154 280.788 76.3441 281.706L76.3036 281.666C76.0751 281.976 76.4535 283.043 75.8668 283.124C76.2054 284.152 76.0353 285.04 75.6268 286.418L75.5459 286.339C70.8149 295.328 72.5706 283.014 72.5877 282.895L72.9841 280.327C72.9338 280.323 72.8366 280.067 72.9059 279.988C72.5474 277.073 74.6498 274.099 74.3809 271.264C74.341 269.267 74.2911 265.812 75.0686 264.075C75.3672 262.587 75.0197 261.299 75.4083 259.902L75.7157 259.554C75.6161 259.274 75.5562 259.253 75.616 258.893C75.6856 259.103 75.796 258.886 75.8856 258.785L75.7454 258.365C76.1537 258.285 75.2196 257.279 75.6456 257.277L75.9557 257.167C77.0819 253.893 76.6041 249.879 77.242 246.285C77.6406 245.457 78.2983 245.008 78.4879 244.12L78.0996 244.078C78.0701 243.441 78.4386 243.978 78.6578 243.35L78.1589 243.53L78.2371 242.293L78.3072 242.502C78.347 242.073 78.3081 241.583 78.0591 241.553C78.2781 241.503 78.4379 241.632 78.5175 241.084C77.9595 240.994 78.0176 240.186 78.0375 239.428C78.1073 239.458 78.2069 239.169 78.2667 239.388C77.7584 237.661 79.1547 236.912 78.6065 235.224L78.6766 235.255C79.2248 234.047 78.6962 233.467 79.1944 232.12L78.9058 232.139C79.0753 231.501 79.1646 230.762 79.0649 230.023L79.1539 230.122L79.1863 229.625L79.2537 229.653C79.1943 229.434 79.3643 228.984 79.2348 228.555L79.3049 228.585C79.4642 228.326 79.4251 227.996 79.3454 227.707L79.6232 227.427C79.3842 226.579 79.952 225.45 79.6232 224.721C79.7427 223.294 79.8228 221.738 80.0519 220.291C80.2313 217.226 80.8792 216.516 81.3975 213.601L81.3679 213.612C81.5872 210.248 80.9681 208.699 81.9449 205.973Z" fill="#F5C469"/>
<path d="M111.077 208.959C111.077 208.959 109.87 204.008 114.455 208.959C114.416 209.598 114.586 210.077 115.124 210.776L115.313 210.516C115.343 211.065 115.71 211.395 115.949 211.784C116.298 211.894 116.12 211.316 116.537 211.694C116.946 212.563 116.738 212.124 117.147 213.002C116.957 213.012 116.788 212.534 116.629 212.753C116.789 212.786 117.086 213.43 117.325 213.231L117.047 213.381C117.216 213.511 117.058 213.732 117.157 213.951C117.277 214.021 117.427 214.049 117.357 213.79C117.666 214.2 118.253 214.71 118.193 215.149C118.392 215.588 118.053 215.568 117.894 215.788C117.983 215.907 118.214 216.047 118.304 215.997V216.067L118.571 216.166C118.59 217.215 119.727 217.684 119.657 218.613C119.528 218.443 119.477 218.033 119.229 218.133L119.568 218.743C119.389 218.513 119.151 218.374 119.021 218.542C119.529 219.391 120.206 220.02 120.744 221.068C120.435 221.248 120.984 221.807 120.895 222.286C120.935 222.207 120.965 222.178 120.995 222.178C120.945 221.998 120.983 221.908 121.202 222.237C121.184 222.238 121.174 222.263 121.165 222.266C121.224 222.306 121.282 222.357 121.362 222.367C121.351 222.706 121.262 222.695 121.173 222.565C121.272 222.775 121.401 222.995 121.132 222.896C121.262 223.525 121.772 223.365 122.011 223.644C122.261 224.303 122.378 224.553 122.837 225.382L122.74 225.291C122.789 225.551 122.519 225.771 122.777 226.21C123.973 226.13 123.318 227.407 124.085 228.286C124.373 228.018 124.443 228.595 124.692 228.436C124.801 229.554 125.747 230.073 125.957 231.281L125.908 231.241C125.778 231.64 126.287 232.3 126.636 232.45C126.327 232.4 126.476 232.967 126.178 232.868C126.608 232.938 126.864 233.938 126.873 233.976C126.644 234.295 127.242 234.885 127.202 235.434L127.86 235.843L127.494 235.753C127.663 236.042 127.482 236.184 127.313 236.114C127.323 236.273 127.443 236.303 127.583 236.493H127.324C127.394 236.912 128 236.842 127.831 236.552C128.778 237.071 127.722 237.142 128.47 237.651H128.847C129.435 238.32 128.411 238.17 129.058 238.818L128.839 238.939C128.978 239.119 129.058 239.317 129.287 239.137C129.536 239.906 129.666 240.875 129.756 241.524C130.025 241.952 129.886 241.266 130.163 241.403C130.702 241.743 130.363 242.073 130.433 242.553L130.614 242.332L130.881 243.262L130.643 243.222L130.862 243.83C131.081 243.939 130.951 243.69 130.951 243.471C131.16 244.14 132.047 244.379 131.897 245.208L131.638 245.228C131.708 245.208 131.669 245.107 131.619 245.067C130.992 244.589 131.599 245.637 131.45 245.737C131.818 245.796 131.839 246.465 132.318 246.545C132.288 247.902 133.404 248.472 133.464 249.46C133.185 249.31 133.444 249.801 133.235 249.861C133.255 250.309 133.634 250.03 133.734 250.389L133.553 250.827C134.34 251.436 133.364 251.557 133.882 252.246C134.49 252.565 134.052 253.533 134.788 254.102L134.57 254.223C135.008 254.712 134.701 255.2 135.039 255.599C134.859 255.819 134.869 255.541 134.58 255.681C134.987 256.059 134.042 255.77 134.44 255.969C134.45 256.748 135.964 256.868 136.163 257.537C136.821 258.066 136.155 259.044 136.773 258.924L136.662 258.556L137.113 259.475L136.921 259.583C137.23 259.902 137.342 260.931 137.87 261.26C137.86 261.26 137.849 261.311 137.819 261.351C138.198 261.76 137.97 262.01 138.488 262.3L138.377 262.28C139.184 262.829 139.752 264.545 140.34 265.693C140.052 265.863 140.46 266.492 140.739 266.961C140.67 266.813 140.513 266.851 140.462 266.851C141.109 267.37 140.69 268.438 141.397 268.967H141.349C141.299 269.307 142.124 269.937 141.646 270.286C142.413 270.895 142.683 271.643 142.972 272.891L142.862 272.871C142.941 282.017 138.75 271.851 138.706 271.744L137.859 269.606C137.82 269.626 137.612 269.488 137.63 269.388C135.976 267.361 136.413 264.066 134.858 262.06C133.901 260.562 132.258 257.977 132.118 256.28C131.68 255.002 130.782 254.212 130.473 252.955L130.584 252.536C130.375 252.367 130.302 252.386 130.193 252.087C130.342 252.207 130.344 251.987 130.374 251.867L130.055 251.627C130.372 251.367 129.099 251.078 129.468 250.858L129.686 250.618C129.128 247.594 126.855 244.799 125.738 241.764C125.698 240.946 126.057 240.276 125.808 239.507L125.45 239.668C125.131 239.199 125.698 239.427 125.598 238.838L125.25 239.219L124.743 238.25L124.902 238.369C124.733 238.03 124.473 237.682 124.244 237.781C124.424 237.641 124.611 237.651 124.422 237.202C123.894 237.421 123.574 236.772 123.236 236.193C123.305 236.183 123.267 235.924 123.416 236.052C122.171 235.004 123.027 233.738 121.771 232.73H121.842C121.752 231.552 121.025 231.37 120.836 230.103L120.585 230.263C120.435 229.694 120.167 229.095 119.738 228.585L119.857 228.616L119.657 228.207H119.727C119.568 228.077 119.508 227.658 119.199 227.379H119.269C119.289 227.1 119.1 226.869 118.891 226.69L118.999 226.339C118.392 225.83 118.362 224.692 117.735 224.303C117.177 223.165 116.518 221.948 116.049 220.74C114.783 218.334 115.004 217.485 114.108 215.019H114.116C112.75 212.374 111.495 211.505 111.077 208.959Z" fill="#F5C469"/>
<path d="M59.1288 197.599C68.5678 193.806 59.1665 202.131 59.1665 202.131L57.2142 203.829C57.2424 203.862 57.1638 204.117 57.0551 204.137C55.4603 206.583 51.931 207.482 50.3162 209.818C49.0602 211.356 46.8672 214.02 45.163 214.839C43.9771 215.777 43.4193 216.985 42.2236 217.794L41.7544 217.864C41.6448 218.134 41.6855 218.194 41.4066 218.423C41.4863 218.224 41.2557 218.313 41.1261 218.333L40.967 218.743C40.6082 218.533 40.6776 219.9 40.3387 219.63L40.0313 219.511C37.0711 221.278 34.8472 224.642 32.0466 226.958C31.1994 227.338 30.4128 227.259 29.6951 227.808L29.9621 228.088C29.5743 228.585 29.6444 227.938 29.0668 228.277L29.563 228.467L28.7082 229.354L28.7864 229.156C28.4777 229.455 28.1991 229.855 28.3684 230.034C28.1691 229.925 28.1297 229.735 27.7212 230.094C28.089 230.523 27.5209 231.102 27.0228 231.67C26.9925 231.611 26.7336 231.76 26.8232 231.56C26.0956 233.198 24.5517 232.869 23.8839 234.507L23.8542 234.445C22.6681 235.004 22.6867 235.794 21.4408 236.493L21.6808 236.671C21.1426 237.05 20.6036 237.551 20.1949 238.179V238.05L19.847 238.408L19.8174 238.349C19.7277 238.559 19.3065 238.79 19.127 239.199L19.0974 239.137C18.8087 239.227 18.621 239.499 18.5014 239.778L18.1104 239.807C17.7516 240.615 16.5958 241.106 16.3765 241.874C15.3603 242.882 14.2949 244.02 13.1891 244.968C11.076 247.184 10.1277 247.315 7.85515 249.191L7.78504 249.152C5.45311 251.567 4.9231 253.144 2.42145 254.582C2.35072 254.629 -2.28277 257.717 1.45606 251.268C2.12388 251.038 2.5733 250.678 3.14145 249.87L2.81246 249.79C3.37021 249.541 3.59009 249.041 3.92886 248.652C3.9488 248.263 3.40086 248.682 3.66999 248.112C4.45646 247.365 4.05852 247.734 4.84572 246.985C4.91456 247.165 4.46714 247.523 4.73515 247.593C4.72782 247.437 5.2121 246.962 5.08841 246.765L5.26369 246.934C5.35357 246.715 5.62267 246.785 5.82189 246.595C5.87172 246.446 5.85262 246.287 5.60347 246.457C5.93226 245.988 6.28944 245.207 6.75762 245.087C7.15623 244.708 7.23819 245.048 7.50729 245.118C7.58958 245.002 7.64962 244.792 7.62594 244.677L7.42908 244.73C7.50622 244.677 7.57634 244.664 7.62054 244.664C7.61525 244.646 7.61806 244.629 7.60706 244.618L7.67448 244.598L7.70684 244.29C8.77227 243.85 8.9317 242.543 9.90728 242.233C9.76727 242.433 9.36134 242.653 9.54054 242.852L10.0772 242.273C9.88794 242.542 9.80943 242.842 10.0286 242.892C10.7561 242.043 11.2051 241.135 12.132 240.177C12.4111 240.404 12.8303 239.648 13.3482 239.538C13.2585 239.538 13.2179 239.517 13.208 239.487C13.0286 239.607 12.9291 239.608 13.208 239.258C13.218 239.278 13.2385 239.277 13.2484 239.287C13.2781 239.217 13.2969 239.137 13.2969 239.058C13.6455 238.928 13.6552 239.018 13.5558 239.157C13.7551 238.977 13.9444 238.76 13.9145 239.069C14.5224 238.69 14.2158 238.26 14.4349 237.911C15.0328 237.402 15.2501 237.191 15.9774 236.402L15.9181 236.543C16.1772 236.394 16.4778 236.563 16.8565 236.134C16.4279 234.986 17.9314 235.115 18.6093 234.007C18.2518 233.837 18.8185 233.528 18.5904 233.348C19.7067 232.799 19.9661 231.66 21.1522 230.961L21.1226 231.032C21.5809 230.991 22.1082 230.222 22.1581 229.823C22.2078 230.142 22.746 229.775 22.727 230.103C22.6791 229.659 23.6382 228.992 23.6628 228.975C24.0613 229.075 24.4899 228.246 25.0677 228.066L25.3185 227.258V227.647C25.5776 227.368 25.7772 227.479 25.7473 227.678C25.9067 227.598 25.8952 227.467 26.0547 227.258L26.1248 227.518C26.5431 227.288 26.2956 226.71 26.0466 226.998C26.3057 225.861 26.6842 226.868 26.9931 225.93L26.8852 225.564C27.4004 224.727 27.5517 225.788 28.0286 224.893L28.2174 225.062C28.3669 224.853 28.5574 224.702 28.2983 224.543C29.0158 223.994 29.9821 223.474 30.6201 223.125C30.9786 222.696 30.3242 223.105 30.3828 222.777C30.5821 222.108 31.01 222.307 31.4884 222.048L31.2079 221.958L32.087 221.319L32.1167 221.568L32.6749 221.108C32.714 220.85 32.5047 221.07 32.2758 221.169C32.8938 220.7 32.8942 219.732 33.7913 219.542L33.8803 219.78C33.8403 219.731 33.7512 219.801 33.7212 219.87C33.4026 220.688 34.3065 219.664 34.4574 219.771C34.4175 219.392 35.0951 219.102 35.0452 218.593C36.4401 218.074 36.711 216.747 37.7068 216.287C37.638 216.615 38.0673 216.167 38.1868 216.347C38.6348 216.147 38.2371 215.887 38.5859 215.638H39.0929C39.4916 214.62 39.8911 215.528 40.4493 214.74C40.6087 214.011 41.7333 214.04 42.1023 213.092L42.2938 213.262C42.6626 212.623 43.2503 212.732 43.5693 212.242C43.8582 212.332 43.5585 212.443 43.7877 212.663C44.0668 212.114 44.0378 213.152 44.1275 212.683C44.9243 212.363 44.6162 210.827 45.2439 210.358C45.6026 209.499 46.7963 209.748 46.4978 209.199L46.1499 209.448L46.967 208.64L47.1369 208.779C47.3865 208.36 48.4036 207.831 48.5931 207.182C48.6036 207.202 48.6519 207.193 48.7009 207.202C49.0199 206.663 49.3388 206.782 49.4884 206.163L49.5099 206.273C49.8394 205.255 51.4436 204.008 52.46 202.97C52.7194 203.188 53.2482 202.53 53.6466 202.072C53.5073 202.201 53.6061 202.331 53.6061 202.391C53.9549 201.543 55.1795 201.522 55.5288 200.614V200.673C55.9075 200.584 56.3061 199.527 56.8043 199.845C57.213 198.837 57.9128 198.278 59.1288 197.489V197.599Z" fill="#F5C469"/>
<path d="M5.03448 246.714C5.05938 246.728 5.07628 246.746 5.08841 246.765L5.03448 246.714Z" fill="#F5C469"/>
<path d="M16.3684 241.938C16.3684 241.917 16.3869 241.895 16.3873 241.874L16.3981 241.863L16.3684 241.938Z" fill="#F5C469"/>
<path d="M26.8852 225.564C26.884 225.566 26.8838 225.569 26.8825 225.571L26.834 225.382L26.8852 225.564Z" fill="#F5C469"/>
<path d="M79.6178 224.725V224.736L79.5962 224.662C79.6066 224.683 79.6175 224.704 79.6178 224.725Z" fill="#F5C469"/>
<path d="M84.6173 216.726C84.5869 216.879 84.5251 216.93 84.4744 216.93L84.6173 216.726Z" fill="#F5C469"/>
<path d="M118.347 215.777C118.386 215.914 118.322 216.005 118.317 216.012L118.347 215.777Z" fill="#F5C469"/>
<path d="M85.0353 213.691C85.0074 213.698 84.9845 213.692 84.9625 213.685L85.0353 213.691Z" fill="#F5C469"/>
<path d="M195.841 0.0139216C196.538 0.0139216 197.277 -0.0361238 198.074 0.053557C198.871 0.123439 199.731 0.192862 200.668 0.262744C201.136 0.302639 201.624 0.341754 202.132 0.38165C202.64 0.441522 203.168 0.561518 203.726 0.661299L202.58 0.542393C203.796 0.851869 204.584 1.221 205.64 1.61035C206.717 1.93976 208.002 2.57967 210.284 3.26842C212.447 2.86912 215.498 4.19534 218.768 6.61101C221.987 9.11677 225.297 12.6923 228.626 16.7555C228.457 15.2289 231.283 19.8544 231.455 19.2018C233.847 23.7639 235.683 27.8469 237.377 32.1494C239.051 36.442 240.396 41.0041 241.074 46.4247L240.915 45.8852C240.945 47.3827 241.284 49.9196 241.743 52.3854C242.142 54.851 242.661 57.2572 242.999 58.4651C242.332 57.0276 242.619 62.2575 241.991 60.3918C242.439 61.4403 242.76 64.3448 242.859 66.98C242.989 69.6155 242.929 71.9719 242.929 71.9719C242.322 73.7793 242.957 80.718 242.25 85.0604C242.469 86.9469 242.689 88.8439 242.878 90.7304L242.382 88.7024C242.322 91.6867 241.843 92.2169 241.654 91.0101C241.475 92.3372 241.644 93.0361 241.624 95.0419L241.204 94.0928C240.765 97.7065 241.853 99.2949 241.942 96.3807C242.142 98.2465 242.25 99.4243 242.25 100.263C242.25 101.101 242.14 101.611 242.021 102.09C241.791 103.069 241.483 103.897 241.932 107.241L242.611 108.555C243.078 115.955 241.343 111.217 241.961 118.682L241.462 118.902C241.562 120.849 241.534 122.745 242.112 122.086C241.933 129.124 241.355 137.381 240.996 142.902C241.145 147.254 241.444 141.244 241.843 143.351C242.55 148.003 241.683 149.46 241.414 153.583L241.921 152.425L241.662 160.861L241.255 159.683L241.174 165.344C241.503 166.95 241.463 164.544 241.632 162.737C241.483 168.837 242.91 173.869 241.983 180.029L241.495 179.3C241.633 179.354 241.643 178.441 241.584 177.913C240.816 171.813 241.104 182.415 240.745 182.704C241.353 184.451 240.866 189.893 241.684 192.239C240.567 203.03 242.161 211.486 241.503 219.682C241.104 217.556 241.185 222.353 240.767 222.137C240.438 225.761 241.375 224.833 241.266 228.098L240.597 231.062C241.574 238.699 239.69 236.284 240.109 243.622C240.976 248.353 239.421 254.663 240.338 261.77L239.839 261.99C240.278 267.441 239.33 270.267 239.639 274.689C239.132 275.845 239.37 273.603 238.733 273.751C239.182 278.251 237.667 272.583 238.245 275.596C237.657 281.915 240.348 288.165 240.208 294.245C241.016 300.743 239.032 306.364 240.257 307.523L240.346 304.178L240.467 313.133L240.028 313.373C240.337 317.007 239.758 325.632 240.475 330.135C240.436 330.088 240.397 330.415 240.308 330.663C240.687 335.285 240.077 336.494 240.804 340.627L240.616 340.127C241.702 347.375 241.433 363.158 241.632 374.469C240.965 374.819 241.235 381.298 241.395 386.029C241.375 384.535 241.057 384.393 240.966 384.144C241.773 390.643 240.177 397.79 241.074 404.528L240.985 404.279C240.616 406.865 241.673 414.741 240.527 415.949C241.484 423.577 241.404 430.536 240.985 441.587L240.796 441.087C233.942 515.465 233.968 417.67 233.968 417.577L234.039 397.38C233.939 397.39 233.66 395.534 233.78 394.815C232.265 372.753 235.612 347.676 234.287 326.123C233.679 310.789 232.632 284.182 233.699 270.036C233.888 258.266 232.861 248.762 233.259 237.571L233.788 234.527C233.529 232.491 233.391 232.419 233.421 229.584C233.61 231.111 233.779 229.295 233.928 228.437L233.54 225.372C234.326 224.363 232.206 217.612 233.06 217.097L233.65 215.938C235.006 189.573 233.03 159.133 233.488 130.791C234.096 123.973 235.282 119.85 235.522 112.803L234.745 112.851C234.566 107.961 235.402 111.773 235.721 106.684L234.767 108.56C234.717 105.375 234.776 102.091 234.796 98.8469L234.945 100.423C234.955 99.5749 234.955 98.7056 234.955 97.867C234.975 97.0486 234.975 96.2601 234.955 95.5814C234.916 94.2338 234.795 93.2957 234.546 93.2957C235.004 92.7666 235.315 93.574 235.554 89.3212C234.428 89.1714 234.666 82.9531 234.527 77.1729C234.666 77.2974 234.784 75.068 234.964 76.6335C234.256 70.3441 234.326 65.4824 234.217 60.6406C234.097 55.8188 233.8 50.9767 231.876 45.2665L232.035 45.3656C231.706 43.03 231.356 41.0339 230.838 39.2771C230.389 37.4904 229.791 35.9231 229.193 34.3359C227.897 31.2015 226.593 27.9662 224.261 23.5243L223.961 24.1629C221.759 20.1 218.34 16.0162 214.124 13.5802C214.333 13.6203 214.502 13.7098 214.701 13.7696C213.794 13.1107 212.776 12.6016 211.829 11.9926L211.999 11.9332C211.84 11.8633 211.67 11.7642 211.471 11.6645C211.271 11.5747 211.043 11.4736 210.794 11.3739C210.305 11.1543 209.757 10.8947 209.16 10.6252C208.861 10.4955 208.571 10.3354 208.243 10.2156C207.914 10.1158 207.565 10.0159 207.226 9.91615C206.538 9.72652 205.84 9.54725 205.152 9.4075L205.301 9.30841C204.882 9.06882 204.384 8.96697 203.896 8.83719C203.398 8.71746 202.888 8.61873 202.38 8.52892C201.872 8.4491 201.374 8.33861 200.857 8.32854C200.339 8.32854 199.84 8.33838 199.352 8.34836L197.227 7.65033C195.802 7.77011 194.196 7.89901 192.532 7.91897C190.848 8.07868 189.083 8.24913 187.349 8.41882C184 8.85682 180.8 9.80111 178.707 11.0237C178.731 11.0144 178.76 11.0039 178.76 11.0039L178.324 11.2241C178.425 11.1682 178.546 11.1028 178.658 11.0458C176.316 11.9222 173.974 13.016 171.682 14.3179C170.516 14.9368 169.398 15.6758 168.252 16.3745C167.136 17.1331 166 17.8626 164.913 18.691C160.498 21.8853 156.382 25.6694 152.555 29.5026C148.677 33.6855 145.695 37.2901 143.103 40.5146C140.522 43.7486 138.321 46.604 136.178 49.4987C131.942 55.3088 127.793 61.1408 122.231 71.014L122.242 71.0625C116.291 82.5031 112.912 91.159 109.662 99.2652C106.463 107.391 103.453 115.03 99.1668 125.013C99.1432 125.069 98.1063 127.553 96.8747 130.493C95.6091 133.448 94.1044 136.891 93.0779 138.588C92.0313 140.385 91.3332 140.426 91.6621 136.692C92.0409 132.948 93.4654 125.311 97.4922 111.874C99.8745 107.371 101.598 103.248 104.21 96.2001L103.115 97.3077C105.297 93.245 106.514 89.5221 108.109 85.8487C108.537 83.6524 106.135 88.4527 107.65 84.14C111.318 76.4443 109.443 80.2765 113.27 72.6501C113.33 73.289 111.219 77.273 112.186 76.4045C112.276 75.6567 114.659 70.9584 114.465 70.3931L114.956 70.4834C115.554 68.9463 116.551 68.087 117.558 66.2204C117.906 65.2524 118.055 64.4552 116.83 66.4912C118.713 62.5082 121.296 56.7981 123.469 54.1624C125.721 50.5292 125.522 51.9553 126.578 51.1876C127.216 50.0794 128.002 48.2905 127.813 48.1907L128.164 47.8031L128.811 46.0856C131.562 42.7313 133.783 39.2663 136.046 35.9918C138.289 32.7074 140.603 29.6234 143.424 27.1575C142.198 28.635 139.754 31.1909 140.123 31.5703C141.429 29.9633 142.754 28.3656 144.12 26.7986C142.506 28.7843 141.431 30.5507 142.356 30.0531C145.107 26.6688 147.73 23.5432 150.71 20.4085C153.69 17.2941 157.029 14.1294 161.424 11.0149C161.822 11.2046 163.278 10.206 165.161 9.10803C165.63 8.82852 166.119 8.53876 166.618 8.24927C167.126 7.96974 167.644 7.70071 168.163 7.44115C169.189 6.91204 170.227 6.48199 171.124 6.21245C170.615 6.32226 170.445 6.3023 170.495 6.21245C168.97 6.88126 168.332 7.0415 171.531 5.34488C171.492 5.40379 171.602 5.38445 171.641 5.40433C172.13 5.08489 172.679 4.79425 172.998 4.51474C174.368 4.09713 174.956 3.96746 175.069 4.0259C175.168 4.07579 174.761 4.28592 174.144 4.5852C176.147 3.77669 178.378 2.96931 176.743 3.97746C179.504 3.15884 180.971 2.59966 182.147 2.07056C183.313 1.5016 184.19 1.0506 185.804 0.661299C187.429 0.451655 188.795 0.372705 190.081 0.242926C190.719 0.183027 191.337 0.122263 191.955 0.0623648C192.583 0.0523854 193.21 0.0425532 193.848 0.0425472C194.486 0.0325702 195.144 0.0139462 195.841 0.0139216Z" fill="#8BA7ED"/>
<path d="M242.948 109.209L242.611 108.555V108.549L242.948 109.209Z" fill="#8BA7ED"/>
<path d="M114.308 70.3645C114.396 70.3187 114.444 70.332 114.465 70.3931L114.308 70.3645Z" fill="#8BA7ED"/>
<path d="M126.686 49.4612C127.41 48.4155 127.719 48.0937 127.829 48.1312L126.686 49.4612Z" fill="#8BA7ED"/>
<path d="M72.5284 170.454C72.5263 170.457 72.528 170.462 72.5258 170.465C72.5246 170.456 72.5241 170.447 72.5231 170.438L72.5284 170.454Z" fill="#CB90BE"/>
<path fill-rule="evenodd" clip-rule="evenodd" d="M96.0349 133.315C96.9315 133.565 97.7877 133.785 98.6345 133.925C99.4817 134.085 100.341 134.096 101.188 134.255C102.045 134.385 102.913 134.524 103.82 134.733C104.717 134.973 105.623 135.342 106.56 135.801H106.341C106.78 136.23 107.666 136.64 108.582 136.94C109.509 137.229 110.468 137.399 111.007 137.409C110.259 137.628 111.961 138.717 111.096 138.787C111.624 138.668 112.701 139.057 113.558 139.606C114.407 140.124 115.122 140.661 115.151 140.683C115.271 141.132 115.929 141.652 116.726 142.191C117.523 142.72 118.391 143.379 118.87 144.107C119.607 144.337 120.374 144.567 121.092 144.847L120.127 144.776C121.023 145.495 120.883 145.964 120.375 145.844C120.684 146.264 121.002 146.285 121.639 146.734L121.052 146.844C121.919 147.922 123.126 147.562 122.289 146.793C123.763 147.342 123.954 147.781 124.064 148.2C124.183 148.62 124.223 149.04 125.439 149.689L126.302 149.614C128.583 151.475 126.018 151.189 128.349 153.014L128.001 153.382C128.529 153.911 128.938 154.511 129.257 153.972C130.742 156.268 131.967 159.223 132.644 161.21C133.581 162.567 132.725 160.452 133.461 160.95C134.957 162.158 134.44 163.067 134.899 164.574L135.166 163.956C135.554 164.954 135.955 165.942 136.304 166.95L135.745 166.71C136.015 167.369 136.302 168.019 136.541 168.688C137.079 169.117 136.703 168.297 136.573 167.609C136.962 168.697 137.668 169.536 138.256 170.445C138.545 170.894 138.834 171.363 139.014 171.872C139.113 172.131 139.185 172.4 139.235 172.68C139.255 172.819 139.274 172.969 139.294 173.129C139.324 173.329 139.363 173.619 139.383 173.869C139.174 173.759 138.965 173.658 138.766 173.558C138.835 173.557 138.824 173.417 138.785 173.268C138.755 173.148 138.696 173.038 138.636 172.948C137.889 171.991 137.918 172.441 138.097 173.14C138.226 173.619 138.396 174.208 138.526 174.677C138.665 175.216 138.746 175.616 138.666 175.666C139.154 176.125 139.473 177.162 139.842 178.24C140.18 179.318 140.54 180.446 141.158 181.325C141.168 182.053 141.226 182.743 141.306 183.432C141.346 183.771 141.397 184.121 141.457 184.46L141.546 184.98L141.605 185.237V185.308C141.605 185.328 141.548 185.328 141.546 185.328H141.416C140.001 185.418 138.754 185.598 137.528 185.788C136.9 185.868 136.342 186.008 135.665 186.048C135.007 186.108 134.339 186.157 133.672 186.187C133.004 186.226 132.325 186.226 131.657 186.226C131.329 186.226 130.991 186.217 130.662 186.198L130.163 186.167C130.014 186.147 129.794 186.136 129.735 186.116C129.814 186.057 129.952 186.017 129.983 185.977C130.032 185.938 130.024 185.908 129.975 185.878C129.845 185.828 129.713 185.788 129.554 185.748C129.236 185.679 128.82 185.598 128.858 185.389C127.553 185.09 127.9 186.007 126.733 185.927L125.657 185.279C122.947 186.307 123.773 184.411 121.162 184.87C119.488 185.778 117.204 184.259 114.682 185.218L114.593 184.72C112.65 185.189 111.624 184.251 110.049 184.59C109.621 184.091 110.437 184.31 110.368 183.672C108.773 184.141 110.765 182.593 109.699 183.192C107.436 182.634 105.254 185.378 103.081 185.268C100.769 186.107 98.7266 184.162 98.3379 185.389L99.5325 185.458L96.3343 185.627L96.2426 185.189C94.9463 185.518 91.8586 184.98 90.2642 185.729C90.2841 185.689 90.1624 185.649 90.0727 185.559C88.4291 185.958 87.9788 185.359 86.5239 186.107L86.6938 185.918C84.1221 187.036 78.4821 186.845 74.4457 187.105C74.3052 186.447 71.9931 186.747 70.3091 186.926C70.8462 186.896 70.8856 186.576 70.9752 186.486C68.6628 187.324 66.081 185.757 63.6889 186.695L63.7806 186.596C62.8536 186.237 60.062 187.325 59.6035 186.187C56.9026 187.185 54.4104 187.135 50.4539 186.766L50.6211 186.576C47.8389 185.894 45.7268 185.277 44.1734 184.722C43.6606 185.13 43.161 185.042 42.7469 184.165C39.7093 182.839 40.1521 181.902 42.1941 181.237C42.1062 179.598 42.2033 177.322 42.6687 174.256C43.8743 172.759 44.5433 171.322 45.3006 168.688L44.5725 168.925C45.6285 167.588 45.8668 166.13 46.4548 164.792C46.3446 163.836 45.3095 165.511 45.6781 163.815C47.1832 161.069 46.3871 162.418 47.9918 159.712C48.1795 160.063 47.2646 161.44 47.8921 161.3C47.8283 160.953 48.8054 159.244 48.4826 158.904L48.9276 159.122C49.0972 158.504 49.736 158.394 50.1545 157.735C50.2243 157.336 50.1634 156.957 49.6152 157.636C50.303 156.158 51.1502 153.891 52.3065 153.192C53.2731 151.925 53.433 152.693 54.0808 152.653C54.3299 152.253 54.5684 151.515 54.399 151.376L54.5797 151.277L54.6984 150.497C55.3659 150.008 55.9637 149.509 56.462 148.921C56.9603 148.341 57.41 147.731 57.8885 147.152C58.3567 146.574 58.8058 145.975 59.3339 145.496C59.8721 145.017 60.4512 144.608 61.119 144.338C60.6409 144.867 59.4744 145.535 59.8112 145.954L61.5073 144.378C60.8594 145.097 60.4902 145.836 61.0085 145.886C63.281 143.64 65.1545 141.373 68.6129 139.366C68.8621 139.656 69.4213 139.335 70.1689 139.036C70.9063 138.726 71.7733 138.328 72.4907 138.298C72.2814 138.268 72.2022 138.207 72.2022 138.137C71.6243 138.337 71.3548 138.308 72.5096 137.64C72.5101 137.688 72.5594 137.699 72.5797 137.728C72.7491 137.588 72.9403 137.44 73.03 137.27C74.1156 137.18 74.0151 137.379 73.5666 137.609C74.3042 137.349 75.0816 136.98 74.5833 137.609C75.1012 137.489 75.4701 137.339 75.759 137.16C76.048 137 76.2673 136.83 76.4466 136.64C76.8152 136.271 77.0559 135.873 77.6035 135.603C78.7592 135.284 79.5769 135.153 80.4835 134.953C80.942 134.844 81.4219 134.733 81.9801 134.603C82.5382 134.474 83.1965 134.394 83.9837 134.244L83.5954 134.414C84.4918 134.454 84.8608 135.003 86.5239 134.784C87.112 133.616 88.2501 133.556 89.6655 133.696C90.3728 133.806 91.1498 133.975 91.9765 134.075C92.3851 134.125 92.8144 134.165 93.2628 134.165C93.7012 134.195 94.1599 134.205 94.6381 134.165C94.2394 133.376 96.1246 133.904 96.0349 133.315ZM48.0808 178.279C47.7729 178.91 47.444 179.565 47.075 180.248C47.0731 180.252 47.0579 180.279 47.0345 180.327C47.6396 180.256 48.2623 180.195 48.8898 180.138C48.6092 179.637 48.3378 179.025 48.0808 178.279ZM87.5352 178.242C87.1474 178.699 87.5954 177.183 87.3464 177.762C86.7486 177.193 86.2997 179.906 85.7419 179.779C85.7226 179.808 85.6966 179.829 85.6772 179.851C87.0605 179.899 88.4222 179.879 89.7518 179.748C89.4267 179.587 89.0491 179.251 88.6812 179.818L88.6408 179.319C88.1628 179.767 87.8749 178.832 87.4866 179.149C87.3673 178.651 87.5748 178.88 87.5352 178.242ZM85.119 179.825C84.8223 179.562 84.5939 179.13 84.5527 179.796C84.7418 179.807 84.9306 179.816 85.119 179.825ZM84.008 179.638C83.9307 179.715 83.824 179.739 83.7033 179.744C83.8086 179.751 83.9136 179.761 84.0188 179.768L84.008 179.638ZM90.7118 179.636C90.6168 179.489 90.5011 179.408 90.3073 179.539C90.2772 179.607 90.2404 179.658 90.2075 179.7C90.3761 179.68 90.5444 179.66 90.7118 179.636ZM58.0098 179.559C57.9445 179.591 57.8817 179.626 57.8184 179.658C57.9486 179.655 58.0685 179.653 58.177 179.651C58.1193 179.622 58.0624 179.593 58.0098 179.559ZM64.1042 177.804C64.0831 178.058 63.9101 178.31 63.6485 178.621L63.4678 178.561C62.4036 179.064 61.4992 179.415 60.7415 179.629L64.8889 179.611C64.463 179.108 64.2149 178.413 64.1042 177.804ZM70.2983 177.868C69.4574 178.204 68.8272 178.683 68.3001 179.116C69.1814 178.991 70.0749 178.919 70.9779 178.887C70.6964 178.522 70.4719 178.183 70.2983 177.868ZM132.288 177.59C131.979 177.621 131.69 177.648 131.417 177.669C131.433 177.722 131.446 177.773 131.461 177.812C131.49 177.871 131.44 177.763 131.52 177.942C131.56 178.012 131.612 178.081 131.612 178.081V178.072L131.719 178.141C132.001 178.309 132.275 178.447 132.531 178.57L132.507 178.42L132.426 178.061C132.388 177.905 132.336 177.748 132.288 177.59ZM115.634 178.132C115.396 178.019 115.268 178.194 115.173 178.436C115.314 178.422 115.454 178.408 115.594 178.394C115.584 178.342 115.592 178.261 115.634 178.132ZM116.211 178.33C116.237 178.327 116.263 178.324 116.289 178.321C116.245 178.287 116.202 178.241 116.163 178.18C116.188 178.235 116.202 178.286 116.211 178.33ZM48.7361 176.885C48.5461 177.308 48.3459 177.738 48.1321 178.178C48.7763 177.994 48.9683 177.663 48.8629 176.914L48.7361 176.885ZM130.886 177.707C130.819 177.98 130.725 178.356 130.813 178.03C130.788 178.245 130.843 178.044 130.927 177.705C130.913 177.705 130.9 177.706 130.886 177.707ZM63.5676 176.914C63.8397 177.146 63.9919 177.345 64.061 177.531C64.0551 177.48 64.0434 177.431 64.0395 177.383C64.0239 177.216 64.0169 177.06 64.0152 176.921C63.9219 176.941 63.7793 176.944 63.5676 176.914ZM131.749 176.176C131.637 176.202 131.66 176.208 131.765 176.205C131.761 176.195 131.754 176.186 131.749 176.176ZM131.746 176.17C131.616 176.185 131.564 176.193 131.749 176.176L131.746 176.17ZM102.143 173.602C102.189 173.832 102.209 174.184 102.477 174.327L102.337 173.719C102.27 173.677 102.209 173.634 102.143 173.602ZM101.061 173.439C101.33 173.817 101.598 174.143 101.919 174.208L101.881 173.505C101.606 173.42 101.335 173.406 101.061 173.439ZM72.79 169.137C72.9857 169.434 72.6242 169.445 72.426 169.522C72.4228 169.578 72.4198 169.656 72.426 169.766L72.5662 169.617C72.5176 169.763 72.4787 170.08 72.5231 170.438L72.186 169.67C71.8891 169.578 72.0309 169.53 71.5064 169.337C71.8218 169.733 70.5502 168.888 71.0156 169.256C70.3318 169.376 72.7053 170.671 72.4529 170.923C73.0709 171.532 71.0974 171.144 72.2237 171.623L72.372 171.482L72.3019 171.982L71.884 171.843C72.049 172.062 71.6735 172.258 71.7383 172.545L72.8466 173.884C72.9889 173.859 73.126 173.836 73.2565 173.818C73.159 173.407 73.084 172.907 73.0543 172.312C73.0438 172.097 73.0416 171.874 73.0462 171.638L72.5284 170.454C72.7391 170.154 72.8632 169.454 73.0813 169.24L72.79 169.137ZM95.9082 173.166C95.945 173.158 95.9819 173.149 96.0188 173.14C95.985 172.939 95.9374 172.718 95.7976 172.611L95.9082 173.166ZM96.1994 173.096C96.2992 173.07 96.3988 173.044 96.4988 173.017C96.3908 172.864 96.2832 172.754 96.1671 172.722L96.1994 173.096ZM65.2233 172.323C65.2319 172.317 65.239 172.309 65.2476 172.303L65.1532 172.25C65.1783 172.274 65.2006 172.299 65.2233 172.323ZM66.0269 169.628C65.866 169.912 64.7318 169.715 65.6332 170.154L65.8004 169.984L65.6925 170.575L65.2745 170.425C65.4725 170.764 64.7167 171.084 65.2745 171.603C65.2447 171.583 65.1938 171.582 65.1046 171.572C65.3265 171.968 64.7651 171.859 65.261 172.294C65.9328 171.815 66.5867 171.353 66.2129 170.575C66.1478 170.3 66.0761 169.971 66.0269 169.628ZM74.1653 167.849C74.9029 168.617 73.2107 167.769 73.4399 168.298C74.1465 168.866 72.5716 168.608 73.2592 169.306L73.0974 169.247C73.1372 169.555 73.1781 169.605 73.2242 169.617L73.235 169.546L73.2646 169.436V169.337L73.3374 169.419C73.342 169.376 73.3506 169.328 73.3725 169.278C73.3923 169.317 73.3941 169.347 73.3941 169.377V169.097C73.4874 169.359 73.5051 169.506 73.4831 169.582L73.4938 169.593C73.526 169.581 73.5532 169.56 73.572 169.681L73.6745 169.793C73.6868 169.529 73.6457 169.027 73.6718 168.877C73.8311 168.917 73.8912 168.878 74.0601 168.659V168.778C74.1398 168.887 74.2805 169.525 74.3702 169.388C74.0413 167.132 74.6489 169.287 74.7586 168.518C74.6599 168.123 74.6703 168.029 74.6804 167.932L74.1653 167.849ZM65.2637 167.532C65.2918 167.639 65.3013 167.719 65.7249 167.97C65.5529 168.07 65.2771 168.117 64.9941 168.148C65.4623 168.624 66.1201 169.181 65.9514 169.346C65.9742 169.375 65.9884 169.404 66.0026 169.43C65.9365 168.839 65.9531 168.23 66.221 167.8C66.1792 167.782 66.1312 167.761 66.0835 167.736C66.0044 167.777 65.9587 167.836 65.9999 167.948C65.5221 167.804 65.7592 167.774 65.2637 167.532ZM76.2201 165.592C75.6523 164.963 75.6807 165.621 75.3518 165.481C75.8701 165.831 75.304 165.892 76.0017 166.351C75.0781 166.41 75.5235 167.003 75.5136 167.369C75.5263 167.24 75.53 167.064 75.5055 166.882C75.5978 167.371 75.7436 167.528 75.821 167.912C75.8233 167.906 75.8269 167.899 75.8291 167.893C75.7798 167.513 75.8808 167.479 75.9586 167.501L75.9613 167.498L75.9639 167.503C76.0006 167.515 76.0305 167.537 76.0341 167.54C76.0518 167.592 76.0727 167.634 76.088 167.67C76.144 167.739 76.1987 167.791 76.2498 167.829C76.3044 167.808 76.3562 167.759 76.452 167.89C76.4691 167.888 76.4864 167.888 76.5033 167.882L76.4251 167.08C76.3333 166.631 76.3243 166.184 76.506 165.843L76.1096 165.622C76.2292 165.682 76.27 165.641 76.2201 165.592ZM74.5159 167.47C74.295 167.499 74.4983 167.621 74.675 167.741C74.668 167.685 74.6617 167.615 74.6399 167.52C74.8046 167.789 74.8722 167.684 74.9311 167.52C74.8276 167.532 74.7242 167.568 74.5159 167.47ZM76.5329 167.67C76.5479 167.645 76.5684 167.652 76.5896 167.681C76.529 167.501 76.4738 167.314 76.4332 167.126L76.5329 167.67ZM94.6624 167.631C94.7462 167.702 94.799 167.588 94.8242 167.419C94.7722 167.412 94.7209 167.414 94.6704 167.413L94.6624 167.631ZM89.8273 167.606C89.8528 167.607 89.8773 167.607 89.9028 167.6C89.863 167.536 89.8203 167.482 89.768 167.45L89.8273 167.606ZM75.5055 167.435C75.4937 167.486 75.4686 167.529 75.4219 167.565C75.4669 167.589 75.4879 167.536 75.5055 167.435ZM66.5851 167.439C66.6292 167.411 66.6753 167.385 66.7253 167.362L66.55 167.28C66.5792 167.344 66.587 167.396 66.5851 167.439ZM67.0462 166.926C66.9079 166.999 66.8162 167.099 66.8925 167.296C66.8985 167.294 66.9053 167.291 66.9114 167.289C66.9978 167.179 67.0292 167.055 67.0462 166.926ZM52.5788 166.869C52.59 166.883 52.6072 166.894 52.6193 166.911C52.7815 166.816 52.7854 166.684 52.7244 166.536C52.6761 166.648 52.6255 166.758 52.5788 166.869ZM100.563 165.048C100.47 165.126 100.391 165.24 100.333 165.402C100.111 165.763 99.7951 166.233 99.4327 166.576C99.5313 166.727 99.7907 166.655 99.8237 166.891C99.8736 166.272 100.233 166.721 100.293 165.893C100.88 166.727 101.215 165.863 101.598 165.781C101.239 165.545 100.839 165.327 100.563 165.048ZM122.092 166.252C122.591 166.302 121.097 166.631 121.685 166.552C121.5 166.799 121.907 166.785 122.419 166.732C122.39 166.542 122.357 166.35 122.324 166.16C122.264 166.182 122.186 166.208 122.092 166.252ZM101.897 165.997C101.869 166.308 102.099 166.244 102.127 166.631C102.251 166.78 102.272 166.627 102.291 166.446C102.201 166.275 102.062 166.13 101.897 165.997ZM108.663 166.252C108.818 166.262 108.841 166.321 108.817 166.402C108.89 166.405 108.952 166.364 109.019 166.056L108.663 166.252ZM109.035 166.047V166.193C109.052 166.13 109.069 166.071 109.089 166.017L109.035 166.047ZM108.704 164.625C109.73 164.485 108.018 165.273 108.534 165.374C109.377 165.17 108.222 166.086 109.03 166.017C109.031 166.012 109.034 166.008 109.035 166.003V166.017C109.053 166.015 109.072 166.015 109.092 166.012C109.332 165.388 109.823 165.266 110.3 165.171C110.309 165.129 110.316 165.086 110.33 165.043C110.169 164.544 109.463 164.568 109.122 164.275L108.704 164.625ZM76.5977 164.306L77.0857 164.464L76.6678 164.775L76.3199 164.535L76.1311 164.783C76.3995 165.012 76.4092 164.874 76.5977 164.854C76.4645 164.979 76.6916 165.252 76.8323 165.484C76.9131 165.43 77.0037 165.38 77.11 165.343C77.3064 165.033 77.1353 164.653 77.048 164.299C76.8927 164.286 76.7159 164.274 76.5977 164.306ZM53.6979 164.438C53.7955 164.415 53.8778 164.365 53.9163 164.246C53.8891 164.22 53.8634 164.194 53.8381 164.169C53.792 164.259 53.7428 164.348 53.6979 164.438ZM108.941 163.94C108.893 164.013 108.84 164.096 108.663 164.185C108.528 164.378 108.817 164.245 109.03 164.176C108.985 164.111 108.953 164.035 108.941 163.94ZM77.4848 163.26C77.162 163.403 76.7651 163.515 76.4601 163.597C76.4928 163.821 76.7554 163.756 77.0183 163.867C77.0426 163.758 77.0988 163.655 77.2098 163.566H77.768C77.5872 163.411 77.4645 163.361 77.4848 163.26ZM77.7707 163.112C77.7048 163.156 77.6281 163.195 77.5469 163.233C77.6949 163.325 77.852 163.297 77.9972 163.297L77.7707 163.112ZM108.798 163.205C108.867 163.237 108.942 163.267 109.016 163.293C109.058 163.23 109.096 163.162 109.135 163.106L108.798 163.205ZM108.647 163.108C108.676 163.14 108.716 163.162 108.758 163.185C108.905 163.029 108.817 163.046 108.647 163.108ZM77.3743 162.637C77.4063 162.75 77.4192 162.836 77.8516 163.026C77.8357 162.961 77.5774 162.782 77.3743 162.637ZM108.34 161.989C107.531 162.149 108.046 162.419 107.738 162.608C108.211 162.409 108.08 162.695 108.469 162.612C108.464 162.403 108.431 162.219 108.369 162.053L108.305 162.088C108.334 162.071 108.346 162.049 108.361 162.035C108.355 162.02 108.346 162.005 108.34 161.989ZM77.9271 162.579L77.9325 162.573C77.8717 162.555 77.8183 162.545 77.7815 162.548L77.9271 162.579ZM96.07 159.803C95.7512 159.085 96.2506 161.159 95.9217 160.371L95.6628 159.842C94.7968 159.355 94.2715 159.873 93.7617 160.448L93.945 160.771C93.9849 159.733 94.463 161.559 94.6624 161.06C94.6027 160.172 95.3794 161.559 95.4093 160.591L95.5792 161.06C95.6889 160.562 96.1155 161.418 96.2156 161.071C96.4246 161.54 96.2571 161.351 96.4664 161.95C96.5262 161.47 96.7535 162.977 96.7037 162.388C97.0511 162.728 96.8334 161.427 96.8089 160.708C96.8004 160.709 96.7906 160.711 96.7819 160.712L96.8089 160.694C96.807 160.633 96.81 160.576 96.8116 160.525L96.8035 160.52L96.8143 160.512C96.8152 160.488 96.8151 160.466 96.817 160.446C96.7453 160.411 96.723 160.292 96.4448 160.382L96.5527 160.302C96.7022 160.083 96.5034 160.101 96.2641 160.181L96.5743 159.803C96.4556 159.843 96.3687 159.849 96.3019 159.84C96.2944 159.842 96.2897 159.852 96.2803 159.853C96.2801 159.849 96.278 159.844 96.2776 159.84C96.1637 159.816 96.1141 159.732 96.0619 159.653L96.07 159.803ZM78.8116 160.472C78.1739 160.233 78.5617 160.87 77.9945 160.831L78.6309 161.509L78.1536 161.13C78.1531 161.309 77.7542 161.129 77.555 160.95C77.4359 160.97 77.596 161.091 77.6359 161.24L77.2368 160.97C76.9477 161.05 77.954 161.669 77.9541 161.489C78.9605 162.467 77.2475 161.39 77.9541 162.168L78.2561 162.363C78.8234 161.907 78.8844 161.252 78.8844 160.551C78.8844 160.508 78.8849 160.465 78.8844 160.421C78.8444 160.454 78.8116 160.472 78.8116 160.472ZM107.609 161.439L107.687 161.699C107.939 161.614 107.946 161.554 107.976 161.458C107.932 161.415 107.886 161.373 107.838 161.333L107.609 161.439ZM91.2619 160.173L91.3725 160.65C91.3328 160.512 91.284 160.511 91.2835 160.58C91.282 160.611 91.2838 160.641 91.2835 160.668L91.297 160.701C91.2952 160.706 91.288 160.71 91.2862 160.714C91.2927 161.36 91.6291 160.991 91.7419 161.309C91.6759 160.941 91.7894 160.938 91.8606 160.811C91.6136 160.507 91.3659 160.205 91.1702 160.065C91.1957 160.096 91.2322 160.128 91.2619 160.173ZM90.7873 160.926C90.7413 160.972 90.7037 161.044 90.6956 161.15H90.8439C90.8416 161.123 90.8335 161.1 90.8304 161.078L90.8089 161.1V160.956C90.8044 160.944 90.7924 160.935 90.7873 160.926ZM106.94 160.921C107.018 160.949 107.074 160.924 107.134 160.882C107.084 160.856 107.032 160.832 106.981 160.807C106.965 160.846 106.954 160.885 106.94 160.921ZM93.5891 160.642C93.5609 160.673 93.5285 160.703 93.5001 160.734C93.5967 160.829 93.6012 160.76 93.5891 160.642ZM90.8358 160.219C90.8434 160.185 90.8569 160.153 90.8655 160.122C90.8135 160.048 90.7594 159.986 90.6983 159.952L90.8358 160.219ZM78.8844 159.858C78.8843 159.849 78.8845 159.84 78.8844 159.831C78.8408 159.805 78.7974 159.772 78.7523 159.732C78.8068 159.775 78.8478 159.818 78.8844 159.858ZM105.586 157.561C105.675 157.652 105.676 157.798 105.675 157.805C105.403 158.052 105.477 158.136 105.559 158.23C105.68 157.912 105.756 157.632 105.675 157.466L105.586 157.561ZM80.3756 156.119C80.1593 156.096 79.6988 155.891 79.6799 156.128C81.5236 157.475 79.3904 156.697 79.7392 157.526C80.4024 157.843 80.0019 157.925 80.497 158.191C80.8821 158.2 81.2141 158.188 81.3464 158.056L80.6291 157.757C80.5195 157.428 81.2483 157.956 81.5972 157.816L80.6884 157.537L80.7289 156.997L80.8772 157.147C80.9168 156.967 80.8089 156.708 80.3514 156.508C80.7695 156.648 81.0589 156.827 81.1684 156.627C80.7499 156.442 80.5141 156.274 80.3756 156.119ZM121.448 155.7C121.49 155.971 121.482 156.263 121.772 156.339C121.473 156.767 121.494 156.439 121.035 156.878C121.672 156.939 120.178 157.506 120.806 157.356C120.792 157.993 122.062 157.501 122.893 157.4C122.676 156.709 122.376 156.022 121.879 155.328L121.448 155.7ZM105.503 157.22C105.427 157.306 105.356 157.388 105.263 157.464L105.212 157.53C105.274 157.508 105.327 157.499 105.373 157.495C105.435 157.404 105.485 157.312 105.503 157.22ZM59.3015 157.017L59.3177 157.037C59.3916 157.02 59.4118 156.973 59.4148 156.909C59.3769 156.945 59.3395 156.981 59.3015 157.017ZM80.2759 154.392C80.0648 154.46 80.2485 154.673 80.4673 154.894C80.6041 154.801 80.8111 154.745 80.977 154.67C80.7483 154.629 80.6625 154.547 80.6453 154.461C80.5755 154.55 80.5746 154.701 80.2759 154.392ZM120.493 154.146C120.57 154.388 120.661 154.64 120.898 154.765C120.979 154.559 121.015 154.272 120.623 153.642L120.493 154.146ZM81.0039 153.948C80.8751 154.016 80.868 154.246 80.5051 154.161C80.6247 154.201 80.6952 154.242 80.7451 154.282C80.8446 154.242 80.9729 154.281 80.9932 154.52C80.9541 154.501 80.9338 154.491 80.9042 154.472C80.9365 154.52 80.9776 154.574 81.0444 154.641C81.2476 154.529 81.3322 154.357 81.0039 153.948ZM81.0498 153.932L81.0687 153.943C81.0828 153.941 81.0959 153.937 81.1091 153.934C81.0862 153.931 81.0677 153.929 81.0498 153.932ZM81.2035 152.175C81.1781 152.65 81.4503 153.262 81.43 153.785C81.6442 153.52 81.1888 153.036 81.8453 152.855L81.3167 152.615C81.4093 152.559 81.4792 152.488 81.5298 152.404C81.4401 152.319 81.3336 152.236 81.2035 152.175ZM70.0664 148.128C69.9012 148.234 69.7342 148.339 69.5702 148.447C69.7575 148.557 69.9351 148.606 70.0529 148.363C70.044 148.267 70.05 148.189 70.0664 148.128ZM74.1195 145.772C73.1934 146.244 72.2765 146.762 71.3743 147.309L71.6386 147.694C71.8479 147.065 72.5556 147.752 72.755 147.293C73.0908 147.679 72.8094 147.576 73.1244 148.108C73.1492 148.044 73.1636 147.966 73.1568 147.864L73.2377 147.971C73.5267 148.061 73.5758 147.812 73.5559 147.522L73.8741 147.712C73.8646 146.998 73.7237 146.03 74.0682 145.946C74.0795 145.876 74.0974 145.818 74.1195 145.772ZM71.35 147.324C71.0454 147.509 70.7423 147.697 70.4413 147.888C70.8019 147.86 71.2851 147.956 71.35 147.324ZM74.8799 145.397C74.7421 145.463 74.6021 145.527 74.4646 145.596C74.8917 145.642 75.4587 146.149 75.1469 145.358L74.8799 145.397ZM75.5945 145.06L75.7401 145.336C75.7422 145.334 75.7434 145.331 75.7455 145.329C75.7875 145.238 75.8697 145.178 75.9693 145.129C76.1597 144.957 76.3532 144.793 76.5599 144.649C76.2378 144.779 75.9155 144.916 75.5945 145.06Z" fill="#CB90BE"/>
<path d="M90.2372 185.718C90.2372 185.728 90.1984 185.75 90.097 185.77C90.1354 185.751 90.2274 185.721 90.2372 185.718Z" fill="#CB90BE"/>
<path d="M48.3586 158.843C48.4147 158.848 48.452 158.872 48.4826 158.904L48.3586 158.843Z" fill="#CB90BE"/>
<path d="M54.3532 151.367L53.7545 151.697C54.0928 151.367 54.2637 151.307 54.3532 151.367Z" fill="#CB90BE"/>
<path d="M126.302 149.614L126.296 149.61L126.725 149.579L126.302 149.614Z" fill="#CB90BE"/>
<path d="M53.3957 179.907C53.4248 179.956 53.3983 180.042 53.3957 180.05V179.907Z" fill="#BC85AD"/>
<path d="M51.8856 169.058C51.9338 168.99 52.0271 169.003 52.0366 169.005L51.8856 169.058Z" fill="#BC85AD"/>
<path fill-rule="evenodd" clip-rule="evenodd" d="M85.6096 134.445L85.5692 134.544C87.6121 135.193 88.4297 135.822 88.5894 136.282C88.7489 136.761 88.2519 137.111 87.5242 137.38C86.7966 137.63 85.8486 137.859 85.0811 137.999C84.3341 138.135 83.7571 138.242 83.7274 138.248C83.0797 138.338 82.4308 138.428 81.7831 138.567C81.7882 138.593 81.7496 138.649 81.7022 138.693C81.7454 138.691 81.7897 138.689 81.8344 138.688L81.8128 138.787C85.5401 139.766 85.073 140.763 83.8973 141.412C82.6912 142.051 80.6667 142.601 80.6667 142.601C80.3527 142.68 80.0352 142.758 79.7202 142.843C79.7897 142.875 79.8568 142.913 79.917 142.96C80.3556 143.3 80.4755 144.1 79.429 145.867C79.0303 145.747 78.759 145.835 78.4501 146.234L78.6604 146.446C78.3318 146.406 78.2222 146.714 78.0429 146.884C78.0628 147.193 78.371 147.094 78.2424 147.432C77.814 147.702 78.0234 147.564 77.5953 147.833C77.5354 147.663 77.7935 147.562 77.6141 147.393C77.6341 147.522 77.3061 147.723 77.4955 147.963L77.3364 147.692C77.3065 147.822 77.1251 147.653 77.0155 147.723C76.9956 147.823 77.027 147.953 77.1665 147.923C76.9973 148.153 76.8464 148.621 76.5678 148.542C76.3587 148.691 76.2672 148.383 76.0878 148.223C76.0484 148.294 76.0283 148.482 76.0878 148.562H76.0501L76.069 148.802C75.4312 148.732 75.4908 149.71 74.8932 149.57C74.953 149.471 75.1909 149.46 75.0523 149.231L74.7746 149.48C74.8641 149.341 74.8724 149.141 74.7233 149.011C74.355 149.39 74.2043 149.978 73.7364 150.387C73.5076 150.11 73.3581 150.557 73.0299 150.458C73.0894 150.488 73.1197 150.518 73.1296 150.548C73.2289 150.519 73.2967 150.549 73.1674 150.729C73.1574 150.709 73.1477 150.697 73.1377 150.687C73.1278 150.727 73.1178 150.778 73.1377 150.848C72.9296 150.828 72.8995 150.748 72.949 150.678C72.8395 150.748 72.7496 150.857 72.7198 150.627C72.371 150.707 72.6591 151.157 72.5795 151.356C72.2723 151.555 72.1612 151.654 71.846 152.019C71.8642 152.408 71.8313 152.902 71.7085 153.523C71.3298 153.483 71.12 153.613 70.9804 154.032L71.2177 154.181C70.9204 154.202 70.9303 154.501 70.8213 154.69C70.9309 154.969 71.158 154.831 71.1584 155.159C70.8695 155.478 71.0101 155.32 70.7216 155.639C70.6219 155.489 70.8095 155.359 70.6002 155.23C70.66 155.349 70.4419 155.589 70.6811 155.769L70.4519 155.549C70.4619 155.679 70.252 155.559 70.1822 155.639C70.2021 155.739 70.2724 155.859 70.3818 155.8C70.3024 156.04 70.3215 156.497 70.0528 156.467C69.9133 156.637 69.7442 156.378 69.535 156.258C69.5251 156.327 69.5637 156.507 69.6429 156.577H69.6052L69.6213 156.619L69.7427 156.639C69.7073 156.659 69.6539 156.639 69.624 156.626L69.6941 156.786C69.1061 156.836 69.4746 157.704 68.9067 157.685C68.9375 157.576 69.1352 157.525 68.9364 157.346L68.7773 157.616C68.8072 157.467 68.7577 157.286 68.5885 157.196C68.3792 157.605 68.4389 158.156 68.1598 158.605C67.8607 158.395 67.8793 158.824 67.5503 158.794C67.6101 158.814 67.6517 158.834 67.6717 158.854C67.7411 158.815 67.8099 158.834 67.7607 159.012C67.7506 158.993 67.7301 158.984 67.7202 158.984C67.7301 159.034 67.7398 159.074 67.7795 159.134C67.5807 159.153 67.5304 159.082 67.5503 159.012C67.4806 159.102 67.4316 159.212 67.3319 159.012C67.0428 159.142 67.4425 159.503 67.4425 159.693C67.2331 159.923 67.1715 160.032 66.9921 160.422L66.9732 160.34C66.9694 160.342 66.9613 160.339 66.9571 160.34C66.9563 160.422 66.9974 160.523 67.0029 160.6C67.2318 160.76 67.3516 160.651 67.5207 160.849C67.4708 161.079 67.4904 160.96 67.4506 161.21C67.282 161.15 67.3505 161.02 67.1216 160.99C67.2312 161.05 67.2028 161.248 67.5018 161.298L67.1917 161.23C67.2812 161.31 67.0326 161.29 67.0326 161.36C67.1024 161.42 67.2336 161.469 67.2834 161.399C67.3735 161.579 67.6706 161.818 67.4317 161.888C67.4215 162.028 67.1315 161.949 66.8923 161.959C66.9224 162.009 67.074 162.097 67.1836 162.117H67.1431L67.3508 162.199C66.9356 162.468 67.7691 162.847 67.3211 163.086C67.2717 163.006 67.4012 162.886 67.1323 162.866L67.1836 163.106C67.1238 163.006 66.9631 162.917 66.7737 162.947C66.8836 163.296 67.2509 163.595 67.3211 163.993C66.9641 163.994 67.2415 164.253 66.9732 164.383C67.0327 164.363 67.0729 164.363 67.1027 164.363C67.1327 164.304 67.203 164.284 67.2726 164.414H67.2213C67.2512 164.434 67.2921 164.453 67.3616 164.473C67.2221 164.583 67.1434 164.563 67.1135 164.513C67.1135 164.593 67.1523 164.684 66.9436 164.614C66.8157 164.833 67.339 164.843 67.4506 164.962C67.4207 165.192 67.4428 165.292 67.5422 165.601L67.4829 165.561C67.4232 165.651 67.0937 165.692 67.162 165.861C68.2983 165.94 67.212 166.302 67.5908 166.651C67.9596 166.581 67.8114 166.779 68.1004 166.739C67.7815 167.129 68.4791 167.339 68.2299 167.759L68.2002 167.739C67.9411 167.869 68.1792 168.108 68.4483 168.168C68.1696 168.148 68.1098 168.346 67.8712 168.307C68.2491 168.337 68.1301 168.708 68.1301 168.708C67.8014 168.817 68.159 169.026 67.9305 169.225L68.3998 169.366L68.0896 169.335C68.1494 169.445 67.9407 169.496 67.8011 169.476C67.7525 169.536 67.8601 169.545 67.9198 169.615H67.6798C67.6011 169.774 68.1857 169.725 68.1301 169.626C68.8363 169.786 67.8312 169.845 68.3593 170.005L68.7126 169.989C69.0143 170.205 68.1219 170.206 68.5076 170.414L68.2703 170.474C68.3394 170.533 68.3403 170.604 68.6182 170.524C68.5979 170.794 68.4087 171.154 68.2892 171.403C68.4084 171.541 68.4887 171.292 68.7072 171.321C69.1059 171.401 68.6971 171.562 68.6074 171.742L68.8474 171.641L68.807 171.991H68.5993L68.6182 172.211C68.7971 172.231 68.7582 172.151 68.8177 172.061C68.8087 172.31 69.5441 172.291 69.1656 172.64L68.9256 172.68C68.9946 172.67 68.9966 172.631 68.958 172.621C68.5194 172.501 68.7768 172.849 68.6074 172.909C68.9263 172.889 68.7475 173.158 69.1656 173.118C68.7671 173.677 69.6138 173.738 69.4056 174.127C69.1868 174.117 69.2851 174.276 69.0874 174.336C68.978 174.515 69.3931 174.338 69.3948 174.466L69.1171 174.686C69.6642 174.796 68.748 175.036 69.047 175.226C69.5145 175.236 68.8774 175.745 69.3948 175.835L69.1656 175.935C69.4445 176.044 69.0465 176.334 69.2546 176.434C69.047 176.583 69.1165 176.455 68.8285 176.584C69.0933 176.654 68.3205 176.743 68.629 176.743C68.4496 177.092 69.7848 176.773 69.8047 177.003C70.2616 177.053 69.4767 177.672 70.0231 177.443V177.313L70.2227 177.582L70.0339 177.692C70.2223 177.742 70.1235 178.169 70.5112 178.13C70.5013 178.14 70.4818 178.162 70.4519 178.192C70.6907 178.242 70.4622 178.44 70.8402 178.37L70.7512 178.401C71.3293 178.331 71.4985 178.85 71.7975 179.059C71.5485 179.289 71.7882 179.368 71.9377 179.418C71.8981 179.388 71.7788 179.496 71.7382 179.517C72.1557 179.398 71.7491 180.126 72.2074 179.947L72.1669 179.977C72.1072 180.177 72.6036 179.927 72.2856 180.396C72.7538 180.156 72.8451 180.288 73.0245 180.627L72.9732 180.706C73.0008 181.022 73.0441 181.308 73.0865 181.567C73.2662 181.481 73.394 181.612 73.5233 181.691C73.5274 181.666 73.5374 181.638 73.5395 181.605L73.34 181.565L73.8469 181.495L73.8685 181.715C74.0307 181.592 74.3673 181.726 74.6236 181.62C74.6846 181.546 74.748 181.494 74.8069 181.473C74.8113 181.466 74.819 181.461 74.8231 181.455C74.8231 181.459 74.8273 181.462 74.8285 181.466C74.8483 181.462 74.8684 181.461 74.8878 181.466C75.0219 181.324 75.145 181.367 75.2546 181.448C75.303 181.425 75.3574 181.377 75.4218 181.266L75.4029 181.356C75.7917 180.797 76.6985 180.896 77.3364 180.746C77.3762 181.075 77.7434 180.927 78.0024 180.827C77.959 180.833 77.9396 180.874 77.9296 180.92C78.3259 180.772 78.8179 180.78 79.1917 180.667C79.2514 180.996 79.5711 180.837 79.7903 180.717C79.7215 180.738 79.731 180.897 79.731 180.946C79.8231 180.78 79.9536 180.775 80.0923 180.81C80.3305 180.665 80.5926 180.664 80.931 180.719C81.0654 180.628 81.2147 180.499 81.357 180.836C81.5863 180.267 81.874 180.208 82.4519 180.198L82.4708 180.288C83.6569 180.697 84.4356 180.896 84.7845 181.266C85.1332 181.615 85.0432 182.054 84.7143 182.503C84.3854 182.932 83.8167 183.341 83.3283 183.571C83.0793 183.701 82.8593 183.792 82.7 183.842C82.5413 183.901 82.4411 183.93 82.4411 183.93C82.1071 184.036 81.7729 184.101 81.4433 184.166C81.3356 184.195 81.2301 184.222 81.1278 184.245C81.1199 184.299 81.0495 184.424 80.9957 184.379C80.3911 184.852 79.6282 184.766 78.922 184.586C78.8991 184.604 78.8775 184.612 78.86 184.59C78.1392 185.081 77.2943 184.759 76.4735 184.535C75.7134 184.781 74.6491 185.058 73.8928 184.864C73.0569 185.124 72.0713 185.317 71.455 184.93C71.1421 184.889 70.858 184.975 70.5786 185.062C70.5678 185.069 70.5605 185.07 70.5517 185.068C70.2177 185.172 69.8909 185.271 69.5323 185.159L69.3517 184.89C69.2323 185.02 69.2324 185.088 69.0631 185.068C69.1515 184.979 69.0427 184.899 68.993 184.819L68.8123 185.02C68.7625 184.621 68.3546 185.687 68.3243 185.26L68.2568 184.969C68.0713 184.885 67.8804 184.824 67.6879 184.782C67.4071 184.855 67.1248 184.929 66.8411 184.989C66.9984 185.363 67.0999 185.672 67.127 185.938C67.1866 186.427 67.018 186.736 66.7494 186.936C66.2112 187.355 65.3121 187.215 65.3121 187.215C65.0734 187.175 64.8344 187.126 64.6056 187.057C64.6048 187.107 64.5153 187.225 64.495 187.167C64.0271 187.455 63.6372 187.106 63.3085 186.757C62.9699 186.398 62.6922 186.018 62.2245 186.187C61.6364 186.277 60.5001 186.317 60.3207 185.568C60.0245 185.309 59.5255 185.494 59.2717 185.203C59.1884 185.184 59.0972 185.155 58.9993 185.099V185.388C58.6905 185.268 58.3315 185.249 57.953 185.399L58.0016 185.3H57.7535L57.7724 185.229C57.6527 185.308 57.4431 185.159 57.2142 185.308L57.233 185.238C57.1235 185.09 56.9551 185.148 56.7962 185.238L56.6856 184.969C56.2173 185.238 55.729 184.72 55.2807 185.029C54.5665 184.911 53.7184 184.764 52.9805 184.381C52.3708 184.358 51.7224 184.346 51.1225 184.212C50.4048 184.202 49.9752 184.03 49.5665 183.831C49.1381 183.621 48.8083 183.403 48.051 183.164L47.9917 183.133C47.0847 183.033 46.1177 182.972 45.2007 182.483C44.224 181.914 43.4064 180.996 43.4263 179.359C43.4257 179.344 43.4103 178.941 43.5665 178.451C43.616 178.274 43.7008 178.095 43.7984 177.93C43.631 177.496 43.4591 176.944 43.2969 176.245C43.6656 175.786 43.7665 175.346 43.7068 174.547L43.3966 174.638C43.6857 174.208 43.5582 173.778 43.5881 173.358C43.3689 173.079 43.1891 173.607 43.0596 173.098C43.2188 172.231 43.13 172.66 43.3292 171.801C43.4777 171.902 43.3293 172.341 43.5881 172.282C43.4886 172.172 43.6366 171.535 43.3292 171.533L43.6366 171.592C43.5769 171.403 43.8375 171.333 43.8874 171.123C43.8376 171.003 43.7255 170.894 43.6259 171.123C43.6159 170.654 43.4675 169.935 43.7957 169.666C43.9153 169.236 44.165 169.455 44.4241 169.406C44.424 169.29 44.3558 169.094 44.265 169.029L44.1113 169.159C44.1587 169.064 44.2062 169.024 44.2488 169.016C44.2436 169.014 44.2406 169.009 44.2353 169.007L44.2838 168.965L44.1355 168.728C44.7734 168.009 44.2654 166.96 44.9229 166.391C44.9028 166.591 44.6739 166.89 44.9229 166.99L45.082 166.371C45.0623 166.641 45.1425 166.899 45.3517 166.869C45.5209 165.981 45.5002 165.132 45.829 164.095C46.1779 164.204 46.1988 163.475 46.5975 163.256C46.5278 163.286 46.4872 163.276 46.4573 163.256C46.3576 163.395 46.2778 163.426 46.3575 163.066C46.3775 163.076 46.3888 163.077 46.4088 163.077C46.3988 163.018 46.389 162.937 46.3495 162.877C46.5976 162.678 46.6459 162.747 46.6164 162.886C46.7059 162.686 46.7768 162.458 46.8861 162.716C47.2439 162.248 46.7964 161.978 46.8456 161.639C47.1646 161.08 47.2764 160.85 47.5953 160.032V160.162C47.7648 159.982 48.0928 160.06 48.2721 159.631C47.4759 158.753 48.8212 158.553 49.0703 157.515C48.6816 157.435 49.0995 157.076 48.8303 156.956C49.6369 156.297 49.5383 155.279 50.4052 154.52V154.591C50.7935 154.501 51.0719 153.784 51.0227 153.424C51.1527 153.702 51.5505 153.324 51.6106 153.622C51.4518 153.223 52.1796 152.543 52.1796 152.543C52.5581 152.603 52.7675 151.857 53.2555 151.667L53.296 150.927L53.3849 151.286C53.5544 151.017 53.7533 151.117 53.7733 151.297C53.9028 151.217 53.8633 151.097 53.9728 150.907L54.0942 151.136C54.4309 150.926 54.1036 150.409 53.9243 150.667C53.9543 149.639 54.4807 150.557 54.5903 149.698L54.4312 149.359C54.7701 148.581 55.0688 149.569 55.3778 148.76L55.5773 148.921C55.677 148.731 55.8265 148.591 55.5773 148.441C56.1652 147.962 56.9634 147.533 57.5216 147.274C57.8104 146.905 57.2447 147.233 57.2735 146.935C57.3931 146.326 57.8006 146.544 58.2092 146.345L57.9503 146.234C58.1993 146.055 58.4492 145.896 58.7081 145.737L58.7485 145.975L59.2258 145.616C59.2457 145.376 59.0665 145.556 58.8672 145.616C59.4152 145.266 59.3559 144.348 60.1724 144.308L60.264 144.548C60.2341 144.488 60.1438 144.539 60.1238 144.598C59.8553 145.296 60.6423 144.498 60.7818 144.618C60.732 144.269 61.3384 144.109 61.2888 143.63C62.5345 143.39 62.8144 142.242 63.7211 142.022C63.6417 142.311 64.039 142.003 64.1391 142.192C64.5474 142.122 64.2208 141.783 64.5382 141.643L64.9777 141.762C65.3963 140.924 65.6654 141.852 66.2236 141.293C66.4428 140.674 67.3886 141.013 67.8173 140.265L67.9575 140.474C68.3661 140.025 68.8457 140.315 69.1845 139.965C69.4031 140.135 69.1439 140.135 69.3031 140.415C69.6121 140.005 69.4341 140.944 69.5836 140.545C70.2802 140.503 70.2918 139.048 70.8995 138.838C71.358 138.189 72.2938 138.877 72.1643 138.268L71.8245 138.358L72.6712 137.948L72.7818 138.149C73.0807 137.859 74.0184 137.8 74.3377 137.321C74.3391 137.34 74.3768 137.351 74.4159 137.38C74.8046 137.041 75.025 137.29 75.3139 136.801L75.295 136.911C75.8333 136.163 77.4675 135.772 78.6038 135.403C78.7334 135.713 79.3515 135.403 79.82 135.214C79.6705 135.264 79.6897 135.424 79.6797 135.473C80.2578 134.934 81.1635 135.562 81.7615 134.974L81.7427 135.024C82.0418 135.144 82.7593 134.505 82.9885 135.044C83.6861 134.425 84.4338 134.365 85.6096 134.445ZM59.9297 172.812C59.8458 172.875 59.7712 172.938 59.8056 173.05C59.5471 173.03 59.6964 172.959 59.3876 172.869C59.5371 173.159 58.9001 172.66 59.1288 172.889C58.7504 173.129 59.9435 173.817 59.7867 174.087C60.0658 174.506 59.0387 174.528 59.6169 174.748L59.7058 174.598L59.6465 175.056L59.4281 175.016C59.5273 175.236 59.1392 175.596 59.4281 175.895C59.4082 175.885 59.3862 175.895 59.3364 175.895C59.456 176.154 59.1479 176.155 59.447 176.434L59.3688 176.395C59.8059 176.864 59.5183 177.612 59.4982 178.181C59.1697 178.141 59.2283 178.479 59.2582 178.729C59.2568 178.65 59.0992 178.621 59.0587 178.601C59.1764 178.737 59.1464 178.852 59.0802 178.964L59.1827 178.94L59.0694 178.986C58.9919 179.109 58.8755 179.227 58.8483 179.356C58.9456 179.3 59.0276 179.238 58.9939 179.22C59.6617 179 58.7845 179.498 59.2825 179.359L59.7301 179.099L59.5818 179.189C59.9004 179.179 59.1145 179.607 59.5009 179.548L59.304 179.698C59.3828 179.698 59.4041 179.748 59.6222 179.559C59.6619 179.739 59.582 180.068 59.5521 180.288C59.6914 180.317 59.6919 180.107 59.8811 180.017C60.229 179.868 59.9299 180.178 59.9 180.347L60.0699 180.158C60.0798 180.238 60.1012 180.307 60.1211 180.387L59.9512 180.508L59.9971 180.585C60.0352 180.597 60.0594 180.606 60.0618 180.607V180.612C60.1669 180.538 60.1235 180.509 60.1508 180.427C60.2105 180.586 60.7875 180.168 60.5795 180.596L60.3989 180.766C60.4482 180.706 60.4287 180.696 60.3989 180.706C60.3356 180.735 60.2925 180.763 60.2613 180.788C60.4178 180.809 60.6293 180.765 60.771 180.937L61.1189 180.517L60.9786 180.808C61.1283 180.781 61.1547 180.954 61.1054 181.078C61.225 181.023 61.3419 180.917 61.402 180.797C61.3591 180.942 61.4167 181.036 61.4667 181.127C61.5107 180.995 61.5076 180.841 61.4182 180.856C61.8861 180.218 61.6361 181.215 62.0546 180.746L62.1544 180.407C62.5926 180.157 62.2654 181.035 62.7126 180.717V180.966C62.8222 180.916 62.9321 180.936 62.9121 180.647C63.2656 180.735 63.6649 180.975 63.9665 181.16C63.9872 181.138 64.0167 181.113 64.042 181.076L64.0609 180.935C63.5043 180.681 62.9694 180.286 62.9957 179.729C62.7567 179.29 62.1082 179.259 61.998 178.751L62.1463 178.491C61.9877 178.481 61.929 178.519 61.8793 178.41C61.998 178.409 62.0185 178.311 62.0681 178.231H61.8281C62.1371 177.992 61.0809 178.29 61.4398 178.051L61.669 177.861C61.6888 177.213 61.3606 176.744 60.9921 176.245C60.6333 175.756 60.2251 175.206 60.1454 174.607C60.3549 174.248 60.8823 173.948 60.8924 173.669L60.5121 173.759C60.3628 173.59 60.8207 173.639 60.9112 173.42L60.4636 173.589L60.3045 173.228L60.4124 173.27C60.3725 173.14 60.2435 173.019 59.9944 173.059C60.2136 172.999 60.3837 172.999 60.3638 172.83C60.167 172.861 60.0302 172.849 59.9297 172.812ZM54.4744 178.953C53.6531 179.275 53.0779 179.356 52.6757 179.282L52.549 179.378C52.6681 179.378 52.5111 179.557 52.5787 179.627C52.6682 179.607 52.7885 179.548 52.7593 179.449C52.9688 179.528 53.3673 179.449 53.3175 179.709C53.4555 179.809 53.2166 180.008 53.1072 180.217C53.177 180.227 53.3467 180.166 53.4065 180.076V180.118L53.5953 179.997C53.6619 180.473 54.2009 180.162 54.4232 180.35C54.6297 180.393 54.7691 180.399 55.0083 180.391C55.033 180.135 55.1828 179.83 54.6685 179.788L54.7387 179.757C54.9369 179.301 54.3865 179.371 54.4744 178.953ZM52.3414 179.158C52.322 179.17 52.3013 179.187 52.2793 179.209C52.3706 179.194 52.4967 179.309 52.6488 179.273C52.53 179.248 52.4306 179.208 52.3414 179.158ZM63.6133 166.556C63.3979 166.734 63.135 166.899 62.9391 167.028C62.9697 167.074 62.9967 167.123 63.0254 167.171C63.1032 167.17 63.2022 167.163 63.2735 167.259C63.4087 167.483 63.3189 167.527 63.1791 167.554C63.1798 167.559 63.1839 167.564 63.1845 167.569C63.153 167.567 63.1262 167.568 63.1036 167.569C63.0823 167.573 63.0604 167.576 63.0389 167.58C62.9962 167.597 62.9795 167.626 62.9715 167.662L63.1252 167.699L62.9822 167.858C63.021 167.842 63.0707 167.861 63.1144 167.948H63.0631C63.093 167.968 63.1355 167.988 63.1953 168.008C63.046 168.087 62.9745 168.068 62.9445 168.019C62.9347 168.088 62.964 168.168 62.7665 168.089C62.7551 168.104 62.7508 168.118 62.7476 168.131C62.7595 168.123 62.7716 168.115 62.7854 168.109C62.7684 168.13 62.7603 168.154 62.753 168.179C62.8136 168.292 63.166 168.348 63.2546 168.437C63.2247 168.637 63.2234 168.728 63.3031 169.007L63.2438 168.965C63.1841 169.035 62.8566 169.056 62.9148 169.205C64.0511 169.355 62.9263 169.596 63.295 169.925C63.662 169.876 63.5038 170.044 63.7912 170.025C63.4534 170.334 64.1294 170.543 63.8721 170.872H63.8425C63.5733 170.982 63.8026 171.192 64.0717 171.242C63.8026 171.222 63.7311 171.392 63.4919 171.352C63.8623 171.382 63.7376 171.678 63.7319 171.691C63.4034 171.791 63.7529 171.962 63.5243 172.132L63.9827 172.22H63.6726C63.7323 172.3 63.5137 172.361 63.384 172.341C63.3443 172.391 63.4428 172.391 63.5027 172.46H63.2627C63.1829 172.6 63.7728 172.54 63.713 172.46C64.4098 172.56 63.4035 172.661 63.9315 172.77L64.4492 172.72L64.2793 172.74C64.5883 172.899 63.6937 172.951 64.0825 173.101L63.8425 173.169C63.9122 173.219 63.9213 173.279 64.1903 173.189C64.1704 173.418 63.9818 173.739 63.8721 173.948C63.9914 174.058 64.0711 173.839 64.2793 173.838C64.6681 173.848 64.2693 174.029 64.1795 174.188L64.4115 174.067C64.3915 174.157 64.3791 174.248 64.3791 174.338L64.1715 174.378L64.2011 174.547C64.3802 174.527 64.3193 174.466 64.3791 174.387C64.3791 174.586 65.0866 174.448 64.7377 174.787L64.5085 174.867C64.5682 174.837 64.5697 174.807 64.5301 174.807C64.102 174.787 64.3702 175.026 64.2119 175.107C64.5197 175.027 64.3718 175.286 64.7701 175.166C64.4113 175.725 65.2567 175.555 65.0775 175.935C64.8689 175.984 64.9782 176.095 64.7998 176.194C64.72 176.374 65.1072 176.104 65.1072 176.214L64.878 176.474C65.4062 176.394 64.5798 176.863 64.8888 176.943C65.3171 176.804 64.8192 177.431 65.3175 177.342L65.1288 177.502C65.4162 177.503 65.1084 177.882 65.3175 177.892C65.1584 178.081 65.1975 177.952 64.9589 178.161C65.2264 178.131 64.5398 178.48 64.8186 178.37C64.7489 178.749 65.882 177.983 65.9539 178.161C66.3723 178.031 65.8167 178.879 66.264 178.451L66.2155 178.35L66.4636 178.5L66.3234 178.669C66.5127 178.629 66.5238 179.05 66.8627 178.85C66.8528 178.87 66.842 178.89 66.8222 178.929C67.0277 178.876 66.9209 179.086 67.1216 178.973C66.6661 178.511 66.2772 177.926 66.4663 177.412C66.3567 176.913 65.7474 176.723 65.7571 176.194L65.9674 175.974C65.8183 175.934 65.7574 175.954 65.7274 175.835C65.8362 175.865 65.8865 175.765 65.9458 175.706L65.7166 175.644C66.0754 175.474 64.9808 175.546 65.3795 175.386L65.6384 175.245C65.9273 173.978 64.6221 173.009 64.522 171.762C64.7411 171.413 65.2777 171.123 65.2986 170.824L64.9211 170.903C64.7717 170.724 65.238 170.793 65.3283 170.564L64.8807 170.734L64.7216 170.344L64.8294 170.394C64.7896 170.265 64.6507 170.123 64.4115 170.163C64.6303 170.103 64.8002 170.104 64.7809 169.925C64.2231 170.015 64.1318 169.755 64.0124 169.516C64.0821 169.506 64.123 169.406 64.2227 169.456C63.4253 169.007 64.6598 168.537 63.8425 168.098H63.9126C64.2614 167.639 63.6453 167.519 63.9341 167.03L63.6429 167.069C63.6933 166.903 63.6942 166.728 63.6133 166.556ZM45.9234 178.462C45.8736 178.556 45.8155 178.651 45.7535 178.744C45.8148 178.816 45.8812 178.886 45.953 178.951C45.9853 178.927 46.0185 178.902 46.0528 178.879C46.0088 178.749 45.9669 178.61 45.9234 178.462ZM51.5728 174.785C51.565 174.87 50.9694 174.637 51.2223 174.847L50.9823 174.787C51.0219 174.847 51.0031 174.876 51.2816 174.946C51.1719 175.056 50.8715 175.157 50.6721 175.217C50.732 175.326 50.9028 175.236 51.082 175.336C51.4003 175.525 50.9843 175.436 50.8339 175.485L51.082 175.525L50.9229 175.666L50.7342 175.587L50.6721 175.686C50.8209 175.755 50.813 175.696 50.9014 175.686C50.7951 175.786 51.4597 176.076 50.9823 176.076L50.753 175.994C50.8225 176.014 50.8337 175.994 50.8043 175.974C50.4562 175.755 50.5532 176.004 50.3755 175.965C50.6625 176.075 50.3954 176.124 50.7827 176.274C50.1975 176.342 50.8802 176.693 50.5724 176.782C50.75 177.061 50.9625 177.367 51.2438 177.672C50.9849 177.931 50.9843 178.221 51.3032 178.531L51.5539 178.381C51.4347 178.65 51.703 178.77 51.8425 178.909C51.9182 178.902 51.9701 178.88 52.0124 178.854C51.682 178.366 51.7912 177.672 51.7912 177.672L51.9315 177.073C51.8916 177.073 51.7613 176.993 51.8209 176.983C51.3702 176.416 52.1609 176.011 52.4654 175.556C52.1705 175.509 51.8585 175.303 51.5728 174.785ZM50.8717 174.158C50.8137 174.168 50.902 174.218 50.9418 174.268L50.7126 174.177C50.5942 174.218 51.1424 174.417 51.1225 174.347C51.7303 174.676 50.774 174.338 51.2115 174.607L51.5405 174.728C51.5469 174.734 51.5493 174.742 51.5539 174.748C51.4808 174.611 51.4091 174.453 51.3409 174.272L51.1818 174.197C51.2017 174.267 50.9913 174.217 50.8717 174.158ZM51.2276 173.948C51.2075 174.001 51.2309 174.081 51.0712 174.087L51.3328 174.25C51.2978 174.156 51.261 174.056 51.2276 173.948ZM56.3782 173.224C56.4045 173.23 56.4283 173.232 56.451 173.235C56.4554 173.202 56.462 173.17 56.4672 173.138L56.2865 173.129C56.3341 173.169 56.3621 173.201 56.3782 173.224ZM56.4348 172.92C56.3431 172.945 56.4069 172.984 56.4861 173.026C56.4922 172.994 56.4953 172.962 56.5022 172.931C56.4832 172.928 56.4592 172.929 56.4348 172.92ZM51.5 172.548C51.4114 172.58 51.3404 172.623 51.4407 172.731C51.4511 172.733 51.4608 172.737 51.4703 172.74C51.4873 172.681 51.4932 172.618 51.5 172.548ZM51.5108 172.323C51.5105 172.31 51.5141 172.296 51.5135 172.282L51.3814 172.266C51.4311 172.288 51.4752 172.305 51.5108 172.323ZM51.3409 172.138C51.262 172.134 51.1976 172.139 51.2115 172.191C51.2304 172.199 51.2479 172.208 51.2654 172.215C51.2964 172.191 51.3205 172.166 51.3409 172.138ZM57.0766 171.832C56.8844 171.717 56.8997 171.944 56.7557 171.903C56.8791 171.969 56.892 172.018 56.9014 172.068C56.9456 172.018 56.9925 171.972 57.0443 171.931C57.059 171.899 57.065 171.865 57.0766 171.832ZM51.2411 171.482C51.1452 171.524 51.289 171.607 51.4353 171.687C51.4355 171.631 51.4349 171.575 51.4434 171.522C51.4343 171.511 51.4227 171.504 51.4137 171.495C51.4078 171.54 51.4135 171.573 51.2411 171.482ZM57.1144 171.542C57.1251 171.549 57.1374 171.552 57.1467 171.557C57.1517 171.524 57.1595 171.491 57.1629 171.458L57.1144 171.542ZM51.3301 170.564C51.3521 170.633 51.399 170.708 51.4515 170.784C51.4413 170.734 51.431 170.67 51.4245 170.604C51.3937 170.592 51.3641 170.573 51.3301 170.564ZM51.5782 170.082C51.6056 170.112 51.6749 170.159 51.7454 170.198C51.707 170.132 51.6448 170.062 51.5782 170.082ZM57.6429 169.606C57.5833 169.616 57.6614 169.675 57.6915 169.745L57.4838 169.626C57.4088 169.647 57.5232 169.737 57.6456 169.802C57.648 169.797 57.6508 169.79 57.6537 169.784C57.7135 169.894 57.8229 169.835 57.9126 169.815L57.8506 169.705C57.7833 169.689 57.6969 169.649 57.6429 169.606ZM57.8613 169.525L57.8748 169.538C57.8734 169.533 57.8769 169.527 57.8748 169.522C57.8704 169.523 57.866 169.525 57.8613 169.525ZM55.2025 161.325C54.6284 161.791 54.8214 162.35 54.1346 162.928L54.4043 163.046C54.1052 163.376 53.8439 163.796 53.7841 164.315L53.7247 164.214L53.5845 164.524L53.5252 164.484C53.5346 164.644 53.2877 164.864 53.3175 165.193L53.2582 165.154C53.0489 165.254 53.018 165.482 53.0479 165.702L52.7378 165.773C52.8168 166.411 52.072 166.92 52.2712 167.519H52.2793V167.572C52.2711 167.563 52.2689 167.534 52.2685 167.523C52.0517 168.054 51.8567 168.625 51.651 169.188L51.6699 169.227C51.7856 169.045 52.0134 169.227 52.2416 169.256C52.2416 169.166 52.1498 168.997 52.0501 168.937H52.1014L51.9611 168.747C52.5392 168.448 51.9817 167.638 52.5598 167.428C52.5598 167.558 52.361 167.698 52.6002 167.818L52.7 167.448C52.69 167.628 52.7885 167.808 52.9778 167.838C53.0773 167.299 52.9771 166.74 53.1962 166.131C53.5249 166.281 53.4568 165.803 53.7948 165.733C53.7353 165.733 53.6952 165.722 53.6654 165.702C53.5957 165.772 53.525 165.772 53.5548 165.552C53.5748 165.572 53.5861 165.572 53.6061 165.572C53.5861 165.522 53.575 165.472 53.5252 165.422C53.7245 165.343 53.776 165.403 53.776 165.493C53.8358 165.373 53.8648 165.234 53.9944 165.433C54.2635 165.194 53.8164 164.913 53.8164 164.694C54.0254 164.385 54.0848 164.244 54.264 163.756L54.2829 163.846C54.4025 163.756 54.7128 163.875 54.7926 163.606C53.9255 162.847 55.1194 162.967 55.1297 162.278C54.7723 162.148 55.0704 161.967 54.8115 161.838C55.0464 161.718 55.1398 161.532 55.2025 161.325ZM58.8672 167.598C58.7374 167.634 58.5439 167.656 58.638 167.849C58.6901 167.872 58.7263 167.896 58.7566 167.915C58.7933 167.811 58.836 167.706 58.8672 167.598ZM58.967 167.14C58.8764 167.159 58.5787 167.02 58.5787 167.16C58.7533 167.278 58.8532 167.365 58.9103 167.426C58.934 167.337 58.9583 167.248 58.9804 167.158L58.967 167.14ZM58.8591 166.281C58.707 166.337 58.9626 166.531 59.0964 166.671C59.1039 166.578 59.1149 166.486 59.1342 166.396C59.0692 166.374 59.0376 166.344 59.0371 166.312C59.0077 166.362 59.0073 166.43 58.8591 166.281ZM59.1342 166.125C59.1035 166.156 59.0638 166.183 58.967 166.162C59.0268 166.182 59.0584 166.202 59.0883 166.222C59.1029 166.216 59.1182 166.215 59.1342 166.217C59.1336 166.185 59.1331 166.155 59.1342 166.125ZM59.2879 165.174C59.2848 165.258 59.3015 165.352 59.3256 165.451C59.3604 165.391 59.3965 165.331 59.4362 165.273C59.3938 165.236 59.3452 165.201 59.2879 165.174ZM59.7975 164.702C59.8056 164.687 59.8112 164.67 59.8191 164.654C59.7906 164.637 59.7637 164.618 59.7355 164.603C59.7401 164.622 59.765 164.66 59.7975 164.702ZM55.9872 160.142C55.8783 160.227 55.7762 160.316 55.6879 160.422C55.8492 160.422 55.9469 160.298 55.9872 160.142ZM56.3998 159.814C56.4359 159.83 56.4695 159.856 56.4969 159.902C56.4666 159.861 56.4465 159.819 56.4375 159.777C56.4243 159.789 56.4133 159.802 56.3998 159.814ZM57.3274 158.482C57.2627 158.643 57.1655 158.808 57.0739 158.973C57.0236 158.914 56.8647 159.032 56.8744 158.874C56.8666 159 56.8401 159.111 56.8097 159.211C57.0622 159.204 57.0687 158.757 57.3948 158.693L57.3274 158.482ZM57.6726 157.663C57.5 157.556 57.4068 157.436 57.1845 157.705C57.4181 157.906 57.4354 158.131 57.3652 158.367L57.4029 158.425C57.4727 158.255 57.672 158.344 57.7319 158.484C57.8216 158.444 57.7613 158.354 57.7912 158.224L57.953 158.405C58.1706 158.284 57.7424 157.865 57.6726 158.035C57.5771 157.762 57.6057 157.684 57.6726 157.663ZM57.7265 157.128C57.6144 157.316 57.5642 157.522 57.6861 157.654C57.8126 157.632 58.0455 157.768 57.953 157.385L57.7265 157.128ZM59.2474 155.571C58.8703 155.622 58.5045 155.67 58.22 155.919L58.5193 156.168C58.3299 156.567 58.2096 156.028 57.8209 156.278L58.2793 156.458L57.9557 156.94C58.1202 156.991 58.3115 157.121 58.3117 156.777L58.5193 156.916C58.5493 156.787 58.6194 156.697 58.371 156.557C58.69 156.248 59.2088 155.988 59.5575 155.828C59.6533 155.578 59.3407 155.765 59.2474 155.571ZM56.4214 153.268C56.3246 153.219 56.232 153.224 56.0573 153.424C56.0779 153.443 56.0889 153.466 56.1058 153.486C56.1138 153.463 56.1306 153.44 56.1382 153.413L56.3378 153.563C56.3891 153.447 56.4461 153.358 56.4214 153.268ZM56.6694 152.812C56.707 152.785 56.747 152.761 56.7854 152.735L56.8043 152.625C56.7564 152.684 56.7093 152.747 56.6694 152.812ZM58.309 151.094C57.9585 151.153 57.6234 151.228 57.3328 151.466L57.6213 151.726C57.3824 152.165 57.3123 151.586 56.8744 151.865L57.3436 152.045L56.8609 152.684C57.2523 152.427 57.6701 152.205 57.9908 152.054C58.2195 151.705 57.7218 152.005 57.7211 151.726C57.771 151.157 58.1821 151.366 58.5409 151.187L58.309 151.094ZM63.8586 151.237C63.7531 151.32 63.6505 151.408 63.5485 151.497C63.6787 151.526 63.8031 151.528 63.8613 151.345C63.8519 151.305 63.857 151.269 63.8586 151.237ZM65.9755 149.969C65.7895 149.807 65.7683 150.171 65.7247 150.42C65.8178 150.507 65.9502 150.806 65.8946 150.577C66.1383 150.546 66.0794 150.216 66.0052 149.87L65.9755 149.969ZM60.7872 149.377C60.6958 149.473 60.601 149.566 60.5094 149.661C60.6168 149.593 60.7175 149.54 60.7629 149.579C60.7452 149.504 60.7576 149.438 60.7872 149.377ZM62.3944 147.723C62.1815 147.93 61.9742 148.144 61.7661 148.359C62.0199 148.176 62.2128 147.944 62.3944 147.723ZM73.2807 141.467C72.2087 142.113 71.0412 142.732 70.1418 142.85C69.0555 143.279 68.5266 144.219 67.4802 144.579L67.0919 144.508C66.9922 144.718 67.021 144.788 66.7818 144.918C66.8615 144.758 66.6623 144.777 66.5526 144.757L66.4016 145.087C66.1029 144.819 66.1232 146.045 65.8541 145.726L65.5953 145.545C64.6197 145.881 63.7635 146.479 62.9634 147.188C63.0285 147.153 63.098 147.125 63.1737 147.104C63.1348 147.382 63.4741 147.083 63.5836 147.263C63.9518 147.193 63.6039 146.874 63.8829 146.734L64.3009 146.844C64.5899 146.036 64.9492 146.913 65.3876 146.375C65.5072 145.776 66.4153 146.095 66.7144 145.356L66.8627 145.556C67.1717 145.107 67.6498 145.376 67.909 145.037C68.1282 145.196 67.8891 145.197 68.0681 145.466C68.2973 145.067 68.258 145.974 68.3377 145.585C68.9653 145.535 68.7867 144.11 69.3139 143.889C69.6427 143.241 70.5701 143.878 70.3818 143.29L70.0825 143.39L70.789 142.96L70.9103 143.15C71.1404 142.851 71.9775 142.76 72.1966 142.271C72.1966 142.291 72.2352 142.301 72.2748 142.33C72.5835 141.982 72.8136 142.212 73.0029 141.723V141.822C73.0694 141.695 73.165 141.578 73.2807 141.467ZM76.4033 144.107C76.1106 144.151 75.8174 144.197 75.5269 144.244C75.5207 144.45 75.4485 144.666 75.3355 144.878C75.3135 144.917 75.2819 144.953 75.2573 144.993C75.3592 144.953 75.4696 144.916 75.5809 144.867H75.5404C75.8848 144.613 76.1587 144.354 76.4033 144.107ZM78.2748 139.477C77.6967 139.527 77.1071 139.577 76.549 139.697C76.0012 139.827 75.4825 140.035 75.0442 140.364C74.8482 140.486 74.6329 140.622 74.4051 140.767C74.8651 140.55 75.3545 140.354 75.7642 140.166C75.9242 140.464 76.433 140.125 76.8213 139.906C76.6917 139.956 76.7296 140.116 76.7296 140.166C77.1682 139.587 78.0574 140.144 78.4959 139.525V139.576C78.6161 139.618 78.7872 139.514 78.9651 139.422C78.7368 139.441 78.5066 139.461 78.2748 139.477ZM79.7526 139.331C79.6685 139.344 79.5841 139.356 79.4991 139.367C79.5356 139.397 79.5715 139.438 79.6015 139.496C79.6503 139.437 79.7018 139.383 79.7526 139.331Z" fill="#BC85AD"/>
<path d="M131.684 173.968C131.684 173.968 131.663 173.968 131.652 173.957H131.684V173.968Z" fill="#BC85AD"/>
<path d="M135.726 173.629C135.706 173.65 135.654 173.649 135.602 173.629H135.726Z" fill="#BC85AD"/>
<path d="M132.833 168.318C132.812 168.349 132.76 168.349 132.709 168.349L132.833 168.318Z" fill="#BC85AD"/>
<path fill-rule="evenodd" clip-rule="evenodd" d="M121.612 153.413C121.991 153.233 122.58 153.094 123.468 153.334C123.398 153.713 123.488 153.891 123.867 154.111L124.066 153.902C124.026 154.201 124.313 154.271 124.463 154.43C124.762 154.41 124.694 154.131 125.013 154.241C125.242 154.64 125.122 154.441 125.342 154.851C125.172 154.891 125.102 154.661 124.913 154.811C125.052 154.792 125.202 155.09 125.46 154.941L125.172 155.071C125.29 155.111 125.111 155.26 125.15 155.359C125.24 155.379 125.371 155.369 125.371 155.241C125.581 155.4 126.008 155.609 125.849 155.848C125.938 156.058 125.619 156.088 125.42 156.218C125.48 156.278 125.65 156.318 125.76 156.289L125.73 156.328L125.959 156.357C125.818 156.662 126.052 156.848 126.224 157.035C126.62 156.977 127.14 157.004 127.825 157.196C127.656 157.495 127.696 157.645 128.014 157.815L128.243 157.645C128.134 157.885 128.393 157.926 128.513 158.046C128.802 158.016 128.772 157.796 129.06 157.865C129.22 158.165 129.14 158.015 129.29 158.314C129.121 158.354 129.091 158.186 128.893 158.314C129.006 158.29 129.111 158.46 129.308 158.411L129.112 158.495C129.22 158.525 129.021 158.654 129.06 158.724C129.15 158.734 129.29 158.714 129.29 158.614C129.469 158.724 129.869 158.844 129.699 159.043C129.768 159.201 129.477 159.252 129.268 159.369C129.33 159.388 129.398 159.4 129.465 159.409C129.508 159.409 129.551 159.407 129.589 159.393L129.559 159.422H129.608C129.836 159.264 129.691 159.073 129.993 159.015C130.332 159.244 130.164 159.124 130.503 159.354C130.374 159.473 130.223 159.314 130.123 159.532C130.233 159.463 130.481 159.622 130.641 159.374L130.452 159.622C130.571 159.593 130.472 159.814 130.552 159.873C130.641 159.844 130.752 159.762 130.692 159.662C130.931 159.702 131.37 159.644 131.35 159.913C131.508 160.043 131.26 160.232 131.15 160.442C131.22 160.461 131.388 160.402 131.458 160.323V160.362L131.668 160.261C131.708 160.82 132.564 160.452 132.515 161.01C132.415 160.979 132.375 160.792 132.186 160.981L132.445 161.14C132.305 161.1 132.126 161.151 132.027 161.32C132.415 161.5 132.923 161.5 133.332 161.809C133.083 162.068 133.502 162.099 133.413 162.408C133.442 162.349 133.461 162.318 133.491 162.298C133.462 162.228 133.493 162.158 133.661 162.227C133.641 162.247 133.63 162.259 133.62 162.269C133.66 162.259 133.712 162.257 133.771 162.227C133.751 162.417 133.682 162.457 133.612 162.428C133.672 162.498 133.78 162.558 133.561 162.628C133.631 162.907 134.05 162.588 134.23 162.628C134.399 162.877 134.489 162.957 134.807 163.216H134.729C134.749 163.346 134.509 163.577 134.688 163.707C135.705 163.148 135.037 164.136 135.605 164.306C135.864 164.047 135.875 164.335 136.104 164.156C136.075 164.734 136.839 164.675 136.87 165.273H136.832C136.663 165.532 137.03 165.722 137.309 165.702C137.04 165.772 137.089 166.042 136.84 166.072C137.209 165.982 137.29 166.462 137.29 166.462C137.031 166.701 137.469 166.841 137.339 167.151L137.857 167.199L137.549 167.25C137.648 167.36 137.459 167.49 137.32 167.49C137.301 167.569 137.4 167.55 137.49 167.62L137.261 167.679C137.231 167.889 137.797 167.699 137.698 167.589C138.455 167.639 137.479 167.929 138.067 168.019L138.418 167.93C138.821 168.149 137.919 168.299 138.377 168.499L138.156 168.609C138.246 168.669 138.276 168.757 138.526 168.617C138.595 168.977 138.516 169.446 138.437 169.756C138.576 169.925 138.616 169.606 138.836 169.626C139.253 169.716 138.864 169.936 138.814 170.165L139.035 170.025L139.065 170.465H138.854L138.914 170.734C139.093 170.754 139.045 170.654 139.094 170.544C139.114 170.844 139.872 170.855 139.523 171.284L139.283 171.324C139.353 171.304 139.342 171.252 139.302 171.242C138.845 171.074 139.142 171.514 138.973 171.583C139.302 171.574 139.134 171.882 139.561 171.883C139.174 172.531 140.051 172.711 139.823 173.18C139.604 173.13 139.702 173.34 139.494 173.38C139.374 173.589 139.809 173.44 139.801 173.598L139.512 173.818C140.061 174.058 139.125 174.159 139.394 174.448C139.86 174.578 139.174 175.027 139.672 175.256L139.432 175.316C139.69 175.525 139.245 175.745 139.432 175.915C139.193 176.014 139.282 175.885 138.973 175.954C139.092 176.028 138.991 176.041 138.876 176.045V176.234C138.799 176.216 138.766 176.192 138.73 176.17C138.733 176.196 138.744 176.219 138.766 176.241C138.809 176.257 138.863 176.272 138.935 176.285L138.779 176.252C139.001 176.448 139.884 176.524 139.86 176.765C140.299 177.004 139.363 177.412 139.971 177.372L139.99 177.214L140.1 177.612L139.882 177.652C140.061 177.802 139.821 178.232 140.2 178.392C140.18 178.392 140.159 178.412 140.119 178.432C140.328 178.611 140.04 178.711 140.419 178.841H140.319C140.897 179.101 140.827 179.849 140.977 180.358C140.649 180.409 140.799 180.688 140.899 180.898C140.879 180.838 140.727 180.836 140.677 180.836C141.096 181.086 140.331 181.495 140.799 181.754H140.748C140.578 181.894 141.127 182.204 140.559 182.314C141.057 182.613 141.038 182.934 140.858 183.443H140.769C139.154 185.28 138.286 185.09 137.827 184.441C137.369 183.792 137.309 182.703 137.309 182.703L137.28 181.805C137.23 181.815 137.081 181.746 137.139 181.706C137.032 181.591 136.966 181.468 136.929 181.34C136.852 181.342 136.803 181.361 136.953 181.495L136.732 181.376C136.872 181.545 136.444 181.345 136.543 181.475C136.314 181.365 136.434 181.394 136.155 181.235C136.305 181.394 135.697 180.956 135.926 181.136C135.627 181.056 136.742 181.816 136.632 181.856C136.92 182.144 136.035 181.696 136.543 182.025L136.614 182.003L136.592 182.144L136.403 182.034C136.503 182.154 136.185 182.095 136.455 182.344C136.435 182.335 136.413 182.325 136.374 182.305C136.492 182.463 136.224 182.305 136.492 182.554L136.425 182.494C136.812 182.873 136.553 182.983 136.533 183.172C136.254 182.983 136.305 183.132 136.325 183.232C136.324 183.211 136.203 183.123 136.163 183.093C136.432 183.403 135.716 183.014 136.015 183.353L135.975 183.322C135.796 183.253 136.143 183.651 135.675 183.322C135.984 183.692 135.884 183.742 135.605 183.732L135.538 183.672C135.138 183.517 134.799 183.361 134.513 183.212C134.198 183.987 133.05 182.723 132.757 183.472C132.488 183.871 131.951 184.561 131.452 184.132C131.133 184.123 131.023 184.672 130.684 184.542L130.546 184.302C130.526 184.442 130.545 184.511 130.465 184.511C130.475 184.411 130.416 184.341 130.376 184.271L130.347 184.48C130.237 184.103 130.297 185.179 130.188 184.76L130.096 184.48C129.299 183.943 128.711 185.061 127.944 184.991C127.735 184.722 127.554 184.153 127.375 184.093L127.415 184.48C127.306 184.61 127.355 184.162 127.216 184.042L127.316 184.5L127.076 184.61L127.105 184.511C127.016 184.542 126.937 184.652 126.957 184.901C126.917 184.681 126.926 184.511 126.817 184.511C126.867 185.08 126.707 185.139 126.558 185.229C126.557 185.16 126.489 185.1 126.528 185.011C126.239 185.748 125.989 184.491 125.7 185.26V185.189C125.432 184.811 125.342 185.418 125.053 185.099L125.072 185.39C124.943 185.3 124.793 185.319 124.643 185.509L124.665 185.41L124.565 185.44V185.37C124.525 185.46 124.424 185.35 124.344 185.529V185.46C124.294 185.331 124.226 185.409 124.166 185.529L124.107 185.291C123.937 185.629 123.708 185.221 123.548 185.63H123.557L123.538 185.658C123.546 185.649 123.543 185.634 123.543 185.63C123.245 185.68 122.918 185.78 122.621 185.72C121.963 185.87 121.853 185.319 121.275 185.099L121.286 185.11C120.578 185.23 120.118 185.978 119.66 185.249C119.645 185.232 119.423 184.974 119.423 184.491C119.423 184.06 119.621 183.45 120.234 182.655C118.847 182.648 118.588 181.995 118.643 181.376C118.683 180.977 118.881 180.568 119.05 180.248C119.21 179.929 119.371 179.698 119.371 179.698C119.55 179.449 119.739 179.209 119.908 178.96C119.858 178.94 119.79 178.799 119.859 178.799C119.78 178.181 120.267 177.861 120.725 177.502C121.174 177.143 121.672 176.783 121.572 176.194C121.572 175.815 121.572 175.306 121.672 174.847C121.741 174.378 121.902 173.958 122.27 173.748C122.549 173.289 122.162 172.721 122.51 172.301L122.81 172.242C122.71 172.122 122.65 172.101 122.699 171.982C122.769 172.071 122.878 172.022 122.958 172.002L122.799 171.812C123.197 171.872 122.243 171.313 122.659 171.392L122.958 171.412C123.945 170.403 123.188 168.836 123.497 167.618C123.826 167.349 124.403 167.21 124.514 166.891L124.126 166.86C124.026 166.631 124.453 166.84 124.603 166.611L124.126 166.66L124.074 166.222L124.166 166.301C124.156 166.151 124.065 165.972 123.815 165.962C124.025 165.942 124.214 165.991 124.215 165.792C123.647 165.762 123.607 165.473 123.527 165.213C123.597 165.223 123.656 165.124 123.745 165.193C123.038 164.614 124.335 164.284 123.538 163.745H123.608C123.975 163.286 123.388 163.136 123.667 162.637L123.379 162.677C123.438 162.447 123.396 162.188 123.187 161.959L123.287 161.979L123.238 161.809H123.308C123.209 161.749 123.297 161.57 123.109 161.45H123.179C123.299 161.34 123.208 161.239 123.068 161.159L123.287 161.021C122.889 160.791 123.237 160.322 122.791 160.162C122.661 159.693 122.401 159.212 122.351 158.713C121.913 157.765 122.36 157.396 122.17 156.478L122.13 156.458C121.512 155.57 120.666 155.759 120.766 154.91C120.764 154.904 120.708 154.546 120.935 154.091C121.015 153.842 121.234 153.602 121.612 153.413ZM124.047 179.26C123.951 179.482 123.847 179.701 123.767 179.898C123.468 179.748 123.417 180.098 123.357 180.347C123.387 180.277 123.247 180.188 123.217 180.158C123.386 180.637 122.532 180.557 122.721 181.065L122.691 181.037C122.462 181.047 122.679 181.664 122.162 181.406C122.227 181.615 122.237 181.786 122.203 181.935C122.229 181.874 122.261 181.793 122.273 181.726V181.765L122.332 181.556C122.482 181.965 122.741 181.127 122.861 181.576C122.811 181.616 122.751 181.496 122.721 181.765L122.861 181.717C122.801 181.777 122.74 181.935 122.739 182.124C122.949 182.014 123.139 181.646 123.379 181.576C123.359 181.935 123.519 181.656 123.589 181.935V181.805C123.559 181.775 123.547 181.705 123.627 181.635V181.686C123.637 181.646 123.657 181.605 123.667 181.545C123.707 181.685 123.697 181.766 123.667 181.796C123.717 181.806 123.768 181.766 123.718 181.975C123.848 182.114 123.878 181.587 123.948 181.477C124.054 181.5 124.104 181.491 124.209 181.448C124.104 181.29 124.047 181.133 124.026 180.986C123.947 180.431 124.349 179.964 124.355 179.958L124.705 179.579C124.666 179.549 124.585 179.431 124.643 179.449C124.639 179.436 124.639 179.423 124.635 179.411C124.413 179.369 124.218 179.318 124.047 179.26ZM124.352 181.635C124.375 181.734 124.407 181.831 124.465 181.796C124.467 181.775 124.469 181.754 124.471 181.735C124.431 181.7 124.386 181.671 124.352 181.635ZM131.77 174.622C131.735 174.632 131.733 174.666 131.792 174.748L131.563 174.666C131.603 174.746 131.571 174.788 131.841 174.878C131.701 175.037 131.371 175.166 131.142 175.245C131.172 175.385 131.374 175.285 131.533 175.415C131.812 175.684 131.404 175.556 131.234 175.615L131.482 175.686L131.272 175.864L131.094 175.754L131.005 175.895C131.143 176.004 131.143 175.935 131.242 175.915C131.104 176.045 131.7 176.474 131.204 176.454L130.994 176.333C131.054 176.363 131.073 176.343 131.053 176.313C130.775 175.996 130.784 176.332 130.616 176.265C130.873 176.434 130.586 176.475 130.935 176.714C130.297 176.764 130.914 177.333 130.517 177.403C130.367 177.264 130.347 177.401 130.158 177.302C129.959 177.322 130.385 177.502 130.295 177.562L129.958 177.483C130.286 177.89 129.478 177.404 129.567 177.683C129.886 178.002 129.12 177.802 129.419 178.192L129.201 178.081C129.319 178.32 128.861 178.162 128.931 178.341C128.702 178.251 128.83 178.251 128.551 178.101C128.68 178.321 128.104 177.821 128.313 178.031C127.975 178.041 129.047 178.847 128.901 178.969C129.15 179.328 128.213 178.96 128.721 179.299L128.81 179.24L128.721 179.489L128.532 179.378C128.612 179.548 128.223 179.599 128.462 179.898C128.442 179.888 128.423 179.887 128.383 179.867C128.473 180.077 128.193 179.948 128.432 180.237L128.362 180.178C128.502 180.368 128.513 180.53 128.475 180.678L128.491 180.797C128.482 180.734 128.458 180.728 128.454 180.75C128.452 180.755 128.453 180.761 128.451 180.766C128.395 181.164 128.592 180.969 128.632 181.147C128.612 180.838 128.78 181.057 128.75 180.638C129.089 181.137 129.121 180.318 129.36 180.607C129.35 180.817 129.449 180.748 129.489 180.957C129.556 181.043 129.539 180.905 129.532 180.797C129.368 180.379 129.6 180.127 129.6 180.127L129.818 179.918C129.778 179.888 129.679 179.79 129.737 179.819C129.309 179.15 130.944 179.778 130.565 179.149C130.435 178.8 130.178 178.231 130.757 178.31C130.923 178.21 130.528 177.852 130.786 177.802L131.045 177.881C130.945 177.791 130.886 177.761 130.916 177.731C130.995 177.801 131.083 177.811 131.153 177.83L130.994 177.701C131.363 177.86 130.447 177.312 130.835 177.491L131.104 177.601C131.891 177.531 131.153 176.713 131.452 176.404C131.751 176.414 132.33 176.563 132.439 176.483L132.07 176.355C131.99 176.255 132.389 176.453 132.539 176.423L132.091 176.293L132.062 176.135L132.14 176.183C132.149 176.133 132.069 176.045 131.832 175.965C132.041 176.035 132.202 176.093 132.232 176.034C131.694 175.854 131.672 175.756 131.622 175.646C131.682 175.666 131.753 175.656 131.832 175.706C131.195 175.316 132.458 175.596 131.77 175.197L131.841 175.217C132.249 175.187 131.683 174.968 132.04 174.897L131.762 174.827C131.856 174.784 131.873 174.721 131.77 174.622ZM132.728 179.469C132.579 179.445 132.769 179.608 132.989 179.788C133.105 179.798 133.313 180.025 133.329 179.779C133.124 179.688 133.228 179.705 132.957 179.559C133.116 179.729 132.5 179.29 132.728 179.469ZM133.545 179.649C133.574 179.685 133.575 179.703 133.566 179.715C133.594 179.751 133.632 179.805 133.674 179.889C133.67 179.823 133.677 179.765 133.68 179.715L133.545 179.649ZM133.432 179.733C133.371 179.729 133.32 179.727 133.337 179.768C133.387 179.825 133.407 179.781 133.432 179.733ZM134.143 179.559C134.159 179.571 134.174 179.584 134.189 179.596L134.241 179.618C134.194 179.576 134.157 179.547 134.133 179.526L134.143 179.559ZM134.227 179.467C134.164 179.493 133.717 179.271 133.815 179.429L133.817 179.433C133.89 179.415 133.989 179.434 134.114 179.469L134.117 179.48C134.195 179.537 134.272 179.558 134.34 179.588L134.181 179.469C134.285 179.519 134.277 179.506 134.227 179.467ZM134.281 179.389C134.287 179.39 134.294 179.387 134.3 179.387L134.232 179.367L134.281 179.389ZM134.284 179.24C134.165 179.226 134.338 179.314 134.427 179.378C134.494 179.368 134.54 179.35 134.572 179.321C134.468 179.262 134.446 179.317 134.284 179.24ZM134.861 178.39C135.01 178.479 135.001 178.432 135.09 178.432C135.061 178.454 135.099 178.503 135.152 178.559C135.333 178.603 135.49 178.634 135.538 178.61L135.179 178.46C135.089 178.36 135.477 178.57 135.627 178.57L135.187 178.41L135.176 178.37L135.112 178.41L134.931 178.31L134.861 178.39ZM135.228 178.291C135.219 178.275 135.206 178.259 135.184 178.24C135.13 178.234 135.078 178.226 135.041 178.231L135.228 178.291ZM125.301 174.367C125.421 174.696 124.914 174.667 124.983 174.926C124.724 174.896 124.872 174.837 124.573 174.737C124.713 175.016 124.095 174.507 124.314 174.737C124.138 174.825 124.295 175.035 124.495 175.261C124.563 175.229 124.634 175.198 124.705 175.166C125.092 174.995 125.482 174.807 125.482 174.42L125.301 174.367ZM135.201 173.988C135.31 174.158 135.65 174.348 135.699 174.547C135.351 174.487 135.609 174.657 135.33 174.657C135.39 174.667 135.43 174.677 135.459 174.677C135.489 174.657 135.559 174.667 135.619 174.737H135.57C135.575 174.738 135.58 174.741 135.586 174.743C135.652 174.743 135.725 174.741 135.805 174.746C135.912 174.754 136.032 174.769 136.163 174.79L136.204 174.757C136.054 174.707 135.985 174.717 135.975 174.598C136.084 174.637 136.145 174.538 136.215 174.488L135.993 174.409C136.362 174.279 135.267 174.259 135.675 174.129L135.74 174.098C135.74 174.068 135.754 174.034 135.559 173.997L135.61 174.118C135.541 174.068 135.39 174.008 135.201 173.988ZM135.263 174.763C135.272 174.762 135.282 174.762 135.292 174.761C135.286 174.759 135.278 174.759 135.271 174.757C135.267 174.758 135.265 174.761 135.263 174.763ZM131.841 174.406L131.846 174.409C131.886 174.395 131.838 174.363 131.762 174.321C131.778 174.342 131.801 174.371 131.841 174.406ZM131.884 174.261C131.803 174.255 131.712 174.243 131.749 174.307L131.981 174.327C131.934 174.303 131.904 174.281 131.884 174.261ZM131.582 173.807C131.522 173.827 131.611 173.879 131.641 173.948L131.423 173.838C131.283 173.898 131.811 174.137 131.811 174.047C131.834 174.066 131.852 174.085 131.87 174.1C131.872 174.061 131.842 174.017 131.692 173.957C131.686 173.924 131.675 173.891 131.665 173.856C131.635 173.842 131.606 173.825 131.582 173.807ZM132.129 166.338C131.868 166.443 131.841 166.552 132.021 166.77H132.299C132.09 166.88 132.289 167.009 132.339 167.129C132.599 167.219 132.679 167.08 132.898 167.239V167.609C132.728 167.569 132.778 167.448 132.539 167.448C132.668 167.488 132.659 167.668 132.957 167.688L132.65 167.649C132.747 167.708 132.512 167.709 132.509 167.767C132.589 167.807 132.707 167.848 132.757 167.79C132.867 167.929 133.166 168.157 132.927 168.217C132.917 168.336 132.627 168.248 132.388 168.248C132.418 168.287 132.559 168.367 132.668 168.397H132.628L132.828 168.488C132.39 168.657 133.197 169.037 132.739 169.157C132.689 169.097 132.817 169.015 132.558 168.965L132.598 169.146C132.538 169.066 132.388 168.965 132.199 168.965C132.299 169.225 132.608 169.506 132.628 169.815C132.27 169.746 132.518 169.985 132.229 170.025C132.288 170.025 132.329 170.035 132.358 170.036C132.398 169.996 132.468 169.995 132.517 170.104H132.469C132.499 170.124 132.539 170.144 132.598 170.174C132.45 170.214 132.371 170.185 132.35 170.146C132.341 170.205 132.358 170.274 132.17 170.174C132.01 170.294 132.519 170.434 132.609 170.544C132.539 170.714 132.528 170.774 132.558 171.033L132.509 170.993C132.44 171.043 132.11 170.984 132.14 171.123C133.179 171.499 132.167 171.456 132.337 171.775C132.416 171.762 132.506 171.748 132.609 171.742C133.107 171.722 133.875 171.782 134.971 172.341C134.682 172.401 134.653 172.471 134.853 172.621H135.13C134.942 172.681 135.151 172.771 135.201 172.841C135.47 172.911 135.54 172.819 135.77 172.929C135.789 173.079 135.778 173.01 135.788 173.16C135.609 173.13 135.648 173.05 135.419 173.05C135.539 173.08 135.549 173.199 135.848 173.22L135.54 173.18C135.637 173.219 135.415 173.21 135.411 173.248C135.49 173.268 135.618 173.309 135.659 173.27C135.769 173.37 136.087 173.52 135.859 173.55C135.856 173.628 135.558 173.56 135.33 173.55C135.361 173.57 135.51 173.629 135.619 173.649H135.578L135.778 173.708C135.486 173.773 135.826 173.931 135.877 174.036L135.945 174.008C136.323 172.721 134.978 171.762 134.699 170.634C134.859 170.265 135.337 169.865 135.287 169.555L134.928 169.716C134.739 169.577 135.205 169.546 135.236 169.287L134.847 169.555L134.599 169.227L134.707 169.247C134.627 169.127 134.468 169.027 134.249 169.137C134.428 169.017 134.599 168.977 134.529 168.807C134.011 169.056 133.851 168.848 133.672 168.668C133.731 168.638 133.741 168.528 133.85 168.547C132.975 168.436 133.94 167.54 133.014 167.49L133.073 167.459C133.192 166.901 132.595 167.09 132.615 166.541L132.385 166.722C132.357 166.568 132.274 166.432 132.129 166.338ZM127.07 170.344C126.874 170.229 126.889 170.632 126.736 170.615C126.781 170.637 126.811 170.661 126.833 170.687C126.942 170.582 127.017 170.467 127.07 170.344ZM127.095 169.784C127.129 169.807 127.157 169.817 127.178 169.82C127.182 169.717 127.182 169.611 127.175 169.505L127.095 169.784ZM127.777 167.193C127.653 167.215 127.565 167.254 127.704 167.428H127.453C127.503 167.528 127.485 167.618 127.774 167.618C127.756 167.684 127.72 167.75 127.688 167.818C127.917 167.741 128.128 167.662 128.184 167.53L127.796 167.499C127.696 167.329 128.123 167.498 128.273 167.329L127.806 167.349L127.777 167.193ZM127.564 166.644C127.53 166.68 127.538 166.725 127.639 166.814C127.78 166.814 127.877 166.812 127.885 166.7C127.749 166.69 127.646 166.67 127.564 166.644ZM127.124 166.131C127.079 166.2 127.137 166.257 127.221 166.294C127.217 166.283 127.212 166.272 127.208 166.261C127.277 166.271 127.337 166.201 127.426 166.25C127.387 166.227 127.354 166.203 127.326 166.18L127.124 166.131ZM131.509 165.667C131.443 165.694 131.382 165.719 131.309 165.722C131.508 165.83 131.718 165.971 131.946 166.147L131.886 166.092L131.946 166.052C131.837 166.061 131.826 165.883 131.609 165.883L131.668 165.843C131.71 165.717 131.625 165.677 131.509 165.667ZM131.552 165.46L131.568 165.433C131.552 165.435 131.537 165.429 131.522 165.429C131.531 165.44 131.542 165.449 131.552 165.46Z" fill="#BC85AD"/>
<path d="M68.7126 169.989L68.7072 169.985H68.8771L68.7126 169.989Z" fill="#BC85AD"/>
<path d="M67.3238 162.049C67.3028 162.09 67.2513 162.091 67.1998 162.091L67.3238 162.049Z" fill="#BC85AD"/>
<path d="M131.471 160.173C131.5 160.224 131.45 160.316 131.45 160.316L131.471 160.173Z" fill="#BC85AD"/>
<path d="M129.681 159.252C129.68 159.305 129.638 159.335 129.586 159.356L129.681 159.252Z" fill="#BC85AD"/>
<path d="M125.884 156.19C125.894 156.262 125.852 156.292 125.8 156.313L125.884 156.19Z" fill="#BC85AD"/>
<path d="M76.2712 148.632C76.1955 148.651 76.1285 148.59 76.1202 148.582L76.2712 148.632Z" fill="#BC85AD"/>
</svg>
