<svg width="246" height="473" viewBox="0 0 246 473" fill="none" xmlns="http://www.w3.org/2000/svg">
<path d="M156.742 208.901C156.742 208.901 156.822 203.138 160.009 210.01C159.82 210.7 159.86 211.279 160.198 212.207L160.448 211.988C160.338 212.597 160.617 213.076 160.746 213.576C161.055 213.815 161.025 213.127 161.334 213.677C161.503 214.764 161.423 214.226 161.593 215.304C161.404 215.254 161.363 214.685 161.154 214.864C161.281 214.936 161.4 215.619 161.63 215.629L161.392 215.683C161.522 215.873 161.313 216.064 161.353 216.333C161.452 216.453 161.593 216.532 161.593 216.222C161.792 216.772 162.231 217.513 162.061 217.972C162.151 218.51 161.82 218.381 161.611 218.57C161.663 218.709 161.809 218.893 161.917 218.928L161.982 218.761C161.982 218.843 161.972 218.9 161.956 218.938L161.961 218.94L161.931 219.011L162.171 219.211C161.923 220.359 162.906 221.239 162.598 222.227C162.508 221.988 162.568 221.526 162.299 221.556L162.47 222.336C162.36 222.026 162.161 221.788 161.991 221.938C162.28 223.026 162.768 223.926 163.027 225.244C162.668 225.344 163.066 226.132 162.857 226.622C162.906 226.552 162.948 226.532 162.978 226.532C162.978 226.322 163.037 226.242 163.167 226.671C163.147 226.671 163.135 226.692 163.115 226.692C163.155 226.762 163.207 226.831 163.276 226.871C163.187 227.241 163.108 227.201 163.048 227.031C163.078 227.301 163.156 227.58 162.917 227.38C162.877 228.109 163.415 228.1 163.575 228.48C163.655 229.279 163.705 229.588 163.934 230.637L163.855 230.507C163.835 230.807 163.515 230.958 163.654 231.517C164.849 231.817 163.874 232.994 164.4 234.192C164.739 233.983 164.67 234.642 164.948 234.553C164.759 235.811 165.547 236.681 165.447 238.059L165.408 238C165.179 238.4 165.508 239.287 165.807 239.557C165.518 239.407 165.517 240.076 165.259 239.868C165.656 240.098 165.657 241.307 165.657 241.307C165.358 241.576 165.785 242.406 165.606 242.995L166.135 243.652L165.807 243.442C165.896 243.822 165.685 243.924 165.536 243.784C165.507 243.963 165.627 244.034 165.706 244.283L165.457 244.194C165.408 244.672 166.015 244.791 165.925 244.422C166.712 245.291 165.666 245.022 166.264 245.821L166.632 245.941C167.03 246.86 166.066 246.36 166.534 247.279L166.294 247.34C166.393 247.589 166.415 247.829 166.683 247.709C166.723 248.628 166.602 249.726 166.522 250.455C166.682 251.005 166.713 250.216 166.952 250.455C167.39 251.005 166.981 251.246 166.921 251.795L167.15 251.614L167.171 252.714L166.952 252.593L167.012 253.323C167.2 253.511 167.14 253.202 167.189 252.963C167.219 253.752 168.007 254.311 167.658 255.16L167.409 255.101C167.478 255.101 167.469 254.98 167.43 254.92C166.952 254.192 167.269 255.527 167.101 255.589C167.429 255.769 167.28 256.5 167.728 256.75C167.35 258.207 168.285 259.186 168.097 260.284C167.858 260.036 167.977 260.645 167.768 260.645C167.668 261.124 168.118 260.945 168.118 261.375L167.838 261.803C168.445 262.722 167.469 262.533 167.798 263.452C168.306 264.001 167.639 264.91 168.206 265.769L167.968 265.828C168.267 266.507 167.848 266.927 168.066 267.476C167.827 267.656 167.908 267.358 167.6 267.417C167.898 267.966 167.062 267.337 167.39 267.686C167.201 268.535 168.635 269.165 168.666 269.954C169.174 270.733 168.276 271.581 168.894 271.651V271.213L169.092 272.363L168.873 272.421C169.082 272.871 168.934 274.021 169.363 274.55C169.343 274.55 169.321 274.59 169.281 274.63C169.54 275.199 169.252 275.399 169.68 275.878L169.582 275.829C170.229 276.699 170.339 278.745 170.617 280.183C170.289 280.263 170.526 281.082 170.676 281.681C170.645 281.492 170.488 281.501 170.438 281.471C170.936 282.26 170.258 283.281 170.806 284.09L170.757 284.059C170.618 284.409 171.254 285.358 170.706 285.588C171.294 286.507 171.364 287.405 171.324 288.854L171.224 288.804C168.963 298.822 167.479 286.226 167.479 286.226L167.201 283.628C167.151 283.638 166.981 283.42 167.031 283.32C165.935 280.573 167.201 277.136 166.205 274.449C165.658 272.521 164.72 269.166 165.018 267.278C164.919 265.75 164.252 264.6 164.272 263.131L164.482 262.703C164.313 262.463 164.241 262.463 164.211 262.093C164.331 262.272 164.381 262.034 164.44 261.914L164.193 261.544C164.56 261.364 163.397 260.636 163.813 260.515L164.083 260.324C164.322 256.849 162.827 253.063 162.518 249.407C162.688 248.488 163.206 247.889 163.167 246.97L162.777 247.029C162.579 246.421 163.077 246.849 163.127 246.181L162.689 246.48L162.439 245.26L162.558 245.451C162.488 245.022 162.329 244.552 162.08 244.592C162.289 244.492 162.469 244.571 162.409 244.022C161.841 244.082 161.693 243.283 161.513 242.533C161.583 242.542 161.602 242.246 161.721 242.435C160.785 240.886 161.941 239.797 160.975 238.309H161.045C161.254 237 160.597 236.57 160.737 235.132L160.457 235.222C160.467 234.563 160.356 233.824 160.068 233.126L160.177 233.194L160.079 232.704H160.149C160.04 232.514 160.077 232.036 159.848 231.656H159.918C160.008 231.357 159.889 231.047 159.729 230.787L159.93 230.448C159.476 229.696 159.724 228.464 159.235 227.839V227.853L159.193 227.78C159.205 227.786 159.212 227.799 159.219 227.811C158.97 226.395 158.643 224.86 158.494 223.395C157.876 220.369 158.316 219.509 158.067 216.543L158.146 216.484C157.499 213.158 156.503 211.798 156.742 208.901Z" fill="#F5C469"/>
<path d="M127.798 209.271C127.821 209.236 130.545 204.994 130.118 211.739C129.631 212.158 129.402 212.617 129.262 213.496L129.58 213.456C129.201 213.865 129.221 214.365 129.102 214.805C129.261 215.144 129.56 214.605 129.57 215.175C129.222 216.083 129.402 215.634 129.043 216.533C128.914 216.403 129.142 215.952 128.873 215.982C128.953 216.112 128.695 216.793 129.004 216.823L128.703 216.722C128.723 216.931 128.454 216.963 128.365 217.193C128.395 217.332 128.485 217.461 128.624 217.233C128.544 217.752 128.574 218.53 128.215 218.789C128.036 219.239 127.817 218.98 127.549 219.02C127.519 219.17 127.578 219.429 127.677 219.47L127.618 219.51L127.728 219.778C126.981 220.518 127.429 221.668 126.702 222.267C126.732 222.048 126.99 221.727 126.751 221.617L126.543 222.286C126.593 221.997 126.532 221.717 126.313 221.747C126.054 222.716 126.064 223.645 125.676 224.764C125.317 224.664 125.296 225.452 124.888 225.722C124.967 225.702 125.009 225.702 125.039 225.722C125.139 225.573 125.227 225.533 125.137 225.922C125.118 225.913 125.108 225.913 125.088 225.913C125.098 225.992 125.107 226.062 125.147 226.132C124.888 226.361 124.839 226.282 124.869 226.132C124.779 226.351 124.71 226.601 124.601 226.332C124.232 226.861 124.699 227.121 124.659 227.491C124.36 228.13 124.261 228.39 123.962 229.299V229.158C123.803 229.378 123.465 229.339 123.325 229.829C124.211 230.648 122.828 231.058 122.728 232.226C123.115 232.247 122.748 232.705 123.036 232.775C122.299 233.634 122.577 234.682 121.84 235.671V235.601C121.462 235.791 121.333 236.621 121.462 236.981C121.283 236.721 120.974 237.23 120.844 236.941C121.083 237.31 120.515 238.219 120.515 238.219C120.128 238.27 120.117 239.118 119.69 239.467L119.839 240.226L119.65 239.896C119.551 240.216 119.33 240.196 119.261 240.016C119.151 240.136 119.212 240.248 119.172 240.478L118.993 240.287C118.724 240.626 119.201 241.026 119.291 240.697C119.57 241.745 118.783 241.027 118.932 241.926L119.188 242.197C119.108 243.082 118.504 242.226 118.484 243.153L118.244 243.084C118.204 243.314 118.116 243.513 118.405 243.553C118.017 244.272 117.409 245.041 117.001 245.55C116.882 246.039 117.279 245.462 117.37 245.76C117.489 246.389 117.03 246.381 116.721 246.76L117.01 246.739L116.523 247.58L116.383 247.368L116.094 247.947C116.174 248.177 116.263 247.919 116.423 247.759C116.084 248.378 116.511 249.187 115.814 249.657L115.625 249.487C115.685 249.517 115.725 249.428 115.725 249.358C115.646 248.559 115.305 249.737 115.126 249.697C115.325 249.997 114.857 250.477 115.126 250.886C114.132 251.805 114.49 253.014 113.813 253.743C113.724 253.433 113.543 253.961 113.363 253.851C113.055 254.171 113.523 254.261 113.324 254.581L112.885 254.76C112.985 255.759 112.23 255.141 112.09 255.989C112.279 256.658 111.272 257.019 111.372 257.948L111.134 257.878C111.084 258.537 110.515 258.647 110.455 259.175C110.167 259.195 110.375 259.007 110.078 258.897C110.077 259.454 109.638 258.568 109.767 258.996C109.211 259.546 110.167 260.735 109.819 261.344C109.888 262.193 108.723 262.393 109.231 262.752L109.429 262.423L109.072 263.391L108.853 263.332C108.823 263.771 108.165 264.561 108.284 265.18C108.274 265.17 108.234 265.199 108.184 265.199C108.144 265.748 107.806 265.759 107.955 266.339L107.895 266.249C108.064 267.228 107.208 268.826 106.78 270.055C106.451 269.965 106.281 270.693 106.132 271.223C106.192 271.063 106.052 270.983 106.022 270.943C106.092 271.781 105.028 272.211 105.127 273.1L105.096 273.06C104.818 273.259 104.928 274.289 104.35 274.19C104.44 275.179 104.08 275.888 103.373 276.966L103.315 276.877C96.7109 283.32 101.272 273.06 101.272 273.06L102.237 270.952C102.188 270.929 102.149 270.685 102.237 270.634C102.556 268.017 105.246 266.049 105.635 263.522C106.063 261.784 106.801 258.787 107.937 257.508C108.564 256.3 108.513 255.1 109.21 254.002L109.59 253.783C109.57 253.523 109.509 253.481 109.648 253.192C109.668 253.391 109.828 253.233 109.938 253.173L109.898 252.772C110.306 252.822 109.64 251.696 110.057 251.805H110.376C112.189 249.297 112.657 245.69 114.081 242.774C114.649 242.174 115.377 241.964 115.765 241.255L115.406 241.106C115.516 240.547 115.755 241.116 116.103 240.647H115.586L115.945 239.597L115.963 239.797C116.103 239.438 116.173 239.01 115.945 238.909C116.173 238.939 116.294 239.087 116.493 238.638C115.985 238.399 116.222 237.719 116.411 237.07C116.471 237.11 116.632 236.901 116.642 237.101C116.552 235.463 118.055 235.212 117.915 233.604L117.976 233.644C118.763 232.765 118.395 232.105 119.181 231.086L118.892 231.016C119.201 230.516 119.449 229.907 119.529 229.238L119.59 229.349L119.739 228.929L119.799 228.969C119.789 228.77 120.048 228.43 120.028 228.02L120.089 228.06C120.307 227.881 120.336 227.581 120.326 227.312L120.655 227.151C120.615 226.352 121.413 225.532 121.264 224.813C121.702 223.615 122.139 222.287 122.686 221.109C123.563 218.512 124.331 218.081 125.496 215.714V215.704C126.473 212.858 126.244 211.339 127.798 209.271Z" fill="#F5C469"/>
<path d="M182.641 202.169C177.92 193.079 187.153 201.7 187.153 201.7L189.035 203.497C189.065 203.457 189.333 203.517 189.364 203.626C191.954 205.005 193.21 208.442 195.691 209.841C197.354 210.96 200.222 212.897 201.208 214.525C202.264 215.623 203.518 216.064 204.445 217.193L204.554 217.652C204.843 217.732 204.893 217.682 205.151 217.942C204.943 217.882 205.063 218.101 205.093 218.231L205.52 218.351C205.352 218.73 206.705 218.531 206.467 218.891L206.378 219.211C208.43 222.007 212.006 223.905 214.596 226.492C215.054 227.291 215.053 228.091 215.671 228.76L215.93 228.47C216.467 228.81 215.811 228.809 216.209 229.349L216.347 228.84L217.324 229.608L217.114 229.549C217.443 229.828 217.861 230.077 218.031 229.888C217.941 230.098 217.744 230.158 218.152 230.538C218.54 230.129 219.167 230.637 219.784 231.086C219.725 231.126 219.904 231.365 219.696 231.296C221.398 231.866 221.23 233.445 222.923 233.955L222.862 233.995C223.54 235.123 224.327 235.023 225.143 236.211L225.292 235.961C225.711 236.46 226.269 236.961 226.936 237.301L226.806 237.32L227.195 237.64L227.135 237.68C227.354 237.75 227.623 238.15 228.051 238.29L227.993 238.33C228.113 238.609 228.402 238.769 228.69 238.869L228.76 239.258C229.596 239.538 230.203 240.655 230.989 240.796C232.095 241.714 233.331 242.673 234.387 243.692C236.797 245.6 237.017 246.53 239.119 248.628L239.088 248.658C241.727 250.766 243.352 251.145 245.035 253.512C245.035 253.512 248.671 257.947 241.828 254.791C241.539 254.141 241.129 253.733 240.273 253.243L240.224 253.573C239.915 253.044 239.397 252.863 238.979 252.563C238.59 252.583 239.058 253.093 238.47 252.874C237.644 252.164 238.052 252.514 237.225 251.805C237.394 251.715 237.803 252.134 237.843 251.854C237.697 251.881 237.167 251.44 236.987 251.588L237.136 251.395C236.917 251.335 236.956 251.054 236.747 250.874C236.598 250.855 236.439 250.886 236.637 251.115C236.129 250.825 235.323 250.545 235.154 250.086C234.746 249.726 235.075 249.616 235.115 249.337C234.984 249.262 234.725 249.207 234.634 249.273L234.713 249.48C234.639 249.398 234.627 249.319 234.625 249.278C234.622 249.281 234.618 249.284 234.616 249.287L234.585 249.217H234.277C233.729 248.178 232.414 248.147 232.006 247.198C232.225 247.318 232.474 247.699 232.664 247.509L232.036 247.029C232.315 247.199 232.624 247.249 232.654 247.029C231.748 246.38 230.79 246.019 229.744 245.18C229.953 244.871 229.148 244.531 228.989 244.022C228.989 244.111 228.978 244.152 228.949 244.172C229.088 244.332 229.096 244.433 228.718 244.194C228.748 244.174 228.748 244.152 228.748 244.142C228.669 244.112 228.59 244.094 228.51 244.114C228.351 243.774 228.44 243.753 228.59 243.843C228.391 243.663 228.152 243.495 228.459 243.494C228.021 242.915 227.624 243.263 227.256 243.084C226.678 242.525 226.447 242.326 225.591 241.676L225.731 241.726C225.552 241.476 225.701 241.166 225.234 240.826C224.128 241.366 224.117 239.847 222.942 239.267C222.812 239.647 222.443 239.098 222.293 239.347C221.626 238.28 220.463 238.129 219.656 237.011L219.724 237.03C219.643 236.581 218.818 236.122 218.42 236.112C218.739 236.042 218.311 235.523 218.639 235.523C218.185 235.612 217.427 234.697 217.415 234.682C217.474 234.283 216.607 233.923 216.368 233.364L215.54 233.203L215.93 233.154C215.621 232.924 215.721 232.725 215.92 232.725C215.831 232.576 215.701 232.594 215.473 232.455L215.72 232.356C215.451 231.957 214.904 232.266 215.211 232.485C214.058 232.345 215.023 231.867 214.057 231.647L213.696 231.793C212.806 231.355 213.857 231.106 212.912 230.717L213.061 230.517C212.832 230.387 212.661 230.219 212.532 230.488C211.915 229.819 211.299 228.91 210.89 228.301C210.422 227.981 210.899 228.598 210.561 228.569C209.884 228.429 210.033 227.99 209.724 227.531L209.664 227.82L208.938 227.001L209.186 226.951L208.668 226.431C208.41 226.411 208.649 226.602 208.768 226.822C208.23 226.233 207.275 226.332 206.996 225.454L207.224 225.333C207.165 225.373 207.255 225.464 207.325 225.484C208.159 225.723 207.056 224.914 207.145 224.754C206.777 224.824 206.417 224.174 205.918 224.274C205.261 222.926 203.918 222.785 203.36 221.827C203.697 221.856 203.21 221.477 203.37 221.337C203.131 220.908 202.912 221.327 202.633 221.008L202.572 220.499C201.516 220.189 202.383 219.71 201.546 219.22C200.809 219.13 200.729 218.002 199.743 217.723L199.893 217.522C199.235 217.203 199.275 216.603 198.757 216.333C198.817 216.044 198.957 216.323 199.156 216.074C198.578 215.844 199.623 215.783 199.146 215.733C198.748 214.965 197.245 215.423 196.717 214.835C195.83 214.566 195.958 213.347 195.441 213.696L195.73 214.025L194.842 213.286L194.972 213.098C194.514 212.898 193.897 211.928 193.23 211.798C193.239 211.786 193.23 211.736 193.23 211.687C192.673 211.417 192.76 211.089 192.123 210.999L192.232 210.969C191.187 210.728 189.783 209.25 188.648 208.331C188.835 208.062 188.129 207.593 187.631 207.234C187.781 207.353 187.901 207.244 187.951 207.234C187.064 206.964 186.924 205.745 185.987 205.475H186.048C185.928 205.105 184.832 204.806 185.101 204.276C184.065 203.967 183.438 203.328 182.531 202.199L182.641 202.169Z" fill="#F5C469"/>
<path d="M236.947 251.644C236.958 251.62 236.971 251.601 236.987 251.588L236.947 251.644Z" fill="#F5C469"/>
<path d="M231.038 240.807L230.968 240.786H230.978C230.998 240.786 231.018 240.797 231.038 240.807Z" fill="#F5C469"/>
<path d="M127.856 219.331C127.786 219.471 127.727 219.49 127.677 219.47L127.856 219.331Z" fill="#F5C469"/>
<path d="M51.0395 0C53.0114 0.109898 55.0529 0.339514 57.0746 0.539265C61.1853 1.10684 65.0092 2.22978 67.8552 2.83055C67.8403 2.82512 67.8211 2.81862 67.8062 2.81407L68.3519 2.9483C68.22 2.91976 68.0521 2.88034 67.8995 2.84233C70.7719 3.84007 73.6142 5.07716 76.3575 6.53241C77.752 7.23164 79.0785 8.05161 80.4431 8.83076C81.7475 9.67952 83.0915 10.4884 84.3561 11.407C89.4958 14.9731 94.1395 19.1292 98.2732 23.4145C102.675 27.8291 105.911 31.7154 108.62 35.2312C111.319 38.7573 113.492 41.9346 115.534 45.1311C119.588 51.5639 123.314 58.0276 128.812 68.376L128.822 68.3242C135.346 79.941 139.778 88.4123 143.693 96.5332C147.567 104.674 150.855 112.517 154.103 123.235C154.111 123.262 154.964 125.93 155.826 129.12C156.692 132.336 157.549 136.06 157.698 138.238C157.808 140.316 157.31 140.786 155.427 137.4C153.505 134.053 150.247 126.941 144.101 114.315C142.766 109.4 141.143 105.184 137.737 98.4712L137.807 100.03C136.323 95.675 134.31 92.2993 132.497 88.7433C131.083 87.0251 133.243 91.8984 130.893 88.0227C127.158 80.4525 129.061 84.217 125.177 76.7264C125.736 77.0296 127.706 81.0303 127.577 79.7524C127.062 79.2183 124.585 74.5886 124.006 74.4657L124.349 74.1077C123.413 72.7695 123.234 71.4805 122.208 69.6429C121.571 68.8341 120.973 68.3058 122.047 70.3918C119.747 66.686 116.071 61.772 114.706 58.7257C112.446 55.2001 113.653 55.9481 113.394 54.6895C112.647 53.6706 111.36 52.2437 111.181 52.3935L110.961 51.9343L109.637 50.7145C107.585 46.989 105.036 43.8624 102.496 40.9559C99.9564 38.0391 97.4348 35.3604 95.3629 32.4336C96.6977 33.7122 98.7111 36.471 99.1594 36.1614C97.8246 34.663 96.4793 33.1732 95.0948 31.7248C96.8574 33.4425 98.4016 34.7412 98.054 33.7735C95.1458 30.6473 92.2367 27.9599 89.0597 25.3031C85.8722 22.656 82.4443 20.0276 78.2907 17.2706C78.3094 16.8807 76.9846 15.8812 75.2522 14.8427C74.8145 14.5734 74.3665 14.3049 73.909 14.0256C73.4508 13.7659 72.9726 13.4941 72.5145 13.2344C71.5981 12.685 70.7014 12.1861 69.9843 11.6966C70.3619 12.0155 70.4419 12.1373 70.3434 12.1676C71.6971 12.8764 72.1433 13.2362 69.1261 11.958C69.1958 11.938 69.1075 11.8661 69.1075 11.8262C68.6096 11.6464 68.0518 11.5383 67.6733 11.5082C66.5616 10.8811 66.0929 10.5703 66.0503 10.4792C66.0104 10.3693 66.4187 10.4596 67.0064 10.6793C65.1838 9.95023 63.1214 9.34936 64.8633 9.50896C62.4035 8.53031 60.949 8.3904 59.7936 8.3904C58.6385 8.3605 57.7618 8.56025 56.3377 8.43043C54.9135 8.22069 53.6586 8.14109 52.5133 8.01127C51.9456 7.96132 51.3874 7.90108 50.8296 7.85113C50.2821 7.86112 49.7343 7.86055 49.1669 7.86055C48.6093 7.87054 48.0307 7.88174 47.4133 7.88175C46.8058 7.89174 46.148 7.87084 45.4708 7.98065C44.7835 8.06056 44.0453 8.15157 43.2484 8.25146C42.8403 8.30137 42.4318 8.34991 41.9938 8.39982C41.5656 8.46975 41.1274 8.60137 40.6693 8.70124L41.5857 8.38098C39.5439 8.76047 38.5569 8.03128 34.7321 9.53958C33.6165 11.1776 31.3555 12.1974 28.5268 13.8655C25.7878 15.6035 22.4804 18.1199 20.1597 22.0251C21.4046 21.5357 18.5577 25.0816 19.3132 25.1029C16.7636 28.579 15.3886 32.3754 14.2133 36.2909C13.038 40.2264 12.1815 44.4125 11.0162 49.3369L11.0465 48.8164C10.4986 50.105 10.1195 52.4833 9.88049 54.8308C9.70126 57.1879 9.67091 59.5059 9.85017 60.6944C9.4319 59.2363 8.8245 64.1879 8.52562 62.3428C8.81415 63.4122 8.71488 66.1977 8.63523 68.7339C8.52566 71.2711 8.42768 73.5496 8.42768 73.5496C7.69059 75.2777 8.34596 82.0207 8.01726 86.306C8.37582 88.1438 8.75515 89.972 9.14359 91.7999L8.44634 89.8712C8.67539 92.7974 8.2783 93.3874 7.94963 92.2096C7.91982 93.5478 8.15727 94.1983 8.37638 96.2058L7.84003 95.3157C7.84005 98.9515 9.10399 100.48 8.8451 97.5034C9.3131 99.3508 9.45351 100.589 9.49339 101.478C9.52325 102.367 9.44304 102.907 9.35347 103.426C9.16423 104.455 8.96566 105.424 9.49339 108.8L10.2 110.121C10.8247 117.587 8.99497 112.831 9.76156 120.369L9.26252 120.598C9.40194 122.565 9.38305 124.473 9.95045 123.805C9.83091 130.907 9.35336 139.238 9.02466 144.792C9.19399 149.177 9.46278 143.124 9.87116 145.241C10.6081 149.925 9.74249 151.394 9.49339 155.549L9.99942 154.381L9.78022 162.872L9.3628 161.683L9.31382 167.386C9.65249 168.995 9.60219 166.576 9.76156 164.758C9.62211 170.892 11.0557 175.958 10.1393 182.161L9.65196 181.421C9.79126 181.481 9.80031 180.552 9.74057 180.023C8.96378 173.881 9.27345 184.556 8.91506 184.848C9.53247 186.616 9.04477 192.089 9.87116 194.446C8.75561 205.314 10.3488 213.825 9.6916 222.076C9.29339 219.951 9.37299 224.773 8.9547 224.553C8.63596 228.199 9.56331 227.272 9.45374 230.558L8.77514 233.544C9.74133 241.236 7.86837 238.799 8.26678 246.18C9.12335 250.945 7.55951 257.288 8.45567 264.449L7.95896 264.671C8.37716 270.164 7.42015 273.011 7.71877 277.455C7.21108 278.623 7.45 276.36 6.81397 276.506C7.2522 281.031 5.75697 275.34 6.32426 278.364C5.71666 284.717 8.40579 291.012 8.23646 297.135C9.01313 303.666 7.02315 309.319 8.23646 310.49L8.33674 307.124L8.42768 316.144L7.97762 316.384C8.26645 320.04 7.66069 328.729 8.35772 333.254C8.31797 333.205 8.27688 333.535 8.18749 333.784C8.5361 338.429 7.92813 339.658 8.63523 343.813L8.45567 343.314C9.51149 350.616 9.16443 366.498 9.31382 377.886C8.64646 378.236 8.88585 384.759 9.01534 389.524C9.00537 388.025 8.68523 387.875 8.59558 387.626C9.36256 394.168 7.729 401.351 8.59558 408.144L8.50697 407.894C8.12864 410.491 9.14399 418.421 7.98927 419.631C8.90566 427.302 8.78517 434.315 8.29709 445.433L8.11753 444.934C0.812252 519.721 1.43317 421.395 1.43415 421.239L1.61371 400.912C1.51411 400.932 1.25399 399.052 1.37352 398.333C-0.0307766 376.118 3.43631 350.906 2.20136 329.211C1.65353 313.778 0.706936 286.996 1.8026 272.772C2.0317 260.935 1.01582 251.365 1.43415 240.107L1.97283 237.051C1.71389 235.003 1.57392 234.933 1.61371 232.077C1.80291 233.614 1.9727 231.785 2.12208 230.916L1.73264 227.831C2.52924 226.813 0.409475 220.013 1.26392 219.5L1.85157 218.332C3.23611 191.811 1.23431 161.183 1.44348 132.695C1.98135 125.832 3.15765 121.667 3.22742 114.595L2.45088 114.666C2.17198 109.771 3.08758 113.566 3.30671 108.451L2.39025 110.359C2.32052 107.122 2.15129 103.985 2.0218 100.819L2.25034 102.338C2.22046 101.509 2.19114 100.66 2.13141 99.8512C2.05174 99.0322 1.96281 98.2526 1.86323 97.5834C1.66402 96.2349 1.43365 95.3046 1.18463 95.3345C1.59291 94.7459 1.96276 95.5342 1.75363 91.19C0.618183 91.16 0.199229 84.7681 0 78.7351C0.139207 78.8581 0.259358 76.5392 0.438407 78.1652C-0.298669 71.6225 0.200141 66.4576 0.867487 61.4032C1.55477 56.3388 2.3707 51.3837 2.89862 44.8909L3.00822 45.0604C3.75525 42.5932 4.27275 40.4847 4.85046 38.5469C5.34844 36.5993 5.89607 34.8306 6.43386 33.0129C7.62907 29.437 8.8542 25.5907 12.2008 20.7064L11.4849 20.8076C14.483 16.1327 18.547 11.0679 23.597 7.10229C23.4078 7.28209 23.2673 7.52184 23.098 7.72162C24.2634 6.81261 25.5497 6.08224 26.7848 5.26313L26.7242 5.4633C26.9034 5.3235 27.1142 5.17328 27.3631 5.01352C27.6218 4.88381 27.9107 4.73507 28.219 4.57551C28.8463 4.27594 29.5627 3.9253 30.3294 3.55585C30.7178 3.37608 31.1074 3.16755 31.5257 2.99775C31.954 2.84791 32.3823 2.6866 32.8106 2.52677C33.6671 2.19719 34.5438 1.84839 35.3804 1.47886L35.2708 1.65783C35.8684 1.49803 36.4972 1.43859 37.1247 1.31873C37.7517 1.19895 38.3884 1.05867 39.0253 0.90898C39.6627 0.769133 40.3012 0.560229 40.9188 0.440361C41.5462 0.320507 42.1548 0.199351 42.7424 0.089485L45.4405 0.310843C47.1338 0.0711052 49.0374 0.0399563 51.0395 0Z" fill="#8BA7ED"/>
<path d="M8.39737 333.275C8.41706 333.306 8.42653 333.397 8.44634 333.685C8.42642 333.565 8.41727 333.415 8.39737 333.275Z" fill="#8BA7ED"/>
<path d="M10.5474 110.768L10.2 110.121C10.1997 110.117 10.2003 110.113 10.2 110.109L10.5474 110.768Z" fill="#8BA7ED"/>
<path d="M111.929 53.9901C111.284 52.9245 111.124 52.515 111.192 52.4335L111.929 53.9901Z" fill="#8BA7ED"/>
<path d="M67.8062 2.81407L67.7736 2.807H67.7829C67.7829 2.807 67.793 2.81002 67.8062 2.81407Z" fill="#8BA7ED"/>
<path d="M160.438 176.469C160.368 176.429 160.35 176.337 160.35 176.227L160.438 176.469Z" fill="#CB90BE"/>
<path d="M190.499 164.191C190.531 164.139 190.57 164.11 190.614 164.094L190.499 164.191Z" fill="#CB90BE"/>
<path fill-rule="evenodd" clip-rule="evenodd" d="M153.764 134.953C154.271 134.893 154.789 134.923 155.296 134.913L155.238 135.052C155.876 134.912 157.28 135.121 158.575 134.892L158.505 135.023C159.332 135.383 160.328 135.333 161.215 135.193C161.513 135.393 161.803 135.583 162.092 135.812C164.671 135.533 168.067 137.209 170.288 137.209C174.532 138.567 179.024 140.725 182.62 143.522C186.564 146.219 188.536 148.508 190.338 150.766C192.072 153.093 193.627 155.471 195.968 159.187L195.956 159.236C198.894 163.271 200.997 166.198 202.74 169.124C204.453 172.051 205.787 174.988 206.564 179.163C206.564 179.163 206.814 180.193 206.963 181.452C207.112 182.73 207.152 184.167 206.884 185.156C206.565 185.955 205.996 186.257 204.881 185.048C203.745 183.899 202.121 181.44 199.263 177.225C199.123 175.348 198.557 173.819 197.034 171.592L196.744 172.301C196.396 170.673 195.378 169.624 194.601 168.455C194.298 168.307 194.208 168.438 194.158 168.609C194.592 169.131 195.012 169.675 195.301 170.273C196.794 171.991 196.128 173.03 196.845 175.037H196.873C198.347 176.975 200.27 177.286 199.972 179.653C199.972 179.653 199.991 180.761 199.235 181.48C198.468 182.209 196.934 182.52 193.876 181.221C194.204 180.592 194.104 180.203 193.438 179.794L192.99 180.143C193.159 179.624 192.622 179.512 192.363 179.253C191.785 179.332 191.873 179.793 191.285 179.653C190.941 179.075 191.082 179.308 190.793 178.836C190.684 179.029 190.654 179.211 191.024 179.333H190.926C190.568 179.522 191.652 179.953 190.497 180.103C191.453 180.532 191.364 181.062 190.856 181.751L190.677 181.702C190.362 181.877 190.057 182.013 189.769 182.13C190.904 182.192 192.15 182.335 193.587 182.531L193.407 182.709C219.918 190.345 184.964 189.307 184.821 189.303L177.569 189.032C177.569 189.132 176.902 189.393 176.643 189.263C168.695 190.562 159.76 186.965 152.001 188.083C146.493 188.553 136.91 189.352 131.86 188.163C127.637 187.874 124.2 188.832 120.196 188.333L119.109 187.775C118.373 188.014 118.343 188.154 117.327 188.105C117.885 187.925 117.237 187.744 116.929 187.584L115.823 187.954C115.654 187.555 114.947 187.875 114.27 188.185C114.101 188.264 113.93 188.334 113.771 188.404L113.652 188.453C113.582 188.463 113.511 188.483 113.452 188.493C113.312 188.513 113.193 188.534 113.074 188.554C112.596 188.614 112.246 188.583 112.206 188.364C111.988 188.164 111.789 187.965 111.6 187.765C109.668 187.546 107.724 187.424 106.001 187.174C105.105 187.084 104.218 186.996 103.312 186.896L102.974 186.866L102.804 186.845H102.725L102.746 186.755L102.904 186.046L103.224 184.648C103.662 182.79 104.03 180.932 104.588 178.975C104.847 178.006 105.164 177.016 105.453 176.017C105.662 175.338 105.873 174.659 106.083 173.98C107.716 168.806 109.826 163.582 112.904 159.107C113.86 158.168 114.796 157.547 115.732 156.938C116.648 156.309 117.546 155.69 118.433 154.722L117.815 154.251C118.801 152.673 118.572 154.341 120.016 153.083L118.841 152.993L119.976 151.564L121.182 150.186L120.914 150.745C121.342 150.285 121.761 149.755 122.05 149.306C122.348 148.867 122.487 148.496 122.318 148.317C122.766 148.496 122.775 148.946 123.99 147.857C123.623 147.418 123.881 146.779 124.468 146.07C125.055 145.351 125.933 144.543 126.849 143.824C126.89 143.962 127.675 143.544 127.278 144.052C128.065 143.013 128.972 142.324 129.878 141.784C130.764 141.215 131.711 140.897 132.637 140.557C133.095 140.388 133.554 140.216 134.022 140.046C134.5 139.887 134.967 139.716 135.435 139.516C135.913 139.307 136.382 139.067 136.86 138.777C137.348 138.517 137.856 138.198 138.364 137.819V137.969C140.296 137.65 141.582 137.29 142.907 136.78C143.574 136.541 144.27 136.38 145.057 136.21C145.853 136.06 146.742 135.912 147.818 135.982L147.577 135.421C148.593 135.401 149.649 135.283 150.735 135.193C151.811 135.113 152.927 134.973 154.023 134.743L153.764 134.953ZM138.175 182.05C136.95 183.459 136.401 180.862 135.216 182.34L135.237 182.201C134.38 181.392 133.97 182.579 133.024 181.89V182.326C133.221 182.328 133.426 182.317 133.642 182.281C134.05 182.8 133.245 182.541 133.285 183.18C134.917 182.771 132.847 184.229 133.942 183.68C135.396 184.092 136.87 183.134 138.32 182.458C138.281 182.467 138.244 182.481 138.205 182.49C138.225 182.351 138.026 182.23 138.175 182.05ZM184.369 181.464C183.88 181.793 183.439 182.008 183.039 182.14C183.682 182.151 184.214 182.279 184.373 182.731C184.862 182.573 185.342 182.447 185.824 182.352C185.248 182.159 184.861 181.907 184.6 181.69C184.51 181.613 184.434 181.537 184.369 181.464ZM179.537 179.808C179.475 180.013 179.382 180.234 179.255 180.472L179.075 180.414C178.109 181.202 177.193 181.492 176.466 181.532C175.729 181.572 175.171 181.392 174.733 181.202C174.374 181.035 174.082 180.86 173.835 180.703C173.889 181.143 173.829 181.507 173.686 181.815C175.826 181.542 178.088 182.815 180.278 182.062L180.19 182.151C180.466 182.267 180.911 182.257 181.412 182.224C181.067 182.123 180.78 181.946 180.547 181.732C180.078 181.293 179.801 180.691 179.651 180.202C179.61 180.056 179.571 179.925 179.537 179.808ZM150.159 182.224C149.313 181.908 148.415 181.925 147.496 182.057L147.528 182.231C148.135 182.103 149.117 182.175 150.159 182.224ZM139.381 181.151C139.352 181.693 139.2 181.989 138.993 182.168C139.235 182.076 139.477 182.003 139.716 181.949C139.679 181.515 139.765 181.181 139.381 181.151ZM141.113 181.311L140.236 181.44L140.386 181.252C140.089 181.272 139.741 181.458 139.716 181.949C140.038 181.877 140.358 181.842 140.675 181.871C141.344 181.657 141.983 181.672 142.566 181.772C142.242 181.222 141.952 180.643 141.531 180.522L141.5 181.301C141.053 181.51 141.431 180.651 140.983 180.362L141.113 181.311ZM111.999 179.801C111.917 179.935 111.868 180.053 111.868 180.133C111.892 180.135 111.917 180.133 111.943 180.133C111.946 180.129 111.949 180.126 111.95 180.124C111.98 180.064 112.02 179.973 112.05 179.884C112.06 179.874 112.059 179.863 112.059 179.844C112.064 179.83 112.065 179.815 112.069 179.801C112.045 179.801 112.022 179.801 111.999 179.801ZM112.477 179.928L112.489 179.924L112.528 179.902L112.477 179.928ZM191.001 178.492C190.967 178.56 190.922 178.631 190.875 178.702C191.103 178.709 191.236 178.924 191.544 178.673C191.387 178.703 191.22 178.547 191.001 178.492ZM179.252 178.12C179.181 178.189 179.047 178.258 178.807 178.315C179.025 178.414 179.193 178.526 179.32 178.65L179.252 178.12ZM113.582 178.56C113.585 178.556 113.587 178.552 113.589 178.548L113.578 178.523C113.571 178.522 113.565 178.521 113.559 178.52C113.567 178.535 113.575 178.548 113.582 178.56ZM158.953 175.419C158.425 175.679 157.947 176.397 157.32 176.537C157.33 175.818 156.922 176.366 156.733 175.817C156.753 175.937 156.751 176.028 156.751 176.088C156.851 176.148 156.881 176.278 156.663 176.417V176.318C156.623 176.378 156.583 176.458 156.553 176.587C156.404 176.297 156.443 176.138 156.523 176.078C156.393 176.068 156.263 176.147 156.392 175.727C156.11 175.49 156.012 176.293 155.856 176.625C156.022 176.777 156.177 176.939 156.383 176.796C156.472 177.316 156.274 177.066 156.264 177.705C156.692 177.287 156.114 178.764 156.413 178.205C156.961 178.833 157.638 176.157 158.185 176.337C158.38 176.102 158.555 176.132 158.708 176.25C158.855 176.108 158.992 175.793 158.953 175.419ZM191.04 178.301L191.057 178.294C191.05 178.293 191.044 178.288 191.038 178.287C191.039 178.292 191.04 178.296 191.04 178.301ZM190.777 178.085C190.876 178.116 190.942 178.154 190.984 178.195C190.993 178.16 191.006 178.115 191.029 178.07C190.932 178.072 190.824 178.084 190.777 178.085ZM190.996 177.807C191.021 177.853 191.053 177.899 191.087 177.946C191.105 177.893 191.113 177.843 191.087 177.804C191.058 177.803 191.027 177.804 190.996 177.807ZM159.337 176.622C159.281 176.671 159.225 176.715 159.17 176.747C159.239 176.793 159.292 176.772 159.337 176.622ZM160.506 175.598C160.436 175.668 160.299 175.967 160.298 176.187L160.268 176.118L160.149 176.537C160.071 176.403 159.989 176.34 159.909 176.318V176.636C160.074 176.496 160.338 176.573 160.615 176.61C160.492 176.465 160.547 175.986 160.506 175.598ZM158.71 176.252C158.793 176.317 158.871 176.408 158.941 176.495C159.004 176.471 159.057 176.394 159.072 176.137L158.71 176.252ZM154.422 176.026C154.415 176.069 154.405 176.111 154.398 176.151C154.488 176.209 154.581 176.259 154.678 176.283C154.625 176.114 154.557 175.972 154.422 176.026ZM116.768 175.565C116.62 175.631 116.477 175.697 116.336 175.758C116.449 176.038 116.557 176.261 116.667 176.212C116.689 175.9 116.736 175.686 116.74 175.668L116.768 175.565ZM129.309 173.589C129.124 173.863 128.953 174.028 128.794 174.119C128.849 174.434 128.608 174.637 128.194 174.88L128.036 174.788C128.012 174.791 127.987 174.792 127.963 174.795C128.021 174.943 127.978 175.026 127.896 175.068C128.085 175.078 128.294 175.01 128.115 175.419C128.602 175.696 128.692 174.641 128.98 174.43C129.538 174.51 129.758 174.488 130.515 174.338L130.414 174.458C130.613 174.578 130.664 175.248 131.072 175.139C131.093 175.022 131.117 174.917 131.139 174.823C131.127 174.798 131.114 174.774 131.102 174.75C131.099 174.744 131.096 174.737 131.093 174.731C131.049 174.747 131.006 174.763 130.965 174.778C131.003 174.773 131.028 174.712 131.053 174.639C131.033 174.594 131.014 174.552 130.997 174.512C130.597 174.8 130.377 173.51 129.908 174.26L129.939 174.168C129.838 173.781 129.229 174.737 129.309 173.589ZM126.769 174.934C126.955 175.122 127.359 174.904 127.586 175.327C127.546 175.208 127.546 175.118 127.546 175.059C127.449 175.017 127.396 174.941 127.481 174.851C127.233 174.882 126.997 174.912 126.769 174.934ZM139.749 174.957C139.789 174.994 139.819 174.985 139.856 174.962C139.841 174.889 139.823 174.826 139.796 174.781C139.785 174.843 139.774 174.905 139.749 174.957ZM188.823 174.458C188.944 174.478 188.976 174.569 189 174.677C189.16 174.658 189.329 174.592 189.473 174.458C189.393 174.39 189.304 174.33 189.212 174.272L188.823 174.458ZM188.627 173.968C188.483 174.156 188.406 174.276 188.886 174.093C188.801 174.051 188.715 174.009 188.627 173.968ZM176.944 172.548C176.982 172.767 177.027 173.016 177.482 173.022C177.443 173.032 177.412 173.071 177.333 173.111C177.76 173.251 177.213 173.511 177.97 173.511L177.781 173.54C178.36 173.57 178.647 173.841 178.837 174.178C178.763 173.907 178.597 173.674 178.275 173.509C177.908 173.221 177.466 172.84 177.079 172.428L176.944 172.548ZM187.531 172.826C187.254 172.994 187.326 172.864 186.831 173.13C187.329 173.13 185.866 173.571 186.444 173.441C186.218 173.761 186.99 173.586 187.673 173.455C187.544 173.363 187.42 173.263 187.312 173.142C187.487 173.02 187.534 172.92 187.531 172.826ZM175.75 169.565C175.824 169.77 175.345 170.12 175.649 170.224C175.201 170.474 175.37 170.264 174.782 170.504C175.28 170.594 173.767 170.824 174.365 170.784C174.027 171.219 175.606 170.916 176.277 170.968C176.27 170.77 176.306 170.565 176.403 170.354C176.351 169.977 176.051 169.767 175.75 169.565ZM148.041 170.229C148.04 170.447 148.044 170.707 148.174 170.843L148.149 170.276C148.109 170.271 148.073 170.259 148.041 170.229ZM146.393 166.018C146.293 165.351 145.139 167.796 144.9 167.556C144.333 168.205 144.729 166.229 144.271 167.368L144.392 167.516L143.944 167.466L144.082 167.047C143.817 167.263 143.621 166.579 143.186 167.132C143.273 167.172 143.361 167.227 143.443 167.309C143.95 167.847 143.194 167.448 142.886 167.448L143.343 167.676L142.965 167.848L142.636 167.587L142.456 167.756C142.705 167.986 142.716 167.878 142.895 167.897C142.648 168.038 143.761 168.945 142.846 168.686L142.438 168.415C142.557 168.495 142.587 168.465 142.547 168.415C142.133 167.938 142.054 168.141 141.899 168.182V168.314C141.998 168.433 141.962 168.494 141.995 168.592C143.402 169.944 145.33 168.227 146.92 168.686C147.278 169.286 147.419 170.484 147.827 170.674L147.888 169.894C147.957 169.849 147.995 169.859 148.016 169.904C148.096 169.687 147.94 169.643 148.058 169.306C147.988 168.936 147.748 169.834 147.629 169.685L147.699 168.995C147.041 169.804 147.738 168.046 147.27 168.326C146.772 169.075 146.971 167.497 146.353 168.246L146.502 167.768C146.115 168.085 146.283 167.139 145.985 167.358C146.094 166.859 146.124 167.117 146.323 166.508C145.975 166.856 146.711 165.529 146.393 166.018ZM175.351 168.26C175.362 168.28 175.378 168.297 175.407 168.314L175.458 168.255C175.42 168.257 175.384 168.257 175.351 168.26ZM136.02 164.186C135.401 164.278 135.976 165.315 135.297 165.229C135.068 164.88 134.968 165.139 134.649 164.86C134.272 164.8 135.017 165.359 134.819 165.429L134.201 165.13C134.688 166.077 133.314 164.78 133.373 165.359C133.891 166.108 132.438 165.42 132.916 166.289L132.518 165.999C132.686 166.497 131.831 166.058 131.921 166.437C131.472 166.188 131.741 166.228 131.223 165.858C131.423 166.327 130.407 165.17 130.764 165.648C130.282 165.615 131.052 166.483 131.487 167.09C132.337 166.392 133.044 167.293 133.765 167.944C133.901 167.51 133.461 166.829 133.991 166.597L134.528 166.727C134.349 166.518 134.229 166.448 134.318 166.348C134.447 166.507 134.637 166.508 134.787 166.548L134.509 166.24C135.224 166.578 133.523 165.281 134.278 165.67L134.817 165.91C135.776 165.701 135.928 164.968 136.02 164.186ZM142.848 166.988C142.93 167.035 143.046 167.069 143.17 167.125C143.175 167.093 143.181 167.054 143.196 166.988C142.968 167.169 142.962 166.96 142.848 166.988ZM191.693 166.428C192.019 166.46 192.2 166.634 192.344 166.84C192.212 166.617 192.111 166.462 191.882 166.105L191.693 166.428ZM191.486 165.528C191.408 165.771 191.556 165.884 191.773 165.936C191.696 165.817 191.609 165.677 191.504 165.514L191.486 165.528ZM154.916 165.646C154.921 165.695 154.93 165.74 154.949 165.778L154.974 165.627C154.955 165.632 154.936 165.64 154.916 165.646ZM169.421 144.831C169.53 145.011 169.541 145.102 169.491 145.152C169.959 145.421 170.088 145.62 168.982 145.291C169.022 145.261 169.004 145.222 169.003 145.192C168.804 145.192 168.594 145.201 168.425 145.281C168.337 145.214 168.262 145.152 168.199 145.098C168.179 145.463 168.049 145.853 167.751 146.258C169.323 146.369 171.596 146.765 172.131 148.237C172.977 148.966 174.273 148.598 174.95 149.527L174.889 150.135C175.188 150.025 175.28 149.915 175.479 150.095C175.25 150.164 175.299 150.405 175.279 150.575L175.738 150.415C175.36 151.114 177.113 149.747 176.655 150.476L176.393 151.015C176.991 152.294 178.109 152.973 179.334 153.622C180.549 154.271 181.864 154.9 182.711 155.949C182.77 156.817 182.212 157.916 182.55 158.476L183.098 157.927C183.576 158.087 182.711 158.456 182.83 158.975L183.387 158.198L184.124 158.725L183.886 158.756C184.115 158.955 184.502 159.064 184.87 158.725C184.591 159.065 184.295 159.235 184.544 159.545C185.389 158.777 185.847 159.165 186.335 159.465C186.215 159.545 186.275 159.794 186.036 159.794C187.919 159.754 186.396 161.922 188.289 161.852L188.167 161.932C188.138 163.121 189.313 162.672 189.403 163.88L189.842 163.501C189.981 163.99 190.33 164.4 190.938 164.61L190.737 164.669L190.996 164.93L190.877 164.999C191.087 165.016 191.128 165.327 191.451 165.429C191.342 165.261 191.22 165.065 191.075 164.841C191.464 164.811 192.232 166.168 192.412 165.568C192.076 165.477 191.062 163.931 190.614 164.094L190.987 163.79C190.509 163.431 190.659 162.831 190.241 162.222C189.912 162.022 189.552 161.953 189.94 162.672C188.884 161.553 187.102 160.274 186.733 159.125C185.817 158.017 186.565 157.966 186.645 157.357C186.316 157.075 185.677 156.789 185.495 156.919L185.696 157.486C185.458 157.174 185.426 157.008 185.476 156.921L185.418 156.749L184.702 156.58C184.384 155.881 183.885 155.371 183.387 154.891C182.889 154.412 182.32 154.022 181.752 153.662C181.185 153.303 180.657 152.923 180.159 152.544C179.662 152.164 179.223 151.735 178.884 151.175C179.431 151.495 180.188 152.402 180.547 152.014L178.865 150.794C179.602 151.213 180.35 151.404 180.33 150.905C177.859 149.216 175.388 148.368 172.28 146.93C172.369 146.59 171.913 146.239 171.265 145.959C170.628 145.66 169.869 145.331 169.421 144.831ZM156.038 164.975C155.996 164.979 155.945 164.996 155.884 165.039C155.892 165.108 155.914 165.157 155.975 165.18C155.995 165.107 156.018 165.039 156.038 164.975ZM167.231 163.852L167.574 164.118C167.759 163.889 167.889 163.683 167.87 163.522L167.231 163.852ZM167.054 163.682L166.963 163.588C166.955 163.601 166.945 163.613 166.937 163.626L167.124 163.769C167.222 163.633 167.755 163.443 167.84 163.152L167.054 163.682ZM153.023 163.251C153.002 163.162 152.928 163.228 152.845 163.352C152.889 163.347 152.933 163.346 152.976 163.341L153.023 163.251ZM136.142 163.31C136.146 163.286 136.15 163.263 136.156 163.239C136.126 163.233 136.096 163.219 136.065 163.192C136.098 163.235 136.121 163.276 136.142 163.31ZM150.903 162.9C150.842 162.922 150.805 162.963 150.782 163.018C150.841 163.084 150.904 163.139 150.97 163.188C150.948 163.086 150.922 162.988 150.903 162.9ZM137.788 162.597C137.868 162.617 137.948 162.631 138.023 162.648C138.025 162.63 138.029 162.612 138.03 162.594C137.885 162.532 137.72 162.46 137.597 162.453L137.788 162.597ZM137.706 161.713C137.663 161.925 137.886 161.963 138.086 162.111C138.106 161.977 138.127 161.848 138.152 161.725C137.993 161.719 137.839 161.719 137.706 161.713ZM146.174 160.065C145.825 160.075 146.63 160.765 146.719 161.005C146.693 161.026 146.671 161.048 146.649 161.068C146.869 161.033 147.083 161.02 147.279 161.047C147.335 160.754 147.411 160.413 147.197 160.543C146.93 160.939 146.891 160.677 146.822 160.461C146.692 160.411 146.612 160.355 146.563 160.303C146.518 160.335 146.463 160.386 146.4 160.463L146.484 160.225C146.446 160.287 146.422 160.358 146.174 160.065ZM146.523 160.02C146.533 160.027 146.543 160.033 146.551 160.039L146.57 159.994C146.555 160.007 146.536 160.011 146.523 160.02ZM154.464 158.193C154.453 158.268 154.451 158.337 154.468 158.395L154.51 158.264C154.497 158.239 154.483 158.215 154.464 158.193ZM150.25 153.582C150.264 153.301 150.092 153.694 149.895 154.18C149.905 154.194 149.917 154.205 149.926 154.22L149.856 154.769C149.9 154.717 149.936 154.67 149.968 154.63C150.012 154.5 150.034 154.478 150.15 154.063C149.942 154.459 150.469 153.053 150.25 153.582ZM149.665 149.167C149.681 149.217 149.698 149.264 149.716 149.308C149.751 149.27 149.787 149.233 149.825 149.195C149.762 149.172 149.709 149.165 149.665 149.167ZM150.728 147.139C150.561 147.052 150.447 147.107 150.355 147.224C150.377 147.576 150.388 147.957 150.378 148.368C149.882 148.115 149.621 148.159 149.49 148.58C149.527 148.702 149.566 148.831 149.602 148.957L149.825 149.195C150.297 148.727 151.029 148.244 152.195 147.919C152.169 147.289 151.576 147.762 151.276 147.229C151.316 147.339 151.316 147.43 151.316 147.49C151.454 147.55 151.503 147.69 151.185 147.829V147.728C151.125 147.788 151.076 147.869 151.036 147.999C150.797 147.709 150.837 147.55 150.956 147.49C150.767 147.48 150.559 147.559 150.728 147.139ZM155.303 148.373C155.333 148.379 155.364 148.389 155.394 148.394C155.386 148.379 155.377 148.365 155.368 148.35C155.347 148.358 155.325 148.365 155.303 148.373ZM154.737 147.109C154.207 147.213 153.704 147.484 153.176 147.702C153.521 147.645 153.895 147.597 154.3 147.568C154.017 148.089 154.075 148.31 154.576 148.383C154.507 148.332 154.44 148.263 154.382 148.159C154.571 148.079 154.861 148.358 154.951 147.829L154.354 147.869C154.571 147.785 154.769 147.56 154.811 147.266C154.786 147.213 154.761 147.161 154.737 147.109ZM168.176 144.688C168.213 144.693 168.254 144.693 168.297 144.702C168.256 144.688 168.214 144.673 168.173 144.66C168.175 144.669 168.174 144.678 168.176 144.688Z" fill="#CB90BE"/>
<path d="M170.468 137.199C170.408 137.209 170.339 137.199 170.279 137.199C170.27 137.19 170.252 137.19 170.249 137.19V137.18L170.468 137.199Z" fill="#CB90BE"/>
<path fill-rule="evenodd" clip-rule="evenodd" d="M156.401 136.24C157.217 136.091 158.273 136.152 159.12 136.222C159.538 136.252 159.907 136.311 160.176 136.361C160.433 136.408 160.589 136.438 160.603 136.441C161.3 136.58 161.998 136.731 162.685 136.921C162.695 136.871 162.914 136.781 162.975 136.86C164.209 136.74 165.364 137.33 166.479 137.919C167.037 138.229 167.585 138.539 168.133 138.779C168.681 139.039 169.24 139.228 169.828 139.278C171.432 139.568 174.261 140.266 175.327 141.485C176.383 142.134 177.498 142.215 178.424 142.994L178.552 143.395C178.801 143.405 178.842 143.344 179.091 143.524C178.901 143.514 179.021 143.694 179.06 143.814H179.44C179.312 144.202 180.493 143.694 180.306 144.092L180.247 144.402C182.16 146.5 185.277 147.728 187.339 149.986C187.648 150.705 187.538 151.425 187.996 152.004L188.274 151.733C188.702 152.033 188.115 152.035 188.374 152.524L188.584 152.053L189.33 152.743L189.151 152.685C189.399 152.934 189.738 153.162 189.927 152.993C189.808 153.182 189.63 153.233 189.909 153.582C190.347 153.213 190.805 153.703 191.273 154.133C191.214 154.164 191.321 154.381 191.142 154.312C192.567 154.931 192.021 156.308 193.386 156.937L193.316 156.968C193.594 158.037 194.341 158.047 194.68 159.205L194.899 159.017C195.108 159.526 195.456 160.025 195.913 160.444H195.794L196.023 160.795L195.955 160.814C196.115 160.914 196.215 161.303 196.543 161.513L196.473 161.534C196.483 161.804 196.681 161.994 196.89 162.144L196.802 162.483C197.419 162.913 197.529 163.981 198.126 164.311C198.704 165.349 199.322 166.508 199.74 167.657C200.846 169.984 200.556 170.784 201.074 173.181L201.065 173.191C201.991 175.817 203.007 176.907 202.748 179.353C202.748 179.353 202.697 180.562 202.259 181.042C201.905 181.421 201.357 181.322 200.379 179.97C200.386 180.202 200.377 180.448 200.349 180.712C200.349 180.721 200.318 181.784 199.892 182.222C199.542 182.58 198.983 182.513 197.977 181.336C197.973 181.337 197.969 181.337 197.966 181.339C198.056 181.537 198.117 181.785 198.117 182.08C198.021 182.121 197.938 182.163 197.865 182.208C197.864 182.232 197.839 182.254 197.76 182.283C197.733 182.303 197.708 182.324 197.683 182.346C198.093 182.439 198.067 182.596 197.889 182.86H197.798C197.683 182.936 197.569 183.001 197.462 183.067L197.499 183.091C197.457 183.096 197.419 183.105 197.383 183.117C197.307 183.162 197.235 183.206 197.163 183.246C197.017 183.367 196.91 183.528 196.762 183.639C196.722 183.959 197.131 183.85 196.902 184.209C196.295 184.479 196.592 184.349 196.016 184.558C196.007 184.379 196.313 184.318 196.165 184.12C196.155 184.259 195.736 184.399 195.864 184.668L195.776 184.369C195.696 184.489 195.567 184.28 195.438 184.32C195.388 184.42 195.367 184.558 195.526 184.558C195.277 184.747 194.979 185.147 194.74 184.958C194.501 185.018 194.509 184.709 194.4 184.489C194.33 184.54 194.252 184.71 194.272 184.819L194.232 184.788L194.171 185.019C193.594 184.72 193.295 185.657 192.798 185.309C192.898 185.239 193.115 185.307 193.075 185.047L192.728 185.177C192.867 185.087 192.956 184.899 192.868 184.73C192.39 184.949 192.02 185.388 191.422 185.568C191.379 185.377 191.262 185.388 191.124 185.403C191.054 185.452 190.978 185.482 190.886 185.488C190.912 185.517 190.89 185.566 190.764 185.639C190.764 185.619 190.755 185.607 190.755 185.587C190.725 185.627 190.695 185.668 190.685 185.737C190.496 185.618 190.518 185.537 190.587 185.497C190.468 185.517 190.348 185.568 190.417 185.349C190.078 185.269 190.127 185.788 189.958 185.928C189.783 185.942 189.661 185.957 189.529 185.985C189.457 186.032 189.382 186.077 189.3 186.117C189.29 186.093 189.274 186.077 189.263 186.06C189.181 186.085 189.086 186.11 188.973 186.147L189.022 186.077C188.991 186.068 188.963 186.043 188.934 186.013C188.816 186.043 188.688 186.074 188.563 185.987C188.613 186.037 188.633 186.077 188.633 186.107C188.742 186.107 188.792 186.156 188.603 186.286C188.602 186.267 188.584 186.257 188.584 186.237C188.554 186.277 188.523 186.327 188.523 186.397C188.466 186.372 188.425 186.348 188.397 186.324C188.281 186.442 188.101 186.362 187.898 186.3C187.859 186.439 187.837 186.594 187.756 186.665C187.518 186.696 187.374 186.729 187.183 186.79C187.18 186.814 187.182 186.843 187.19 186.877C187.145 186.857 187.101 186.843 187.059 186.832C186.967 186.864 186.86 186.899 186.73 186.946L186.791 186.877C186.768 186.873 186.751 186.854 186.73 186.84C186.548 186.886 186.374 186.984 186.189 187.056C185.989 187.46 185.466 186.82 185.016 187.165C185.116 187.524 184.798 187.405 184.848 187.685C184.241 187.385 183.811 188.084 183.144 187.814L183.174 187.786C182.995 187.517 182.568 187.736 182.418 187.996C182.425 187.976 182.425 187.955 182.428 187.937C182.272 188.019 181.9 187.533 182.073 188.005H182.201L181.933 188.175L181.842 187.975C181.782 188.164 181.396 188.005 181.376 188.384C181.366 188.374 181.345 188.354 181.325 188.314C181.225 188.543 181.087 188.265 181.057 188.653V188.563C180.987 189.153 180.379 189.182 180 189.352C179.91 189.024 179.711 189.202 179.562 189.312C179.612 189.292 179.583 189.143 179.583 189.093C179.433 189.533 179.036 188.774 178.876 189.253V189.204C178.767 189.034 178.547 189.582 178.438 189.013C178.229 189.512 177.949 189.493 177.561 189.284V189.192C176.982 188.469 176.754 187.88 176.677 187.426L176.39 187.336L176.418 187.261C176.354 187.26 176.291 187.267 176.229 187.28C176.246 187.29 176.264 187.301 176.281 187.315C175.942 187.227 175.615 187.913 175.297 187.435L175.301 187.409C175.287 187.402 175.271 187.396 175.257 187.386C175.376 187.186 175.098 187.226 175.108 187.016C174.889 186.856 174.948 187.316 174.749 187.266L174.683 187.143C174.663 187.173 174.644 187.211 174.627 187.256C174.534 187.16 174.443 187.101 174.354 187.066C174.33 187.067 174.313 187.057 174.294 187.044C173.855 186.925 173.465 187.376 173.114 187.096C173.233 186.897 172.966 186.936 172.986 186.727C172.797 186.557 172.835 187.024 172.657 186.967L172.496 186.625C172.167 187.002 172.173 186.517 171.995 186.385L171.99 186.387L171.988 186.38C171.94 186.348 171.882 186.335 171.799 186.376C171.631 186.653 171.418 186.435 171.181 186.366C171.056 186.533 170.941 186.66 170.824 186.628C170.426 187.005 170.138 185.998 170.038 186.606L170.236 186.665L169.698 186.696V186.477C169.478 186.625 168.981 186.298 168.692 186.637C168.692 186.617 168.672 186.587 168.662 186.548C168.374 186.716 168.324 186.407 168.056 186.745L168.096 186.656C167.627 187.165 166.69 186.956 166.013 186.976C166.016 186.867 165.974 186.805 165.906 186.771C165.392 187.024 164.616 186.882 164.01 186.865C164.029 186.527 163.61 186.615 163.292 186.625C163.391 186.635 163.433 186.477 163.453 186.437C163.272 186.551 163.12 186.502 162.972 186.413C162.704 186.429 162.421 186.33 162.07 186.157L162.1 186.086C161.892 186.026 161.445 186.195 161.529 185.707C160.912 186.006 160.464 185.788 159.887 185.269L159.957 185.198C159.23 183.85 159.329 183.02 159.528 182.61C159.757 182.181 160.165 182.072 160.573 182.102C160.991 182.122 161.431 182.251 161.799 182.351C162.164 182.46 162.431 182.55 162.436 182.551C162.673 182.654 162.928 182.728 163.177 182.808C163.26 182.811 163.337 182.815 163.408 182.82C163.448 182.771 163.508 182.721 163.523 182.77C164.05 182.554 164.51 182.774 165.02 183.032C165.032 182.978 165.138 182.874 165.176 182.93C165.915 182.588 166.656 183.007 167.391 183.34C168.255 183.057 169.511 182.689 170.255 183.159C170.282 183.162 170.31 183.16 170.337 183.161C170.35 183.13 170.361 183.098 170.376 183.069C170.506 182.8 170.704 182.621 170.864 182.471C171.027 182.336 171.163 182.237 171.171 182.231C171.331 182.141 171.502 182.031 171.661 181.901C171.631 181.871 171.571 181.732 171.631 181.762C171.611 181.273 172.009 181.191 172.447 181.011C172.875 180.851 173.343 180.623 173.254 180.123C173.284 179.494 173.224 178.445 173.93 178.145C174.199 177.776 173.852 177.245 174.201 176.926L174.49 176.907C174.39 176.787 174.33 176.766 174.38 176.667C174.45 176.746 174.548 176.707 174.627 176.707L174.478 176.528C174.867 176.617 173.951 176.029 174.359 176.148L174.648 176.198C175.624 175.439 174.987 174.03 175.376 173.031C175.715 172.841 176.331 172.8 176.451 172.541L176.073 172.472C176.004 172.263 176.4 172.491 176.57 172.303H176.092L176.073 171.921L176.152 172.002C176.162 171.872 176.093 171.712 175.845 171.672C176.063 171.682 176.232 171.742 176.262 171.582C175.694 171.492 175.694 171.242 175.644 171.012C175.714 171.022 175.784 170.954 175.863 171.024C175.216 170.445 176.51 170.334 175.814 169.786H175.884C176.302 169.456 175.725 169.245 176.073 168.855H175.784C175.883 168.666 175.883 168.446 175.705 168.227L175.803 168.257L175.784 168.116H175.854C175.774 168.046 175.884 167.916 175.705 167.796H175.775C175.903 167.716 175.824 167.616 175.705 167.537L175.943 167.447C175.605 167.208 176.013 166.858 175.595 166.658C175.535 166.239 175.386 165.79 175.416 165.37C175.276 164.941 175.336 164.641 175.446 164.381C175.555 164.162 175.693 163.912 175.693 163.592L175.644 163.571C175.46 163.26 175.143 163.177 174.979 163.192C174.992 163.174 175.012 163.157 175.026 163.133C175.026 163.133 175.137 162.952 175.257 162.493C175.265 162.289 175.344 162.078 175.504 161.843C175.098 161.457 174.626 161.08 174.301 160.625C173.335 159.913 173.538 159.31 172.836 158.416C172.286 158.047 171.785 157.904 171.372 157.717C170.944 157.547 170.597 157.317 170.388 156.728C170.38 156.713 170.11 156.21 170.267 155.699C170.397 155.255 170.855 154.796 172.211 154.759L172.242 154.731C172.112 154.751 172.002 154.531 171.743 154.561L171.794 154.512C171.764 154.322 171.595 154.301 171.426 154.321L171.456 154.041C170.948 154.111 170.758 153.423 170.25 153.603C169.673 153.293 169.015 152.993 168.487 152.574C167.183 152.035 167.182 151.354 166.057 150.565H166.067C165.34 150.285 164.731 150.246 164.203 150.137C163.666 150.037 163.208 149.876 162.76 149.317C162.76 149.317 162.272 148.847 162.252 148.288C162.232 147.739 162.68 147.088 164.742 146.819C164.911 147.218 165.141 147.359 165.659 147.379L165.708 147.089C165.867 147.389 166.186 147.309 166.435 147.379C166.684 147.199 166.415 146.98 166.773 146.91C167.261 147.14 167.013 147.029 167.501 147.259C167.391 147.389 167.151 147.229 167.111 147.468C167.221 147.379 167.581 147.548 167.68 147.268L167.541 147.549C167.68 147.509 167.631 147.748 167.75 147.808C167.84 147.767 167.948 147.677 167.839 147.567C168.148 147.577 168.655 147.489 168.725 147.798C168.964 147.928 168.736 148.147 168.685 148.387C168.759 148.396 168.912 148.343 168.991 148.257L168.963 148.1C169.017 148.155 168.995 148.241 168.991 148.257C168.997 148.25 169.009 148.246 169.014 148.239V148.288L169.224 148.168C169.473 148.797 170.348 148.318 170.518 148.926C170.389 148.916 170.269 148.707 170.12 148.926L170.488 149.077C170.319 149.057 170.12 149.128 170.071 149.317C170.525 149.452 171.008 149.453 171.507 149.63C171.209 149.464 171.261 148.85 170.766 148.926L170.805 148.898C170.805 148.658 170.119 148.756 170.427 148.267C169.79 148.337 169.501 148.047 169.112 147.478L169.192 147.419C169.115 147.117 169.058 146.842 169.014 146.592C168.266 146.542 167.335 146.046 166.552 145.841C166.641 145.522 166.074 145.431 165.666 145.361C165.794 145.401 165.854 145.263 165.894 145.222C165.238 145.4 164.909 144.443 164.213 144.671L164.241 144.631C164.09 144.383 163.287 144.68 163.345 144.103C162.579 144.353 162.02 144.152 161.144 143.703L161.205 143.623C158.426 141.176 158.974 140.467 160.468 140.357C161.091 140.306 161.843 140.399 162.506 140.519C162.106 140.329 161.723 140.008 161.242 140.187L161.272 140.147C161.063 139.907 160.195 140.287 160.186 139.697C159.369 140.017 158.711 139.866 157.655 139.507L157.716 139.417C156.003 138.318 155.225 137.64 155.125 137.131C155.016 136.641 155.584 136.37 156.401 136.24ZM190.764 185.328C190.791 185.368 190.803 185.399 190.809 185.424C190.828 185.414 190.845 185.399 190.865 185.389C190.831 185.376 190.796 185.357 190.764 185.328ZM183.346 177.206C183.366 177.416 183.586 177.207 183.745 177.356C184.023 177.665 183.596 177.595 183.416 177.714L183.675 177.754C183.606 177.864 183.515 177.965 183.435 178.065L183.267 177.945L183.146 178.155C183.275 178.284 183.296 178.176 183.395 178.136C183.228 178.346 183.814 178.844 183.277 178.904L183.067 178.774C183.136 178.804 183.157 178.764 183.137 178.734C182.888 178.335 182.837 178.813 182.668 178.744C182.927 178.933 182.599 179.044 182.927 179.313C182.241 179.474 182.748 180.162 182.29 180.312C182.171 180.133 182.101 180.333 181.922 180.213C181.703 180.253 182.11 180.462 181.992 180.552L181.642 180.472C181.871 181.011 181.146 180.403 181.145 180.762C181.384 181.171 180.597 180.912 180.786 181.421L180.588 181.273C180.607 181.58 180.169 181.362 180.168 181.591C179.95 181.451 180.099 181.46 179.851 181.261C179.901 181.531 179.481 180.873 179.62 181.153C179.253 181.124 180.069 182.211 179.83 182.351C179.909 182.829 179.064 182.272 179.44 182.74L179.58 182.681L179.333 182.971L179.172 182.81C179.162 183.015 178.778 183.029 178.774 183.345C179.309 183.231 179.843 183.136 180.366 183.159C180.552 183.277 180.708 183.462 180.863 183.632C181.002 183.455 181.23 183.424 181.441 183.371C181.432 183.44 181.551 183.501 181.462 183.59C181.825 183.226 182.104 183.386 182.379 183.524C182.471 183.459 182.539 183.364 182.528 183.22C182.568 183.44 182.538 183.609 182.787 183.599C182.747 183.03 183.107 182.96 183.435 182.85C183.435 182.92 183.563 182.97 183.484 183.069C183.619 182.912 183.748 182.837 183.874 182.81C183.978 182.553 184.085 182.31 184.284 182.151C184.437 182.17 184.637 182.237 184.825 182.292L184.771 181.461C184.722 181.471 184.572 181.393 184.631 181.353C184.213 180.853 184.312 180.242 184.461 179.603C184.61 178.974 184.741 178.324 184.293 177.865C184.125 177.598 183.897 177.273 183.699 176.923C183.577 177.03 183.453 177.13 183.346 177.206ZM180.084 170.841C179.951 170.862 179.851 170.94 179.699 170.864C180.042 171.002 179.843 171.372 179.837 171.382C179.489 171.413 179.768 171.743 179.489 171.893L179.888 172.202L179.608 172.072C179.628 172.202 179.408 172.192 179.289 172.122C179.23 172.171 179.319 172.223 179.359 172.312L179.13 172.232C179.002 172.362 179.569 172.531 179.55 172.402C180.156 172.84 179.191 172.532 179.618 172.901L180.117 173.08L179.947 173.021C180.156 173.401 179.321 173.021 179.599 173.41L179.35 173.37C179.389 173.46 179.36 173.54 179.648 173.57C179.509 173.85 179.179 174.15 178.96 174.34C178.99 174.54 179.201 174.32 179.371 174.46C179.668 174.739 179.23 174.708 179.06 174.858H179.319L179.112 175.188L178.92 175.089L178.832 175.32C178.981 175.429 178.982 175.328 179.081 175.268C178.942 175.507 179.569 175.907 179.051 176.047L178.822 175.948C178.882 175.968 178.9 175.929 178.881 175.899C178.582 175.54 178.602 176.018 178.424 175.979C178.691 176.138 178.404 176.287 178.762 176.506C178.085 176.786 178.741 177.385 178.305 177.616C178.146 177.466 178.114 177.676 177.915 177.597C177.717 177.687 178.164 177.807 178.065 177.926H177.705C178.054 178.406 177.208 177.986 177.288 178.346C177.616 178.695 176.801 178.655 177.109 179.104L176.88 179.014C176.989 179.304 176.5 179.234 176.57 179.464C176.322 179.404 176.47 179.365 176.171 179.245C176.29 179.504 175.704 178.986 175.912 179.214C175.547 179.335 176.67 180.113 176.481 180.333C176.72 180.762 175.714 180.544 176.241 180.863L176.351 180.752L176.222 181.131L176.022 181.042C176.046 181.128 175.985 181.211 175.919 181.303C175.951 181.306 175.983 181.31 176.015 181.313C176.443 181.353 176.901 181.331 176.971 180.882C177.16 180.332 177.351 179.492 178.018 179.492C178.345 179.282 178.098 178.735 178.456 178.586L178.725 178.654C178.655 178.525 178.596 178.485 178.655 178.426C178.704 178.515 178.804 178.514 178.883 178.534L178.774 178.355C179.132 178.535 178.336 177.807 178.704 178.016L178.974 178.136C179.482 177.956 179.621 177.496 179.671 177.027C179.721 176.547 179.661 176.077 179.86 175.677C180.189 175.548 180.796 175.558 180.926 175.338L180.548 175.258C180.468 175.069 180.866 175.287 181.036 175.148L180.567 175.108L180.548 174.778L180.627 174.849C180.627 174.739 180.557 174.599 180.308 174.559C180.527 174.579 180.686 174.638 180.716 174.5C180.159 174.4 180.139 174.198 180.089 173.998C180.158 174.008 180.228 173.95 180.308 174.01C179.641 173.521 180.945 173.41 180.208 172.951H180.278C180.686 172.641 180.09 172.492 180.418 172.152H180.128C180.218 171.983 180.208 171.793 180.009 171.613L180.11 171.632L180.079 171.512H180.149C180.06 171.462 180.158 171.343 179.979 171.243H180.049C180.179 171.173 180.089 171.092 179.97 171.022L180.198 170.932C180.145 170.905 180.11 170.873 180.084 170.841ZM191.112 174.557C190.854 175.336 190.58 175.82 190.305 176.097C190.604 176.115 190.924 176.13 190.909 176.229C191.335 176.329 190.412 176.716 191.007 176.617L191.037 176.506L191.147 176.756L190.928 176.808C191.097 176.878 190.859 177.195 191.238 177.255C191.218 177.255 191.196 177.266 191.156 177.286C191.355 177.386 191.068 177.476 191.445 177.535H191.357C191.924 177.645 191.844 178.155 191.993 178.484C191.75 178.529 191.774 178.641 191.839 178.748C191.934 178.736 192.038 178.731 192.15 178.734C192.558 178.744 193.196 178.935 193.733 179.893C193.424 180.202 193.364 180.434 193.444 180.943H193.742C193.689 180.992 193.654 181.045 193.628 181.098C193.884 181.132 194.167 181.171 194.47 181.176C194.449 181.109 194.397 181.049 194.29 181.002C193.942 180.742 193.346 180.323 193.803 179.914C193.853 179.654 193.306 179.574 193.456 179.304L193.693 179.184C193.565 179.174 193.496 179.184 193.495 179.125C193.594 179.135 193.664 179.085 193.733 179.045L193.525 179.024C193.902 178.914 192.848 179.023 193.255 178.913L193.535 178.824C194.062 178.125 192.947 177.755 192.947 177.156C193.113 177.005 193.443 176.83 193.626 176.685C193.561 176.673 193.494 176.654 193.423 176.634L193.386 176.648C193.365 176.638 193.36 176.629 193.365 176.619C192.953 176.491 192.434 176.234 191.784 175.788C191.933 175.399 191.873 175.129 191.494 174.799L191.275 174.987C191.317 174.79 191.224 174.667 191.112 174.557ZM197.259 180.493C197.433 180.546 197.237 180.612 197.429 180.644C197.388 180.589 197.345 180.533 197.303 180.474C197.292 180.48 197.277 180.489 197.259 180.493ZM197.124 180.227C197.13 180.313 197.086 180.426 197.289 180.453C197.236 180.379 197.179 180.306 197.124 180.227ZM197.061 180.142C197.094 180.152 197.109 180.172 197.117 180.194C197.125 180.171 197.13 180.147 197.138 180.123L197.061 180.142ZM196.93 178.774C196.86 178.865 196.754 178.977 197.021 179.005L196.781 179.064C197.01 179.134 196.564 179.303 196.732 179.363C196.493 179.443 196.592 179.373 196.284 179.443C196.522 179.483 195.767 179.532 196.056 179.532C195.797 179.722 197.141 179.564 197.091 179.714C197.508 179.764 196.564 180.094 197.161 179.994L197.191 179.914C197.256 179.555 197.183 179.217 196.93 178.774ZM186.355 171.759C186.304 171.752 186.242 171.763 186.166 171.787C186.178 171.8 186.184 171.818 186.184 171.841L185.926 172.112C186.523 172.342 185.597 172.533 185.926 172.842C186.423 172.952 185.807 173.521 186.355 173.751L186.124 173.841C186.216 173.911 186.234 173.988 186.226 174.067C186.421 173.976 186.678 173.896 187.01 173.885C186.739 173.543 186.365 173.225 186.296 172.821C186.385 172.691 186.538 172.548 186.679 172.414C186.531 172.22 186.428 171.999 186.355 171.759ZM186.306 171.585C186.073 171.675 185.938 171.686 185.839 171.66C185.813 171.808 186.061 171.716 186.152 171.778C186.223 171.744 186.285 171.715 186.331 171.686C186.322 171.653 186.314 171.619 186.306 171.585ZM180.007 170.466C180.005 170.497 180.006 170.53 180.016 170.563C180.016 170.529 180.014 170.497 180.007 170.466ZM192.511 169.517C192.632 169.783 192.707 170.021 192.758 170.261C192.864 170.263 192.974 170.27 193.089 170.278C193.049 170.078 192.847 169.807 192.928 169.534C192.889 169.604 192.858 169.635 192.828 169.635C192.858 169.775 192.819 169.844 192.63 169.604C192.65 169.594 192.66 169.574 192.67 169.574C192.625 169.547 192.572 169.522 192.511 169.517ZM192.143 168.855C192.296 169.082 192.405 169.29 192.495 169.482C192.527 169.236 192.603 169.238 192.679 169.324C192.599 169.155 192.481 168.994 192.74 169.044C192.659 168.606 192.251 168.711 192.01 168.601C192.054 168.686 192.103 168.769 192.143 168.855ZM179.618 167.8C179.508 167.849 179.38 167.902 179.419 168.026C179.463 168.034 179.502 168.047 179.538 168.055C179.566 167.974 179.594 167.89 179.618 167.8ZM190.011 165.198C189.897 165.326 189.816 165.309 189.741 165.267C189.79 165.327 189.85 165.389 189.951 165.42L189.89 165.448C189.85 165.638 190 165.729 190.17 165.789L190.042 166.039C190.538 166.2 190.48 166.908 190.998 166.997C191.097 167.148 191.201 167.302 191.305 167.457C191.27 167.405 191.236 167.347 191.196 167.287L191.294 167.337C191.264 167.137 191.503 166.918 191.266 166.609C190.12 166.899 190.778 165.738 190.011 165.198ZM179.221 166.691C179.206 166.77 179.269 166.818 179.364 166.861C179.315 166.802 179.27 166.745 179.221 166.691ZM188.696 164.141L188.705 164.132C188.7 164.126 188.695 164.12 188.689 164.115C188.69 164.124 188.695 164.132 188.696 164.141ZM187.971 162.801C187.974 163.022 188.041 163.159 188.132 163.272L188.178 163.291C188.226 163.118 188.124 162.94 187.971 162.801ZM175.045 163.105L175.105 163.062L175.147 163.022C175.181 162.994 175.216 162.962 175.045 163.105ZM187.355 161.847C187.399 162.059 187.422 162.279 187.542 162.455C187.638 162.316 187.583 162.074 187.798 162.073C187.631 162.098 187.479 161.985 187.355 161.847ZM184.818 159.193C184.798 159.184 184.783 159.168 184.767 159.158C184.716 159.402 184.689 159.631 184.781 159.824L185.091 159.596C185.357 159.775 184.862 159.846 184.942 160.175L185.249 159.806L185.667 160.234L185.529 160.215C185.669 160.375 185.888 160.504 186.087 160.354C185.927 160.514 185.768 160.565 185.907 160.795C186.375 160.475 186.624 160.773 186.903 161.033C186.843 161.062 186.873 161.213 186.744 161.183C186.887 161.219 186.993 161.274 187.075 161.336C187.163 161.04 186.621 160.778 186.593 160.354L185.956 160.255L186.294 160.204C186.106 160.034 186.256 159.855 186.415 159.855C186.385 159.725 186.264 159.745 186.115 159.646L186.355 159.556C186.225 159.246 185.687 159.516 185.886 159.686C184.96 159.626 185.896 159.177 185.149 159.057L184.818 159.193ZM178.114 158.704C178.019 158.814 178.053 158.89 178.111 158.972C178.117 158.879 178.122 158.789 178.114 158.704ZM177.892 158.501C177.965 158.546 178.037 158.596 178.107 158.654C178.091 158.556 178.063 158.465 178.009 158.386L177.892 158.501ZM177.617 158.357C177.65 158.373 177.684 158.388 177.717 158.405C177.777 158.319 177.842 158.217 177.789 158.077L177.617 158.357ZM176.794 157.997C176.884 158.045 176.977 158.087 177.074 158.127H177.202C177.086 158.032 176.933 157.961 176.794 157.997ZM188.761 157.766C188.769 157.825 188.802 157.899 188.876 157.997C188.917 157.964 188.959 157.941 188.999 157.922C188.916 157.891 188.836 157.836 188.761 157.766ZM188.237 157.178C188.296 157.243 188.365 157.304 188.435 157.357C188.392 157.289 188.359 157.236 188.344 157.208L188.237 157.178ZM187.388 155.162C187.28 154.931 186.995 154.987 186.893 155.105C186.967 155.631 186.924 156.141 187.222 156.558L187.509 156.299C187.888 156.569 187.331 156.589 187.53 157.039L187.768 156.598L188.337 157.159C188.441 156.82 187.806 156.517 187.738 156.04L187.05 155.911L187.397 155.859C187.189 155.659 187.319 155.48 187.488 155.48C187.438 155.35 187.319 155.36 187.15 155.251L187.388 155.162ZM183.326 156.549C183.215 156.478 183.174 156.485 183.155 156.525C183.248 156.609 183.339 156.694 183.433 156.777C183.395 156.697 183.359 156.62 183.326 156.549ZM173.209 155.343C173.261 155.368 173.321 155.384 173.387 155.404C173.352 155.355 173.318 155.298 173.289 155.23L173.209 155.343ZM177.311 153.207C177.314 153.218 177.321 153.228 177.325 153.238C177.38 153.205 177.402 153.19 177.311 153.207ZM183.841 151.874C183.63 151.743 183.645 151.854 183.647 151.973C183.793 152.08 183.939 152.189 184.086 152.296C183.998 152.143 183.915 152 183.841 151.874ZM174.028 151.458C174.034 151.559 174.061 151.657 174.184 151.714C174.201 151.7 174.217 151.685 174.233 151.672C174.227 151.673 174.219 151.673 174.212 151.674C174.232 151.664 174.232 151.634 174.252 151.594C174.122 151.574 174.072 151.513 174.028 151.458ZM182.896 151.418C182.929 151.442 182.962 151.466 182.994 151.491C182.977 151.436 182.957 151.38 182.927 151.326L182.896 151.418ZM182.12 150.506C181.901 150.535 182.069 150.655 182.155 150.822C182.21 150.869 182.269 150.912 182.325 150.958L182.528 150.885L182.12 150.506ZM171.754 149.908C171.778 150.001 171.878 150.064 171.974 150.144C171.958 150.05 171.867 149.976 171.754 149.908ZM180.861 149.279L180.816 149.437C180.932 149.592 181.058 149.739 181.187 149.885C181.604 149.857 180.843 149.415 180.924 149.268C180.903 149.277 180.881 149.276 180.861 149.279ZM171.68 149.699C171.692 149.689 171.705 149.683 171.712 149.677C171.679 149.68 171.648 149.679 171.619 149.675C171.639 149.683 171.66 149.69 171.68 149.699ZM179.373 148.458C179.381 148.458 179.389 148.457 179.396 148.458C179.387 148.451 179.377 148.445 179.368 148.439L179.373 148.458ZM177.757 147.019C177.609 146.786 177.475 146.933 177.325 146.965C177.464 147.032 177.604 147.09 177.743 147.151C177.726 147.106 177.725 147.061 177.757 147.019ZM168.333 141.925C167.896 141.934 167.835 141.671 167.468 141.76C169.056 142.4 170.353 144.004 171.971 144.242C173.366 144.602 175.827 145.371 176.654 146.56C176.805 146.673 176.962 146.768 177.12 146.854L177.06 146.47C176.173 146.48 176.869 145.791 176.131 145.601C175.515 145.75 175.355 144.744 174.52 144.803L174.618 144.572C174.031 144.512 174.001 143.964 173.543 143.894C173.553 143.614 173.703 143.823 173.832 143.534C173.324 143.524 174.17 143.125 173.771 143.234C173.343 142.655 172.178 143.623 171.67 143.293C170.933 143.373 170.813 142.256 170.465 142.775L170.754 142.945L169.917 142.655L169.977 142.446C169.589 142.436 168.902 141.836 168.354 142.024C168.363 142.004 168.333 141.974 168.333 141.925ZM163.086 140.635C163.114 140.641 163.141 140.645 163.168 140.651C163.181 140.632 163.193 140.617 163.203 140.606C163.164 140.62 163.125 140.628 163.086 140.635Z" fill="#BC85AD"/>
<path d="M115.99 187.904L116.025 187.737L116.03 187.734L115.99 187.904Z" fill="#BC85AD"/>
<path d="M107.467 178.105C107.457 178.126 107.408 178.147 107.357 178.157L107.467 178.105Z" fill="#BC85AD"/>
<path d="M110.606 175.329C110.596 175.349 110.544 175.369 110.494 175.369L110.606 175.329Z" fill="#BC85AD"/>
<path fill-rule="evenodd" clip-rule="evenodd" d="M118.88 153.502C118.901 153.488 119.564 153.087 120.074 153.292C120.303 153.412 120.532 153.633 120.652 154.062C120.771 154.492 120.791 155.121 120.88 155.96C120.513 155.97 120.365 156.15 120.374 156.549L120.643 156.638C120.384 156.718 120.483 156.988 120.463 157.168C120.672 157.378 120.821 157.199 120.95 157.479C120.822 157.807 120.89 157.649 120.771 157.978C120.612 157.888 120.722 157.727 120.493 157.677C120.593 157.757 120.513 158.018 120.801 158.098L120.512 157.988C120.572 158.088 120.344 158.049 120.314 158.138C120.374 158.208 120.484 158.286 120.554 158.207C120.604 158.426 120.832 158.787 120.573 158.847C120.532 159.026 120.263 158.877 120.025 158.857C120.035 158.927 120.155 159.057 120.265 159.097H120.225L120.26 159.125L120.386 159.087C120.357 159.135 120.31 159.136 120.262 159.127L120.402 159.236C119.916 159.496 120.652 160.055 120.165 160.265C120.135 160.165 120.284 160.045 120.025 159.975V160.265C119.975 160.135 119.836 160.006 119.647 160.006C119.697 160.435 119.996 160.845 119.976 161.325C119.627 161.275 119.835 161.613 119.547 161.723C119.606 161.713 119.647 161.723 119.677 161.723C119.717 161.663 119.786 161.646 119.836 161.814H119.787C119.817 161.844 119.856 161.874 119.915 161.904C119.766 162.003 119.685 161.974 119.665 161.904C119.646 161.994 119.675 162.113 119.477 161.993C119.308 162.223 119.825 162.333 119.915 162.483C119.845 162.762 119.846 162.872 119.875 163.251L119.826 163.201C119.757 163.291 119.429 163.292 119.467 163.5C120.583 163.79 119.447 164.031 119.766 164.511C120.144 164.491 119.966 164.699 120.253 164.699C119.875 165.099 120.553 165.469 120.244 165.919L120.213 165.9C119.936 166.02 120.134 166.339 120.393 166.449C120.124 166.389 120.034 166.609 119.805 166.529C120.168 166.627 120.02 167.026 120.015 167.037C119.687 167.127 120.004 167.426 119.756 167.626L120.204 167.857L119.906 167.777C119.945 167.907 119.725 167.947 119.596 167.897C119.547 167.966 119.645 167.987 119.705 168.076L119.467 168.048C119.38 168.217 119.965 168.255 119.915 168.125C120.602 168.425 119.598 168.346 120.104 168.615L120.456 168.648C120.747 168.944 119.848 168.807 120.213 169.114L119.964 169.145C120.024 169.225 120.026 169.316 120.304 169.256C120.245 169.575 120.055 169.975 119.906 170.245C120.005 170.433 120.114 170.145 120.323 170.214C120.712 170.364 120.293 170.485 120.183 170.695L120.433 170.603L120.363 170.994L120.165 170.972V171.234C120.343 171.283 120.303 171.173 120.363 171.083C120.343 171.363 121.081 171.453 120.682 171.823H120.433C120.502 171.813 120.503 171.772 120.463 171.752C120.035 171.553 120.263 171.991 120.095 172.042C120.413 172.062 120.224 172.351 120.643 172.371C120.204 172.971 121.08 173.162 120.841 173.591C120.632 173.552 120.721 173.751 120.512 173.791C120.395 173.989 120.831 173.831 120.813 173.989L120.524 174.21C121.08 174.41 120.146 174.56 120.444 174.83C120.92 174.91 120.255 175.418 120.782 175.597L120.554 175.689C120.83 175.859 120.434 176.128 120.643 176.278C120.423 176.418 120.503 176.279 120.204 176.389C120.482 176.508 119.687 176.506 120.006 176.546C119.827 176.936 121.188 176.747 121.209 177.036C121.667 177.166 120.872 177.776 121.449 177.597L121.428 177.437L121.638 177.797L121.44 177.896C121.638 177.996 121.52 178.485 121.927 178.525C121.908 178.535 121.897 178.556 121.858 178.586C122.116 178.696 121.868 178.874 122.275 178.894L122.186 178.915C122.824 178.975 122.974 179.693 123.313 180.093C123.024 180.263 123.281 180.463 123.45 180.613C123.41 180.554 123.271 180.634 123.222 180.644C123.71 180.704 123.164 181.403 123.711 181.433L123.66 181.452C123.561 181.651 124.198 181.671 123.739 182.031C124.327 182.071 124.427 182.371 124.546 182.9L124.458 182.94C124.156 184.689 123.673 185.375 123.128 185.471C123.125 185.48 123.124 185.489 123.121 185.497C123.116 185.49 123.11 185.483 123.105 185.476C122.978 185.495 122.848 185.483 122.716 185.443C122.709 185.454 122.7 185.464 122.692 185.476L122.774 185.747C122.635 185.578 122.574 185.805 122.485 185.886C122.475 186.166 122.623 186.206 122.543 186.456C122.335 186.515 122.434 186.486 122.226 186.545C122.216 186.366 122.325 186.386 122.266 186.157C122.265 186.286 122.115 186.337 122.175 186.625L122.126 186.317C122.106 186.425 122.036 186.196 121.986 186.216C121.976 186.305 121.977 186.435 122.037 186.465C121.947 186.605 121.827 186.965 121.718 186.745C121.608 186.765 121.607 186.466 121.547 186.237C121.527 186.278 121.498 186.436 121.508 186.545L121.489 186.517L121.468 186.736C121.209 186.366 121.1 187.244 120.871 186.835C120.911 186.777 121.01 186.884 120.99 186.616L120.841 186.696C120.891 186.616 120.929 186.447 120.89 186.267C120.681 186.437 120.521 186.815 120.262 186.915C120.223 186.556 120.083 186.855 119.973 186.585C119.993 186.645 119.994 186.685 119.994 186.715C120.044 186.745 120.053 186.807 119.973 186.887V186.835C119.963 186.865 119.943 186.906 119.943 186.976C119.864 186.837 119.874 186.767 119.903 186.727C119.854 186.727 119.794 186.764 119.833 186.557C119.694 186.438 119.705 186.964 119.626 187.075C119.467 187.055 119.396 187.065 119.187 187.165L119.218 187.106C119.158 187.056 119.127 186.725 119.017 186.785C118.938 187.924 118.718 186.817 118.469 187.176C118.499 187.544 118.381 187.386 118.381 187.676C118.142 187.326 117.922 187.993 117.653 187.704L117.674 187.676C117.604 187.396 117.413 187.595 117.334 187.854C117.383 187.585 117.255 187.495 117.315 187.266C117.235 187.635 117.005 187.454 117.005 187.454C116.975 187.116 116.777 187.424 116.688 187.165L116.508 187.595L116.587 187.294C116.508 187.334 116.517 187.115 116.557 186.986C116.527 186.936 116.507 187.035 116.447 187.075L116.499 186.835C116.419 186.715 116.319 187.296 116.398 187.266C116.15 187.914 116.319 186.926 116.1 187.395L116.025 187.737C115.801 187.975 116.018 187.117 115.79 187.435L115.811 187.186C115.751 187.236 115.712 187.216 115.692 187.506C115.513 187.406 115.333 187.124 115.214 186.924C115.094 186.984 115.224 187.156 115.144 187.346C114.965 187.685 114.984 187.256 114.894 187.106V187.365L114.694 187.214L114.754 187.016L114.614 186.955C114.545 187.115 114.615 187.105 114.645 187.195C114.505 187.106 114.247 187.794 114.167 187.306L114.227 187.066C114.217 187.135 114.238 187.145 114.258 187.115C114.476 186.756 114.186 186.854 114.206 186.675C114.107 186.974 114.017 186.707 113.878 187.096C113.708 186.487 113.339 187.235 113.19 186.865C113.289 186.676 113.161 186.696 113.211 186.486C113.151 186.307 113.07 186.766 113.001 186.696V186.347C112.693 186.774 112.971 185.867 112.742 186.027C112.513 186.425 112.553 185.638 112.264 186.027L112.324 185.787C112.135 185.957 112.194 185.477 112.045 185.587C112.094 185.337 112.114 185.467 112.194 185.158C112.026 185.335 112.364 184.649 112.215 184.909C112.155 184.579 111.626 185.827 111.497 185.707C111.218 186.035 111.377 185.048 111.168 185.617L111.238 185.686L111.009 185.667L111.07 185.457C110.941 185.567 110.83 185.218 110.601 185.516C110.611 185.506 110.611 185.475 110.611 185.436C110.441 185.576 110.512 185.268 110.293 185.577L110.333 185.497C109.984 185.937 109.644 185.637 109.335 185.617C109.454 185.298 109.246 185.357 109.106 185.377C109.128 185.383 109.159 185.339 109.186 185.292C108.682 185.791 108.315 186.003 108.031 186.046C107.584 186.125 107.395 185.806 107.395 185.806L107.276 185.528C107.236 185.558 107.118 185.606 107.155 185.568C106.37 185.706 107.563 184.459 106.877 184.548C106.518 184.528 105.881 184.428 106.25 183.978C106.25 183.883 106.134 183.862 106.024 183.839C105.911 183.98 105.81 184.126 106.012 184.299L105.963 184.28C105.764 184.38 106.241 184.779 105.664 184.779C106.102 185.158 106.022 185.468 105.753 185.947L105.664 185.916C103.752 187.435 102.934 187.105 102.596 186.376C102.25 185.661 102.395 184.554 102.397 184.539L102.547 183.62C102.497 183.62 102.377 183.519 102.437 183.489C101.81 182.39 103.641 181.432 103.144 180.364C102.954 179.625 102.665 178.286 103.332 177.726C103.532 177.197 103.133 176.647 103.451 176.167L103.741 176.087C103.641 175.968 103.572 175.948 103.622 175.819C103.691 175.908 103.801 175.839 103.88 175.819L103.731 175.628C104.129 175.678 103.185 175.109 103.601 175.188L103.901 175.209C104.877 174.18 104.359 172.492 105.046 171.243C105.445 171.044 106.062 171.084 106.261 170.815L105.902 170.655C105.892 170.395 106.212 170.734 106.441 170.574L105.972 170.464L106.091 170.005L106.152 170.115C106.202 169.965 106.182 169.754 105.963 169.644C106.172 169.714 106.302 169.824 106.401 169.644C105.894 169.395 106.001 169.096 106.061 168.797C106.121 168.836 106.231 168.767 106.271 168.877C105.942 167.968 107.226 168.296 106.889 167.388L106.949 167.426C107.515 167.226 107.128 166.737 107.696 166.468L107.446 166.319C107.655 166.159 107.826 165.919 107.826 165.58L107.884 165.669L107.975 165.49L108.024 165.54C107.994 165.42 108.193 165.349 108.143 165.109L108.195 165.161C108.363 165.15 108.374 165 108.344 164.84L108.603 164.89C108.523 164.43 109.139 164.34 108.99 163.861C109.309 163.401 109.639 162.863 110.067 162.483C110.774 161.475 111.371 161.654 112.327 161.035L112.336 161.054C112.839 160.479 113.061 159.898 113.414 159.492C113.39 158.816 113.308 158.277 114.02 157.877C114.035 157.865 114.429 157.569 114.927 157.667C115.327 157.745 115.761 158.075 116.191 158.875C116.411 158.144 116.888 157.826 117.345 156.909L117.355 156.869C117.534 156.14 117.564 155.519 117.714 154.95C117.863 154.381 118.153 153.861 118.88 153.502ZM112.089 177.462C111.877 177.523 111.81 177.609 111.599 177.646C111.952 177.57 111.857 177.731 111.849 177.745C111.54 177.865 111.877 177.867 111.648 178.006L112.087 177.945L111.797 178.016C111.847 178.046 111.649 178.125 111.52 178.145C111.48 178.175 111.579 178.154 111.639 178.164L111.408 178.225C111.332 178.314 111.887 178.145 111.837 178.115C112.504 177.995 111.54 178.286 112.038 178.216L112.369 178.115C112.647 178.127 111.799 178.365 112.157 178.346L111.928 178.435C111.987 178.445 111.989 178.474 112.257 178.364C112.217 178.494 112.018 178.696 111.888 178.835C111.987 178.864 112.087 178.725 112.285 178.685C112.643 178.615 112.257 178.784 112.157 178.894L112.385 178.784L112.315 178.944L112.117 179.005V179.094C112.285 179.055 112.246 179.034 112.315 178.974C112.286 179.084 112.962 178.875 112.574 179.134L112.345 179.224C112.405 179.184 112.405 179.184 112.376 179.184C111.977 179.254 112.176 179.335 112.017 179.415C112.305 179.315 112.116 179.493 112.504 179.353C112.057 179.723 112.834 179.505 112.586 179.754C112.387 179.814 112.455 179.852 112.266 179.942C112.137 180.062 112.555 179.844 112.525 179.914L112.245 180.102C112.732 179.993 111.88 180.381 112.105 180.382C112.524 180.253 111.879 180.693 112.327 180.583L112.105 180.703C112.344 180.673 111.939 180.931 112.105 180.922C111.887 181.051 111.976 180.972 111.697 181.122C111.926 181.082 111.22 181.351 111.499 181.261C111.28 181.5 112.509 180.935 112.485 181.051C112.873 180.942 112.057 181.51 112.595 181.221L112.614 181.153L112.723 181.242L112.534 181.362C112.694 181.332 112.506 181.6 112.845 181.47C112.825 181.48 112.814 181.492 112.775 181.522C112.963 181.483 112.715 181.661 113.052 181.522L112.973 181.562C113.48 181.383 113.481 181.651 113.64 181.741C113.361 181.931 113.522 181.94 113.621 181.96C113.601 181.95 113.473 182.041 113.432 182.062C113.809 181.913 113.212 182.46 113.63 182.29L113.591 182.311C113.462 182.451 113.948 182.251 113.49 182.601C113.929 182.421 113.95 182.531 113.871 182.801L113.789 182.85C113.766 182.884 113.742 182.915 113.719 182.947V183.02C113.799 182.91 113.809 182.839 113.868 182.869C113.819 182.949 113.838 183.039 113.838 183.119L113.948 182.949C113.888 183.339 114.256 182.341 114.176 182.761L114.136 183.051C114.396 183.513 114.793 183.419 115.193 183.305C115.154 182.8 115.387 182.108 114.836 181.991C114.358 181.771 113.531 181.341 113.81 180.712C113.73 180.373 113.162 180.362 113.192 179.973L113.393 179.773C113.253 179.783 113.182 179.812 113.162 179.733C113.261 179.723 113.312 179.644 113.372 179.594H113.152C113.501 179.394 112.457 179.683 112.835 179.483L113.082 179.325C113.328 178.492 112.455 178.082 112.089 177.462ZM119.607 181.412C119.39 181.82 119.146 182.039 118.884 182.123C118.884 182.164 118.847 182.23 118.712 182.342C119.209 182.232 119.269 182.401 119.269 182.761L119.19 182.81C119.154 182.894 119.113 182.973 119.078 183.051V183.119C119.128 183.249 119.187 183.159 119.227 183.039L119.288 183.279C119.407 182.931 119.627 183.338 119.726 182.909C119.854 182.866 119.985 182.805 120.118 182.763C119.75 182.441 119.647 181.93 119.607 181.412ZM109.111 181.087C108.837 181.172 108.985 181.218 108.838 181.291C109.026 181.22 109.013 181.259 109.083 181.254C109.105 181.193 109.112 181.138 109.111 181.087ZM108.938 180.941V181.011C109.032 180.982 109.059 180.961 109.078 180.941C109.071 180.925 109.059 180.913 109.05 180.898L108.938 180.941ZM108.969 180.851L109.006 180.83L109.004 180.823C108.991 180.833 108.978 180.842 108.969 180.851ZM108.71 180.832C108.774 180.839 108.841 180.794 108.929 180.743C108.906 180.721 108.882 180.7 108.857 180.679C108.805 180.733 108.755 180.787 108.71 180.832ZM108.251 180.392C108.21 180.433 108.337 180.397 108.463 180.352C108.455 180.344 108.447 180.335 108.439 180.326L108.251 180.392ZM108.372 180.312C108.342 180.334 108.384 180.324 108.432 180.317C108.426 180.309 108.42 180.301 108.414 180.293C108.399 180.298 108.385 180.307 108.372 180.312ZM108.806 179.488C108.861 179.506 108.887 179.532 108.81 179.603H108.78C108.646 179.668 108.65 179.696 108.722 179.702C108.902 179.58 109.062 179.469 109.078 179.393L108.806 179.488ZM108.687 179.45C108.701 179.453 108.715 179.464 108.731 179.466C108.825 179.418 109.042 179.352 109.109 179.264L108.687 179.45ZM108.605 179.379C108.579 179.422 108.617 179.432 108.67 179.445L108.605 179.379ZM108.6 179.113C108.182 179.245 108.041 179.22 107.947 179.165C107.848 179.214 107.681 179.29 107.733 179.313C108.828 179.004 107.795 179.433 108.181 179.433C108.476 179.332 108.428 179.385 108.57 179.344L108.54 179.313H108.64C108.61 179.264 108.489 179.234 108.251 179.313C108.45 179.233 108.62 179.183 108.6 179.113ZM107.945 179.017C107.949 179.034 107.96 179.047 107.978 179.064C108.008 179.048 108.041 179.033 108.083 179.033C108.026 179.033 107.982 179.022 107.945 179.017ZM107.486 178.136C107.495 178.117 107.495 178.097 107.5 178.079C107.403 178.115 107.216 178.156 107.066 178.204C107.106 178.204 107.255 178.195 107.364 178.185H107.334L107.544 178.155C107.186 178.354 108.043 178.236 107.644 178.426C107.585 178.416 107.683 178.344 107.425 178.414L107.504 178.475C107.425 178.465 107.266 178.474 107.087 178.534C107.247 178.604 107.635 178.594 107.745 178.694C107.396 178.804 107.693 178.793 107.444 178.913C107.494 178.893 107.535 178.875 107.565 178.875C107.595 178.845 107.653 178.825 107.733 178.845C107.713 178.864 107.703 178.864 107.684 178.864C107.724 178.864 107.764 178.855 107.824 178.845C107.694 178.915 107.623 178.925 107.584 178.925C107.585 178.954 107.632 178.965 107.425 179.005C107.339 179.084 107.643 179.014 107.831 178.981C107.717 178.854 108.344 178.534 107.714 178.534L107.784 178.515C108.102 178.236 107.506 178.335 107.763 178.056L107.486 178.136ZM107.166 177.896C107.264 177.896 107.047 177.965 107.057 177.985C107.136 177.985 107.265 177.964 107.294 177.924C107.334 177.93 107.395 177.937 107.453 177.943C107.42 177.914 107.376 177.884 107.308 177.86L107.166 177.896ZM107.369 177.816C107.217 177.836 107.234 177.789 107.017 177.846C107.132 177.829 107.175 177.876 107.385 177.839L107.369 177.816ZM107.341 177.856H107.395L107.388 177.844L107.341 177.856ZM106.891 177.01C106.785 177.033 106.704 177.071 106.749 177.196C107.023 177.406 106.669 177.522 106.597 177.722C106.639 177.741 106.721 177.754 106.758 177.776C107.03 177.746 107.084 177.678 107.308 177.674C107.289 177.663 107.259 177.653 107.215 177.646H107.285C107.405 177.576 107.314 177.545 107.185 177.535L107.404 177.437C107.037 177.396 107.394 177.137 106.966 177.137C106.944 177.096 106.917 177.053 106.891 177.01ZM107.376 177.776H107.416C107.363 177.77 107.36 177.744 107.343 177.714C107.36 177.747 107.36 177.744 107.376 177.776ZM109.13 171.074C109.06 171.104 109.151 171.174 109.151 171.274L108.95 171.133C108.791 171.232 109.299 171.543 109.309 171.413C109.787 171.982 108.932 171.434 109.26 171.893L109.547 172.082C109.667 172.461 108.93 171.923 109.13 172.352L108.901 172.263C108.93 172.352 108.892 172.423 109.16 172.513C108.981 172.752 108.601 172.972 108.362 173.132C108.373 173.33 108.593 173.142 108.752 173.301C109.02 173.61 108.591 173.511 108.411 173.631L108.673 173.671L108.432 173.961L108.253 173.85L108.143 174.069C108.283 174.189 108.293 174.091 108.393 174.041C108.371 174.074 108.367 174.111 108.372 174.152C108.717 174.202 109.118 174.282 109.577 174.42C109.309 174.52 109.278 174.598 109.507 174.698L109.776 174.648C109.596 174.738 109.816 174.78 109.885 174.83C110.164 174.84 110.214 174.75 110.452 174.79C110.501 174.919 110.482 174.859 110.522 174.978C110.353 174.998 110.373 174.919 110.144 174.969C110.274 174.969 110.315 175.059 110.604 175.009L110.293 175.049C110.393 175.059 110.166 175.108 110.174 175.138C110.264 175.148 110.394 175.138 110.424 175.098C110.554 175.148 110.89 175.188 110.683 175.268C110.703 175.328 110.403 175.359 110.174 175.409C110.215 175.419 110.373 175.429 110.482 175.409H110.662C110.295 175.598 111.159 175.569 110.753 175.748C110.693 175.738 110.792 175.668 110.534 175.708L110.613 175.788C110.533 175.768 110.363 175.757 110.184 175.807C110.333 175.917 110.731 175.957 110.841 176.097C110.483 176.167 110.792 176.208 110.534 176.318C110.593 176.298 110.632 176.278 110.662 176.278C110.682 176.248 110.752 176.217 110.832 176.257C110.812 176.267 110.801 176.266 110.781 176.266H110.921C110.792 176.336 110.723 176.347 110.683 176.337C110.693 176.367 110.731 176.388 110.522 176.407C110.415 176.516 110.932 176.406 111.051 176.426C111.041 176.516 111.06 176.548 111.179 176.648H111.121C111.071 176.698 110.752 176.786 110.832 176.836C111.956 176.607 110.893 176.995 111.289 177.046C111.638 176.936 111.509 177.045 111.788 176.966C111.5 177.195 112.165 177.116 111.937 177.335H111.907C111.67 177.436 111.849 177.475 112.08 177.451C112.019 177.346 111.97 177.237 111.947 177.116C112.146 176.827 112.656 176.497 112.656 176.287L112.297 176.426C112.148 176.336 112.585 176.276 112.665 176.097L112.248 176.318L112.068 176.097H112.178C112.128 176.017 111.987 175.948 111.758 176.038C111.957 175.948 112.126 175.908 112.096 175.788C111.559 175.977 111.46 175.817 111.331 175.677C111.4 175.657 111.43 175.578 111.529 175.588C110.733 175.468 111.867 174.869 111.042 174.759L111.112 174.738C111.398 174.35 110.793 174.419 111.012 174.02L110.743 174.109C110.783 173.94 110.722 173.791 110.494 173.671H110.594L110.534 173.551H110.604C110.504 173.531 110.582 173.401 110.384 173.341H110.454C110.564 173.242 110.462 173.19 110.333 173.16L110.543 173.031C110.155 172.941 110.483 172.572 110.046 172.522C109.917 172.222 109.717 171.891 109.687 171.552C109.627 171.438 109.594 171.336 109.577 171.241L109.449 171.123C109.429 171.253 109.229 171.173 109.13 171.074ZM116.762 174.686C116.774 174.806 116.589 174.979 116.739 175.039C116.52 175.179 116.599 175.058 116.31 175.188C116.569 175.248 115.803 175.368 116.112 175.348C115.971 175.615 116.751 175.447 117.103 175.468L117.257 175.308C117.097 175.248 117.037 175.259 117.007 175.119C117.126 175.169 117.176 175.059 117.236 174.999L117.007 174.898C117.213 174.814 116.956 174.747 116.762 174.686ZM116.669 173.462C117.217 173.541 116.291 173.779 116.58 173.949C117.011 173.94 116.462 174.368 116.825 174.467L116.946 174.411C117.03 174.029 117.004 173.654 116.925 173.283L116.669 173.462ZM116.851 172.998C116.799 173.041 116.79 173.111 116.66 173.151C116.568 173.28 116.802 173.205 116.909 173.217C116.892 173.143 116.872 173.071 116.851 172.998ZM116.391 171.665C116.354 171.736 116.389 171.852 116.291 171.881C116.421 171.873 116.462 171.912 116.496 171.954C116.46 171.859 116.427 171.761 116.391 171.665ZM109.685 170.617C109.599 170.707 109.603 170.905 109.389 170.932L109.57 171.184C109.548 170.977 109.61 170.805 109.685 170.617ZM113.064 169.974C113.07 169.979 113.081 169.977 113.092 169.981C113.097 169.975 113.101 169.968 113.106 169.962C113.091 169.966 113.077 169.97 113.064 169.974ZM116.69 169.47C116.564 169.543 116.162 169.552 116.431 169.706L116.182 169.734C116.224 169.776 116.241 169.806 116.31 169.816C116.439 169.699 116.577 169.583 116.69 169.47ZM116.669 169.355C116.728 169.397 116.732 169.425 116.713 169.449C116.744 169.417 116.775 169.387 116.8 169.355H116.669ZM116.203 168.213C115.911 168.28 116.213 168.491 115.972 168.636L116.419 168.797L116.121 168.745C116.161 168.834 115.943 168.866 115.813 168.837C115.764 168.886 115.863 168.906 115.923 168.966L115.683 168.945C115.593 169.075 116.18 169.084 116.13 168.994C116.827 169.194 115.813 169.165 116.321 169.345L116.8 169.355C116.854 169.282 116.895 169.207 116.907 169.126L116.52 169.154C116.391 168.925 116.839 169.075 116.958 168.815L116.499 168.945L116.38 168.467L116.478 168.535C116.461 168.394 116.375 168.252 116.203 168.213ZM112.695 168.976C112.719 168.977 112.74 168.971 112.761 168.971C112.768 168.953 112.775 168.931 112.775 168.905C112.716 168.908 112.662 168.908 112.614 168.905C112.644 168.928 112.675 168.95 112.695 168.976ZM112.217 168.347C112.197 168.365 112.178 168.381 112.164 168.399C112.2 168.382 112.24 168.374 112.287 168.406C112.261 168.387 112.239 168.365 112.217 168.347ZM116.24 167.956C116.287 168.038 116.257 168.128 116.238 168.175C116.38 168.16 116.478 168.143 116.478 167.977C116.385 167.98 116.307 167.97 116.24 167.956ZM112.14 166.079C112.092 166.114 112.033 166.14 111.94 166.119C111.989 166.139 112.029 166.168 112.049 166.187C112.118 166.158 112.177 166.18 112.138 166.338C112.128 166.328 112.108 166.317 112.098 166.307C112.108 166.347 112.119 166.389 112.159 166.449C111.97 166.449 111.93 166.379 111.94 166.319C111.88 166.389 111.849 166.478 111.739 166.289C111.481 166.389 111.878 166.747 111.879 166.917C111.7 167.097 111.641 167.178 111.501 167.518L111.48 167.447C111.381 167.487 111.103 167.308 111.033 167.497C111.177 167.638 111.26 167.743 111.303 167.822C111.533 167.893 111.785 167.992 112.061 168.123C111.984 167.764 112.69 167.496 112.098 167.087H112.166C112.564 166.707 111.968 166.508 112.336 166.079H112.14ZM116.018 166.044C115.937 166.126 115.871 166.215 115.965 166.336C116.006 166.241 116.032 166.146 116.018 166.044ZM115.995 165.403C115.888 165.45 115.639 165.458 115.673 165.599C115.751 165.617 115.817 165.638 115.874 165.655C115.946 165.563 115.981 165.482 115.995 165.403ZM115.843 164.412C115.824 164.482 115.841 164.561 115.652 164.461C115.548 164.568 115.743 164.656 115.911 164.739C115.917 164.652 115.942 164.56 116.007 164.454C115.912 164.474 115.86 164.451 115.843 164.412ZM115.734 164.27C115.753 164.267 115.77 164.271 115.785 164.27C115.787 164.263 115.788 164.256 115.79 164.249C115.773 164.256 115.756 164.266 115.734 164.27Z" fill="#BC85AD"/>
<path d="M121.61 186.689C121.57 186.678 121.55 186.627 121.55 186.576L121.61 186.689Z" fill="#BC85AD"/>
<path d="M194.423 184.92C194.353 184.91 194.312 184.869 194.302 184.819L194.423 184.92Z" fill="#BC85AD"/>
<path d="M174.979 163.192C174.923 163.273 174.887 163.305 174.847 163.272C174.875 163.248 174.902 163.224 174.926 163.204C174.938 163.199 174.953 163.196 174.968 163.192C174.972 163.191 174.975 163.192 174.979 163.192Z" fill="#BC85AD"/>
<path d="M174.926 163.204C174.905 163.212 174.889 163.223 174.877 163.223C174.91 163.206 174.99 163.145 175.017 163.126C174.99 163.148 174.961 163.174 174.926 163.204Z" fill="#BC85AD"/>
<path d="M175.026 163.121C175.025 163.122 175.021 163.123 175.017 163.126C175.022 163.122 175.028 163.118 175.033 163.114L175.026 163.121Z" fill="#BC85AD"/>
</svg>
