<svg width="256" height="491" viewBox="0 0 256 491" fill="none" xmlns="http://www.w3.org/2000/svg">
<path fill-rule="evenodd" clip-rule="evenodd" d="M163.095 216.812C163.096 216.727 163.169 210.888 166.38 217.981C166.19 218.69 166.231 219.298 166.58 220.265L166.83 220.038C166.721 220.666 167.008 221.165 167.137 221.684C167.447 221.933 167.418 221.215 167.726 221.783C167.906 222.91 167.817 222.343 167.996 223.471C167.817 223.42 167.768 222.822 167.558 223.011C167.695 223.094 167.815 223.798 168.048 223.804L167.808 223.859C167.938 224.068 167.729 224.259 167.769 224.539C167.868 224.668 168.006 224.746 168.006 224.427C168.206 224.996 168.646 225.765 168.486 226.244C168.576 226.803 168.245 226.672 168.036 226.862C168.083 227.011 168.254 227.224 168.365 227.235L168.454 227.003C168.454 227.163 168.418 227.223 168.373 227.238C168.377 227.238 168.383 227.243 168.387 227.242L168.355 227.312L168.595 227.522C168.356 228.709 169.345 229.628 169.046 230.656C168.956 230.416 169.015 229.937 168.746 229.966L168.915 230.774C168.805 230.446 168.606 230.207 168.437 230.357C168.726 231.484 169.224 232.423 169.484 233.79C169.136 233.89 169.534 234.707 169.325 235.216C169.375 235.147 169.414 235.127 169.444 235.127C169.444 234.907 169.505 234.817 169.635 235.265C169.615 235.265 169.603 235.285 169.583 235.285C169.623 235.355 169.674 235.435 169.744 235.475C169.654 235.854 169.573 235.805 169.514 235.636C169.544 235.905 169.624 236.204 169.385 235.994C169.355 236.742 169.893 236.733 170.053 237.131C170.133 237.95 170.182 238.27 170.422 239.368L170.343 239.237C170.323 239.546 170.013 239.707 170.152 240.285C171.34 240.605 170.383 241.823 170.912 243.071C171.251 242.862 171.182 243.539 171.462 243.449C171.282 244.756 172.079 245.655 171.979 247.092L171.939 247.023C171.71 247.442 172.049 248.349 172.348 248.639C172.059 248.492 172.06 249.177 171.801 248.958C172.2 249.188 172.199 250.446 172.199 250.446C171.89 250.725 172.328 251.592 172.15 252.201L172.689 252.89L172.36 252.67C172.45 253.059 172.24 253.16 172.09 253.021C172.061 253.2 172.169 253.281 172.259 253.54L172.009 253.449C171.969 253.948 172.579 254.078 172.489 253.689C173.287 254.597 172.229 254.319 172.838 255.147L173.387 255.335L173.207 255.276C173.606 256.223 172.649 255.715 173.118 256.662L172.877 256.724C172.967 256.973 172.998 257.231 173.266 257.102C173.316 258.05 173.207 259.188 173.127 259.947C173.287 260.515 173.316 259.688 173.556 259.947C173.995 260.516 173.596 260.765 173.536 261.333L173.766 261.143L173.796 262.283L173.566 262.152L173.637 262.91C173.826 263.099 173.766 262.781 173.816 262.532C173.846 263.36 174.644 263.938 174.296 264.816L174.036 264.747C174.106 264.747 174.096 264.626 174.056 264.556C173.567 263.789 173.896 265.186 173.726 265.246C174.065 265.436 173.917 266.192 174.365 266.452C173.996 267.969 174.943 268.988 174.754 270.125C174.525 269.878 174.644 270.506 174.434 270.506C174.335 271.004 174.783 270.825 174.783 271.264L174.504 271.702C175.123 272.66 174.145 272.462 174.474 273.41C174.983 273.979 174.316 274.926 174.895 275.815L174.655 275.874C174.964 276.573 174.534 277.013 174.764 277.582C174.535 277.76 174.604 277.451 174.296 277.51C174.595 278.079 173.748 277.432 174.085 277.789C173.896 278.677 175.341 279.337 175.373 280.155C175.872 280.963 174.984 281.842 175.603 281.922V281.472L175.813 282.661L175.593 282.72C175.802 283.179 175.664 284.376 176.093 284.925C176.073 284.915 176.051 284.967 176.011 285.007C176.271 285.595 175.993 285.805 176.422 286.304L176.321 286.255C176.979 287.153 177.1 289.278 177.39 290.775C177.06 290.865 177.299 291.714 177.459 292.332C177.429 292.143 177.269 292.142 177.219 292.112C177.728 292.931 177.051 293.988 177.61 294.826L177.558 294.797C177.419 295.166 178.067 296.144 177.519 296.383C178.117 297.341 178.187 298.27 178.157 299.777L178.058 299.727C175.842 310.115 174.296 297.031 174.296 297.031L174.006 294.327C173.956 294.327 173.786 294.098 173.835 293.998C172.727 291.154 173.975 287.591 172.967 284.796C172.408 282.791 171.45 279.308 171.739 277.352C171.639 275.776 170.972 274.568 170.972 273.051L171.182 272.611C171.012 272.352 170.942 272.35 170.912 271.971C171.032 272.161 171.082 271.903 171.142 271.783L170.892 271.403C171.269 271.223 170.095 270.456 170.511 270.335L170.781 270.145C171 266.533 169.484 262.612 169.155 258.81C169.314 257.862 169.833 257.232 169.783 256.284L169.395 256.343C169.196 255.715 169.694 256.164 169.744 255.466L169.316 255.775L169.066 254.507L169.184 254.697C169.115 254.259 168.946 253.771 168.697 253.81C168.896 253.71 169.086 253.788 169.016 253.219C168.447 253.279 168.297 252.452 168.108 251.674C168.177 251.682 168.197 251.376 168.316 251.573C167.378 249.967 168.526 248.839 167.548 247.292H167.618C167.827 245.935 167.168 245.475 167.298 243.988L167.019 244.079C167.019 243.391 166.909 242.622 166.62 241.904L166.729 241.983L166.63 241.474H166.699C166.579 241.265 166.629 240.776 166.39 240.377H166.459C166.549 240.077 166.431 239.746 166.271 239.477L166.469 239.128C166.01 238.34 166.26 237.044 165.751 236.395C165.492 234.928 165.163 233.32 165.004 231.803C164.365 228.649 164.793 227.771 164.533 224.687H164.543C163.875 221.224 162.866 219.826 163.095 216.812ZM165.751 236.395V236.405L165.712 236.333C165.732 236.353 165.741 236.375 165.751 236.395Z" fill="#F5C469"/>
<path d="M133.013 217.242C133.042 217.197 135.844 212.777 135.318 219.746C134.819 220.185 134.579 220.665 134.429 221.573L134.749 221.523C134.36 221.952 134.38 222.461 134.251 222.92C134.401 223.259 134.709 222.702 134.709 223.29C134.34 224.228 134.519 223.759 134.15 224.697C134.011 224.566 134.249 224.089 133.981 224.128C134.061 224.269 133.791 224.965 134.1 224.996L133.801 224.897C133.81 225.106 133.541 225.157 133.452 225.386C133.482 225.536 133.562 225.665 133.712 225.426C133.622 225.955 133.64 226.753 133.281 227.032C133.091 227.501 132.872 227.242 132.603 227.282C132.583 227.432 132.634 227.702 132.734 227.742L132.672 227.781L132.783 228.061C132.025 228.839 132.453 230.017 131.714 230.646C131.754 230.427 132.014 230.086 131.776 229.976L131.556 230.676C131.605 230.366 131.555 230.087 131.335 230.117C131.056 231.104 131.056 232.062 130.647 233.229C130.298 233.129 130.267 233.948 129.848 234.227C129.927 234.207 129.969 234.207 129.999 234.227C130.098 234.058 130.187 234.019 130.098 234.427C130.078 234.418 130.068 234.418 130.048 234.418C130.058 234.487 130.068 234.568 130.108 234.638C129.849 234.866 129.798 234.797 129.828 234.638C129.728 234.867 129.658 235.126 129.548 234.848C129.18 235.406 129.637 235.665 129.598 236.044C129.278 236.712 129.179 236.972 128.87 237.92V237.781C128.71 238.01 128.371 237.971 128.221 238.478C129.1 239.307 127.703 239.747 127.583 240.955C127.972 240.965 127.593 241.444 127.882 241.514C127.124 242.402 127.393 243.479 126.635 244.517V244.447C126.236 244.647 126.107 245.504 126.236 245.873C126.057 245.604 125.725 246.123 125.605 245.834C125.843 246.211 125.264 247.148 125.256 247.161C124.858 247.222 124.838 248.099 124.4 248.469L124.538 249.247L124.358 248.919C124.258 249.257 124.029 249.227 123.969 249.047C123.859 249.177 123.92 249.287 123.87 249.527L123.689 249.326C123.42 249.686 123.889 250.086 123.989 249.747C124.258 250.824 123.48 250.086 123.62 251.014L123.88 251.294C123.78 252.222 123.182 251.344 123.152 252.302L122.912 252.23C122.872 252.47 122.782 252.67 123.07 252.71C122.671 253.448 122.044 254.247 121.625 254.786C121.495 255.295 121.904 254.697 121.994 255.006C122.103 255.654 121.635 255.645 121.325 256.044L121.615 256.015L121.105 256.892L120.974 256.682L120.674 257.292C120.754 257.531 120.846 257.262 121.006 257.092C120.657 257.731 121.074 258.568 120.365 259.057L120.177 258.879C120.246 258.908 120.286 258.808 120.286 258.738C120.216 257.921 119.856 259.139 119.677 259.099C119.875 259.408 119.398 259.906 119.667 260.325C118.649 261.293 118.988 262.53 118.301 263.298C118.211 262.981 118.02 263.529 117.84 263.419C117.522 263.748 117.99 263.829 117.791 264.168L117.343 264.356C117.432 265.384 116.683 264.747 116.523 265.634C116.693 266.323 115.686 266.703 115.766 267.661L115.526 267.592C115.466 268.27 114.895 268.4 114.825 268.939C114.548 268.968 114.756 268.769 114.457 268.659C114.446 269.236 114.028 268.33 114.147 268.768C113.579 269.347 114.526 270.554 114.167 271.193C114.227 272.061 113.05 272.282 113.558 272.651L113.758 272.302L113.39 273.298L113.169 273.239C113.139 273.698 112.451 274.526 112.57 275.155C112.56 275.136 112.52 275.164 112.471 275.174C112.421 275.753 112.082 275.764 112.221 276.363L112.162 276.274C112.321 277.272 111.433 278.937 110.984 280.214C110.655 280.125 110.475 280.884 110.315 281.433C110.375 281.263 110.234 281.193 110.204 281.143C110.264 282.011 109.187 282.48 109.276 283.388L109.246 283.338C108.957 283.548 109.067 284.606 108.479 284.517C108.548 285.535 108.18 286.284 107.452 287.402L107.39 287.31C100.675 294.014 105.34 283.501 105.385 283.4L106.382 281.213C106.332 281.192 106.293 280.934 106.382 280.884C106.752 278.179 109.498 276.113 109.917 273.499C110.366 271.702 111.163 268.598 112.32 267.26C112.969 266.013 112.941 264.777 113.659 263.63L114.048 263.4C114.018 263.13 113.958 263.089 114.108 262.789C114.127 262.989 114.287 262.819 114.397 262.76L114.358 262.352C114.766 262.401 114.109 261.246 114.526 261.343H114.848C116.714 258.729 117.232 255.005 118.709 251.971C119.298 251.333 120.038 251.113 120.437 250.374L120.078 250.226C120.198 249.657 120.426 250.236 120.786 249.737L120.266 249.756L120.635 248.669L120.655 248.879C120.804 248.51 120.884 248.059 120.655 247.96C120.884 247.979 121.004 248.139 121.214 247.67C120.696 247.44 120.955 246.732 121.155 246.054C121.214 246.104 121.385 245.875 121.385 246.084C121.315 244.397 122.831 244.117 122.711 242.46L122.771 242.502C123.589 241.584 123.221 240.905 124.028 239.848L123.739 239.776C124.058 239.257 124.32 238.618 124.41 237.93L124.469 238.041L124.617 237.601L124.677 237.641C124.677 237.431 124.947 237.071 124.927 236.652L124.986 236.694C125.206 236.504 125.246 236.195 125.236 235.915L125.565 235.745C125.536 234.917 126.353 234.059 126.214 233.32C126.673 232.083 127.133 230.704 127.702 229.477C128.61 226.782 129.4 226.324 130.608 223.869V223.908C131.625 220.965 131.417 219.398 133.013 217.242Z" fill="#F5C469"/>
<path d="M190.066 209.748C185.069 200.443 194.623 209.318 194.677 209.368L196.642 211.234C196.672 211.194 196.952 211.265 196.981 211.375C199.666 212.822 201.005 216.344 203.581 217.811C205.297 218.978 208.283 221.006 209.321 222.682C210.418 223.819 211.714 224.299 212.682 225.456L212.803 225.925C213.092 226.015 213.153 225.965 213.422 226.234C213.203 226.164 213.333 226.393 213.363 226.523L213.801 226.654C213.633 227.033 215.018 226.864 214.779 227.223L214.699 227.542C216.855 230.426 220.549 232.433 223.254 235.107C223.743 235.935 223.754 236.745 224.402 237.433L224.66 237.141C225.219 237.501 224.54 237.482 224.959 238.041L225.09 237.522L226.098 238.32L225.878 238.251C226.217 238.54 226.656 238.798 226.826 238.609C226.736 238.819 226.548 238.878 226.967 239.267C227.356 238.849 228.014 239.389 228.652 239.858C228.595 239.9 228.781 240.147 228.563 240.068C230.32 240.676 230.171 242.282 231.917 242.831L231.858 242.87C232.576 244.038 233.376 243.959 234.234 245.177L234.383 244.927C234.832 245.446 235.412 245.954 236.1 246.333H235.969L236.38 246.664L236.318 246.704C236.538 246.784 236.828 247.182 237.266 247.342L237.207 247.381C237.337 247.671 237.638 247.84 237.937 247.94L238.016 248.34C238.864 248.64 239.513 249.786 240.321 249.947C241.468 250.905 242.757 251.902 243.855 252.96C246.371 254.946 246.61 255.895 248.796 258.071V258.11C251.531 260.306 253.208 260.725 254.974 263.16C254.996 263.186 258.766 267.732 251.719 264.398C251.41 263.73 250.981 263.311 250.093 262.792L250.053 263.13C249.724 262.572 249.195 262.382 248.756 262.072C248.357 262.082 248.845 262.601 248.237 262.371C247.378 261.633 247.807 262.002 246.949 261.264C247.119 261.175 247.538 261.603 247.578 261.324C247.422 261.342 246.872 260.882 246.69 261.029L246.841 260.834C246.611 260.764 246.649 260.475 246.43 260.295C246.27 260.266 246.111 260.296 246.321 260.535C245.802 260.236 244.963 259.936 244.784 259.467C244.354 259.098 244.684 258.988 244.724 258.709C244.588 258.627 244.33 258.576 244.232 258.634L244.313 258.849C244.237 258.767 244.226 258.683 244.224 258.639C244.218 258.644 244.209 258.644 244.204 258.649L244.175 258.58H243.855C243.277 257.512 241.928 257.462 241.499 256.484C241.728 256.614 241.988 257.001 242.177 256.813L241.529 256.314C241.828 256.483 242.137 256.543 242.167 256.314C241.22 255.635 240.242 255.246 239.155 254.378C239.354 254.079 238.525 253.708 238.355 253.189C238.365 253.279 238.356 253.32 238.326 253.34C238.465 253.5 238.474 253.609 238.086 253.35C238.115 253.331 238.115 253.311 238.115 253.301C238.045 253.271 237.955 253.261 237.875 253.271C237.695 252.922 237.797 252.899 237.947 252.989C237.737 252.8 237.487 252.631 237.806 252.631C237.347 252.043 236.938 252.39 236.558 252.191C235.97 251.623 235.719 251.414 234.831 250.735L234.982 250.785C234.792 250.535 234.931 250.217 234.452 249.868C233.335 250.395 233.285 248.848 232.078 248.239C231.948 248.618 231.557 248.061 231.407 248.311C230.699 247.213 229.511 247.043 228.662 245.886L228.734 245.916C228.634 245.446 227.784 244.967 227.375 244.947C227.705 244.877 227.256 244.349 227.595 244.349C227.136 244.438 226.328 243.479 226.328 243.479C226.376 243.07 225.478 242.69 225.229 242.112L224.383 241.934L224.781 241.892C224.462 241.652 224.552 241.444 224.761 241.454C224.661 241.295 224.521 241.305 224.291 241.165L224.541 241.064C224.252 240.656 223.703 240.955 224.021 241.185C222.825 241.015 223.811 240.544 222.813 240.305L222.452 240.443C221.53 239.976 222.603 239.747 221.628 239.329L221.766 239.128C221.537 238.999 221.356 238.819 221.227 239.089C220.578 238.4 219.931 237.461 219.501 236.832C219.013 236.493 219.52 237.14 219.172 237.102C218.473 236.952 218.613 236.503 218.293 236.034L218.234 236.323L217.474 235.475L217.734 235.426L217.194 234.887C216.926 234.867 217.176 235.066 217.306 235.285C216.747 234.676 215.769 234.757 215.469 233.859L215.707 233.75C215.659 233.8 215.749 233.889 215.818 233.908C216.685 234.177 215.528 233.329 215.618 233.169C215.238 233.239 214.859 232.571 214.35 232.66C213.652 231.274 212.273 231.105 211.685 230.117C212.024 230.157 211.526 229.758 211.685 229.618C211.435 229.179 211.216 229.607 210.927 229.269L210.858 228.75C209.78 228.421 210.647 227.942 209.779 227.433C209.02 227.323 208.91 226.185 207.902 225.876L208.051 225.675C207.363 225.346 207.403 224.736 206.865 224.447C206.925 224.16 207.064 224.447 207.264 224.197C206.665 223.958 207.732 223.909 207.244 223.849C206.815 223.061 205.288 223.499 204.739 222.89C203.831 222.601 203.939 221.354 203.41 221.704L203.709 222.042L202.781 221.274L202.912 221.086C202.443 220.866 201.794 219.866 201.105 219.726C201.114 219.715 201.105 219.676 201.105 219.618C200.526 219.338 200.606 219.008 199.957 218.898L200.068 218.879C198.99 218.619 197.521 217.083 196.343 216.125C196.532 215.846 195.805 215.357 195.286 214.988C195.435 215.117 195.555 215.008 195.615 214.998C194.697 214.709 194.536 213.461 193.568 213.172H193.63C193.49 212.792 192.361 212.472 192.63 211.933C191.563 211.594 190.904 210.935 189.957 209.768L190.066 209.748Z" fill="#F5C469"/>
<path d="M246.65 261.084C246.66 261.06 246.673 261.043 246.69 261.029L246.65 261.084Z" fill="#F5C469"/>
<path d="M240.37 249.957C240.35 249.956 240.331 249.937 240.311 249.937L240.301 249.927L240.37 249.957Z" fill="#F5C469"/>
<path d="M132.934 227.561C132.855 227.691 132.794 227.722 132.744 227.702L132.934 227.561Z" fill="#F5C469"/>
<path d="M52.9704 0C55.0166 0.119759 57.1442 0.358892 59.2403 0.56847C63.5218 1.15733 67.494 2.3248 70.4482 2.96346C73.4326 4.00137 76.398 5.27998 79.2527 6.79693C80.7094 7.52526 82.0859 8.37394 83.4928 9.18203C84.8503 10.0603 86.2496 10.9082 87.5572 11.8563C92.8969 15.5488 97.7183 19.86 102.02 24.3009C106.601 28.8815 109.975 32.915 112.79 36.5576C115.594 40.2095 117.85 43.5021 119.985 46.8148C124.218 53.4714 128.1 60.1795 133.83 70.9179L133.849 70.9278C140.647 82.9833 145.228 91.7859 149.3 100.219C153.312 108.672 156.735 116.806 160.139 127.923C160.145 127.94 161.041 130.698 161.946 134.021C162.864 137.354 163.774 141.227 163.944 143.472C164.073 145.627 163.573 146.105 161.646 142.582C159.68 139.109 156.316 131.713 149.958 118.58C148.551 113.481 146.845 109.11 143.322 102.124L143.421 103.731C141.864 99.2105 139.788 95.698 137.901 92.0057C136.444 90.2094 138.7 95.2678 136.265 91.237C132.363 83.3729 134.35 87.2837 130.307 79.4994C130.877 79.8214 132.942 83.9799 132.783 82.663C132.26 82.104 129.674 77.3092 129.085 77.1612L129.429 76.8053C128.46 75.4081 128.259 74.0798 127.191 72.1636C126.543 71.3261 125.935 70.7685 127.052 72.9323C124.657 69.0701 120.853 63.9502 119.416 60.7967C117.062 57.1361 118.299 57.9227 118.01 56.6271C117.232 55.57 115.904 54.0725 115.723 54.2197L115.483 53.7427L114.117 52.4649C111.971 48.6126 109.316 45.3478 106.681 42.3239C104.036 39.2903 101.421 36.5065 99.2453 33.473C100.632 34.8095 102.734 37.6598 103.186 37.3559C101.799 35.7992 100.393 34.2508 98.9557 32.7439C100.782 34.5401 102.379 35.8971 102.01 34.8991C98.9858 31.6457 95.96 28.8424 92.6562 26.078C89.3425 23.3236 85.7601 20.5782 81.4383 17.714C81.4476 17.3146 80.0687 16.2779 78.2626 15.2004C77.8135 14.931 77.3455 14.6395 76.8665 14.3502C76.3875 14.0708 75.8877 13.7916 75.4086 13.5222C74.4608 12.9436 73.5233 12.4243 72.7749 11.9255C73.1731 12.2341 73.2526 12.3748 73.1537 12.3951C74.5706 13.1334 75.0394 13.5021 71.8962 12.1653C71.964 12.1452 71.8778 12.0767 71.8764 12.0367C71.3577 11.8572 70.7781 11.7257 70.3789 11.6957C69.2011 11.047 68.7109 10.7276 68.671 10.6378C68.6338 10.5394 69.052 10.6292 69.6685 10.8578C67.7624 10.0896 65.6076 9.4721 67.4234 9.65164C64.8584 8.63373 63.3415 8.4727 62.1338 8.47268C60.9361 8.43276 60.0171 8.62229 58.5299 8.48257C57.0429 8.26308 55.7349 8.17481 54.5373 8.04509C53.939 7.98528 53.3607 7.93436 52.7823 7.87455C52.2035 7.88453 51.6335 7.88444 51.0447 7.88444C50.4559 7.89442 49.8468 7.90421 49.2081 7.90421C48.5692 7.91419 47.8895 7.88332 47.1808 8.00308C46.4625 8.09284 45.7044 8.18263 44.8665 8.28237C44.4476 8.33223 44.0183 8.39315 43.5595 8.44302C43.1104 8.52286 42.65 8.65208 42.1709 8.76186L43.1387 8.43314C42.0611 8.60268 41.2927 8.56369 40.265 8.61356C39.2169 8.5936 37.999 8.94297 35.9828 9.66153C34.8048 11.3279 32.4295 12.3864 29.4753 14.1327C26.6107 15.949 23.1657 18.5931 20.7303 22.6449C21.9974 22.1162 19.0368 25.8254 19.802 25.8283C17.1573 29.4708 15.7203 33.4129 14.4827 37.4844C13.2551 41.5759 12.3562 45.9368 11.1485 51.0561L11.1881 50.5173C10.6292 51.8545 10.2298 54.3403 9.98022 56.7754C9.8006 59.23 9.75118 61.6351 9.93072 62.8728C9.52152 61.3584 8.89343 66.505 8.60398 64.5906C8.8833 65.6988 8.77293 68.5926 8.69309 71.2269C8.57332 73.8615 8.47527 76.2269 8.47527 76.2269C7.72668 78.0233 8.38375 85.0287 8.06438 89.4797C8.43369 91.3859 8.80374 93.293 9.203 95.1891L8.50497 93.1822C8.73454 96.2161 8.33436 96.8344 8.00497 95.6068C7.98501 97.004 8.21353 97.6735 8.44309 99.7591L7.90596 98.8323C7.91621 102.604 9.19276 104.2 8.92329 101.106C9.39241 103.032 9.54178 104.321 9.58171 105.239C9.62156 106.156 9.54273 106.715 9.453 107.253C9.25337 108.311 9.0626 109.321 9.59161 112.824L10.2995 114.181C10.9282 121.944 9.09291 117.005 9.86141 124.829L9.36141 125.068C9.50113 127.114 9.48322 129.091 10.052 128.403C9.93221 135.768 9.46306 144.419 9.13369 150.187C9.30337 154.748 9.57099 148.451 9.98022 150.657C10.7088 155.517 9.85113 157.034 9.60151 161.354L10.1114 160.138L9.89112 168.959L9.4728 167.733L9.42329 173.65C9.76258 175.327 9.7117 172.813 9.87131 170.927C9.73171 177.303 11.1681 182.563 10.25 188.999L9.7624 188.24C9.90194 188.309 9.91134 187.343 9.85151 186.794C9.07297 180.417 9.38163 191.505 9.0223 191.804C9.64102 193.631 9.15181 199.31 9.98022 201.765C8.86256 213.051 10.4606 221.883 9.80201 230.455C9.4029 228.232 9.48108 233.251 9.06191 233.021C8.74254 236.813 9.6717 235.846 9.56191 239.259L8.88369 242.361C9.85186 250.345 7.9746 247.821 8.37379 255.485C9.23218 260.435 7.66606 267.022 8.56438 274.458L8.06438 274.687C8.48352 280.386 7.52495 283.34 7.82428 287.96C7.31524 289.167 7.55466 286.822 6.91586 286.971C7.35504 291.682 5.8593 285.765 6.42824 288.909C5.81959 295.506 8.51376 302.043 8.34408 308.4C9.12225 315.195 7.12736 321.052 8.34408 322.271L8.44309 318.769L8.53468 328.129L8.08418 328.378C8.38362 332.181 7.76668 341.204 8.46537 345.904C8.42544 345.845 8.38441 346.194 8.29458 346.453C8.64385 351.273 8.03416 352.54 8.7426 356.861L8.56438 356.342C9.61239 363.927 9.2637 380.423 9.41339 392.24C8.74466 392.609 8.98413 399.376 9.11389 404.326C9.10386 402.76 8.78315 402.61 8.69309 402.351C9.47141 409.147 7.82501 416.611 8.69309 423.656L8.60398 423.397C8.22469 426.101 9.24201 434.337 8.08418 435.594C9.00234 443.558 8.88264 450.833 8.39359 462.379L8.21537 461.86C0.884909 539.512 1.51633 437.412 1.51733 437.25L1.69802 416.143C1.59823 416.163 1.33833 414.217 1.45792 413.468C0.0605484 390.405 3.52221 364.217 2.29456 341.693C1.73561 325.675 0.788188 297.861 1.89604 283.091C2.12562 270.796 1.10802 260.854 1.52723 249.168L2.06684 245.994C1.80737 243.859 1.66805 243.789 1.70793 240.826C1.89751 242.421 2.06567 240.526 2.21535 239.628L1.82674 236.424C2.62506 235.377 0.499602 228.313 1.35644 227.781L1.94555 226.565C3.32296 199.021 1.32766 167.214 1.52723 137.634C2.06622 130.508 3.2346 126.185 3.30446 118.84L2.52476 118.912C2.24528 113.832 3.16408 117.783 3.38367 112.463L2.46535 114.441C2.39548 111.077 2.2164 107.823 2.08664 104.529L2.31684 106.106C2.28689 105.248 2.24553 104.359 2.18565 103.521C2.09585 102.673 2.00573 101.864 1.90595 101.165C1.69638 99.7589 1.4673 98.8024 1.21783 98.8323C1.62706 98.2135 1.99682 99.0401 1.77723 94.5292C0.629381 94.4993 0.199626 87.8626 0 81.6052C0.139734 81.7449 0.258466 79.3206 0.43812 81.0169C-0.300472 74.2307 0.209892 68.881 0.888616 63.6316C1.5873 58.3723 2.42605 53.2321 3.00496 46.5058L3.11387 46.6764C3.88243 44.1215 4.42094 41.9249 5.01982 39.919C5.54871 37.8935 6.10943 36.0582 6.67824 34.1824C7.9259 30.4699 9.20236 26.4962 12.6659 21.4264L11.9382 21.5376C15.0423 16.6974 19.2648 11.4572 24.505 7.3654C24.3055 7.5449 24.1547 7.78373 23.9852 7.99319C25.1925 7.06543 26.5298 6.30773 27.807 5.45979L27.7476 5.65752C27.9369 5.50807 28.157 5.34978 28.4159 5.19038C28.6853 5.06071 28.9853 4.90014 29.3045 4.74055C29.9531 4.4213 30.7019 4.0618 31.5001 3.6827C31.899 3.49323 32.3089 3.28389 32.7377 3.10434C33.1769 2.94466 33.6178 2.77464 34.0669 2.61496C34.9647 2.27584 35.8723 1.91634 36.7402 1.53734L36.6313 1.71777C37.24 1.54816 37.8985 1.48657 38.5471 1.35691C39.2059 1.23716 39.8661 1.09889 40.5249 0.939212C41.1834 0.789539 41.8318 0.57946 42.4803 0.45972C43.129 0.339979 43.7577 0.218516 44.3665 0.108751L47.161 0.318838C48.9176 0.0593768 50.8945 0.0399145 52.9704 0Z" fill="#8BA7ED"/>
<path d="M8.45547 345.904C8.47525 345.935 8.48512 346.035 8.50497 346.332C8.48511 346.203 8.47535 346.044 8.45547 345.904Z" fill="#8BA7ED"/>
<path d="M116.481 55.8386C115.803 54.7435 115.632 54.3134 115.701 54.2321L116.481 55.8386Z" fill="#8BA7ED"/>
<path d="M70.9482 3.08457C70.7983 3.04465 70.6081 3.00338 70.4482 2.96346C70.4196 2.95397 70.3559 2.93572 70.3492 2.9338L70.9482 3.08457Z" fill="#8BA7ED"/>
<path d="M166.907 182.961C166.827 182.921 166.808 182.831 166.808 182.721L166.907 182.961Z" fill="#CB90BE"/>
<path d="M198.347 170.227C198.378 170.175 198.418 170.146 198.461 170.131L198.347 170.227Z" fill="#CB90BE"/>
<path d="M193.3 163.292C193.03 162.943 193 162.761 193.07 162.681L193.3 163.292Z" fill="#CB90BE"/>
<path fill-rule="evenodd" clip-rule="evenodd" d="M159.949 140.128C160.467 140.078 161.007 140.108 161.535 140.098L161.476 140.237C162.135 140.097 163.604 140.318 164.941 140.088L164.869 140.217C165.728 140.576 166.766 140.537 167.684 140.397C167.993 140.587 168.293 140.786 168.592 141.015C171.267 140.756 174.802 142.463 177.097 142.493C181.499 143.9 186.151 146.137 189.884 149.031C193.966 151.825 196.023 154.189 197.899 156.525C199.706 158.93 201.333 161.375 203.768 165.227L203.808 165.207C206.862 169.389 209.028 172.443 210.825 175.477C212.592 178.511 213.979 181.554 214.808 185.875C214.808 185.875 215.056 186.933 215.226 188.24C215.386 189.568 215.446 191.056 215.177 192.074C214.857 192.902 214.287 193.2 213.159 191.943C212.011 190.745 210.355 188.181 207.422 183.791C207.252 181.855 206.662 180.266 205.085 177.941L204.805 178.67C204.426 176.994 203.378 175.896 202.58 174.679C202.016 174.397 202.167 175.058 202.003 175.203C202.397 175.693 202.769 176.203 203.038 176.752C204.575 178.549 203.918 179.598 204.676 181.673L204.667 181.683C206.184 183.708 208.129 184.049 207.86 186.483C207.861 186.516 207.889 187.631 207.142 188.349C206.373 189.088 204.835 189.385 201.731 188.008C202.05 187.36 201.939 186.961 201.261 186.532L200.813 186.891C200.982 186.363 200.434 186.233 200.164 185.964C199.585 186.024 199.684 186.502 199.085 186.352C198.706 185.704 198.895 186.024 198.506 185.386C198.845 185.266 198.966 185.643 199.335 185.344C199.135 185.38 198.924 185.127 198.625 185.129C198.506 185.445 198.012 185.833 198.634 186.043H198.545C198.186 186.233 199.273 186.682 198.117 186.831C199.075 187.271 198.985 187.821 198.476 188.529L198.295 188.478C197.82 188.748 197.375 188.946 196.961 189.091C198.272 189.135 199.717 189.285 201.422 189.508L201.231 189.689C228.909 197.343 192.298 196.266 192.298 196.266L184.753 195.986C184.751 196.086 184.055 196.345 183.785 196.216C175.501 197.504 166.197 193.91 158.112 195.017C152.363 195.477 142.392 196.274 137.132 195.077C132.731 194.778 129.157 195.736 124.986 195.237L123.857 194.679C123.089 194.928 123.058 195.067 122.001 195.008C122.579 194.828 121.902 194.648 121.582 194.489L120.424 194.857C120.244 194.459 119.505 194.778 118.798 195.087C118.428 195.246 118.117 195.398 117.798 195.457C117.309 195.517 116.949 195.487 116.889 195.267C116.66 195.068 116.44 194.868 116.231 194.669C114.225 194.439 112.158 194.35 110.362 194.091C109.434 193.991 108.496 193.899 107.557 193.799L107.199 193.769L107.018 193.75H106.929L106.949 193.661L107.119 192.922L107.449 191.466C107.898 189.54 108.285 187.602 108.884 185.556C109.154 184.528 109.473 183.571 109.763 182.563C109.972 181.894 110.182 181.215 110.392 180.536C112.088 175.178 114.304 169.769 117.498 165.128C118.486 164.16 119.436 163.501 120.404 162.862C121.342 162.203 122.271 161.554 123.189 160.546L122.57 160.079C123.598 158.452 123.328 160.157 124.825 158.84L123.627 158.771L124.815 157.293L126.072 155.867L125.783 156.436C126.232 155.957 126.671 155.407 126.971 154.948C127.28 154.499 127.43 154.119 127.26 153.939C127.73 154.109 127.731 154.58 128.988 153.443C128.619 152.994 128.897 152.344 129.515 151.616C130.124 150.868 131.043 150.038 131.991 149.29C132.031 149.439 132.85 149.001 132.431 149.52C133.26 148.452 134.208 147.743 135.147 147.184C136.075 146.596 137.052 146.256 138.01 145.907C138.49 145.727 138.969 145.557 139.449 145.378C139.937 145.218 140.425 145.038 140.914 144.829C141.403 144.619 141.893 144.369 142.392 144.07C142.911 143.801 143.43 143.481 143.959 143.091V143.242C145.955 142.893 147.294 142.523 148.671 142.004C149.36 141.755 150.088 141.595 150.907 141.416C151.735 141.256 152.653 141.096 153.77 141.166L153.53 140.607C154.578 140.587 155.677 140.467 156.805 140.368C157.923 140.298 159.081 140.147 160.218 139.918L159.949 140.128ZM146.785 188.001L145.867 188.132L146.015 187.941C145.696 187.961 145.337 188.152 145.317 188.651C145.288 188.212 145.377 187.873 144.968 187.842C144.908 188.979 144.309 189.04 143.751 189.18C143.771 189.04 143.561 188.909 143.721 188.74C142.453 190.137 141.884 187.543 140.647 189.019L140.666 188.88C139.778 188.082 139.348 189.258 138.35 188.569L138.369 189.15C138.027 189.014 137.654 188.975 137.268 189.095C137.812 189.211 138.354 189.292 138.988 189.189C139.417 189.708 138.58 189.449 138.619 190.087C140.306 189.678 138.16 191.134 139.298 190.586C141.653 191.235 144.049 188.592 146.315 188.791C147.078 188.561 147.803 188.598 148.454 188.725C148.047 188.115 147.725 187.362 147.213 187.222L147.184 188.001C146.715 188.2 147.113 187.343 146.644 187.054L146.785 188.001ZM191.919 188.188C191.195 188.719 190.573 188.996 190.033 189.115C190.876 189.084 191.63 189.158 191.83 189.699C192.462 189.505 193.081 189.362 193.706 189.261C192.977 189.061 192.509 188.759 192.206 188.5C192.087 188.394 191.996 188.288 191.919 188.188ZM151.06 189.157C150.84 189.189 150.621 189.218 150.402 189.236C150.677 189.285 150.896 189.273 151.06 189.157ZM186.431 184.696C186.42 184.814 186.299 184.925 185.922 185.015C186.93 185.474 186.921 186.204 186.382 187.232L186.201 187.17C185.233 187.978 184.316 188.289 183.577 188.339C182.839 188.389 182.279 188.22 181.84 188.03C181.447 187.843 181.135 187.65 180.877 187.479C180.941 188.022 180.824 188.451 180.585 188.794C182.847 188.468 185.253 189.785 187.568 189.029L187.478 189.12C187.845 189.269 188.505 189.216 189.204 189.162C188.675 189.107 188.262 188.878 187.936 188.567C187.467 188.108 187.188 187.489 187.028 186.97C186.948 186.711 186.887 186.482 186.837 186.322C186.797 186.153 186.778 186.053 186.778 186.053L186.597 184.706C186.561 184.714 186.494 184.708 186.431 184.696ZM156.733 189.18C155.688 188.608 154.556 188.615 153.392 188.777L153.461 189.17C154.194 189.02 155.458 189.138 156.733 189.18ZM157.959 189.18C158.026 189.177 158.093 189.176 158.159 189.172C158.132 189.124 158.105 189.075 158.082 189.029L157.959 189.18ZM116.307 186.587C116.191 186.757 116.122 186.913 116.122 187.014C116.186 187.02 116.258 187.016 116.335 187.009C116.341 187.006 116.346 187.003 116.352 187C116.378 186.966 116.443 186.888 116.444 186.874C116.474 186.814 116.513 186.724 116.543 186.624C116.552 186.614 116.552 186.605 116.552 186.587C116.469 186.587 116.387 186.587 116.307 186.587ZM165.399 181.943C164.85 182.192 164.35 182.91 163.691 183.05C163.701 182.333 163.275 182.89 163.085 182.333C163.105 182.452 163.105 182.543 163.105 182.603C163.194 182.663 163.222 182.792 163.003 182.931V182.83C162.963 182.89 162.924 182.972 162.894 183.102C162.745 182.813 162.775 182.653 162.865 182.593C162.735 182.583 162.594 182.661 162.723 182.242C162.395 181.965 162.314 183.021 162.105 183.23C162.06 183.221 162.018 183.215 161.978 183.208C162.232 183.352 162.43 183.704 162.714 183.52C162.803 184.038 162.595 183.79 162.585 184.429C163.024 184.01 162.427 185.487 162.736 184.928C163.314 185.543 164.011 182.886 164.58 183.062C164.815 182.787 165.025 182.876 165.204 183.043C165.332 182.996 165.5 183.155 165.528 182.662L165.139 182.781C165.299 182.641 165.439 182.322 165.399 181.943ZM198.387 184.755C198.6 184.827 198.662 184.925 198.654 185.035L198.827 184.946C198.711 184.927 198.731 184.851 198.773 184.758C198.672 184.726 198.459 184.755 198.387 184.755ZM198.847 184.437C198.771 184.437 198.68 184.449 198.602 184.479C198.646 184.564 198.713 184.652 198.778 184.736C198.827 184.633 198.897 184.516 198.847 184.437ZM178.714 183.72C178.717 183.724 178.722 183.728 178.726 183.732C178.729 183.722 178.73 183.712 178.733 183.702L178.714 183.72ZM165.832 183.122C165.703 183.229 165.579 183.321 165.459 183.319C165.636 183.527 165.76 183.635 165.832 183.122ZM167.025 182.123C166.945 182.194 166.808 182.492 166.808 182.711L166.778 182.642L166.647 183.06C166.46 182.754 166.263 182.801 166.07 182.934L166.387 182.912V183.361C166.667 183.129 167.23 183.49 167.679 183.282C167.673 183.258 167.667 183.234 167.662 183.211C167.495 183.355 167.343 183.415 167.246 183.181C166.977 183.201 167.085 182.592 167.025 182.123ZM161.528 183.201V183.25C161.564 183.222 161.6 183.202 161.634 183.186C161.6 183.188 161.565 183.195 161.528 183.201ZM160.679 182.521C160.659 182.644 160.637 182.755 160.617 182.852C160.746 182.934 160.88 183.011 161.023 183.023C160.95 182.788 160.887 182.44 160.679 182.521ZM120.916 182.266C121.111 182.75 121.298 183.236 121.483 182.706C121.509 182.446 121.549 182.277 121.55 182.271L121.647 181.92C121.393 182.043 121.15 182.159 120.916 182.266ZM134.456 180.007C134.223 180.34 134.017 180.516 133.817 180.583C133.9 180.935 133.655 181.156 133.221 181.424L133.062 181.322C133.049 181.324 133.034 181.325 133.02 181.327C133.185 181.568 133.147 181.691 133.03 181.745C133.23 181.745 133.45 181.685 133.26 182.093C133.769 182.372 133.86 181.314 134.159 181.105C134.737 181.184 134.967 181.165 135.756 181.016L135.654 181.134C135.874 181.254 135.925 181.924 136.345 181.814C136.376 181.644 136.409 181.499 136.444 181.377C136.404 181.291 136.371 181.213 136.345 181.142C136.293 181.16 136.241 181.177 136.194 181.194C136.242 181.188 136.277 181.098 136.305 181.001C136.294 180.96 136.284 180.921 136.278 180.885C135.825 181.342 135.595 179.905 135.087 180.675L135.117 180.586C135.007 180.197 134.376 181.155 134.456 180.007ZM131.79 181.488C131.919 181.885 132.439 181.513 132.711 182.004C132.671 181.885 132.662 181.795 132.671 181.735C132.522 181.675 132.471 181.544 132.8 181.404V181.505C132.841 181.464 132.877 181.411 132.911 181.342C132.513 181.401 132.14 181.449 131.79 181.488ZM145.907 181.804C145.865 181.871 145.825 181.921 145.793 181.96C145.839 181.948 145.878 181.905 145.914 181.849L145.907 181.804ZM145.397 181.644C145.434 181.674 145.464 181.67 145.498 181.656C145.487 181.58 145.469 181.503 145.454 181.433C145.444 181.508 145.426 181.582 145.397 181.644ZM130.79 181.587C130.801 181.581 130.813 181.577 130.825 181.572C130.812 181.573 130.8 181.571 130.788 181.572C130.789 181.577 130.789 181.582 130.79 181.587ZM184.013 179.192C184.061 179.369 184.165 179.528 184.525 179.538C184.486 179.548 184.454 179.587 184.374 179.627C184.813 179.766 184.266 180.047 185.023 180.047L184.835 180.077C185.74 180.131 185.942 180.777 186.174 181.347C186.193 181.219 186.209 181.094 186.209 180.974C186.179 180.575 186.009 180.215 185.58 179.985C185.211 179.687 184.77 179.302 184.379 178.88L184.013 179.192ZM196.788 180.835L196.389 181.023C196.48 181.04 196.524 181.096 196.553 181.167C196.749 181.174 196.969 181.121 197.149 180.954C196.993 180.818 196.814 180.706 196.622 180.603L196.788 180.835ZM196.243 180.415C196.064 180.657 195.879 180.863 196.488 180.625V180.536C196.408 180.495 196.326 180.455 196.243 180.415ZM195.149 179.291C194.779 179.539 194.903 179.347 194.362 179.637C194.861 179.647 193.395 180.065 193.974 179.946C193.722 180.292 194.655 180.063 195.377 179.938C195.217 179.828 195.064 179.707 194.934 179.558C195.077 179.458 195.134 179.371 195.149 179.291ZM177.02 180.067L177.1 179.975C177.095 179.968 177.09 179.96 177.085 179.953C177.062 179.99 177.044 180.029 177.02 180.067ZM195.107 179.083C195.078 179.162 195.072 179.223 195.149 179.254C195.151 179.195 195.136 179.141 195.107 179.083ZM182.58 175.825C183.106 175.976 182.28 176.484 182.659 176.624C182.21 176.873 182.379 176.664 181.79 176.903C182.299 176.993 180.773 177.222 181.372 177.182C180.976 177.697 183.188 177.224 183.538 177.467C183.501 177.217 183.529 176.959 183.644 176.693C183.571 176.225 183.14 175.997 182.78 175.736L182.58 175.825ZM152.275 172.232C152.175 171.567 150.998 174.007 150.748 173.759C150.169 174.398 150.559 172.434 150.1 173.561L150.228 173.71L149.758 173.65L149.899 173.23C149.62 173.45 149.41 172.743 148.951 173.332C148.961 173.302 148.961 173.251 148.981 173.161C148.71 173.376 148.752 173.032 148.55 173.196C148.694 173.251 148.887 173.304 149.053 173.47C149.562 174.019 148.803 173.618 148.483 173.628L148.944 173.848L148.555 174.029L148.226 173.769L148.045 173.94C148.294 174.168 148.315 174.059 148.493 174.078C148.236 174.239 149.351 175.145 148.424 174.896L148.015 174.627C148.135 174.706 148.164 174.677 148.124 174.627C147.786 174.239 147.668 174.305 147.55 174.367C147.55 174.374 147.553 174.382 147.553 174.389V174.775C147.568 174.867 147.622 174.982 147.916 175.205C147.876 175.2 147.838 175.2 147.803 175.198C149.264 176.312 151.179 174.725 152.783 175.178C153.152 175.787 153.312 176.982 153.731 177.172L153.79 176.394C154.11 176.194 153.81 177.043 154.1 177.343L154.063 176.485C154.012 176.45 153.969 176.39 153.941 176.285C154.171 175.946 153.911 175.945 154.05 175.546C153.97 175.177 153.732 176.084 153.602 175.924L153.662 175.237C152.984 176.034 153.681 174.291 153.204 174.557C152.705 175.306 152.884 173.721 152.256 174.468L152.404 173.989C152.005 174.308 152.174 173.362 151.864 173.571C151.974 173.062 152.004 173.33 152.204 172.721C151.845 173.07 152.603 171.746 152.275 172.232ZM154.798 176.349C154.727 176.358 154.651 176.379 154.577 176.406L154.55 176.456C154.633 176.452 154.72 176.418 154.798 176.349ZM182.32 174.523C182.304 174.581 182.327 174.632 182.419 174.676C182.449 174.674 182.478 174.676 182.503 174.676L182.647 174.508C182.502 174.513 182.396 174.529 182.32 174.523ZM141.629 170.282C140.59 170.144 141.382 171.441 140.607 171.364C140.378 171.015 140.268 171.273 139.949 170.993C139.561 170.944 140.309 171.504 140.109 171.574L139.481 171.275C139.958 172.23 138.584 170.927 138.632 171.522C139.151 172.271 137.683 171.594 138.152 172.481L137.753 172.192C137.913 172.701 137.044 172.263 137.134 172.652C136.685 172.402 136.954 172.432 136.436 172.064C136.624 172.54 135.627 171.375 135.976 171.863C135.44 171.828 136.381 172.846 136.778 173.458C137.664 172.857 138.408 173.851 139.176 174.488C139.579 174.072 138.901 173.207 139.52 172.921L140.06 173.04C139.881 172.831 139.761 172.761 139.85 172.652C139.989 172.802 140.18 172.8 140.33 172.84L140.06 172.521C140.768 172.86 139.073 171.554 139.83 171.943L140.369 172.172C141.381 171.933 141.521 171.124 141.629 170.282ZM147.352 174.424C147.356 174.416 147.36 174.407 147.364 174.399C147.344 174.394 147.321 174.39 147.298 174.377C147.318 174.392 147.335 174.41 147.352 174.424ZM174.808 150.108C174.827 150.193 174.844 150.279 174.852 150.368C174.894 150.817 174.772 151.309 174.365 151.824C175.992 151.947 178.413 152.366 178.993 153.89C179.882 154.638 181.21 154.289 181.919 155.237L181.867 155.845C182.176 155.745 182.267 155.627 182.476 155.815C182.237 155.885 182.298 156.125 182.278 156.295L182.746 156.144C182.366 156.853 184.143 155.497 183.684 156.226L183.436 156.764C184.075 158.071 185.231 158.78 186.498 159.458C187.756 160.137 189.115 160.795 189.993 161.883C190.063 162.771 189.513 163.88 189.872 164.458L190.422 163.91C190.901 164.089 190.022 164.439 190.162 164.978L190.711 164.199L191.471 164.748L191.231 164.777C191.48 164.987 191.869 165.106 192.238 164.767C191.949 165.107 191.65 165.276 191.909 165.595C192.758 164.827 193.227 165.227 193.736 165.546C193.626 165.626 193.686 165.875 193.446 165.875C195.373 165.875 193.857 168.06 195.783 168.02L195.662 168.099C195.642 169.317 196.839 168.879 196.949 170.116L197.389 169.738C197.549 170.236 197.91 170.665 198.528 170.885L198.327 170.944L198.597 171.213L198.476 171.283C198.716 171.303 198.737 171.712 199.216 171.762L199.095 171.834C199.006 172.142 199.286 172.251 199.595 172.291L199.325 172.751C200.194 172.855 200.072 173.93 200.884 174.029C199.934 172.429 200.401 173.163 198.946 170.907C199.345 170.887 200.145 172.293 200.315 171.685C199.969 171.585 198.91 169.97 198.461 170.131L198.837 169.829C198.348 169.45 198.487 168.829 198.048 168.2C197.709 167.991 197.34 167.913 197.748 168.66C196.65 167.483 194.813 166.145 194.414 164.958C193.457 163.801 194.216 163.77 194.285 163.141C193.936 162.842 193.247 162.524 193.087 162.684L193.018 162.503L192.288 162.313C191.949 161.605 191.43 161.067 190.912 160.568C190.393 160.069 189.802 159.66 189.214 159.28C188.625 158.901 188.077 158.501 187.558 158.101C187.039 157.712 186.58 157.264 186.221 156.685C186.8 157.025 187.577 157.961 187.946 157.573L186.201 156.305C186.97 156.754 187.738 156.964 187.709 156.455C185.143 154.699 182.576 153.79 179.332 152.283C179.422 151.944 178.934 151.574 178.266 151.285C177.597 150.976 176.809 150.627 176.34 150.118C176.449 150.297 176.459 150.387 176.409 150.437C176.888 150.726 177.027 150.927 175.879 150.578C175.909 150.538 175.889 150.497 175.889 150.467C175.68 150.467 175.46 150.468 175.29 150.548C175.03 150.351 174.879 150.207 174.808 150.108ZM161.228 171.243C161.194 171.464 161.07 171.863 161.179 172.074L161.31 171.295C161.296 171.324 161.281 171.357 161.265 171.394C161.258 171.333 161.244 171.284 161.228 171.243ZM161.132 171.115C161.03 171.055 160.885 171.1 160.736 171.152C160.764 171.48 160.807 171.752 160.929 171.854L161.132 171.115ZM162.214 170.798C162.13 171.155 162.049 171.413 162.226 171.475C162.269 171.322 162.313 171.189 162.357 171.075C162.279 171.073 162.249 170.943 162.214 170.798ZM162.204 170.764C162.15 170.553 162.073 170.346 161.805 170.534C161.615 171.066 161.529 170.973 161.402 171.137L161.837 171.105L161.716 171.275C161.872 171.284 162.07 171.155 162.204 170.764ZM164.686 170.86C164.75 171.048 164.825 171.132 164.904 171.166C164.907 171.129 164.901 171.105 164.892 171.082C164.878 171.067 164.866 171.049 164.852 171.033C164.837 171.017 164.822 171.002 164.808 170.986C164.768 170.961 164.728 170.936 164.704 170.877C164.698 170.871 164.692 170.866 164.686 170.86ZM164.293 170.44C164.196 170.53 164.075 170.696 163.964 170.855C164.049 171.01 164.141 171.132 164.288 171.1C164.317 170.92 164.379 170.836 164.441 170.806C164.363 170.771 164.264 170.789 164.404 170.563C164.366 170.523 164.33 170.481 164.293 170.44ZM164.615 170.843C164.623 170.833 164.631 170.823 164.639 170.813C164.636 170.809 164.633 170.804 164.629 170.801C164.623 170.815 164.62 170.83 164.615 170.843ZM173.347 169.157C173.252 169.316 173.142 169.479 173.016 169.649L174.176 170.516C174.486 170.163 174.761 169.83 174.733 169.587L174.045 169.945C173.706 169.796 174.593 169.598 174.694 169.209L173.904 169.738L173.496 169.318H173.706C173.638 169.227 173.518 169.158 173.347 169.157ZM162.887 170.376C162.95 170.347 163.014 170.33 163.077 170.314C163.069 170.248 163.046 170.207 162.983 170.215C162.952 170.273 162.915 170.324 162.887 170.376ZM141.817 169.231C141.697 169.27 141.582 169.37 141.446 169.258C141.786 169.706 141.366 169.671 141.649 170.126C141.688 169.819 141.733 169.512 141.817 169.231ZM158.072 169.703C158.11 169.487 158.227 169.131 157.862 169.567L157.795 169.696C157.886 169.703 157.978 169.705 158.072 169.703ZM158.872 168.7C158.802 168.441 158.284 169.495 158.431 169.468C158.357 169.568 158.292 169.639 158.243 169.696C158.395 169.687 158.55 169.672 158.706 169.654L158.731 169.617C158.582 169.636 158.732 169.228 158.882 169.009C158.872 168.899 158.761 169.067 158.642 169.127L158.872 168.7ZM157.523 169.048C157.401 169.114 157.334 169.075 157.166 169.525C157.274 169.582 157.387 169.621 157.506 169.649C157.563 169.437 157.578 169.3 157.345 169.508L157.523 169.048ZM158.8 169.644C158.872 169.636 158.944 169.63 159.015 169.622C158.993 169.576 158.976 169.513 158.981 169.417L158.8 169.644ZM156.642 168.324L156.535 168.841C156.668 169.117 156.836 169.304 157.023 169.436C156.861 169.13 156.756 168.646 156.674 168.309C156.662 168.313 156.652 168.319 156.642 168.324ZM156.001 168.749L156.077 168.65C156.077 168.605 156.075 168.564 156.067 168.529L156.001 168.749ZM143.367 168.705C143.435 168.722 143.503 168.732 143.567 168.747C143.57 168.709 143.574 168.672 143.577 168.635C143.414 168.572 143.204 168.474 143.053 168.47L143.367 168.705ZM155.647 168.156L155.629 168.69C155.655 168.658 155.678 168.628 155.699 168.601L155.867 168.299L155.657 168.141C155.653 168.146 155.65 168.151 155.647 168.156ZM143.174 167.721C143.116 167.968 143.407 167.981 143.624 168.183C143.646 168.023 143.672 167.872 143.701 167.728C143.512 167.726 143.33 167.728 143.174 167.721ZM155.087 167.461C154.788 167.992 154.744 167.497 154.379 168.124C154.648 168.108 154.946 167.969 155.206 167.948C155.265 167.716 155 167.709 155.087 167.461ZM153.882 167.699C153.935 167.79 153.98 167.897 154.011 168.023C154.108 168.101 154.217 168.121 154.332 168.121C154.303 167.625 154.104 167.625 153.882 167.699ZM151.864 167.395C151.654 167.299 151.403 167.178 151.389 167.333C151.448 167.386 151.5 167.439 151.55 167.486C151.651 167.456 151.756 167.424 151.864 167.395ZM152.803 165.885C152.716 166.011 152.651 166.065 152.602 166.08C152.618 166.115 152.631 166.159 152.637 166.213C152.607 166.184 152.587 166.174 152.558 166.154C152.587 166.214 152.636 166.284 152.726 166.384C152.427 166.294 152.318 166.184 152.308 166.095C152.248 166.164 152.237 166.294 151.968 165.966C151.619 165.996 152.414 166.683 152.506 166.923C152.36 167.048 152.298 167.13 152.246 167.303C152.514 167.248 152.785 167.212 153.033 167.229C153.03 167.227 153.026 167.226 153.023 167.222L153.142 166.552C152.473 167.34 153.251 165.616 152.803 165.885ZM153.451 166.853C153.425 166.54 153.192 167.166 153.067 167.232C153.182 167.242 153.291 167.263 153.392 167.298C153.395 167.184 153.353 167.092 153.451 166.853ZM152.416 165.956C152.433 165.954 152.452 165.954 152.471 165.959C152.458 165.926 152.443 165.89 152.431 165.852C152.377 165.858 152.303 165.853 152.196 165.806C152.306 165.865 152.367 165.916 152.416 165.956ZM141.015 160.902C141.06 160.902 141.103 160.89 141.147 160.855C141.126 160.832 141.109 160.808 141.09 160.786C141.073 160.782 141.056 160.776 141.038 160.771C141.03 160.813 141.02 160.857 141.015 160.902ZM156.377 159.29C156.393 158.972 156.164 159.518 155.934 160.086C155.838 160.405 156.062 160.082 156.263 159.809C156.267 159.796 156.274 159.782 156.278 159.767C156.068 160.167 156.596 158.761 156.377 159.29ZM155.654 154.752C155.67 154.802 155.682 154.852 155.699 154.898C155.715 154.879 155.731 154.856 155.748 154.836C155.772 154.81 155.797 154.784 155.822 154.757C155.753 154.74 155.699 154.74 155.654 154.752ZM156.696 152.484C156.585 152.428 156.496 152.428 156.421 152.466C156.454 152.902 156.471 153.385 156.449 153.92C155.899 153.654 155.639 153.732 155.503 154.27C155.521 154.325 155.541 154.381 155.558 154.439L155.842 154.738C156.536 154.006 157.835 153.215 160.429 153.082C160.13 153.63 160.221 153.85 160.81 153.929L160.919 153.823C160.766 153.797 160.627 153.71 160.511 153.509C160.71 153.431 161.01 153.709 161.1 153.181L160.481 153.22C160.709 153.132 160.934 152.89 160.959 152.575C160.939 152.534 160.918 152.494 160.899 152.454C160.005 152.612 159.2 153.234 158.223 153.321C158.233 152.603 157.575 153.121 157.256 152.572C157.296 152.682 157.305 152.772 157.295 152.832C157.455 152.902 157.495 153.031 157.166 153.171C157.176 153.131 157.167 153.101 157.166 153.072C157.117 153.132 157.055 153.211 157.015 153.341C156.766 153.052 156.807 152.892 156.936 152.832C156.737 152.822 156.517 152.901 156.696 152.484ZM161.56 153.707C161.447 153.747 161.336 153.782 161.228 153.806C161.325 153.917 161.565 153.917 161.718 153.979C161.665 153.887 161.611 153.796 161.56 153.707ZM174.77 149.967C174.809 149.912 174.953 149.914 175.152 149.958C175.001 149.902 174.846 149.848 174.704 149.797C174.726 149.853 174.752 149.908 174.77 149.967Z" fill="#CB90BE"/>
<path d="M177.29 142.493C177.24 142.503 177.157 142.493 177.097 142.493C177.088 142.484 177.064 142.483 177.06 142.483V142.473L177.29 142.493Z" fill="#CB90BE"/>
<path fill-rule="evenodd" clip-rule="evenodd" d="M162.735 141.356C163.584 141.216 164.681 141.276 165.56 141.356C165.998 141.386 166.377 141.445 166.656 141.495C166.926 141.544 167.097 141.574 167.097 141.574C167.825 141.713 168.544 141.873 169.263 142.063C169.274 142.013 169.502 141.924 169.562 142.004C170.84 141.904 172.048 142.492 173.206 143.101C173.784 143.42 174.353 143.729 174.931 143.978C175.5 144.248 176.08 144.448 176.688 144.498C178.345 144.807 181.281 145.546 182.399 146.794C183.506 147.462 184.654 147.563 185.622 148.361L185.763 148.771C186.021 148.781 186.061 148.731 186.32 148.909C186.132 148.9 186.25 149.069 186.29 149.189L186.681 149.208C186.551 149.607 187.766 149.109 187.577 149.507L187.518 149.829C189.524 151.984 192.748 153.292 194.894 155.627C195.223 156.365 195.125 157.092 195.604 157.691L195.882 157.422C196.33 157.731 195.734 157.731 196.003 158.23L196.211 157.763L196.981 158.479L196.79 158.42C197.049 158.68 197.4 158.918 197.589 158.749C197.47 158.938 197.29 158.98 197.58 159.349C198.019 158.98 198.497 159.489 198.976 159.938C198.918 159.979 199.025 160.207 198.847 160.128C200.294 160.787 199.766 162.183 201.164 162.852L201.092 162.881C201.391 163.989 202.151 164.01 202.51 165.207L202.731 165.017C202.95 165.536 203.308 166.066 203.778 166.495H203.659L203.896 166.853L203.827 166.873C203.997 166.983 204.097 167.383 204.436 167.602L204.367 167.622C204.377 167.891 204.586 168.09 204.795 168.25L204.706 168.601C205.324 169.05 205.454 170.147 206.062 170.496C206.661 171.574 207.311 172.771 207.74 173.969C208.878 176.384 208.6 177.213 209.149 179.698V179.688C210.107 182.412 211.124 183.55 210.884 186.075C210.883 186.093 210.832 187.337 210.406 187.822C210.029 188.241 209.431 188.092 208.32 186.416C208.357 186.764 208.361 187.142 208.32 187.563C208.319 187.603 208.29 188.667 207.869 189.118C207.532 189.47 206.999 189.414 206.05 188.314C206.103 188.487 206.144 188.685 206.144 188.91C205.942 188.997 205.8 189.084 205.676 189.202C206.067 189.296 206.03 189.458 205.864 189.726H205.775C205.669 189.799 205.561 189.862 205.461 189.926L205.495 189.948C205.457 189.954 205.422 189.962 205.389 189.973C205.292 190.033 205.2 190.091 205.109 190.143C204.98 190.262 204.876 190.405 204.736 190.507C204.696 190.835 205.116 190.706 204.877 191.075C204.258 191.354 204.567 191.224 203.968 191.433C203.959 191.254 204.276 191.194 204.129 190.996C204.107 191.135 203.678 191.276 203.807 191.545L203.718 191.243C203.638 191.363 203.499 191.154 203.369 191.194C203.319 191.293 203.299 191.433 203.458 191.433C203.199 191.623 202.881 192.022 202.641 191.844C202.392 191.904 202.412 191.594 202.292 191.374C202.223 191.424 202.132 191.593 202.151 191.703L202.112 191.673L202.042 191.903C201.454 191.614 201.133 192.551 200.614 192.202C200.714 192.132 200.944 192.202 200.904 191.943L200.545 192.074C200.685 191.984 200.773 191.793 200.684 191.624C200.185 191.843 199.795 192.282 199.176 192.471C199.136 192.293 199.03 192.287 198.901 192.301C198.819 192.367 198.73 192.412 198.617 192.42C198.605 192.448 198.57 192.486 198.488 192.531C198.488 192.511 198.478 192.501 198.478 192.481C198.448 192.521 198.419 192.562 198.409 192.632C198.219 192.512 198.23 192.432 198.31 192.392C198.18 192.412 198.049 192.461 198.129 192.242C197.78 192.162 197.819 192.69 197.649 192.83C197.501 192.841 197.39 192.86 197.28 192.879C197.182 192.948 197.079 193.014 196.963 193.07C196.945 193.027 196.923 192.996 196.899 192.976C196.819 193 196.728 193.024 196.622 193.06L196.681 192.991C196.664 192.986 196.652 192.971 196.636 192.961C196.503 192.997 196.351 193.049 196.203 192.951C196.253 193.001 196.275 193.04 196.275 193.07C196.384 193.07 196.444 193.131 196.245 193.26C196.245 193.24 196.223 193.23 196.223 193.21C196.194 193.25 196.164 193.3 196.164 193.369C196.072 193.329 196.026 193.288 196.005 193.253C195.89 193.339 195.727 193.281 195.542 193.225C195.486 193.376 195.468 193.566 195.377 193.648C195.125 193.679 194.972 193.717 194.763 193.784C194.764 193.789 194.764 193.794 194.765 193.799C194.757 193.795 194.748 193.794 194.74 193.791C194.624 193.829 194.487 193.877 194.307 193.94L194.367 193.868C194.323 193.856 194.283 193.82 194.24 193.779C194.089 193.825 193.94 193.897 193.787 193.962C193.611 194.548 193.038 193.803 192.533 194.167C192.652 194.526 192.313 194.408 192.362 194.686C191.733 194.387 191.283 195.086 190.594 194.817L190.624 194.787C190.434 194.518 189.987 194.738 189.837 194.997C189.862 194.931 189.859 194.874 189.844 194.824C189.733 195.1 189.249 194.428 189.443 194.955H189.572L189.295 195.126L189.203 194.926C189.133 195.125 188.746 194.957 188.716 195.346C188.706 195.336 188.684 195.314 188.664 195.274C188.564 195.504 188.426 195.236 188.386 195.625V195.534C188.307 196.122 187.677 196.163 187.287 196.332C187.198 196.015 186.999 196.193 186.839 196.302C186.898 196.281 186.869 196.132 186.869 196.083C186.699 196.512 186.299 195.764 186.129 196.243V196.194C186.009 196.024 185.781 196.562 185.671 196.003C185.452 196.502 185.172 196.482 184.763 196.273V196.184C184.147 195.449 183.913 194.851 183.837 194.394L183.567 194.308L183.607 194.207C183.52 194.198 183.436 194.205 183.354 194.221C183.387 194.239 183.425 194.258 183.458 194.288C183.099 194.188 182.76 194.876 182.431 194.397L182.433 194.377C182.402 194.365 182.371 194.348 182.339 194.328C182.478 194.129 182.179 194.168 182.188 193.959C181.969 193.8 182.019 194.259 181.82 194.209L181.77 194.115C181.753 194.141 181.735 194.173 181.721 194.209C181.617 194.105 181.516 194.042 181.416 194.009C181.395 194.01 181.379 194.003 181.362 193.994C180.911 193.887 180.509 194.326 180.144 194.048C180.273 193.849 179.996 193.889 180.015 193.68C179.806 193.511 179.855 193.976 179.666 193.917L179.495 193.579C179.138 193.969 179.16 193.434 178.951 193.327L178.946 193.329C178.945 193.327 178.944 193.324 178.943 193.322C178.897 193.301 178.842 193.294 178.768 193.329C178.588 193.616 178.357 193.373 178.099 193.314C177.971 193.479 177.851 193.601 177.728 193.569C177.309 193.948 177.009 192.941 176.909 193.549L177.119 193.608L176.56 193.638V193.421C176.33 193.56 175.81 193.23 175.51 193.569C175.51 193.549 175.49 193.52 175.48 193.48C175.182 193.648 175.131 193.341 174.852 193.68L174.891 193.589C174.412 194.097 173.446 193.878 172.738 193.898C172.738 193.806 172.704 193.749 172.651 193.712C172.121 193.969 171.3 193.825 170.661 193.809C170.671 193.469 170.243 193.559 169.914 193.559C170.013 193.569 170.055 193.409 170.075 193.369C169.875 193.486 169.707 193.424 169.545 193.324C169.299 193.331 169.043 193.246 168.735 193.102C168.732 193.104 168.729 193.107 168.726 193.109L168.73 193.099C168.7 193.085 168.666 193.075 168.634 193.06L168.656 193.005C168.437 192.948 167.993 193.112 168.067 192.622C167.429 192.921 166.958 192.691 166.359 192.163L166.431 192.093C165.673 190.717 165.751 189.878 165.951 189.468C166.17 189.039 166.601 188.939 167.02 188.969C167.449 188.989 167.908 189.129 168.297 189.239C168.486 189.298 168.655 189.357 168.775 189.387C168.895 189.427 168.966 189.449 168.966 189.449C169.218 189.555 169.492 189.63 169.763 189.716C169.84 189.718 169.913 189.726 169.98 189.73C170.023 189.681 170.089 189.627 170.104 189.676C170.655 189.458 171.145 189.693 171.681 189.955L171.688 189.958C171.698 189.908 171.819 189.787 171.859 189.847C172.63 189.506 173.4 189.922 174.164 190.257C175.067 189.975 176.355 189.622 177.119 190.086C177.14 190.089 177.163 190.085 177.183 190.086C177.204 190.04 177.224 189.996 177.248 189.955C177.398 189.686 177.598 189.507 177.778 189.347C177.957 189.208 178.107 189.098 178.107 189.098C178.286 189.008 178.457 188.889 178.627 188.749C178.597 188.71 178.536 188.57 178.594 188.598C178.574 188.1 178.994 188 179.443 187.81C179.882 187.631 180.361 187.391 180.282 186.873C180.332 186.225 180.282 185.137 181 184.817C181.29 184.428 180.931 183.878 181.29 183.549L181.58 183.529C181.48 183.41 181.421 183.379 181.471 183.28C181.54 183.369 181.651 183.319 181.731 183.319L181.589 183.139C181.979 183.228 181.071 182.631 181.481 182.751L181.77 182.8C182.767 182.012 182.139 180.545 182.537 179.508C182.877 179.298 183.497 179.258 183.627 178.989L183.248 178.92C183.178 178.71 183.576 178.938 183.745 178.759L183.258 178.749V178.349L183.337 178.43C183.347 178.301 183.277 178.129 183.028 178.089C183.247 178.099 183.416 178.16 183.446 177.99C182.888 177.9 182.887 177.641 182.837 177.402C182.907 177.412 182.977 177.332 183.057 177.412C182.419 176.813 183.716 176.693 183.018 176.124H183.087C183.496 175.775 182.918 175.565 183.278 175.155H182.988C183.087 174.966 183.086 174.737 182.906 174.508L183.008 174.537L182.988 174.387H183.057C182.978 174.317 183.086 174.177 182.906 174.058H182.978C183.107 173.978 183.026 173.878 182.906 173.789L183.146 173.7C182.807 173.45 183.216 173.091 182.797 172.881C182.737 172.453 182.587 171.983 182.617 171.544C182.477 171.095 182.539 170.786 182.639 170.516C182.739 170.287 182.876 170.027 182.877 169.688L182.817 169.728C182.618 169.389 182.289 169.308 182.119 169.308C182.106 169.311 182.089 169.315 182.075 169.32C182.093 169.299 182.115 169.271 182.139 169.233C182.144 169.225 182.153 169.217 182.159 169.209C182.159 169.209 182.269 169.03 182.379 168.561C182.379 168.336 182.478 168.096 182.674 167.827C182.257 167.432 181.764 167.038 181.419 166.564C180.421 165.816 180.62 165.196 179.862 164.248L179.894 164.219C179.325 163.82 178.796 163.669 178.367 163.47C177.927 163.28 177.567 163.05 177.337 162.441C177.324 162.417 177.042 161.9 177.188 161.393C177.321 160.944 177.796 160.481 179.223 160.481L179.263 160.444C179.123 160.454 179.012 160.237 178.743 160.257L178.792 160.207C178.762 160.018 178.593 159.987 178.414 160.007L178.433 159.728C177.915 159.787 177.705 159.089 177.186 159.258C176.587 158.929 175.898 158.609 175.349 158.18C173.992 157.612 173.982 156.922 172.805 156.104L172.785 156.144C172.026 155.844 171.396 155.794 170.847 155.674C170.288 155.564 169.808 155.395 169.339 154.826C169.316 154.804 168.831 154.334 168.802 153.788C168.773 153.24 169.232 152.592 171.357 152.352C171.526 152.751 171.776 152.891 172.305 152.921L172.344 152.632C172.524 152.941 172.845 152.871 173.104 152.941C173.362 152.771 173.084 152.551 173.453 152.481C173.962 152.72 173.702 152.602 174.211 152.842C174.101 152.981 173.852 152.813 173.812 153.052C173.912 152.972 174.292 153.151 174.391 152.861L174.25 153.141C174.4 153.111 174.351 153.35 174.48 153.41C174.57 153.37 174.689 153.28 174.57 153.17C174.889 153.19 175.418 153.101 175.488 153.42C175.737 153.55 175.508 153.769 175.458 154.008C175.548 154.018 175.727 153.959 175.797 153.86V153.909L176.008 153.788C176.277 154.427 177.174 153.96 177.354 154.577C177.215 154.566 177.085 154.349 176.936 154.567L177.315 154.718C177.135 154.688 176.936 154.758 176.886 154.947C177.402 155.104 177.95 155.108 178.518 155.35C178.487 155.335 178.457 155.32 178.429 155.306C178.508 155.355 178.616 155.247 178.656 155.217C178.098 155.256 178.277 154.359 177.669 154.438L177.708 154.409C177.708 154.159 177.01 154.258 177.31 153.759C176.651 153.819 176.353 153.519 175.943 152.931L176.023 152.871C175.936 152.556 175.869 152.27 175.82 152.011C175.053 151.927 174.104 151.441 173.315 151.225C173.404 150.896 172.816 150.806 172.386 150.726C172.516 150.765 172.577 150.625 172.617 150.585C171.928 150.765 171.578 149.798 170.859 150.017L170.899 149.977C170.739 149.718 169.901 150.027 169.961 149.438C169.162 149.688 168.582 149.48 167.664 149.021L167.735 148.939C164.821 146.454 165.389 145.747 166.936 145.657C167.694 145.597 168.643 145.757 169.411 145.906C170.005 146.014 170.474 146.158 170.656 146.218C170.495 146.029 169.993 145.986 169.602 145.946C169.751 145.966 169.802 145.825 169.842 145.785C169.103 146.015 168.563 145.068 167.795 145.348L167.825 145.308C167.595 145.059 166.709 145.436 166.688 144.848C165.84 145.158 165.15 145.008 164.052 144.638L164.112 144.549C162.315 143.432 161.506 142.752 161.406 142.243C161.296 141.744 161.887 141.486 162.735 141.356ZM198.488 192.232C198.528 192.282 198.537 192.323 198.537 192.353C198.541 192.353 198.546 192.355 198.55 192.355C198.579 192.34 198.606 192.318 198.634 192.301C198.584 192.289 198.534 192.272 198.488 192.232ZM191.139 183.371C190.995 183.511 190.836 183.642 190.701 183.739C190.721 183.948 190.94 183.739 191.099 183.888C191.379 184.197 190.95 184.129 190.77 184.258L191.03 184.288C190.96 184.398 190.87 184.507 190.79 184.607L190.622 184.488L190.5 184.706C190.63 184.825 190.641 184.726 190.75 184.676C190.581 184.895 191.159 185.394 190.622 185.464L190.411 185.336C190.481 185.366 190.5 185.326 190.481 185.296C190.231 184.898 190.182 185.384 190.013 185.316C190.261 185.505 189.934 185.615 190.263 185.895C189.564 186.074 190.061 186.773 189.602 186.933C189.472 186.753 189.403 186.951 189.223 186.831C189.004 186.871 189.412 187.092 189.292 187.182L188.943 187.111C189.163 187.659 188.446 187.053 188.436 187.422C188.663 187.839 187.876 187.592 188.055 188.109L187.857 187.961C187.876 188.279 187.426 188.06 187.426 188.299C187.207 188.17 187.356 188.17 187.107 187.971C187.156 188.258 186.74 187.59 186.879 187.869C186.51 187.849 187.317 188.948 187.067 189.088C187.147 189.576 186.29 189.018 186.669 189.496L186.807 189.436L186.547 189.735L186.389 189.577C186.368 189.786 185.911 189.806 185.971 190.195C185.961 190.185 185.939 190.176 185.899 190.146C185.868 190.305 185.771 190.288 185.716 190.343C186.374 190.205 187.034 190.07 187.679 190.096C187.864 190.211 188.025 190.389 188.183 190.556C188.326 190.405 188.546 190.376 188.758 190.326C188.748 190.396 188.877 190.456 188.787 190.546C189.157 190.187 189.449 190.338 189.733 190.474C189.843 190.41 189.926 190.311 189.914 190.156C189.949 190.313 189.943 190.441 190.03 190.499C190 190.403 189.995 190.356 190.092 190.474L190.149 190.534C190.16 190.534 190.171 190.537 190.184 190.536C190.144 189.968 190.513 189.897 190.862 189.787C190.862 189.857 191.003 189.908 190.914 190.007C191.07 189.834 191.218 189.76 191.362 189.74C191.484 189.444 191.603 189.16 191.83 188.979C191.983 188.998 192.184 189.062 192.374 189.115L192.31 188.228C192.26 188.228 192.12 188.159 192.169 188.109C191.75 187.58 191.851 186.951 191.99 186.292C192.14 185.634 192.269 184.965 191.81 184.486C191.621 184.175 191.358 183.784 191.139 183.371ZM187.287 176.703C187.059 176.82 187.222 177.129 187.458 177.261C187.199 177.152 187.088 177.371 186.869 177.261C187.218 177.397 187.022 177.769 187.01 177.79C186.661 177.82 186.929 178.169 186.651 178.319L187.05 178.638L186.77 178.499C186.79 178.639 186.571 178.619 186.451 178.549C186.391 178.599 186.48 178.639 186.52 178.739L186.29 178.66C186.164 178.8 186.731 178.968 186.711 178.828C187.309 179.277 186.341 178.968 186.77 179.347L187.27 179.528L187.099 179.468C187.308 179.847 186.471 179.467 186.75 179.866L186.5 179.827C186.54 179.926 186.511 180.007 186.8 180.037C186.66 180.336 186.321 180.646 186.102 180.845C186.132 181.053 186.341 180.825 186.51 180.964C186.81 181.253 186.371 181.214 186.201 181.374H186.461L186.25 181.713L186.062 181.614L185.971 181.853C186.12 181.963 186.121 181.852 186.221 181.792C186.091 182.031 186.71 182.45 186.191 182.59L185.961 182.491C186.02 182.511 186.042 182.472 186.023 182.442C185.723 182.072 185.742 182.571 185.562 182.531C185.842 182.69 185.543 182.86 185.901 183.079C185.223 183.369 185.872 183.979 185.433 184.229C185.274 184.069 185.242 184.289 185.042 184.209C184.846 184.309 185.293 184.428 185.193 184.557H184.834C185.172 185.035 184.336 184.618 184.404 184.985C184.733 185.344 183.907 185.315 184.216 185.773L183.985 185.684C184.095 185.984 183.606 185.915 183.666 186.154C183.417 186.094 183.566 186.054 183.268 185.934C183.387 186.203 182.798 185.685 183.008 185.914C182.629 186.044 183.743 186.84 183.557 187.061C183.797 187.5 182.778 187.291 183.307 187.61L183.416 187.491L183.278 187.879L183.077 187.79C183.107 187.899 183.011 188.003 182.931 188.124C183.006 188.128 183.084 188.133 183.164 188.139C183.603 188.179 184.083 188.15 184.164 187.691C184.373 187.133 184.592 186.244 185.27 186.243C185.609 186.023 185.371 185.456 185.74 185.296L186.01 185.366C185.941 185.246 185.879 185.205 185.938 185.136C185.998 185.235 186.099 185.225 186.179 185.244L186.07 185.057C186.428 185.236 185.641 184.496 186.01 184.706L186.28 184.827C186.798 184.627 186.948 184.156 187.008 183.668C187.067 183.169 187.019 182.68 187.218 182.261C187.547 182.122 188.165 182.122 188.295 181.893L187.916 181.814C187.836 181.625 188.234 181.851 188.404 181.703L187.936 181.673L187.916 181.334L187.995 181.404C188.005 181.294 187.936 181.144 187.686 181.105C187.905 181.124 188.064 181.183 188.094 181.035C187.527 180.936 187.515 180.716 187.466 180.516C187.536 180.526 187.606 180.456 187.686 180.526C187.017 180.027 188.326 179.905 187.587 179.426H187.656C188.055 179.107 187.468 178.947 187.797 178.598H187.508C187.597 178.429 187.586 178.229 187.386 178.04L187.485 178.06L187.456 177.931H187.528C187.438 177.881 187.536 177.751 187.357 177.652H187.426C187.556 177.572 187.477 177.492 187.347 177.422L187.577 177.333C187.25 177.165 187.525 176.871 187.287 176.703ZM198.852 181.03C198.588 181.913 198.299 182.441 198.005 182.726C198.306 182.748 198.629 182.767 198.617 182.869C199.056 182.979 198.129 183.369 198.728 183.27L198.758 183.161L198.867 183.42L198.646 183.47C198.816 183.55 198.577 183.869 198.956 183.939C198.936 183.94 198.916 183.949 198.877 183.969C199.086 184.069 198.797 184.169 199.176 184.229H199.087C199.655 184.349 199.576 184.876 199.726 185.215C199.493 185.257 199.511 185.359 199.572 185.464C199.693 185.442 199.828 185.43 199.978 185.437C200.397 185.457 201.036 185.666 201.575 186.653C201.275 186.982 201.205 187.222 201.275 187.751L201.575 187.731C201.491 187.805 201.449 187.889 201.424 187.976C201.728 188.008 202.066 188.048 202.436 188.045C202.436 187.945 202.385 187.858 202.24 187.79C201.891 187.521 201.283 187.082 201.74 186.663C201.79 186.394 201.234 186.314 201.382 186.035L201.622 185.904C201.492 185.894 201.422 185.904 201.421 185.845C201.521 185.855 201.592 185.806 201.661 185.766L201.451 185.744C201.83 185.624 200.774 185.735 201.184 185.625L201.463 185.526C201.992 184.798 200.854 184.417 200.854 183.789C201.019 183.638 201.32 183.47 201.505 183.327C201.049 183.237 200.432 182.957 199.607 182.37C199.747 181.971 199.677 181.691 199.297 181.342L199.08 181.532C199.121 181.298 198.989 181.16 198.852 181.03ZM205.29 187.326C205.292 187.36 205.269 187.39 205.352 187.415C205.331 187.386 205.311 187.355 205.29 187.326ZM205.216 187.261C205.231 187.266 205.243 187.274 205.253 187.279C205.247 187.27 205.242 187.26 205.236 187.251C205.229 187.254 205.223 187.259 205.216 187.261ZM205.075 187.029C205.073 187.102 205.073 187.18 205.208 187.214C205.166 187.153 205.118 187.093 205.075 187.029ZM205.015 186.903C205.058 186.916 205.071 186.943 205.075 186.977C205.085 186.945 205.093 186.912 205.102 186.881L205.015 186.903ZM204.857 185.489C204.787 185.582 204.698 185.687 204.956 185.714L204.716 185.776C204.955 185.856 204.506 186.025 204.676 186.085C204.437 186.164 204.536 186.095 204.228 186.164C204.464 186.204 203.709 186.253 203.998 186.253C203.739 186.452 205.073 186.304 205.035 186.453C205.454 186.513 204.517 186.842 205.114 186.742L205.146 186.663L205.149 186.671C205.205 186.303 205.123 185.954 204.857 185.489ZM207.305 183.586C207.455 183.897 207.591 184.191 207.721 184.473C207.69 184.187 207.589 183.88 207.401 183.509L207.305 183.586ZM206.869 182.627C206.939 182.79 207.008 182.946 207.077 183.097C207.015 182.935 206.941 182.779 206.869 182.627ZM193.188 181.233C193.05 181.249 192.882 181.248 193.057 181.292C193.017 181.381 193.049 181.448 193.122 181.502C193.113 181.422 193.132 181.334 193.188 181.233ZM193.946 177.961C193.602 178.109 193.456 178.077 193.344 178.005C193.336 178.009 193.328 178.017 193.317 178.02C193.237 178.279 193.656 178.06 193.666 178.26L193.406 178.539C194.005 178.788 193.078 178.979 193.406 179.298C193.905 179.408 193.288 179.995 193.847 180.235L193.617 180.326C193.757 180.437 193.73 180.563 193.693 180.687C193.753 180.647 193.818 180.602 193.894 180.566C194.087 180.475 194.345 180.397 194.676 180.39C194.397 180.024 194.011 179.687 193.936 179.268C194.029 179.131 194.193 178.978 194.337 178.833C194.216 178.672 194.124 178.495 194.052 178.304L194.005 178.25H194.035C194.026 178.224 194.016 178.199 194.008 178.173C193.935 178.149 193.834 178.15 193.696 178.21C193.809 178.145 193.912 178.096 193.968 178.047C193.96 178.019 193.953 177.99 193.946 177.961ZM197.243 171.344C197.311 171.44 197.384 171.581 197.562 171.643L197.503 171.673C197.463 171.862 197.613 171.962 197.792 172.021L197.661 172.281C198.17 172.46 198.121 173.189 198.639 173.289C199.038 173.898 199.518 174.536 199.827 175.215C200.192 175.758 200.353 176.178 200.453 176.584C200.596 176.586 200.748 176.594 200.909 176.609C200.851 176.407 200.673 176.145 200.743 175.885C200.703 175.944 200.674 175.985 200.644 175.986C200.683 176.135 200.642 176.205 200.443 175.956C200.463 175.946 200.473 175.924 200.483 175.924C200.434 175.894 200.374 175.855 200.305 175.855C200.325 175.577 200.413 175.576 200.493 175.665C200.413 175.496 200.295 175.326 200.552 175.385C200.462 174.868 199.965 175.066 199.736 174.866C199.506 174.368 199.404 174.169 198.976 173.551L199.077 173.611C199.027 173.401 199.275 173.181 199.025 172.862C197.869 173.14 198.516 171.942 197.728 171.384C197.507 171.622 197.409 171.326 197.243 171.344ZM186.931 174.018C186.861 174.118 186.531 174.139 186.589 174.337C186.713 174.359 186.809 174.385 186.884 174.409C186.919 174.3 186.958 174.189 186.988 174.065L186.931 174.018ZM186.577 172.82C186.579 172.907 186.614 172.998 186.411 172.921C186.291 173.161 186.821 173.182 186.931 173.321C186.901 173.588 186.9 173.698 186.988 174.06C187.025 173.908 187.052 173.739 187.047 173.539L187.037 173.499C186.915 173.22 186.742 173.008 186.577 172.82ZM202.713 172.036C202.722 172.038 202.731 172.041 202.74 172.044C202.737 172.029 202.729 172.015 202.726 172.002L202.713 172.036ZM196.696 170.551C196.762 170.65 196.837 170.747 196.929 170.835C196.86 170.733 196.781 170.64 196.696 170.551ZM196.184 170.032C196.222 170.117 196.259 170.214 196.275 170.336L196.386 170.244C196.317 170.176 196.249 170.106 196.184 170.032ZM195.085 168.596C195.178 168.728 195.323 168.836 195.575 168.897L195.515 168.929C195.521 169.353 195.737 169.501 195.938 169.696C195.881 169.594 195.83 169.484 195.792 169.359L195.842 169.379C195.939 169.011 195.425 168.636 195.085 168.596ZM192.347 165.103C192.293 165.076 192.254 165.046 192.221 165.019C192.159 165.321 192.106 165.61 192.221 165.845L192.53 165.615C192.809 165.804 192.312 165.864 192.391 166.203L192.701 165.835L193.129 166.285L192.99 166.265C193.13 166.424 193.36 166.563 193.56 166.413C193.4 166.563 193.229 166.624 193.379 166.853C193.848 166.534 194.117 166.843 194.396 167.113C194.338 167.144 194.367 167.291 194.238 167.261C195.045 167.48 194.789 168.152 195.075 168.581C195.342 168.514 195.171 168.121 195.443 168.121C195.034 168.181 194.684 167.412 194.684 167.412C194.853 167.082 194.226 166.793 194.186 166.334L193.537 166.216L193.877 166.164C193.677 165.984 193.816 165.805 193.985 165.805C193.945 165.676 193.836 165.685 193.676 165.585L193.916 165.496C193.787 165.177 193.249 165.455 193.446 165.625C192.499 165.545 193.456 165.107 192.688 164.967L192.347 165.103ZM185.07 164.446C185.145 164.494 185.221 164.545 185.292 164.607C185.116 164.776 185.267 164.877 185.359 165.024C185.382 164.739 185.392 164.47 185.25 164.268L185.07 164.446ZM184.807 164.3C184.843 164.318 184.881 164.333 184.916 164.352C184.982 164.256 185.092 164.132 185.02 163.949L184.807 164.3ZM184.431 163.999C184.289 163.874 184.084 163.788 183.921 163.897C184.103 163.997 184.298 164.075 184.498 164.157L184.292 163.999H184.431ZM196.386 163.551C196.328 163.636 196.321 163.732 196.471 163.929C196.567 163.854 196.662 163.822 196.755 163.813C196.624 163.776 196.498 163.673 196.386 163.551ZM184.005 163.749C183.951 163.775 183.9 163.813 183.864 163.87C183.877 163.877 183.891 163.883 183.904 163.89C183.945 163.839 183.98 163.792 184.005 163.749ZM195.025 160.956C194.846 160.607 194.306 160.885 194.535 161.075C194.488 161.069 194.446 161.056 194.406 161.05C194.478 161.553 194.467 162.035 194.755 162.441L195.042 162.182C195.432 162.461 194.875 162.472 195.085 162.931L195.322 162.483L195.983 163.131L195.812 163.082C195.948 163.223 196.112 163.352 196.263 163.403C196.124 163.219 196.029 163.045 196.023 163.032C196.172 162.683 195.474 162.352 195.394 161.853L194.696 161.705L195.055 161.663C194.825 161.463 194.954 161.285 195.134 161.285C195.084 161.145 194.965 161.165 194.785 161.045L195.025 160.956ZM190.763 162.372C190.566 162.241 190.578 162.362 190.567 162.481C190.72 162.622 190.872 162.766 191.025 162.909C190.93 162.713 190.843 162.529 190.763 162.372ZM189.919 161.88C189.932 161.893 189.945 161.905 189.958 161.917C189.95 161.893 189.945 161.867 189.934 161.843L189.919 161.88ZM189.188 161.057C189.285 161.193 189.394 161.319 189.505 161.445L189.594 161.413L189.245 161.045C189.223 161.048 189.203 161.052 189.188 161.057ZM180.253 161.117C180.322 161.147 180.399 161.181 180.49 161.206V161.201C180.44 161.14 180.391 161.065 180.349 160.973L180.253 161.117ZM184.401 158.994C184.504 158.934 184.596 158.891 184.436 158.919C184.435 158.913 184.432 158.906 184.431 158.9H184.391C184.388 158.933 184.394 158.964 184.401 158.994ZM184.421 158.872C184.407 158.833 184.388 158.803 184.357 158.781C184.378 158.81 184.402 158.839 184.421 158.872ZM191.332 157.533C191.014 157.332 191.21 157.66 191.107 157.773C191.326 157.933 191.546 158.094 191.765 158.257C191.607 157.991 191.46 157.739 191.332 157.533ZM181 157.026C181.002 157.168 180.978 157.34 181.169 157.431C181.223 157.385 181.271 157.345 181.317 157.313C181.299 157.314 181.281 157.31 181.263 157.313C181.273 157.303 181.272 157.271 181.292 157.231C181.105 157.197 181.072 157.094 181 157.026ZM190.317 157.184C190.381 157.233 190.446 157.28 190.51 157.328C190.483 157.211 190.454 157.086 190.384 156.964L190.317 157.184ZM189.545 156.104C189.315 156.124 189.514 156.266 189.604 156.445C189.458 156.292 189.264 156.217 189.065 156.154C189.4 156.462 189.76 156.754 190.132 157.041C189.998 156.886 189.867 156.731 189.733 156.584L189.963 156.505L189.545 156.104ZM179.332 156.324C179.408 156.423 179.494 156.441 179.584 156.428C179.521 156.378 179.456 156.328 179.394 156.277C179.377 156.29 179.36 156.31 179.332 156.324ZM179.032 156.084C179.037 156.053 179.042 156.028 179.05 156.008C179.032 155.994 179.015 155.981 178.998 155.968C179.015 156.003 179.028 156.041 179.032 156.084ZM178.659 155.425C178.544 155.632 178.744 155.7 178.894 155.837C178.997 155.659 178.848 155.531 178.659 155.425ZM188.307 154.819C188.25 154.843 188.195 154.84 188.139 154.831L188.067 155.078C188.14 155.174 188.219 155.266 188.297 155.358L188.347 155.326C188.307 155.375 188.376 155.446 188.436 155.447C189.174 155.517 188.22 154.979 188.307 154.819ZM187.359 154.582C187.389 154.655 187.536 154.652 187.698 154.639C187.593 154.59 187.483 154.561 187.359 154.582ZM186.985 154.216C186.929 154.261 186.992 154.383 187.008 154.468L187.171 154.475C187.113 154.379 187.053 154.292 186.985 154.216ZM186.57 154.06C186.698 154.071 186.771 154.061 186.844 154.075C186.744 153.984 186.635 153.912 186.525 153.845L186.57 154.06ZM174.213 146.974C174.116 147.004 174.012 147.019 173.901 147.028C175.685 147.596 177.108 149.402 178.884 149.688C180.331 150.067 182.877 150.885 183.745 152.103C184.184 152.422 184.649 152.613 185.102 152.812C185.062 152.721 184.932 152.59 185.013 152.483C184.793 152.144 184.614 152.582 184.364 152.362L184.285 151.912C183.357 151.912 184.074 151.225 183.307 151.025C182.668 151.155 182.497 150.147 181.629 150.187L181.728 149.957C181.13 149.887 181.09 149.328 180.612 149.248C180.612 148.97 180.772 149.179 180.901 148.89C180.383 148.87 181.249 148.472 180.842 148.581C180.383 147.992 179.193 148.95 178.664 148.61C177.906 148.679 177.765 147.543 177.406 148.062L177.706 148.242L176.83 147.931L176.889 147.713C176.49 147.703 175.77 147.084 175.201 147.273C175.211 147.253 175.181 147.223 175.181 147.174C174.673 147.184 174.652 146.854 174.134 147.043L174.213 146.974ZM172.587 146.893C172.592 146.885 172.603 146.877 172.619 146.868C172.496 146.838 172.373 146.803 172.248 146.769C172.36 146.811 172.475 146.849 172.587 146.893Z" fill="#BC85AD"/>
<path d="M120.691 194.866L120.725 194.701L120.733 194.698L120.691 194.866Z" fill="#BC85AD"/>
<path d="M114.956 181.903C114.946 181.923 114.896 181.942 114.847 181.942L114.956 181.903Z" fill="#BC85AD"/>
<path d="M111.688 184.787C111.678 184.807 111.629 184.827 111.579 184.837L111.688 184.787Z" fill="#BC85AD"/>
<path fill-rule="evenodd" clip-rule="evenodd" d="M123.688 159.34C123.7 159.332 124.382 158.912 124.906 159.11C125.145 159.23 125.376 159.44 125.485 159.878C125.605 160.317 125.614 160.956 125.683 161.814C125.315 161.824 125.164 162.003 125.164 162.422L125.443 162.503C125.165 162.593 125.275 162.863 125.245 163.052C125.454 163.26 125.613 163.082 125.733 163.361C125.604 163.699 125.664 163.531 125.545 163.88C125.385 163.78 125.504 163.621 125.265 163.571C125.364 163.661 125.276 163.929 125.565 164.008L125.275 163.9C125.343 163.998 125.105 163.959 125.074 164.058C125.134 164.128 125.245 164.218 125.315 164.13C125.355 164.359 125.583 164.727 125.324 164.797C125.275 164.986 125.005 164.837 124.765 164.817C124.775 164.886 124.895 165.016 125.005 165.056H124.966L125.144 165.197C124.647 165.467 125.394 166.045 124.896 166.265C124.866 166.165 125.015 166.036 124.755 165.966V166.265C124.715 166.125 124.576 165.996 124.386 165.996C124.436 166.434 124.726 166.864 124.706 167.362C124.347 167.313 124.555 167.66 124.267 167.78C124.327 167.77 124.366 167.78 124.396 167.78C124.436 167.711 124.507 167.693 124.557 167.872H124.505C124.535 167.911 124.576 167.94 124.636 167.97C124.477 168.07 124.396 168.04 124.376 167.97C124.356 168.06 124.375 168.179 124.186 168.059C124.016 168.299 124.536 168.409 124.626 168.569C124.557 168.858 124.557 168.968 124.587 169.367L124.535 169.308C124.465 169.407 124.137 169.408 124.176 169.626C125.293 169.926 124.148 170.176 124.466 170.674C124.835 170.644 124.656 170.865 124.946 170.865C124.566 171.284 125.245 171.664 124.936 172.133L124.906 172.103C124.627 172.223 124.825 172.561 125.084 172.671C124.815 172.602 124.725 172.84 124.495 172.75C124.869 172.849 124.72 173.266 124.716 173.279C124.386 173.369 124.705 173.678 124.456 173.887L124.906 174.127L124.607 174.048C124.646 174.178 124.427 174.216 124.297 174.167C124.247 174.237 124.346 174.267 124.406 174.357L124.166 174.327C124.076 174.507 124.666 174.546 124.616 174.406C125.314 174.715 124.298 174.637 124.815 174.916L125.164 174.948C125.462 175.267 124.557 175.115 124.926 175.435L124.676 175.464C124.736 175.554 124.736 175.645 125.015 175.585C124.965 175.915 124.766 176.334 124.626 176.614C124.726 176.811 124.835 176.514 125.045 176.584C125.433 176.743 125.007 176.872 124.906 177.081L125.154 176.992L125.084 177.402L124.886 177.382V177.652C125.064 177.691 125.025 177.591 125.084 177.491C125.064 177.79 125.813 177.89 125.414 178.27H125.164C125.233 178.26 125.234 178.221 125.196 178.2C124.757 177.991 124.994 178.45 124.824 178.499C125.144 178.519 124.955 178.828 125.374 178.848C124.935 179.457 125.824 179.667 125.584 180.116C125.365 180.076 125.464 180.286 125.255 180.326C125.147 180.534 125.582 180.376 125.565 180.534L125.275 180.754C125.844 180.973 124.906 181.124 125.206 181.404C125.683 181.494 125.026 182.012 125.555 182.202L125.324 182.291C125.613 182.47 125.216 182.749 125.423 182.899C125.194 183.038 125.275 182.901 124.975 183.01C125.253 183.15 124.457 183.138 124.775 183.178C124.595 183.577 125.97 183.399 125.993 183.697C126.462 183.847 125.654 184.467 126.243 184.288L126.223 184.117L126.443 184.496L126.243 184.597C126.452 184.697 126.344 185.205 126.753 185.254C126.733 185.264 126.721 185.284 126.681 185.314C126.94 185.443 126.692 185.625 127.102 185.645L127.01 185.665C127.658 185.734 127.82 186.481 128.168 186.891C127.879 187.07 128.15 187.27 128.319 187.429C128.279 187.38 128.139 187.452 128.089 187.462C128.588 187.532 128.04 188.25 128.599 188.299H128.547C128.46 188.498 129.087 188.539 128.639 188.898C129.237 188.948 129.346 189.257 129.475 189.805L129.386 189.834C129.129 191.515 128.691 192.227 128.181 192.378C128.169 192.411 128.162 192.447 128.149 192.481C128.125 192.448 128.096 192.424 128.074 192.4C127.972 192.415 127.869 192.409 127.763 192.385C127.743 192.41 127.719 192.437 127.698 192.471L127.777 192.741C127.638 192.573 127.568 192.802 127.478 192.882C127.468 193.16 127.62 193.201 127.54 193.45C127.321 193.51 127.429 193.48 127.211 193.539C127.191 193.36 127.319 193.38 127.25 193.151C127.25 193.28 127.09 193.331 127.149 193.618L127.099 193.309C127.069 193.419 127.001 193.192 126.951 193.21C126.941 193.3 126.93 193.43 127 193.46C126.9 193.6 126.781 193.958 126.661 193.739C126.551 193.759 126.55 193.46 126.49 193.23C126.46 193.27 126.431 193.43 126.441 193.539L126.421 193.51L126.418 193.529L126.473 193.628C126.439 193.619 126.421 193.582 126.416 193.539L126.401 193.73C126.142 193.36 126.022 194.238 125.782 193.828C125.822 193.77 125.921 193.877 125.901 193.608L125.743 193.69C125.803 193.61 125.842 193.44 125.802 193.26C125.593 193.43 125.423 193.81 125.154 193.91C125.114 193.551 124.964 193.848 124.854 193.579C124.874 193.639 124.874 193.68 124.874 193.71C124.924 193.74 124.943 193.798 124.854 193.878V193.828C124.844 193.858 124.824 193.899 124.824 193.969C124.745 193.83 124.755 193.76 124.785 193.72C124.725 193.72 124.666 193.759 124.706 193.549C124.556 193.43 124.565 193.957 124.485 194.068C124.326 194.048 124.254 194.06 124.035 194.16L124.065 194.098C123.996 194.046 123.975 193.721 123.857 193.779C123.777 194.917 123.547 193.82 123.287 194.169C123.317 194.537 123.189 194.379 123.188 194.666C122.939 194.318 122.718 194.987 122.438 194.698L122.458 194.666C122.388 194.389 122.189 194.588 122.109 194.847C122.159 194.577 122.029 194.488 122.089 194.258C122.012 194.607 121.783 194.448 121.77 194.439C121.74 194.09 121.541 194.397 121.441 194.137L121.25 194.567L121.332 194.268C121.242 194.308 121.25 194.089 121.29 193.959C121.25 193.91 121.231 194.008 121.171 194.048L121.22 193.809C121.131 193.691 121.042 194.269 121.121 194.239C120.852 194.877 121.031 193.89 120.802 194.357L120.725 194.701C120.494 194.933 120.72 194.082 120.483 194.397L120.503 194.147C120.443 194.197 120.391 194.179 120.371 194.469C120.182 194.369 119.994 194.09 119.874 193.89C119.744 193.95 119.884 194.118 119.805 194.308C119.635 194.647 119.654 194.218 119.555 194.068V194.328L119.344 194.179L119.404 193.979L119.255 193.92C119.186 194.079 119.245 194.07 119.285 194.16C119.135 194.06 118.875 194.747 118.785 194.258L118.844 194.019C118.834 194.089 118.856 194.098 118.876 194.068C119.104 193.711 118.806 193.808 118.824 193.631C118.725 193.928 118.625 193.66 118.485 194.048C118.306 193.44 117.917 194.178 117.767 193.809C117.867 193.62 117.738 193.639 117.787 193.43C117.737 193.251 117.657 193.71 117.577 193.641V193.29C117.267 193.719 117.547 192.821 117.307 192.971C117.078 193.359 117.109 192.572 116.81 192.961L116.869 192.721C116.679 192.891 116.729 192.412 116.579 192.521C116.619 192.273 116.651 192.402 116.73 192.093C116.561 192.273 116.9 191.594 116.75 191.844C116.68 191.514 116.15 192.762 116.01 192.642C115.731 192.98 115.88 191.984 115.671 192.551L115.74 192.622L115.503 192.593L115.562 192.382C115.422 192.502 115.301 192.142 115.072 192.442C115.082 192.432 115.082 192.402 115.082 192.363C114.903 192.501 114.982 192.193 114.753 192.501L114.792 192.422C114.433 192.861 114.084 192.561 113.765 192.531C113.884 192.213 113.674 192.274 113.525 192.294C113.565 192.304 113.636 192.153 113.656 192.113C113.652 192.117 113.645 192.117 113.641 192.121C113.088 192.693 112.691 192.931 112.389 192.971C111.93 193.04 111.74 192.711 111.74 192.711L111.612 192.432C111.571 192.462 111.453 192.511 111.493 192.471C110.695 192.601 111.89 191.345 111.193 191.424C110.824 191.394 110.185 191.284 110.542 190.825C110.542 190.703 110.351 190.693 110.223 190.652C110.099 190.821 109.932 190.991 110.163 191.194L110.114 191.174C109.915 191.274 110.393 191.693 109.814 191.693C110.243 192.092 110.163 192.41 109.894 192.909L109.805 192.879C107.889 194.466 107.07 194.117 106.73 193.369C106.396 192.632 106.535 191.499 106.54 191.463L106.691 190.504C106.641 190.494 106.52 190.393 106.579 190.363C105.963 189.226 107.798 188.228 107.31 187.12C107.13 186.352 106.84 184.976 107.517 184.387C107.727 183.848 107.319 183.279 107.649 182.78L107.938 182.691C107.839 182.562 107.768 182.541 107.817 182.412C107.887 182.501 107.997 182.432 108.077 182.412L107.928 182.222C108.326 182.271 107.38 181.683 107.797 181.762L108.097 181.782C109.075 180.714 108.577 178.979 109.285 177.681C109.684 177.462 110.303 177.511 110.512 177.222L110.154 177.061C110.154 176.794 110.474 177.141 110.703 176.972L110.233 176.863L110.364 176.394L110.413 176.502C110.473 176.343 110.462 176.135 110.233 176.025C110.442 176.105 110.583 176.214 110.683 176.025C110.174 175.766 110.284 175.465 110.354 175.155C110.414 175.195 110.522 175.127 110.562 175.237C110.243 174.309 111.53 174.627 111.211 173.7L111.272 173.739C111.86 173.519 111.471 173.03 112.05 172.741L111.8 172.592C112.019 172.423 112.19 172.183 112.201 171.834L112.26 171.923L112.349 171.742L112.399 171.794C112.369 171.664 112.569 171.583 112.53 171.344L112.579 171.394C112.749 171.383 112.768 171.224 112.738 171.065L112.998 171.114C112.928 170.645 113.548 170.535 113.409 170.056C113.738 169.578 114.076 169.029 114.525 168.63C115.263 167.602 115.873 167.771 116.862 167.123L116.871 167.133C117.433 166.502 117.661 165.865 118.074 165.449C118.058 164.748 117.983 164.193 118.708 163.769C118.724 163.757 119.127 163.453 119.626 163.541C120.041 163.621 120.489 163.976 120.923 164.851C121.148 164.085 121.634 163.757 122.112 162.802C122.291 162.044 122.331 161.404 122.49 160.825C122.65 160.246 122.95 159.719 123.688 159.34ZM110.3 190.334C110.302 190.338 110.305 190.342 110.307 190.346L110.334 190.326C110.322 190.329 110.31 190.331 110.3 190.334ZM114.173 176.928C113.877 176.872 114.015 177.252 113.708 177.301L113.985 177.711L113.758 177.501C113.738 177.63 113.528 177.561 113.438 177.452C113.368 177.481 113.458 177.552 113.458 177.652L113.258 177.511C113.088 177.611 113.587 177.92 113.607 177.79C114.076 178.369 113.228 177.821 113.547 178.289L113.837 178.48C113.956 178.878 113.219 178.33 113.409 178.769L113.178 178.68C113.198 178.779 113.15 178.848 113.428 178.937C113.249 179.186 112.858 179.417 112.619 179.587C112.629 179.796 112.848 179.598 113.008 179.758C113.277 180.077 112.858 179.976 112.668 180.106L112.928 180.146L112.688 180.455L112.51 180.336L112.399 180.566C112.538 180.685 112.549 180.574 112.649 180.524C112.62 180.57 112.622 180.625 112.636 180.682C112.983 180.735 113.385 180.82 113.847 180.966C113.578 181.076 113.548 181.156 113.777 181.255L114.047 181.203C113.878 181.293 114.096 181.334 114.166 181.394C114.445 181.404 114.496 181.314 114.735 181.354C114.785 181.484 114.765 181.415 114.805 181.544C114.635 181.564 114.655 181.485 114.426 181.535C114.555 181.525 114.595 181.624 114.884 181.574L114.574 181.614C114.683 181.624 114.46 181.673 114.465 181.703C114.555 181.713 114.686 181.703 114.715 181.663C114.855 181.713 115.194 181.764 114.985 181.844C115.003 181.903 114.704 181.932 114.475 181.982C114.515 181.992 114.675 182.002 114.785 181.982H114.965C114.596 182.182 115.464 182.163 115.055 182.343C114.995 182.323 115.094 182.253 114.834 182.293L114.913 182.372C114.833 182.353 114.664 182.343 114.485 182.392C114.645 182.502 115.043 182.552 115.154 182.691C114.805 182.771 115.113 182.811 114.854 182.921C114.914 182.901 114.955 182.882 114.985 182.882C115.005 182.842 115.074 182.822 115.154 182.862C115.134 182.871 115.124 182.872 115.104 182.872H115.245C115.116 182.941 115.045 182.951 115.005 182.941C115.015 182.981 115.053 183 114.844 183.02C114.734 183.13 115.254 183.03 115.374 183.05C115.374 183.139 115.394 183.18 115.513 183.28H115.453C115.403 183.329 115.085 183.42 115.163 183.47C116.281 183.25 115.225 183.64 115.624 183.7C115.972 183.59 115.844 183.7 116.121 183.621C115.825 183.839 116.501 183.77 116.272 183.999H116.243C115.983 184.119 116.223 184.157 116.483 184.117C116.224 184.177 116.162 184.278 115.933 184.318C116.302 184.238 116.183 184.419 116.183 184.419C115.874 184.549 116.202 184.549 115.983 184.688L116.431 184.627L116.141 184.698C116.191 184.728 115.994 184.807 115.864 184.827C115.824 184.857 115.923 184.846 115.983 184.856L115.753 184.916C115.673 185.005 116.238 184.838 116.183 184.807C116.86 184.698 115.894 184.985 116.391 184.916L116.723 184.817C117.018 184.828 116.164 185.067 116.522 185.057L116.292 185.146C116.352 185.156 116.352 185.186 116.621 185.076C116.581 185.206 116.382 185.416 116.253 185.556C116.352 185.585 116.452 185.445 116.651 185.405C117.01 185.335 116.623 185.515 116.522 185.625L116.75 185.516L116.691 185.675L116.493 185.736V185.825C116.661 185.786 116.631 185.764 116.691 185.704C116.661 185.814 117.35 185.615 116.961 185.875L116.73 185.964C116.79 185.924 116.79 185.924 116.76 185.924C116.372 185.984 116.571 186.074 116.411 186.154C116.71 186.054 116.522 186.224 116.911 186.095C116.472 186.474 117.249 186.263 117 186.512C116.801 186.562 116.87 186.613 116.681 186.703C116.561 186.822 116.981 186.603 116.951 186.673L116.671 186.863C117.16 186.754 116.293 187.143 116.532 187.153C116.95 187.023 116.294 187.471 116.75 187.363L116.532 187.481C116.76 187.462 116.363 187.711 116.532 187.711C116.313 187.851 116.401 187.762 116.121 187.911C116.351 187.871 115.644 188.14 115.923 188.05C115.714 188.289 116.933 187.734 116.921 187.85C117.309 187.75 116.492 188.319 117.05 188.03V187.961L117.171 188.06L116.98 188.181C117.14 188.151 116.951 188.419 117.29 188.299C117.27 188.309 117.26 188.319 117.22 188.349C117.41 188.319 117.161 188.488 117.5 188.359L117.421 188.401C117.93 188.221 117.93 188.499 118.099 188.598C117.82 188.788 117.98 188.798 118.079 188.818C118.059 188.799 117.929 188.887 117.889 188.907C118.278 188.768 117.67 189.317 118.099 189.147L118.06 189.167C117.93 189.307 118.417 189.109 117.958 189.459C118.407 189.289 118.429 189.397 118.349 189.666L118.277 189.711V189.968C118.347 189.858 118.366 189.787 118.426 189.817C118.376 189.897 118.396 189.987 118.396 190.067L118.505 189.896C118.445 190.285 118.825 189.289 118.745 189.708L118.706 189.997C118.992 190.485 119.436 190.356 119.876 190.237C119.781 189.716 120.074 188.918 119.478 188.779C118.989 188.549 118.152 188.09 118.421 187.452C118.331 187.102 117.753 187.082 117.782 186.683L117.98 186.483C117.841 186.483 117.773 186.513 117.753 186.433C117.861 186.433 117.901 186.345 117.961 186.295H117.743C118.082 186.086 117.034 186.383 117.414 186.174L117.661 186.013C117.94 185.016 116.665 184.597 116.495 183.729C116.685 183.431 117.192 183.101 117.193 182.882L116.834 183.02C116.685 182.93 117.133 182.881 117.203 182.691L116.785 182.911L116.604 182.681H116.713C116.663 182.592 116.524 182.522 116.295 182.612C116.494 182.523 116.653 182.482 116.624 182.363C116.085 182.552 115.984 182.381 115.844 182.241C115.914 182.222 115.945 182.133 116.045 182.153C115.237 182.013 116.383 181.405 115.547 181.285L115.616 181.265C115.896 180.866 115.287 180.924 115.505 180.516L115.225 180.605C115.265 180.426 115.207 180.265 114.978 180.146H115.077L115.017 180.027H115.087C114.987 180.007 115.066 179.867 114.866 179.807H114.938C115.047 179.717 114.946 179.656 114.817 179.627L115.027 179.498C114.638 179.398 114.967 179.029 114.527 178.969C114.388 178.65 114.188 178.31 114.159 177.961C113.936 177.528 114.051 177.253 114.173 176.928ZM110.262 190.279C110.271 190.273 110.277 190.266 110.285 190.259C110.263 190.253 110.243 190.25 110.233 190.245C110.244 190.256 110.253 190.268 110.262 190.279ZM124.438 188.176C124.172 188.699 123.86 188.916 123.513 188.937C123.599 188.968 123.669 189.017 123.411 189.229C123.9 189.119 123.98 189.297 123.98 189.666L123.901 189.716C123.839 189.868 123.772 190.009 123.711 190.143C123.751 190.134 123.801 190.134 123.847 190.017V190.086C123.897 190.216 123.945 190.127 123.995 190.007L124.055 190.247C124.184 189.898 124.415 190.305 124.515 189.876C124.714 189.805 124.92 189.705 125.126 189.681C124.63 189.358 124.492 188.774 124.438 188.176ZM113.418 187.901C113.478 187.872 113.478 187.872 113.448 187.872C113.069 187.982 113.259 188.032 113.099 188.112C113.345 188.01 113.243 188.111 113.441 188.047C113.473 187.98 113.494 187.92 113.5 187.862L113.418 187.901ZM113.389 187.672L113.198 187.741V187.82C113.358 187.76 113.329 187.741 113.389 187.691C113.377 187.72 113.422 187.718 113.485 187.709C113.473 187.666 113.45 187.631 113.426 187.593L113.389 187.672ZM113.228 187.652L113.404 187.558C113.398 187.55 113.395 187.539 113.389 187.531C113.329 187.572 113.262 187.618 113.228 187.652ZM113.215 187.36C113.139 187.45 113.042 187.548 112.968 187.622C113.062 187.632 113.159 187.526 113.329 187.464C113.294 187.429 113.256 187.394 113.215 187.36ZM113.02 187.281C113.051 187.281 113.065 187.283 113.109 187.271C113.101 187.265 113.093 187.258 113.084 187.251L113.02 187.281ZM112.619 187.083C112.581 187.112 112.671 187.083 112.73 187.083L112.5 187.162C112.441 187.222 112.728 187.124 112.859 187.064C112.842 187.048 112.83 187.028 112.814 187.012C112.756 187.039 112.68 187.069 112.619 187.083ZM112.72 186.643C112.725 186.642 112.729 186.642 112.733 186.641C112.735 186.639 112.738 186.636 112.74 186.634C112.733 186.636 112.728 186.641 112.72 186.643ZM120.515 186.47C120.424 186.508 120.365 186.532 120.488 186.503C120.451 186.568 120.481 186.588 120.552 186.592C120.539 186.552 120.526 186.512 120.515 186.47ZM111.225 183.598C111.069 183.62 110.89 183.638 110.953 183.818C111.234 184.041 110.843 184.165 110.785 184.382C110.827 184.402 110.907 184.418 110.943 184.439C111.222 184.409 111.273 184.337 111.512 184.337C111.562 184.437 111.542 184.388 111.592 184.488C111.422 184.518 111.442 184.458 111.213 184.518C111.342 184.498 111.382 184.568 111.671 184.498L111.362 184.567C111.461 184.567 111.243 184.629 111.253 184.659C111.332 184.659 111.463 184.637 111.493 184.597C111.623 184.627 111.969 184.628 111.76 184.718C111.78 184.768 111.482 184.816 111.262 184.886C111.303 184.886 111.453 184.876 111.562 184.866H111.532L111.74 184.837C111.382 185.036 112.239 184.927 111.842 185.116C111.782 185.106 111.881 185.036 111.621 185.106L111.701 185.165C111.621 185.156 111.461 185.168 111.282 185.227C111.452 185.297 111.84 185.296 111.951 185.395C111.601 185.495 111.901 185.495 111.651 185.615C111.7 185.596 111.74 185.576 111.77 185.576C111.8 185.546 111.861 185.526 111.941 185.546C111.921 185.566 111.911 185.566 111.891 185.566C111.931 185.566 111.971 185.556 112.03 185.546C111.902 185.615 111.832 185.625 111.792 185.625C111.792 185.655 111.841 185.667 111.631 185.707C111.534 185.805 112.041 185.665 112.161 185.665C112.161 185.744 112.18 185.765 112.3 185.845H112.24C112.2 185.895 111.881 185.995 111.961 186.035C113.058 185.726 112.022 186.164 112.411 186.164C112.759 186.045 112.63 186.145 112.899 186.045C112.61 186.264 113.278 186.125 113.05 186.344H113.02C112.879 186.418 112.893 186.447 112.978 186.451C113.193 186.299 113.418 186.155 113.438 186.065L113.067 186.194C112.941 186.153 113.368 186.063 113.468 185.934L113.037 186.124L112.899 185.984H112.998C112.967 185.934 112.847 185.904 112.609 185.984C112.808 185.904 112.977 185.865 112.958 185.786C112.421 185.965 112.34 185.866 112.23 185.786C112.3 185.766 112.339 185.705 112.438 185.704C111.672 185.694 112.858 185.185 112.06 185.185L112.129 185.165C112.448 184.876 111.852 184.966 112.109 184.688L111.829 184.767C111.889 184.648 111.85 184.548 111.641 184.478H111.74L111.691 184.397H111.76C111.661 184.386 111.75 184.298 111.562 184.268H111.631C111.75 184.199 111.659 184.169 111.53 184.159L111.75 184.058C111.382 184.018 111.74 183.759 111.312 183.749C111.287 183.699 111.256 183.649 111.225 183.598ZM121.312 181.134C121.592 181.234 121.194 181.514 121.394 181.604C121.174 181.753 121.252 181.622 120.963 181.752C121.233 181.812 120.456 181.923 120.765 181.913C120.618 182.199 121.486 182.012 121.812 182.056L122 181.851C121.851 181.782 121.78 181.802 121.75 181.653C121.87 181.703 121.92 181.582 121.98 181.522L121.75 181.413C122.037 181.297 121.43 181.215 121.334 181.124L121.312 181.134ZM121.572 179.441C121.417 179.454 121.474 179.572 121.292 179.627C121.173 179.796 121.612 179.628 121.592 179.748L121.302 179.955C121.841 180.055 120.926 180.285 121.213 180.464C121.648 180.474 121.091 180.905 121.473 181.011L121.681 180.914C121.784 180.415 121.709 179.928 121.572 179.441ZM121.324 178.818C121.336 178.891 121.381 178.951 121.436 179.006C121.402 178.909 121.373 178.809 121.337 178.712L121.324 178.818ZM121.087 178.02C120.935 178.052 121.046 178.26 120.914 178.299C121.155 178.291 121.094 178.433 121.255 178.487C121.197 178.332 121.142 178.176 121.087 178.02ZM120.725 176.903C120.745 176.929 120.764 176.938 120.785 176.942C120.779 176.905 120.775 176.868 120.77 176.831C120.754 176.856 120.74 176.88 120.725 176.903ZM114.305 176.455C114.305 176.45 114.306 176.446 114.307 176.441C114.294 176.43 114.278 176.418 114.265 176.404C114.282 176.42 114.292 176.439 114.305 176.455ZM117.513 176.344C117.529 176.357 117.568 176.365 117.614 176.371C117.637 176.348 117.657 176.326 117.676 176.302C117.62 176.315 117.564 176.328 117.513 176.344ZM120.854 174.206C120.9 174.319 120.834 174.448 120.834 174.448C120.495 174.508 120.824 174.736 120.574 174.896L121.025 175.066L120.725 175.017C120.764 175.116 120.546 175.155 120.416 175.116C120.366 175.156 120.465 175.177 120.525 175.247L120.285 175.227C120.199 175.356 120.781 175.375 120.735 175.276C121.432 175.486 120.416 175.455 120.923 175.645L121.443 175.655H121.272C121.562 175.874 120.665 175.806 121.035 176.025L120.785 176.055C120.845 176.107 120.853 176.162 121.04 176.137C121.294 175.906 121.584 175.698 121.612 175.445L121.223 175.474C121.094 175.225 121.541 175.385 121.661 175.116L121.203 175.247L121.082 174.748L121.183 174.827C121.153 174.657 121.032 174.468 120.782 174.478C121.002 174.438 121.173 174.477 121.173 174.248C121.042 174.253 120.937 174.235 120.854 174.206ZM117.144 175.316C117.213 175.321 117.268 175.314 117.314 175.304C117.326 175.283 117.342 175.261 117.342 175.227C117.201 175.232 117.091 175.217 117.005 175.192C117.051 175.234 117.11 175.274 117.144 175.316ZM116.735 174.607C116.515 174.768 116.51 174.889 116.733 175.057L116.78 175.042C116.709 174.953 116.671 174.847 116.631 174.738C116.701 174.738 116.762 174.638 116.852 174.708C116.805 174.674 116.767 174.639 116.735 174.607ZM116.646 172.199C116.586 172.26 116.518 172.33 116.381 172.303C116.441 172.323 116.483 172.352 116.503 172.372C116.572 172.333 116.641 172.362 116.592 172.521C116.582 172.511 116.562 172.501 116.552 172.491C116.562 172.531 116.572 172.572 116.612 172.632C116.422 172.632 116.381 172.571 116.391 172.501C116.321 172.571 116.293 172.671 116.183 172.471C115.924 172.581 116.312 172.942 116.312 173.111C116.123 173.31 116.063 173.39 115.913 173.739L115.894 173.67C115.784 173.71 115.503 173.54 115.433 173.729C115.604 173.9 115.688 174.018 115.718 174.102C115.996 174.191 116.308 174.321 116.659 174.503C116.428 174.084 117.301 173.797 116.661 173.339H116.733C117.13 172.95 116.533 172.741 116.901 172.303H116.612C116.628 172.271 116.635 172.234 116.646 172.199ZM120.686 172.115C120.577 172.22 120.436 172.34 120.584 172.511C120.621 172.51 120.652 172.516 120.678 172.518C120.729 172.39 120.75 172.26 120.686 172.115ZM120.693 171.554L120.644 171.505C120.572 171.573 120.246 171.554 120.285 171.722C120.417 171.754 120.517 171.785 120.592 171.814C120.755 171.584 120.717 171.413 120.666 171.233C120.665 171.316 120.674 171.412 120.693 171.554ZM120.275 170.546C120.14 170.681 120.44 170.782 120.614 170.882C120.622 170.784 120.652 170.678 120.733 170.556H120.443L120.433 170.583C120.412 170.6 120.37 170.596 120.275 170.546ZM120.527 170.17C120.507 170.238 120.484 170.314 120.354 170.346C120.414 170.336 120.455 170.346 120.485 170.346C120.493 170.336 120.502 170.327 120.513 170.321C120.522 170.271 120.526 170.221 120.527 170.17ZM120.426 168.989C120.44 169.107 120.488 169.227 120.542 169.35C120.544 169.259 120.546 169.148 120.453 169.038L120.522 169.058C120.537 169.047 120.542 169.028 120.552 169.016C120.513 169.002 120.471 168.994 120.426 168.989Z" fill="#BC85AD"/>
<path d="M202.302 191.794C202.222 191.794 202.181 191.753 202.171 191.703L202.302 191.794Z" fill="#BC85AD"/>
<path d="M182.075 169.32C182.038 169.362 182.012 169.378 181.988 169.359C181.996 169.353 182.005 169.346 182.013 169.34H182.02C182.024 169.338 182.048 169.328 182.075 169.32Z" fill="#BC85AD"/>
<path d="M182.089 169.278L182.037 169.315C182.078 169.281 182.113 169.256 182.139 169.233L182.089 169.278Z" fill="#BC85AD"/>
<path d="M125.149 165.017C125.109 165.057 125.055 165.066 125.005 165.056L125.149 165.017Z" fill="#BC85AD"/>
<path d="M175.758 153.67C175.828 153.73 175.797 153.83 175.797 153.83L175.758 153.67Z" fill="#BC85AD"/>
</svg>
