<svg width="95" height="83" viewBox="0 0 95 83" fill="none" xmlns="http://www.w3.org/2000/svg">
<g clip-path="url(#clip0_2252_41)">
<path d="M75.742 71.667C78.6821 66.9231 81.77 60.7347 81.4415 55.0716C81.4415 55.0831 85.3539 53.1018 85.7169 52.8474C87.1771 51.8215 88.4861 50.5871 89.626 49.2181C91.891 46.4981 93.4941 43.2316 94.3416 39.8009C95.672 34.4217 95.0232 28.4435 92.0158 23.7225C88.6438 18.4288 83.0084 16.6477 76.9723 16.3342C76.9723 16.3342 75.9046 12.2469 75.7075 11.6724C73.5247 5.46596 67.7431 0.492262 61.1731 0.131135L58.9558 0.0162314C54.7674 -0.213576 50.6612 1.90394 47.4584 4.61239C47.4419 4.6288 47.4091 4.64522 47.3927 4.66163C47.3434 4.61239 47.2941 4.57956 47.2448 4.53031C44.1077 1.67413 39.9686 0.163965 35.731 0.311699L34.0392 0.377358C29.1282 0.541506 24.5292 2.93807 21.6548 6.92688C19.766 9.53684 18.567 12.6392 18.2713 15.9058C18.2105 16.5854 -3.22889 16.8907 0.417434 38.5583C1.03994 42.2549 2.88117 45.6987 5.19708 48.6534C6.34682 50.1307 7.67724 51.4768 9.15548 52.6094C9.54968 52.9048 13.426 54.9731 13.426 55.0716C13.426 60.9153 14.9535 67.0873 18.0742 72.0774C26.4509 81.7129 36.4044 82.8619 46.9492 82.9932C57.494 83.1246 69.1721 80.8101 75.742 71.6834V71.667Z" fill="white"/>
<path d="M21.2278 69.2542C20.6365 68.3349 20.0617 67.2516 19.5032 65.6101C18.3042 63.2299 17.5979 59.2411 17.5487 56.5327C17.5158 55.2687 17.795 53.6272 17.4008 52.4454L17.2859 52.3961H17.368C16.596 51.8544 15.6762 51.6082 14.8221 51.2471C-0.732262 44.5006 1.14018 19.7306 17.1545 19.9932C18.5177 20.0097 19.6839 20.3708 21.08 20.1738C22.4597 19.747 22.0984 18.0727 22.1805 16.9565C23.1003 4.89159 36.618 -1.26398 44.929 7.8955C47.3763 10.5875 46.785 11.8679 49.4787 8.56851C57.3626 -1.13266 70.7489 4.33348 72.6871 15.791C73.2948 19.4023 71.9315 20.8961 76.317 20.2887C93.8259 17.8593 96.6181 46.0928 79.1585 51.8216C78.3208 52.1007 77.401 51.8544 77.3353 52.9214C77.5653 53.857 77.5981 55.1046 77.4667 56.4834C76.7769 64.182 72.1122 70.9449 65.2794 74.589C53.9955 80.6297 41.7918 80.2849 28.964 75.4261C25.8104 74.2279 23.0838 72.0939 21.2443 69.2706L21.2278 69.2542Z" fill="white"/>
<path d="M76.9733 24.77C87.9451 24.1298 89.0784 38.2302 81.9993 45.0095C80.5867 46.3555 78.78 47.5866 76.7433 47.5538C74.6081 48.0791 72.6699 47.603 70.8796 46.2734C63.1599 40.5118 67.7753 26.0832 76.9733 24.77Z" fill="#1A1A1A"/>
<path d="M77.4666 28.8081C84.4307 27.7739 84.1515 41.9728 76.2018 43.7948C68.3672 44.2708 70.1739 29.8586 77.4666 28.8081Z" fill="#1A1A1A"/>
<path d="M34.0881 8.37161C46.1111 6.50032 50.5787 28.8245 38.0629 31.336C25.2679 32.7969 21.8023 10.5712 34.0881 8.37161Z" fill="#1A1A1A"/>
<path d="M31.4769 14.9047C32.4131 12.7379 34.9918 11.7695 37.1435 12.7215C44.699 16.0866 41.7261 30.4824 34.5976 26.8219C32.5281 25.7549 31.0663 23.1942 30.5407 20.9782C30.1958 19.0905 30.4914 16.5462 31.4769 14.8883V14.9047Z" fill="#1A1A1A"/>
<path d="M15.5934 24.77C27.9614 23.8507 33.398 44.8946 21.0629 47.5538C8.95776 48.8177 3.02837 27.4784 15.5934 24.77Z" fill="#1A1A1A"/>
<path d="M16.5463 28.808C23.3462 28.3977 27.4524 42.0384 20.1105 43.7948C13.0642 43.3844 9.31932 29.9078 16.5463 28.808Z" fill="#1A1A1A"/>
<path d="M58.7908 8.37152C60.3183 8.10889 62.2236 8.60133 63.554 9.35641C71.5201 13.9197 69.9597 28.5289 59.415 31.3359C46.1929 32.0089 46.6035 10.0623 58.7908 8.37152Z" fill="#1A1A1A"/>
<path d="M57.4279 13.0498C62.7496 9.20874 68.4326 21.5035 60.9593 26.4771C56.5245 29.4318 52.7304 24.1627 53.6009 19.8127C53.6666 17.3833 55.227 14.1004 57.4443 13.0498H57.4279Z" fill="#1A1A1A"/>
<path d="M34.0885 46.5032C34.8441 36.4573 50.185 30.745 57.9868 40.1014C60.007 42.5144 60.0235 43.8604 61.1404 46.5032C63.8012 46.6017 66.1664 48.3252 67.9238 50.213C72.802 55.4493 72.1286 62.5569 67.1519 67.4157C66.6263 67.6619 66.1171 68.1051 65.6244 68.4006C61.551 70.7972 55.8187 70.3704 52.6815 66.6278C51.0719 64.7073 50.07 62.6718 47.1628 62.6718C43.4507 62.6718 43.8614 65.2161 41.8575 67.2187C36.8972 72.176 30.7379 69.9764 26.4345 65.6101C21.4906 58.0593 25.0713 47.882 34.0885 46.5032Z" fill="#1A1A1A"/>
<path d="M46.5548 39.3135C50.9239 38.6733 55.4571 41.7757 56.7218 45.9451C58.0851 50.4428 56.2455 49.2937 61.1237 50.5412C67.2009 52.0842 69.3197 60.6856 64.0474 64.5103C61.4686 66.3652 57.8059 66.2995 55.6542 63.788C53.4861 61.2437 52.5992 59.4053 48.7722 58.7651C45.6843 58.3547 41.9394 59.2411 40.182 62.0152C38.9665 63.9358 39.2458 65.1669 35.9772 65.725C27.3541 67.2023 23.8063 52.1991 35.7308 50.3771C38.4081 49.9667 37.7347 48.5386 38.1946 46.4704C39.0487 42.5801 42.7278 39.888 46.5384 39.3135H46.5548Z" fill="#1A1A1A"/>
</g>
<defs>
<clipPath id="clip0_2252_41">
<rect width="95" height="83" fill="white"/>
</clipPath>
</defs>
</svg>
