<svg width="70" height="42" viewBox="0 0 70 42" fill="none" xmlns="http://www.w3.org/2000/svg">
<path d="M23.1669 2.86743C36.5452 6.88405 50.361 9.39737 64.2689 10.3487C52.6636 17.0665 41.5074 24.6182 30.9268 32.9098C33.4481 26.8967 37.0863 21.3885 41.5879 16.7377C28.6932 18.0648 15.8675 20.0144 3.14551 22.5629C3.23761 19.9674 3.32972 17.3601 3.42182 14.7646C15.1077 15.5515 26.8396 15.7159 38.537 15.2344C33.0912 11.9577 27.9679 8.14071 23.259 3.83048" fill="#F3BB53"/>
<path d="M24.3057 2.66775C24.0985 2.74996 23.8337 3.12579 24.11 3.25497L24.7663 2.80868L24.2942 2.65601L24.3057 2.66775Z" fill="#F5C469"/>
<path d="M24.836 5.06361C25.3311 5.00488 26.0564 4.75825 26.3442 4.07707C25.6189 4.4294 25.7571 4.13579 24.9051 4.55859C24.6288 4.4294 24.6863 4.03009 24.9051 3.85392C24.6978 3.93614 24.6748 3.41938 24.2488 3.67776C24.1337 4.38243 24.4906 4.73476 25.1929 4.68778C25.1699 4.88744 24.9511 4.96965 24.8475 5.06361H24.836Z" fill="#F5C469"/>
<path d="M26.8848 14.4122L27.0229 14.5062C27.0229 14.5062 26.9308 14.424 26.8848 14.4122Z" fill="#F5C469"/>
<path d="M9.29326 13.5901C9.43142 13.5901 9.48899 13.5078 9.5005 13.4374C9.37385 13.4844 9.27024 13.5196 9.29326 13.5901Z" fill="#F5C469"/>
<path d="M5.68945 12.5331C5.80458 12.5566 5.88518 12.5801 5.98879 12.6035C5.86215 12.5213 5.74702 12.4744 5.68945 12.5331Z" fill="#F5C469"/>
<path d="M26.8855 14.4123C26.7934 14.3301 26.6207 14.2479 26.4595 14.1656C26.402 14.424 26.7474 14.3536 26.8855 14.4123Z" fill="#F5C469"/>
<path d="M29.0148 6.1559C28.9111 6.12067 28.8075 6.13241 28.6924 6.1559C28.773 6.17939 28.8536 6.20288 28.9226 6.23812C28.9572 6.21463 28.9802 6.17939 29.0032 6.1559H29.0148Z" fill="#F5C469"/>
<path d="M31.1329 13.7076H31.2135C31.0178 13.6136 30.8105 13.5079 30.5918 13.4022L31.1329 13.7076Z" fill="#F5C469"/>
<path d="M31.8701 12.9207C31.8701 12.9207 32.2961 13.0381 32.8372 13.179C33.3899 13.32 34.0231 13.4844 34.426 13.5901C33.6547 13.3787 33.2517 13.2612 33.056 13.1908C32.7451 13.1203 32.3882 13.0381 31.8701 12.9207Z" fill="#F5C469"/>
<path d="M28.4625 9.10372L28.2783 9.06848C28.2783 9.06848 28.405 9.10372 28.4625 9.10372Z" fill="#F5C469"/>
<path d="M28.6468 13.6136C28.5547 13.5196 28.4626 13.4374 28.3936 13.3787C28.4741 13.4609 28.5547 13.5431 28.6468 13.6136Z" fill="#F5C469"/>
<path d="M29.1189 7.74135C29.1189 7.74135 29.1304 7.67088 29.1419 7.6239C29.0958 7.68262 29.0728 7.71786 29.1189 7.74135Z" fill="#F5C469"/>
<path d="M23.2236 2.70292H23.3273C23.3733 2.57373 23.4194 2.46803 23.4539 2.35059L23.2351 2.70292H23.2236Z" fill="#F5C469"/>
<path d="M0.197283 17.1369C0.197283 17.1369 0.197283 17.1017 0.208796 17.0782C0.15123 16.6906 0.15123 16.902 0.197283 17.1369Z" fill="#F5C469"/>
<path d="M34.0234 21.7526C34.4034 21.7291 34.5761 21.7996 34.7257 21.917C34.8869 22.0227 35.0251 22.1871 35.5317 22.0227C35.382 22.0227 35.1748 21.87 34.8984 21.7996C34.6336 21.7173 34.2882 21.7056 34.0234 21.7526Z" fill="#F5C469"/>
<path d="M29.084 6.32031C29.1531 6.36729 29.2221 6.41427 29.2797 6.46125C29.2106 6.37903 29.1416 6.33206 29.084 6.32031Z" fill="#F5C469"/>
<path d="M35.5312 22.0227L35.6349 21.9874C35.5888 21.9992 35.5658 22.0109 35.5312 22.0227Z" fill="#F5C469"/>
<path d="M11.3885 23.8665C11.3425 23.7608 11.2734 23.6786 11.2158 23.6082C11.2273 23.6786 11.2734 23.7491 11.3885 23.8665Z" fill="#F5C469"/>
<path d="M1.32627 22.3633L1.22266 22.7978C1.29174 22.5982 1.31476 22.469 1.32627 22.3633Z" fill="#F5C469"/>
<path d="M16.074 22.1049C16.2122 22.1284 16.2697 22.2223 16.4194 22.1049C16.3964 22.0697 16.3734 22.0579 16.3503 22.0344C16.3043 22.1284 16.2237 22.1871 16.0625 22.1049H16.074Z" fill="#F5C469"/>
<path d="M21.1281 21.2944C21.1281 21.2944 21.0475 21.2122 21.013 21.177C20.9669 21.2005 20.9093 21.2122 20.8633 21.2357L21.1281 21.2944Z" fill="#F5C469"/>
<path d="M44.6849 10.7832C44.6043 10.5836 44.5697 10.3604 44.5467 10.1608C44.5467 10.6423 43.7638 10.6658 44.6849 10.7832Z" fill="#F5C469"/>
<path d="M28.7959 6.44944C28.9225 6.33199 29.0031 6.29676 29.0837 6.32025C29.0377 6.28502 28.9801 6.26153 28.9341 6.23804C28.865 6.3085 28.8074 6.37897 28.7959 6.44944Z" fill="#F5C469"/>
<path d="M15.4521 16.9373L16.2811 16.902C16.0393 16.8785 15.74 16.902 15.4521 16.9373Z" fill="#F5C469"/>
<path d="M47.8271 17.4306L47.9423 17.2544C47.8732 17.2779 47.8271 17.3366 47.8271 17.4306Z" fill="#F5C469"/>
<path d="M18.6758 16.4088C18.86 16.6202 19.0327 16.7259 19.2054 16.7847C19.2284 16.7259 19.263 16.679 19.2745 16.5968L18.6758 16.3971V16.4088Z" fill="#F5C469"/>
<path d="M38.9048 10.6775C39.6762 10.8537 39.4344 9.91409 39.6877 9.4678C40.6548 9.40908 39.9985 10.1842 40.2288 10.6775C40.8505 10.56 41.4377 9.86711 41.8637 9.97281C41.8637 10.1137 41.9443 10.1842 41.8176 10.3486C42.5545 9.7849 43.6367 10.654 44.5002 9.92584C44.5347 10.008 44.5577 10.0903 44.5577 10.149C44.5117 9.70269 44.5693 9.2564 44.6498 8.95104C44.9952 8.99802 45.3752 8.52824 45.4212 9.10372C45.214 9.045 45.1564 9.26814 45.0298 9.43257L45.4327 9.2564C45.6285 10.1137 44.8916 9.44431 44.788 10.0433C45.5364 9.91409 46.4689 9.37384 46.9755 9.69095C46.9755 10.5013 45.663 9.74967 46.2732 10.5718L45.4788 10.1255C45.9163 11.4761 44.9837 9.94932 45.3522 11.3822C46.4344 11.7932 46.6646 11.1825 47.7354 11.5936C48.0462 11.1942 47.7469 10.9359 48.0693 10.5365C49.7502 9.98456 49.0249 12.7093 50.3374 11.8284C50.7058 11.3469 50.9591 10.3721 51.7189 11.0063L51.316 11.8637C51.8571 11.9811 52.0528 11.6758 52.237 11.4409C52.3291 11.3234 52.4327 11.2177 52.5709 11.1942C52.64 11.1825 52.7206 11.1942 52.8127 11.2177C52.8702 11.2412 52.9048 11.2999 52.9508 11.3822C52.8357 11.5466 52.8587 11.6288 52.6285 11.6405C52.4558 11.664 52.3291 11.664 52.4097 11.7227C52.5479 11.9224 52.7321 12.0046 52.7436 11.9929C52.7666 11.9929 52.8012 11.8989 52.8357 11.7932C52.9048 11.5818 53.0199 11.2882 53.1581 11.3117C53.089 11.5701 53.0199 11.8284 52.9393 12.0868C53.1005 12.0398 53.3653 11.8989 53.7337 11.758C54.1021 11.6288 54.5857 11.4996 54.9887 11.4644C54.6318 11.664 54.2633 11.8754 54.0331 12.0868C54.5281 11.9459 54.839 11.9929 54.8275 12.1221C54.8275 12.2512 54.4706 12.4509 53.9525 12.6388C54.5742 12.4744 55.242 12.31 55.9443 12.1455C55.9673 12.1455 55.1383 12.3804 54.7354 12.4744C54.1137 12.674 55.9788 12.1573 56.8423 11.9694C57.1301 11.9459 55.8176 12.263 55.1614 12.4039C55.3916 12.3569 55.6449 12.31 55.9097 12.263C57.3834 11.9929 57.51 12.3804 55.7255 12.7328H55.3225C54.8966 12.8385 55.6219 12.8032 56.163 12.8267C56.7272 12.8385 57.0956 12.9089 56.3012 13.0264L56.14 12.9911C55.4722 13.226 55.2535 13.4492 54.8505 13.6841C54.4821 13.9072 53.9525 14.1069 53.4114 13.8485C53.5725 14.0364 53.5841 14.1421 53.538 14.2126C53.4804 14.283 53.4344 14.2596 53.1811 14.3887C52.7666 14.5767 52.3867 14.7998 52.6975 15.4223C51.4196 15.4223 51.5577 15.0582 50.015 15.5045C49.635 15.6689 49.9574 16.5732 49.612 16.9725L49.2206 16.3736L49.0479 17.3953L48.2765 16.8668L47.9771 17.2896C48.1614 17.2192 48.4837 17.3366 48.5758 17.5363C48.1268 18.2174 46.7913 18.1235 46.5725 17.8181L45.4443 19.3214C45.3176 19.0513 45.5133 18.8047 45.6054 18.5228C45.2255 19.6738 45.0528 17.9826 44.7074 19.0396C44.8916 19.11 44.8916 19.4389 44.9492 19.5681C44.3505 19.4506 43.5446 19.9909 43.0495 20.5663L42.8883 20.0731C41.737 20.719 40.7469 21.8582 39.5495 22.7038C40.1137 22.5864 40.4936 23.3733 40.1943 23.6904L39.6186 23.1619C39.6531 23.7139 40.1482 23.1384 40.01 23.9488C39.515 24.1954 39.2156 23.4555 39.3308 23.0679L38.9393 23.6786C38.7781 23.5142 38.8357 23.3263 38.7091 23.0679C38.7551 23.6199 37.339 23.1149 37.4887 24.0192L37.3275 23.8548C36.1301 24.7239 35.7387 25.3346 34.8061 26.0745C35.1745 26.6265 34.714 26.7792 34.737 27.4251C33.9081 27.7775 32.8258 27.9536 32.0199 28.6465C31.617 29.363 32.1811 29.222 32.1466 29.7388C31.7436 29.2925 30.9377 29.9854 31.1219 29.3042C30.4311 29.9384 30.0972 30.2321 29.487 30.9602L33.2864 33.9668C33.2864 33.7906 33.3209 33.4618 33.367 33.0272C33.0791 33.0742 32.9064 33.2152 32.7683 33.0272C32.7913 32.7219 33.2518 32.5457 33.4936 32.6984L33.5166 32.7923C33.4706 31.8176 34.288 31.0894 35.0709 30.4317C35.8423 29.774 36.5791 29.175 36.3834 28.2707V28.3647C36.441 27.8479 36.51 27.3312 36.5791 26.8027C37.0051 26.2976 36.7518 27.3781 37.3045 27.1667C37.3045 26.2507 37.6498 25.7574 38.0413 25.3346C38.5709 24.6652 39.3883 23.7961 39.6762 22.8448C40.436 22.5864 41.1268 22.0814 41.76 21.4589C42.3933 20.8365 43.0725 20.0848 43.6367 19.3801C44.9031 17.8651 45.8357 16.585 48.2074 14.8938L47.1252 15.4457C46.6762 15.3283 48.2995 14.5414 48.9558 13.9894C48.0923 14.4357 47.4821 15.0112 47.2403 14.9407C47.6087 14.4592 48.0117 13.9777 48.4607 13.4844C47.8735 13.3905 46.6416 13.5549 45.663 13.5784C44.6499 13.6136 43.6712 13.6019 42.635 13.5901C40.6087 13.5549 38.237 13.5079 35.6811 13.6253C34.6795 13.6958 34.265 14.283 33.885 14.7646C33.4821 15.2461 33.1827 15.6102 32.089 15.2343C32.2732 14.9525 32.492 14.6589 32.7222 14.377L32.0084 14.6236L31.6515 14.7293L31.4327 14.8115C31.1564 14.9172 30.8801 14.9877 30.5923 15.0582C30.0281 15.1874 29.4525 15.2461 28.8768 15.3166C27.7255 15.4457 26.5742 15.5632 25.5265 16.1152C25.6301 15.9155 25.6071 15.6924 25.8258 15.6571C25.2847 15.1639 24.0989 15.8803 24.1564 16.3383C23.811 16.3383 24.0183 15.939 23.7765 15.7394C23.2584 15.481 22.7058 16.6202 22.3834 16.1034C22.3258 16.0212 22.487 15.9038 22.5676 15.8451C22.3028 16.1622 21.14 15.986 21.5199 16.585C20.6449 16.4088 19.9771 17.1135 19.2633 16.8433C18.941 17.6302 17.8012 16.7259 17.8127 17.7594C17.7091 16.7024 16.2354 17.1487 15.7864 17.7359C15.913 17.3953 15.2798 17.4775 15.4179 17.0078C14.8193 17.1252 14.3127 17.4071 14.4969 17.9356C13.1959 16.8668 12.4706 19.3214 11.5841 17.8299C10.7436 18.2644 9.93767 18.652 9.15478 19.0043C8.76333 19.1805 8.37188 19.3449 7.98044 19.4976C7.49688 19.662 7.46234 19.7442 7.20905 19.8617C7.25511 19.3097 7.37024 19.2627 7.6005 19.1922C8.01498 19.0865 8.41794 18.9691 8.27978 18.4288C8.09557 18.5228 7.93438 18.6168 7.7732 18.7107C7.61202 18.8047 7.4278 18.9104 7.43932 18.9808C7.35873 19.1453 7.24359 19.3097 7.10544 19.4624C6.85215 19.7677 6.41465 20.0143 6.16136 19.9321C6.08077 19.8029 6.51826 19.3919 6.61037 19.1922C6.288 19.4741 6.01169 19.5211 5.81596 19.5328C5.82748 19.2744 5.81596 19.11 5.55116 19.0161C5.65478 18.9573 5.7584 18.9456 5.83899 18.9221C5.80445 18.8399 6.00017 18.6285 5.51662 18.9339C5.56267 18.8986 5.59721 18.9339 5.64327 18.9339C5.28636 19.2627 4.92945 19.3567 4.60708 19.3801C4.28471 19.4036 4.01991 19.1805 3.8357 19.1922C4.51498 19.1922 4.60708 18.9456 4.74524 18.8282C4.81432 18.7929 4.89491 18.6402 5.05609 18.5815C5.22879 18.5228 5.48208 18.558 5.89655 18.7577C5.81596 18.5815 5.59721 18.3466 5.28636 18.3701C5.38998 18.1117 5.57419 18.0295 5.91958 18.3114C5.89655 18.194 5.86202 18.0883 5.82748 17.9943C5.79294 17.8651 5.74688 17.9708 5.71234 17.9473C5.63175 17.9473 5.53965 17.9473 5.47057 17.9238C5.3209 17.8769 5.19425 17.8416 5.20577 17.7477C5.42452 17.9003 5.51662 17.9591 5.78142 18.0648C5.56267 18.0413 5.34392 17.7477 5.20577 17.5245C5.06761 17.2896 5.01004 17.0547 5.11366 16.9373C5.25182 17.09 5.42452 17.2192 5.413 17.3131C5.413 17.2309 5.38998 17.1369 5.35544 17.0312L5.29787 16.8551C5.27484 16.7964 5.30938 16.7964 5.3209 16.7611C5.36695 16.6554 5.413 16.5262 5.49359 16.4088C5.65478 16.1856 6.03471 16.033 6.5528 16.2796C6.54129 17.2896 6.90971 16.6319 6.9903 17.5128C7.0709 17.4306 7.12846 17.3484 7.45083 17.2779C7.35873 17.1252 7.25511 16.9843 7.18603 16.8316C7.81925 16.8903 8.44096 16.2796 8.98208 16.585L8.48702 16.9255L9.70741 16.8198L9.03965 16.4558C9.71892 16.033 9.02813 15.34 9.86859 15.6337C9.68438 15.7159 10.5133 15.6806 10.8357 16.2091C11.1696 15.9508 11.515 15.6689 11.9755 15.9038C12.0906 16.1856 11.8373 16.8668 11.9064 17.0547C12.2518 16.3383 13.4377 16.9138 13.8637 16.1504C13.7255 16.3266 13.7025 16.7846 13.737 16.8786L14.0248 16.2913C14.3242 16.491 14.3587 16.585 14.3012 16.949C15.1992 17.09 14.0479 15.8333 15.1071 16.3383C15.0265 16.3853 15.061 16.4793 14.8768 16.5615C15.9475 16.8433 16.9722 16.2444 17.9508 16.5615C18.2271 17.4541 17.0758 16.7611 17.3982 17.5128C18.8373 17.3836 20.3801 16.5145 21.7617 16.7376L21.5084 16.6319C21.7156 15.387 22.5331 17.2544 23.2354 16.6789C23.0627 16.7729 23.0051 17.3718 23.0512 17.2309C23.9952 17.4306 24.9969 16.9373 26.4245 16.538L26.2518 16.8551C26.39 16.9255 26.5512 16.9725 26.7239 17.0078C26.885 17.043 27.1959 17.0547 27.4492 17.0665C27.9788 17.09 28.5084 17.09 28.9574 17.1487C29.0841 16.8316 29.5446 16.8786 29.0495 16.4205C29.8439 16.8668 30.6268 17.0195 31.26 17.0312C31.8933 17.0312 32.3768 16.8903 32.7798 16.7376C33.6433 16.444 33.9541 16.1034 36.3719 16.7964C36.1186 16.7964 36.2107 17.0782 36.4295 17.0782L37.8225 16.7376C36.5791 16.2444 36.9015 16.444 35.7271 16.0565C35.3242 15.7511 35.2206 15.5045 35.566 15.4927C35.6581 15.8451 37.385 16.3031 38.4558 16.5615C38.0298 16.4088 37.742 16.2326 37.3275 16.0799C40.436 16.9373 34.9558 15.0817 37.5577 15.6337L38.214 15.892C38.2946 15.7394 37.6498 15.387 38.2831 15.4457C40.2058 15.9977 38.6515 15.7276 39.9985 16.1974C40.3094 16.1622 39.8373 15.892 39.515 15.6806C39.3308 15.5749 39.3077 15.5162 39.2617 15.4575C39.112 15.3753 39.1466 15.3518 39.5841 15.434C39.941 15.5749 40.1482 15.6806 40.3439 15.7863C40.3439 15.8451 40.2748 15.8803 40.4015 15.9625C41.0693 16.1034 41.5758 16.2091 41.9788 16.3031C42.186 16.3501 42.3012 16.3618 42.3702 16.3736C42.4393 16.3736 42.4969 16.3736 42.566 16.3853C42.7617 16.3853 42.7156 16.3266 42.9344 16.3148H42.8768H43.1762C43.1762 16.2091 43.1416 16.0917 43.0841 15.9625L42.7387 15.986C39.515 14.9642 38.9739 14.7176 38.5364 14.4592C38.1334 14.2126 37.7995 13.9307 35.9229 13.3787C37.7189 13.9072 38.237 14.0482 38.4558 14.0599C38.686 14.0716 38.6745 13.9777 39.6877 14.1891C39.9179 14.0951 39.964 13.8602 40.6318 14.0364C39.561 13.7076 39.5956 13.6019 39.4689 13.4257C39.3538 13.2613 39.0775 13.0264 37.7304 12.674C38.1795 12.6858 37.1087 12.2512 38.4212 12.4157C37.1778 11.8402 37.8341 12.5096 37.1433 12.4157C35.7502 11.9929 35.635 11.617 35.1745 11.0885C34.7831 10.5835 34.0577 9.90235 32.6762 9.5735C30.9031 8.8336 30.0857 9.17419 29.0265 8.8336C28.9459 8.31684 29.7748 8.36382 29.7979 8.38731C29.441 7.69438 29.1531 7.54171 28.5545 7.38903C28.7617 7.29507 28.7732 7.09541 28.8077 6.79006C28.4393 6.56691 28.0824 7.25984 27.8406 6.64912C28.0709 6.50819 28.4163 6.2733 28.7271 6.20283C28.2091 6.05015 27.5643 6.07364 27.0347 5.89748C27.1729 5.49816 27.6564 5.62735 27.9558 5.54514C27.3916 5.31025 26.5742 4.85222 26.0446 5.2163L26.1943 5.6391C26.01 5.52165 26.4475 5.14583 26.6433 5.16932C27.3341 5.1106 27.0577 5.80352 26.9426 6.00318L26.5627 5.87399C26.0216 7.16588 27.8521 6.67261 28.3818 7.20112L27.5413 7.76485L28.635 7.61217C28.612 7.91753 28.3702 8.4108 27.9903 8.29335C28.1285 9.00977 28.5775 8.31684 28.6235 9.03325C28.6235 9.12721 28.566 9.1507 28.5084 9.1507C28.7156 9.18593 28.8768 9.19768 29.0725 9.22117C28.8653 9.31512 28.6696 9.77316 28.566 9.51478C28.6696 9.94932 28.9804 9.96107 29.3143 10.0198C29.6367 10.0668 29.9475 10.1255 29.6827 10.3839H29.5791C30.1318 10.5835 30.385 10.5483 30.6498 10.4543C30.9262 10.3604 31.191 10.1842 32.1811 10.3721C31.6285 10.7127 31.0413 10.9828 30.3505 11.1942L31.4212 11.112C31.4788 11.1825 31.5939 11.3234 31.1334 11.3469C32.2041 11.5348 31.5364 11.253 32.4459 11.3469C32.2041 11.5583 32.6416 11.7697 32.964 11.9811C33.2864 12.1808 33.4591 12.3569 32.3883 12.2747C33.6202 12.4979 32.7337 12.0281 34.0002 12.4626C32.8834 12.3922 33.0906 12.4861 33.5627 12.6388C34.0117 12.7915 34.7485 13.0381 34.3341 13.0734C32.7683 12.7328 33.2058 12.6506 32.2962 12.674C33.5857 12.9442 33.6778 13.0616 33.4591 13.0968C33.2518 13.1438 32.7222 13.0968 33.1137 13.2378C34.9097 13.6606 34.8867 13.8485 35.4969 14.1773C35.6466 14.2596 35.8308 14.3418 36.1071 14.4592C35.8998 14.377 33.885 14.1773 32.6877 13.919L32.3308 13.778C34.4722 14.6001 33.413 14.471 33.367 14.6471C32.2617 14.1539 31.9048 13.9542 31.5479 13.7193H31.26C31.7781 14.0012 31.9739 14.1421 31.9278 14.2478L30.7304 13.6253C30.5808 13.6488 30.742 13.8367 30.7304 13.9659C30.7304 14.0951 30.5232 14.1773 29.936 13.9659C30.3275 14.2596 31.0298 14.6706 31.663 15.0582C32.2962 15.4457 32.7913 15.7981 32.4804 16.0095C32.0199 15.7041 31.2946 15.1521 31.3406 15.0229C31.3406 15.0699 31.4212 15.2931 31.0758 15.1639C30.9722 14.9877 30.8571 14.7998 30.7074 14.6236C30.0742 14.3887 31.1219 15.0817 30.7535 15.0347C30.2123 14.5767 30.1663 14.7058 29.7864 14.3418C29.7864 14.2948 30.2239 14.5297 30.0972 14.3418C29.7173 14.2596 29.1071 14.0012 28.7041 13.6488C28.9804 13.9072 29.3258 14.2713 29.1762 14.33C28.7041 14.377 28.5314 13.778 28.1285 13.5431C28.2551 13.8602 27.8176 13.5431 28.186 14.2243C28.0364 14.2243 27.8521 13.8955 27.7255 13.7193C27.6564 14.0247 26.7699 13.8133 27.1038 14.5532L27.1844 14.6001C27.1844 14.6001 27.1614 14.6119 27.1383 14.6354C26.9426 14.8115 26.6202 14.8703 26.2864 14.8703C25.964 14.8703 25.6416 14.8115 25.3193 14.7411C24.6745 14.5884 24.0298 14.3887 23.4196 14.5414V14.3065C22.6827 14.5649 21.7847 14.4475 21.2551 14.9407C21.0364 14.9407 20.7485 14.5062 20.8406 14.2361C20.2765 14.4005 20.2074 14.6589 19.4015 14.2596C19.9771 13.8602 19.2173 13.8955 19.9887 13.9777C19.2633 13.7663 19.1021 13.3905 18.3077 14.0129C18.5841 13.4257 17.7781 13.2495 17.4212 13.4257L17.9163 13.8602C17.5248 13.9424 17.191 13.872 16.8456 13.8133L17.0528 13.0381C15.5906 12.0516 14.3127 14.5767 13.242 12.9442C12.8275 13.4727 14.0364 13.3552 13.6564 13.9894C12.9771 13.8602 12.2979 12.7093 12.0906 12.6975C11.1696 12.2278 11.1696 13.8015 10.2025 13.4609C10.3176 13.7428 10.3982 14.4944 9.64985 14.7176C8.97057 14.5767 8.86695 13.5079 9.30445 13.3082C9.46563 13.2965 9.54623 13.3905 9.53471 13.4844C9.76498 13.3905 10.0528 13.2848 9.79952 12.9794L9.6959 13.2495C9.37353 12.9442 8.42945 12.9324 8.67123 12.4861C8.14162 12.721 8.42945 12.9324 8.79787 13.0968C7.88833 12.6506 7.64655 13.0264 6.01169 12.6623C6.27649 12.8267 6.50675 13.1673 6.288 13.1556C4.20412 12.6858 5.55116 13.6371 4.41136 13.6958C3.47879 13.2143 4.11201 12.6623 2.98373 12.9442C1.92451 12.5918 2.21234 12.1573 2.46563 11.9459C2.20083 12.0633 1.90149 12.0868 1.56761 12.0633C1.25675 12.0633 0.750172 11.8167 0.784712 12.1808C0.600501 12.6153 0.347212 12.9677 0.289646 13.3787L0.105435 12.3452C0.209054 12.9794 0.197541 13.3787 0.186028 13.7898C0.370238 13.7663 0.554449 13.7428 0.738659 13.7428C0.635041 14.1186 0.612014 14.5179 0.393264 14.3653C0.727146 15.0464 1.29129 14.6589 1.7403 15.7628C1.59063 15.9625 1.6482 16.5262 1.6482 16.949C1.6482 17.3718 1.60215 17.7829 1.23373 17.8299C1.39491 16.8198 1.2107 16.7964 0.980436 16.8551C0.750172 16.9021 0.473857 17.043 0.45083 15.9038C0.519909 16.3736 0.496883 16.8668 0.381751 17.4893C0.301159 17.5832 0.23208 17.3836 0.197541 17.1957C0.00181699 17.9121 -0.0212093 17.8299 0.0133301 18.006C0.0593828 18.1235 0.174514 18.1822 0.312672 18.2527C0.45083 18.3231 0.612014 18.3936 0.727146 18.5111C0.842278 18.6402 0.92287 19.0513 0.899843 19.5681C0.496883 19.3332 0.105435 20.261 0.174514 20.6603C0.220567 19.6503 0.876817 20.0848 1.16465 20.6603C1.07254 21.0126 1.038 21.2945 1.038 21.4942C1.038 21.6586 1.07254 21.776 1.11859 21.8582C1.2107 22.0227 1.33734 22.0814 1.3028 22.375L1.4755 21.6468C1.88998 21.5646 1.8209 22.0814 1.92451 22.6099C1.59063 22.974 1.71728 22.1988 1.56761 22.5629C1.92451 22.6216 1.71728 23.1736 1.4755 23.9018C1.41794 24.0779 1.36037 24.2659 1.3028 24.4538L1.22221 24.7239C1.19919 24.8178 1.16465 24.9235 1.24524 24.8883C1.44096 24.9118 1.71728 24.8531 2.09721 24.6534C2.37353 24.8883 1.4755 25.5695 1.8209 25.6987C2.73044 25.2406 2.97221 25.3463 3.29458 25.4403C3.58241 25.546 3.98537 25.6282 4.79129 25.2524C4.54951 24.7239 4.51498 24.8766 5.57419 24.1132L3.21399 24.9705C3.87024 24.5712 4.46892 24.1719 4.98702 23.7961C4.41136 23.9018 3.51333 24.442 3.19096 24.4068C4.12353 23.7608 3.91629 23.937 3.96234 23.4555C4.07748 23.8665 4.57254 23.6434 5.02155 23.3968C5.48208 23.1501 5.88504 22.88 6.25346 23.0914L5.97715 24.5595C6.74853 24.7239 7.55445 24.3833 8.26827 24.031C8.77485 23.7256 9.21235 23.3968 9.90313 23.4437L9.44261 23.2793C9.5232 22.7038 10.237 23.0562 10.617 22.7508C10.663 23.2088 10.9508 23.338 11.1811 23.5847C11.1005 23.2441 12.1367 23.4437 12.1021 22.5159L12.7929 23.0092C13.8867 23.0679 13.7831 21.4942 14.8193 21.4824C14.589 22.0344 15.1071 22.281 14.4854 22.7508C14.8308 22.6921 15.1416 22.7273 15.0956 22.4102C15.3373 22.6569 15.936 21.6351 16.316 22.0227C16.4311 21.7995 16.3966 21.3062 16.788 21.2828C16.8456 21.365 16.8225 21.5059 16.8225 21.5059C16.788 21.2828 17.3752 21.0948 16.9607 20.6486C18.2387 21.9052 19.8735 20.0613 20.9788 21.1536C21.6926 20.8834 22.5676 20.6016 23.2469 20.4606C23.2239 20.6016 23.2814 20.6838 23.1433 20.6603C24.1334 20.9539 23.5232 19.2627 24.663 19.5798C25.3077 20.2375 24.1564 20.0613 24.5364 20.2962C24.8933 21.7878 25.7913 19.9086 26.6202 20.6838L26.4591 20.8012C27.0693 21.2358 27.714 20.0378 28.6235 20.0261C28.6235 20.0261 28.6005 20.167 28.6466 20.261C29.1531 19.4036 30.2814 18.9926 31.1104 18.6755C30.9146 19.2979 30.7535 19.0396 30.9952 19.615C31.3752 19.4741 30.765 18.6637 31.5133 18.3936C31.6515 18.5345 31.8818 18.6637 32.0775 18.8399C32.2387 19.0161 32.3653 19.2392 32.3998 19.5563L31.8357 19.662C31.9508 19.8617 32.066 19.9439 32.1926 19.9674C32.2732 20.0026 32.3193 19.9674 32.3883 19.9086C32.515 19.8029 32.6646 19.6033 32.7683 19.662L32.7107 20.0378C33.2518 19.8499 33.6433 18.8751 34.4146 18.8516L34.4952 18.558C35.0248 18.0295 35.0824 18.1587 35.0594 18.3231C35.0594 18.4876 34.9673 18.6872 35.5199 18.2762C35.2896 18.6168 35.0479 18.9573 34.7831 19.2979C35.0018 19.157 35.4508 18.8869 36.0035 18.5933C36.5561 18.3114 37.2239 18.0178 37.6729 17.8769C36.2222 18.7342 35.2551 19.204 34.5873 19.6972C34.76 19.6855 35.2666 19.5563 36.1071 18.9926C35.8653 19.11 35.4393 19.3919 35.5545 19.2275C36.8094 18.3466 38.0068 17.8416 38.6745 17.7946C37.3275 18.652 37.0972 18.9104 37.1202 19.0043C37.1433 19.0513 37.2354 19.0513 37.316 19.0748C37.2814 19.1453 37.0281 19.3332 36.7864 19.4976C36.4755 19.709 36.0265 19.9791 35.3472 20.3314C35.8538 20.1905 35.4623 20.5429 35.0594 20.8247C34.6334 21.1301 34.2074 21.3415 34.1383 21.5294C36.0265 21.2828 34.0808 21.6703 35.7962 21.7056C35.7387 21.9404 35.635 22.0227 35.5314 22.0227C35.0594 22.1988 34.6564 22.2928 34.288 22.3045C33.862 22.1988 34.0923 22.0461 33.7814 21.9404C33.6548 22.0227 33.5166 21.9522 33.3554 21.87C33.2748 21.823 33.2058 21.776 33.1021 21.7173C32.9985 21.6938 32.9755 21.5411 32.7798 21.6586C33.2748 21.8465 33.1827 22.3515 32.7222 22.7038L33.6893 22.422C33.5742 23.9605 32.0545 22.7273 31.9623 24.3011L31.8127 23.6904C31.6515 24.4185 30.4656 25.9336 31.1449 27.0963C30.9492 27.1198 30.5232 27.0845 30.5808 26.7557C29.6137 28.165 29.9821 30.6196 28.8538 31.5005L28.589 31.2421C28.566 31.4535 28.7271 31.7001 28.7271 31.9115L28.6005 41.9648L32.4114 34.8241C32.4689 34.7184 32.561 34.6597 32.7452 34.6832C32.8143 34.8124 32.8604 35.0355 32.9755 34.9651C33.0216 34.7772 33.2173 34.002 33.6433 33.9316L33.6202 34.4483C35.0939 33.8846 34.8982 32.2521 35.7732 31.2891C36.3719 32.1229 37.5232 31.6766 38.0989 31.4535L38.1679 31.5827C39.6531 30.6314 40.0791 29.1046 41.1844 27.8127C42.6466 28.1298 44.2469 26.1802 45.9393 25.7809C45.6285 25.7691 45.5248 25.088 45.7091 24.8413C46.135 24.7944 46.1926 23.6434 46.6531 24.4655L46.5265 24.5242C47.2748 25.1349 47.7929 24.489 48.311 24.1602L47.7239 23.0679C50.0265 23.6669 50.8785 20.1553 52.4788 21.0361C52.64 20.5663 53.0429 20.2962 53.2041 19.8264L53.538 20.4019C54.5281 19.9674 55.0232 19.7442 56.0594 18.8986L56.0824 19.4506C56.163 19.4036 56.2206 19.3332 56.2666 19.251C56.2897 19.204 56.3012 19.157 56.3127 19.11C56.3472 19.0513 56.3818 18.9691 56.4163 18.9104C56.5314 18.6285 56.566 18.3114 56.589 18.0178C56.6235 17.4188 56.5314 16.8903 56.9344 16.6202C57.2798 16.7846 57.6482 16.949 58.0397 17.1017C58.9837 16.5145 60.1696 16.0447 61.3209 15.4575C62.4492 14.8938 63.6005 14.2243 63.7617 13.6019C63.992 13.6371 64.441 13.6958 64.1647 13.9072C64.6712 13.6253 65.9607 13.0616 66.7781 12.5683C67.5956 12.0868 67.8143 11.7462 66.0989 11.9694C67.1005 11.8872 67.6992 11.5701 68.01 11.2177C68.3324 10.8654 68.2979 10.5483 68.2173 10.3604L69.8637 10.149C68.4245 10.0198 67.7337 10.1607 68.0561 9.71443C68.5627 9.51478 69.9097 9.23291 69.0462 9.55001C69.6679 9.31512 69.76 9.23291 69.6564 9.20942C69.6104 9.19768 69.5068 9.19768 69.4031 9.20942H69.2535C69.1844 9.20942 69.1153 9.20942 69.0462 9.22117C68.5972 9.26814 68.2518 9.27989 68.2403 9.16244L70.0018 8.88058C69.1268 8.76313 68.4821 8.9393 66.5364 9.27989C65.2239 9.44431 65.3045 9.02151 66.5824 8.52824C65.5002 8.81011 63.8193 9.16244 63.6811 8.97453C64.1071 8.78662 64.6367 8.68092 64.913 8.63394C64.5561 8.37556 63.4508 8.48126 62.5874 8.57522C61.7008 8.66918 61.0446 8.75139 60.9985 8.42254C61.3209 8.23463 61.413 8.12893 61.413 8.07021C62.8061 8.21114 63.8999 8.32859 63.6926 8.36382C64.3028 8.10544 64.3604 7.94102 64.5561 7.74136C64.7633 7.55345 65.1087 7.34205 66.5018 7.03669C65.5347 7.18937 64.2107 7.40077 62.8752 7.60043C61.7008 7.77659 60.7913 7.87055 60.3883 7.69438C60.4114 7.63566 60.4229 7.57694 60.5035 7.49473L60.7222 7.44775C60.515 7.36554 60.1811 7.40077 59.8242 7.47124C59.5594 7.34205 59.3637 7.27158 59.0068 7.21286C59.3637 6.74308 57.7749 6.81355 57.1531 6.71959C56.7387 7.34205 56.0709 7.16588 56.4048 7.75311C56.3472 7.69438 56.566 7.69438 56.9459 7.70613C57.0495 7.70613 57.1531 7.70613 57.2337 7.67089C57.2107 7.68264 57.1762 7.70613 57.1531 7.71787C57.5331 7.74136 58.0166 7.78834 58.5808 7.82357C57.7749 8.08195 57.1531 8.29335 56.8653 7.89404C56.2551 8.25812 55.7025 8.63394 55.4377 8.81011C55.4722 7.88229 54.1137 7.23635 53.987 6.63738C53.7683 6.66087 53.4229 6.63738 53.2962 6.67261C53.1466 6.67261 52.9969 6.6961 52.8357 6.70785C52.5248 6.73134 52.214 6.74308 51.9031 6.79006C51.2929 6.88401 50.7173 7.07193 50.2913 7.63566C49.9574 7.75311 49.9804 7.23635 49.8998 7.02495C50.0956 6.93099 50.3028 6.97797 50.4295 6.81355C49.7617 7.03669 48.5758 6.67261 48.311 7.49473C47.5857 6.97797 48.8637 6.77831 47.7814 6.74308L47.9656 6.50819C46.1005 4.80524 44.1778 8.12893 42.1515 5.93271C42.2897 6.07364 42.3587 6.13237 42.3702 6.28504C39.8719 5.01664 36.7633 5.90922 34.4262 4.07708C33.7469 3.66602 33.5396 4.18278 32.9985 4.47639V3.74824L32.0429 4.35895C30.7995 4.67605 30.5808 2.19796 28.9344 2.92612L28.992 3.43113C28.5199 3.21973 27.3571 3.27846 27.5873 2.77344C27.5183 2.84391 27.2995 3.20799 27.1729 2.91438L27.2535 2.5503L25.8834 2.83217C25.0199 2.30366 26.413 1.45806 25.089 0.988281C24.5479 0.988281 23.362 1.61074 23.4771 1.90435C23.6729 1.98656 23.9377 2.28017 23.8456 2.64425L23.3275 2.69123C22.9475 3.713 22.2683 4.68779 23.2123 5.75654L24.2025 5.34549L24.3176 5.93271L23.6268 5.76829C23.8801 6.35551 24.237 6.00318 24.5939 5.79178C24.5939 6.08539 24.64 6.30853 24.7781 6.44947L25.8489 5.66259C25.8373 6.09713 25.2732 6.379 25.7452 6.75482C26.2403 6.39075 25.6416 5.73305 26.3324 5.59212C26.5857 6.17934 26.3785 6.54342 26.9426 6.24981C26.9426 6.54342 26.7929 6.68436 26.5857 6.75482C27.0808 6.54342 27.691 6.91925 28.0479 6.40249C28.3012 7.10716 29.4525 6.60215 29.1646 7.60043C29.3489 7.38903 30.0742 7.00146 30.4541 7.04844C29.4755 8.08195 31.8357 7.47124 31.3521 8.71615C32.112 7.76485 33.2979 8.68092 34.3341 8.28161C34.265 8.35207 34.1268 8.50475 34.0577 8.43429C34.5413 8.64569 34.6219 9.00976 34.8982 9.29163C35.163 8.4108 35.992 8.37556 36.5331 7.91753C36.9706 8.91581 35.9344 8.89232 35.9459 9.77316C36.0725 9.03325 37.1778 9.27989 37.0972 8.6222C37.4656 9.26814 37.4541 8.97453 37.5462 9.77316C37.8571 8.66918 38.0298 9.6792 38.5594 9.06849C39.135 9.76141 38.5248 10.1607 39.3538 9.97281C39.6531 10.3956 38.8933 10.654 38.8933 10.654L38.9048 10.6775ZM55.2765 11.2647H55.265C55.1614 11.2647 55.0808 11.2647 55.0232 11.2647C55.0808 11.2647 55.1499 11.2647 55.288 11.2412L55.2765 11.2647ZM56.1054 11.3469C56.1054 11.3469 55.9327 11.2999 55.7946 11.2882C56.117 11.1003 56.5084 10.9006 56.589 10.9241C56.3012 11.0416 56.3242 11.1825 56.1054 11.3469ZM58.3735 6.98971C58.8801 6.95448 58.9031 7.08367 58.8341 7.21286C58.6268 7.21286 58.3735 7.20111 58.0397 7.21286C58.0051 7.23635 57.9591 7.25984 57.9245 7.28333C58.0742 7.16588 58.2124 7.07193 58.3735 7.00146V6.98971Z" fill="#F5C469"/>
<path d="M56.9459 7.7179C56.8769 7.7179 56.8308 7.75313 56.7617 7.74138C56.7963 7.80011 56.8308 7.85883 56.8653 7.90581C56.969 7.84709 57.0611 7.78836 57.1532 7.72964C57.0841 7.72964 57.015 7.72964 56.9459 7.7179Z" fill="#F5C469"/>
<path d="M27.0465 14.5179H27.0234C27.0234 14.5179 27.0695 14.5532 27.081 14.6002C27.058 14.5649 27.058 14.5532 27.0465 14.5179Z" fill="#F5C469"/>
<path d="M49.0938 16.1974L49.1859 16.3383L49.2204 16.1387L49.0938 16.1974Z" fill="#F5C469"/>
<path d="M38.4209 16.5262C38.5706 16.5732 38.7433 16.6319 38.9505 16.6789C38.8469 16.6437 38.6512 16.585 38.4209 16.5262Z" fill="#F5C469"/>
<path d="M42.8887 16.2796L43.211 16.3031C43.211 16.3031 43.2801 16.2326 43.3147 16.1857C43.211 16.2209 43.1535 16.2561 43.1074 16.2679C43.0038 16.2679 42.9462 16.2679 42.9002 16.2796H42.8887Z" fill="#F5C469"/>
<path d="M40.4819 14.3417C40.1019 14.2595 39.8601 14.2008 39.6299 14.1421L40.4819 14.3417Z" fill="#F5C469"/>
<path d="M5.78125 18.8634C5.78125 18.8634 5.79276 18.8751 5.80428 18.8751C5.93092 18.8516 5.88487 18.8399 5.78125 18.8634Z" fill="#F5C469"/>
<path d="M10.7666 16.1621C10.6169 16.2796 10.4788 16.3853 10.3291 16.4557C10.5594 16.5144 10.7436 16.5379 10.7666 16.1621Z" fill="#F5C469"/>
<path d="M9.70703 16.4205C9.93729 16.5614 10.133 16.5497 10.3172 16.4557C10.1215 16.4088 9.90275 16.3265 9.70703 16.4205Z" fill="#F5C469"/>
<path d="M27.1612 4.53514L27.0806 4.42944C27.0806 4.42944 27.023 4.48817 27 4.49991L27.1612 4.53514Z" fill="#F5C469"/>
<path d="M27.0001 4.49983L26.8389 4.4646C26.8389 4.4646 26.9425 4.54681 27.0001 4.49983Z" fill="#F5C469"/>
<path d="M26.4932 4.38249L26.8386 4.45295C26.758 4.38249 26.6659 4.27679 26.4932 4.38249Z" fill="#F5C469"/>
<path d="M29.7979 7.08361L29.9706 6.91919C29.9706 6.91919 29.8669 7.0014 29.7979 7.08361Z" fill="#F5C469"/>
<path d="M31.0416 7.95274C30.9035 7.81181 30.7999 7.57692 30.6387 7.31854C30.5581 7.18935 30.4775 7.07191 30.3739 6.96621C30.2818 6.86051 30.2242 6.82527 30.1206 6.79004L29.9824 6.91923C30.1551 6.82527 30.2127 7.04842 30.4084 7.37726C30.5811 7.68262 30.7308 7.96449 31.0416 7.941V7.95274Z" fill="#F5C469"/>
<path d="M31.4561 11.8754C31.387 11.7579 31.3064 11.617 31.2143 11.4761C30.9264 11.57 30.4659 11.6522 30.1666 11.5113C29.4988 11.9341 30.938 11.3821 31.4676 11.8754H31.4561Z" fill="#F5C469"/>
<path d="M32.2727 12.8385C31.7431 12.6153 31.3977 12.6623 31.0293 12.5801C31.7201 12.7797 31.9273 12.8502 32.2727 12.8385Z" fill="#F5C469"/>
<path d="M20.5874 13.9542L20.6449 13.3552C20.2535 13.4374 20.6449 13.5901 20.5874 13.9542Z" fill="#F5C469"/>
<path d="M16.5 16.9842L16.8684 17.3601L17.0641 16.8198L16.5 16.9842Z" fill="#F5C469"/>
<path d="M14.2435 12.627L14.4162 12.5448L13.7715 12.7445L14.2435 12.627Z" fill="#F5C469"/>
<path d="M20.3114 21.9991L20.0811 21.2827C19.8393 21.4589 19.9084 22.281 20.3114 21.9991Z" fill="#F5C469"/>
<path d="M34.0803 19.3214C33.9652 19.709 33.9421 19.9556 34.3566 19.5328C34.2415 19.4976 34.2415 19.2039 34.0803 19.3214Z" fill="#F5C469"/>
<path d="M48.8749 23.432L48.7598 23.8078L49.1167 23.3146L48.8749 23.432Z" fill="#F5C469"/>
</svg>
