<svg width="135" height="72" viewBox="0 0 135 72" fill="none" xmlns="http://www.w3.org/2000/svg">
<path d="M128.24 15.2401C121.37 6.25009 109.2 1.64972 98.1002 3.85972C94.5302 4.56972 91.0401 5.95985 88.2001 8.24985C80.9902 14.0699 81.2702 26.6498 79.8502 34.9598C77.5802 28.0298 70.9002 21.59 65.3802 16.93C60.6102 12.89 54.7902 9.38962 48.5502 9.75962C41.9802 10.1496 36.2902 14.8897 32.9902 20.5897C29.6802 26.2797 28.3402 32.8697 27.0402 39.3197C24.6802 34.6797 18.5302 32.77 13.5802 34.35C8.63015 35.93 4.9502 40.3899 3.2502 45.3099C0.970195 51.9099 2.56024 60.4197 8.67024 63.7997C11.3302 65.2697 14.4602 65.6 17.4802 65.89C38.1902 67.92 58.9802 69.9497 79.7702 69.0897C87.4402 68.7697 95.2502 68.0198 102.26 64.8998C119.33 57.2898 142.37 33.7601 128.23 15.2401H128.24Z" fill="#D2F0F9"/>
<path d="M85.2302 14.6699L84.7803 15.4302C84.8403 15.4302 84.9702 15.2499 85.2302 14.6699Z" fill="white"/>
<path d="M90.4802 66.6499C90.5502 66.6299 90.6302 66.6098 90.6902 66.5898C90.5402 66.6198 90.4902 66.6399 90.4802 66.6499Z" fill="white"/>
<path d="M73.2502 20.8198C73.2502 20.8198 73.2803 20.8499 73.2903 20.8599C73.3603 20.9099 73.4302 20.97 73.4902 21.02L73.2603 20.8198H73.2502Z" fill="white"/>
<path d="M90.6803 4.12978C89.1303 4.90978 87.7903 5.75009 86.6303 6.70009C85.4403 7.69009 84.4702 8.71968 83.7002 9.77968C82.1602 11.8897 81.2002 13.9399 80.4902 15.9999C79.7702 18.0599 79.2502 20.1597 78.8402 22.5497C78.7402 23.1497 78.6303 23.7698 78.5503 24.3998C78.4803 24.9198 78.4102 25.4497 78.3402 26.0097C78.3002 26.3897 78.3302 26.3001 78.3402 26.4501C78.3202 26.4801 78.3203 26.6499 78.2903 26.5399C78.2703 26.5099 78.2502 26.4901 78.2202 26.4501L78.1603 26.39L78.1202 26.3598L78.0902 26.33L77.8502 26.0097C76.4102 24.1297 74.8503 22.4299 73.2903 20.8599C70.8903 18.9899 67.4003 15.24 64.2703 13.35C63.9503 13.01 63.6103 12.6797 63.2803 12.3397C62.1803 11.7297 60.9102 11.02 59.8402 10.31L59.9402 10.2899C58.2002 9.52993 56.2103 8.64011 55.2503 8.47011L55.3502 8.43007C54.5902 8.20007 53.8203 8.00001 53.0303 7.87001L53.4602 7.84999C50.0602 7.26999 46.3302 7.58003 43.3703 8.64003L43.7102 8.82997C42.1302 9.31997 40.8602 9.91974 39.8202 10.5897C38.7702 11.2397 37.9103 11.93 37.1203 12.64C35.5602 14.08 34.1702 15.5497 32.3703 17.8197V17.7201C30.6203 20.9701 29.4402 23.4697 28.3502 26.0897C27.8202 27.3997 27.3302 28.7301 26.9402 30.1801C26.7402 30.9001 26.5603 31.6601 26.4103 32.4501C26.3303 32.8501 26.2702 33.2498 26.2002 33.6698C26.1802 33.8798 26.2002 33.9398 26.2102 34.1298C26.1802 33.8298 26.0503 34.1397 26.0003 34.0497C25.9703 34.2897 25.9503 34.5299 25.9203 34.7499C25.9103 34.8699 25.9003 35.0298 25.8803 35.1298C25.8403 35.0798 25.8003 35.0397 25.7603 35.0097C25.6103 34.9097 25.4003 34.9001 25.3703 35.2001C24.9503 34.8001 24.7603 34.6401 24.6703 34.4901C24.4903 34.3001 24.5802 34.2297 24.4802 34.0497C24.3702 34.2497 22.3203 33.1099 20.3003 32.7299C20.6103 32.7599 20.9202 32.8198 21.2402 32.8798C19.3502 32.3198 17.3603 32.1999 15.4203 32.4599C15.8203 32.5799 16.2102 32.6797 16.5902 32.8397C15.0902 32.8697 14.8703 32.8301 14.6703 32.7401C14.4803 32.6701 14.2702 32.5697 12.8602 33.0697L13.0203 33.4301C11.0503 34.0801 9.54027 34.8098 8.14027 35.6898C6.75027 36.5798 5.40024 37.6101 4.11024 39.2201C2.86024 40.9601 1.89024 42.8999 1.23024 44.9599C0.570236 47.0499 0.260304 49.2398 0.300304 51.4198C0.340304 53.5998 0.720294 55.7998 1.54029 57.8798C2.35029 59.9498 3.59028 61.9101 5.28028 63.4501C6.95028 65.0101 9.10028 66.0199 11.1503 66.5399C13.2203 67.0899 15.2403 67.2801 17.1503 67.4701C20.9603 67.8501 24.6803 68.2799 28.2503 68.7899L28.8602 69.14C29.1002 69.59 32.8803 68.8699 33.3903 69.31L35.0802 69.2597C35.5402 69.3797 36.5302 69.5397 35.6902 69.5697C37.2302 69.7197 37.2803 69.6498 38.4103 69.6098L40.0503 70.0097C46.1503 70.6997 51.3902 70.53 57.8502 70.89C65.6102 71.78 80.2502 71.3697 88.7302 70.0097C91.6902 69.4797 94.7903 68.93 97.9103 68.06C101.04 67.22 104.17 65.9699 107.1 64.4599C112.99 61.4599 118.42 57.4501 122.48 52.7001C122.81 52.4601 123.43 51.6 123.38 51.56C125.95 48.77 128.31 45.7498 130.22 42.3998C130.22 42.3998 130.68 41.6597 131.31 40.3397C131.96 39.0397 132.78 37.16 133.41 34.91C134.05 32.67 134.46 30.0298 134.36 27.3998C134.27 24.7798 133.65 22.21 132.75 20.16C131.82 18.13 130.78 16.5601 129.94 15.6801C129.12 14.7801 128.64 14.46 128.65 14.89C128.65 15.11 128.78 15.5198 129.04 16.1498C129.33 16.7598 129.65 17.6397 130.08 18.7597C130.28 19.3297 130.45 19.9798 130.67 20.6898C130.81 21.4198 131.04 22.2 131.14 23.08C131.42 24.82 131.44 26.9099 131.05 29.2499L130.97 28.9901C130.69 31.7801 129.97 33.9901 129.25 35.9501C128.51 37.9101 127.76 39.6597 126.94 41.5097C126.53 41.6297 125.9 42.6401 125.19 43.7201C124.5 44.8001 123.7 45.9401 123.21 46.4301L123.25 46.2997C121.35 49.3897 118.1 51.56 115.76 54.1C115.83 53.98 115.79 53.8199 116.37 53.2699C114.56 55.0199 111.88 57.1997 111.53 57.0297C109.15 58.8597 106.1 60.7599 103.18 62.2699C101.71 63.0099 100.3 63.6598 99.0103 64.1898C97.7103 64.6998 96.5703 65.1497 95.6703 65.5097L95.9003 65.35C93.8703 66.23 93.1703 66.0798 90.7803 66.6698C90.6403 66.6498 90.4602 66.6498 90.4902 66.6298C88.1702 67.3998 83.4903 67.4701 81.5303 67.7001L81.3903 67.4799C79.7803 67.5799 78.1503 67.6399 76.5403 67.7099H78.3602C77.7502 68.3399 74.6703 67.4498 71.1503 67.8598C67.8503 67.7998 64.4302 69.1101 60.9802 68.7001C59.3302 68.9401 62.4402 68.2798 59.9802 68.4198C59.9102 68.0998 61.1303 68.2499 60.5103 67.9799C58.1003 68.0399 56.5802 67.52 53.6002 67.58L53.4902 67.33C49.6002 67.58 46.2202 66.5697 43.6102 66.8197C39.6102 66.7297 41.0003 65.8797 36.8103 66.0297L35.2302 65.5497C33.4602 65.3397 33.9202 65.8497 31.9702 65.5097C32.1102 65.3097 29.5003 65.1099 30.6703 65.0199C26.2703 64.2799 21.5403 64.6401 15.8103 63.4901C15.1803 63.6201 14.1703 63.53 13.2503 63.37C12.3303 63.21 11.5003 62.9701 11.0603 62.9701C11.0203 62.8701 9.81025 62.41 9.12025 61.87C8.75025 61.64 8.49024 61.3997 8.48024 61.3197C8.46024 61.2297 8.65028 61.3698 9.28028 61.6298C9.49028 61.7298 9.83029 61.9501 9.78028 61.9901L10.1803 61.9198C9.11031 61.0898 8.1902 60.4199 7.3202 59.5399C6.4602 58.6799 5.68024 57.6101 5.23024 56.2401C5.35024 56.6401 5.51024 57.12 5.61024 57.39C5.72024 57.66 5.73024 57.7599 5.48024 57.4599C5.13024 56.6399 4.84028 55.78 4.65028 54.89C4.76028 55.06 4.86025 55.23 4.99025 55.39C4.68025 54.09 4.5502 52.74 4.5702 51.39C4.4802 51.58 4.39021 51.7699 4.33021 51.9599C4.36021 50.9499 4.5402 50.2797 4.6902 49.5897C4.8502 48.8997 4.97031 48.1997 5.06031 47.0697C5.13031 46.0197 4.27023 48.8399 4.72023 46.7499C5.16023 45.4799 5.9103 43.8998 6.9203 42.4398C7.9203 40.9698 9.19026 39.61 10.5003 38.62C10.0803 38.6 10.7703 38.0101 11.5203 37.4701L11.7402 37.62C12.4302 37.09 12.9002 36.8699 13.2102 36.7699C13.5202 36.6599 13.7003 36.6798 13.8703 36.6898C14.0403 36.7098 14.2103 36.7098 14.5103 36.6698C14.8103 36.6298 15.2503 36.49 16.0403 36.33C15.9503 36.4 15.8703 36.4599 15.7903 36.5399C16.0403 36.3199 16.3102 36.1401 16.5902 35.9301C18.1002 35.6201 18.5402 35.8997 18.9602 36.0497C19.3902 36.2697 19.8403 36.3301 21.5103 36.6801C20.8903 36.4401 20.7803 36.2601 21.0303 36.2201C21.2803 36.1801 21.9103 36.2899 22.6203 36.7699C22.4503 36.7699 22.3003 36.7499 22.1303 36.7699C22.3403 36.8599 22.5003 36.9597 22.6603 37.0297C22.7403 37.0697 22.8103 37.0998 22.8703 37.1298C22.9103 37.1498 22.9302 37.1498 22.9802 37.1898L23.1403 37.31C23.3403 37.47 23.5302 37.6199 23.7202 37.7699C23.8102 37.8499 23.9103 37.9299 24.0103 38.0199L24.1603 38.16C24.2103 38.2401 24.2602 38.3098 24.3202 38.3998C23.5102 37.7998 23.6902 37.7798 25.9402 41.3798C25.6902 41.0798 25.4103 40.6598 25.1603 40.3798L24.4003 39.4999L25.2402 40.62L26.1403 41.9599L27.8202 44.4398L28.0103 43.6C28.0703 43.54 28.1402 43.4498 28.2002 43.3598C28.2602 43.1498 28.3203 42.8798 28.3803 42.6298C28.5003 42.0898 28.6203 41.5301 28.7503 40.9701C28.9903 39.7901 29.2402 38.5701 29.4702 37.4301C29.5902 36.8601 29.7102 36.3099 29.8202 35.7899C29.8802 35.5299 29.9302 35.2799 29.9902 35.0399C30.0402 34.8399 30.0903 34.6399 30.1303 34.4599C30.2603 33.9699 30.4003 33.58 30.5403 33.37C30.5403 33.37 30.8602 32.1798 31.2202 30.8598C31.5702 29.5398 31.9803 28.1197 32.0003 27.5297C31.8903 28.5097 32.8703 26.0498 32.8703 26.8598C32.9702 26.2398 33.2903 25.05 33.7803 23.91C34.2703 22.7701 34.8903 21.6598 35.3903 21.1498L35.2803 21.39C36.7503 19.24 38.1402 17.5099 39.6902 16.0399C40.4602 15.2999 41.2803 14.6397 42.1803 14.0897C43.0703 13.5197 44.0603 13.0799 45.1303 12.7899C44.8303 12.5399 47.1503 12.0498 46.5003 11.8598C47.6303 11.5198 48.7603 11.4099 49.8103 11.4599C50.8703 11.5199 51.8302 11.7401 52.7002 11.9701C54.4302 12.4601 55.7403 13.01 56.8003 12.87C58.8903 13.81 59.0703 14.3799 60.0503 15.0399C59.8903 14.9599 59.7203 14.8697 59.5603 14.7997C61.4003 15.8997 62.5303 16.7599 63.5203 17.5399C64.5003 18.3299 65.3902 19.0999 66.6202 20.2099C67.9102 21.2399 68.4902 21.0098 70.5003 23.1898C69.6702 22.6598 70.5702 23.4797 71.3202 24.2797C70.8102 23.7897 70.6102 23.69 71.4902 24.83C71.6802 24.93 71.9203 25.14 72.1403 25.33C72.1403 25.35 72.1603 25.4 72.1303 25.39C73.4003 26.71 73.2202 26.4399 72.7002 25.7699C72.7502 25.7799 72.7402 25.6999 72.6102 25.4599C73.1502 26.2599 73.9803 27.2701 74.6503 28.16C74.9003 28.51 75.4302 29.2397 75.7402 29.7597C76.0502 30.2997 76.2302 30.7498 76.2402 30.9398C76.9702 32.0098 77.6303 33.7301 78.2903 35.2201C78.9503 36.8401 79.5902 38.3898 80.2002 39.8798C80.3802 39.3198 80.4503 39.3 80.5603 39.14L80.6303 39.0399L80.6703 38.9901L80.6902 38.9701L80.7102 38.85C80.7502 38.52 80.7902 38.1998 80.8302 37.8798C80.9702 36.6498 81.1103 35.4401 81.2503 34.2401C81.3703 33.1001 81.4802 31.97 81.6002 30.83C81.7002 29.74 81.8003 28.6399 81.9103 27.5199C82.1703 26.9199 82.1702 28.3297 81.9802 30.5097L82.4702 25.91C82.7502 25.72 82.3203 28.4097 82.1703 30.0497C82.3203 29.3097 82.4403 28.59 82.5403 27.85C82.6303 27.2 82.7103 26.54 82.8003 25.87C82.9103 24.87 83.0103 23.8497 83.1303 22.7997C83.3703 20.7397 83.7203 18.58 84.6303 16.56C84.6703 16.25 84.6802 15.93 84.7402 15.62L84.8803 15.39C84.7803 15.37 84.9903 14.3697 85.2703 13.7797C85.5203 13.5597 85.6303 13.6299 85.8103 13.5199C86.0003 13.4199 86.1803 13.0901 86.7703 12.2401C86.9103 12.0801 87.0502 11.9099 87.1902 11.7099C87.3502 11.5299 87.5202 11.3298 87.6902 11.1298C87.8602 10.9198 88.0402 10.7001 88.2202 10.4701C88.4202 10.2701 88.6302 10.0497 88.8402 9.83974C89.6502 8.94974 90.7503 8.11991 91.6803 7.51991C90.6203 8.08991 90.8903 7.79009 91.3003 7.45009C92.2503 6.90009 92.9203 6.85007 93.6603 6.43007L93.8803 6.68007C93.6303 6.63007 94.2402 6.27009 95.0003 5.95009C95.7503 5.62009 96.6402 5.33987 96.8302 5.22987C97.4902 5.27987 95.2303 5.87982 95.0503 6.16982C97.1203 5.46982 97.6802 5.40991 98.2102 5.26991C98.4802 5.19991 98.7502 5.16974 99.2202 5.08974C99.7002 5.01974 100.37 4.85993 101.46 4.78993C103.79 4.34993 101.01 4.53005 102.12 4.16005C104.22 4.00005 106.34 3.84981 108.73 4.41981C108.49 4.27981 108.25 4.16993 108 4.03993C109.01 4.09993 109.9 4.28981 110.73 4.41981C111.54 4.61981 112.3 4.78991 112.99 5.01991C113.67 5.26991 114.32 5.48991 114.93 5.76991C115.53 6.06991 116.13 6.36009 116.72 6.70009C120.23 8.04009 122.78 9.61983 124.64 10.9398C126.52 12.2598 127.7 13.3599 128.52 14.0399C130.15 15.4199 130.25 15.1 129.8 14.08C129.52 13.55 129.07 12.8297 128.53 12.0497C127.93 11.3297 127.31 10.4797 126.62 9.81972C125.95 9.11972 125.31 8.50999 124.8 8.09999C124.3 7.67999 123.99 7.41982 123.99 7.41982C121.47 5.35982 118.92 3.95985 116.41 2.95985C113.89 1.95985 111.4 1.33966 108.79 1.00966C106.19 0.679659 103.46 0.689737 100.48 1.08974C97.5102 1.52974 94.2603 2.29976 90.7603 4.10976L90.6803 4.12978Z" fill="white"/>
</svg>
