<svg width="51" height="48" viewBox="0 0 51 48" fill="none" xmlns="http://www.w3.org/2000/svg">
<path d="M20.7657 2.93177C22.5206 -0.977258 28.1461 -0.977254 29.901 2.93177L33.4354 10.8044C34.1609 12.4204 35.7087 13.5293 37.4914 13.7103L46.1766 14.5921C50.4891 15.03 52.2274 20.3057 48.9996 23.1594L42.4987 28.9069C41.1644 30.0866 40.5732 31.8808 40.9495 33.6086L42.7828 42.0263C43.6932 46.206 39.1421 49.4665 35.3922 47.3212L27.8401 43.0006C26.2899 42.1138 24.3767 42.1138 22.8266 43.0006L15.2744 47.3212C11.5246 49.4665 6.97351 46.206 7.88382 42.0263L9.71718 33.6086C10.0935 31.8808 9.5023 30.0866 8.16792 28.9069L1.66709 23.1594C-1.56077 20.3057 0.177589 15.03 4.49006 14.5921L13.1753 13.7103C14.958 13.5293 16.5058 12.4204 17.2313 10.8044L20.7657 2.93177Z" fill="#FFDF59" fill-opacity="0.9"/>
</svg>
