<svg width="146" height="135" viewBox="0 0 146 135" fill="none" xmlns="http://www.w3.org/2000/svg">
<path d="M59.8379 8.24559C64.8949 -2.74854 81.1051 -2.74853 86.1621 8.2456L96.3467 30.3875C98.4372 34.9324 102.897 38.0511 108.034 38.5602L133.062 41.0404C145.488 42.2719 150.497 57.1097 141.196 65.1359L122.463 81.3006C118.618 84.6186 116.915 89.6648 117.999 94.5243L123.282 118.199C125.905 129.954 112.791 139.125 101.985 133.091L80.2234 120.939C75.7565 118.445 70.2435 118.445 65.7766 120.939L44.0145 133.091C33.209 139.125 20.0947 129.954 22.7179 118.199L28.0008 94.5243C29.0852 89.6648 27.3816 84.6186 23.5365 81.3006L4.80385 65.1359C-4.49748 57.1097 0.511737 42.2719 12.9385 41.0404L37.9656 38.5602C43.1027 38.0511 47.5628 34.9324 49.6533 30.3875L59.8379 8.24559Z" fill="#D7E9DE"/>
<path d="M60.292 8.4541C65.1706 -2.15157 80.8294 -2.15157 85.708 8.4541L95.8926 30.5967C98.0602 35.3089 102.679 38.5317 107.985 39.0576L133.013 41.5381C145.034 42.7297 149.813 57.0396 140.869 64.7578L122.137 80.9219C118.156 84.3571 116.385 89.5892 117.511 94.6328L122.794 118.308C125.312 129.593 112.701 138.501 102.229 132.654L80.4668 120.503C75.8485 117.924 70.1515 117.924 65.5332 120.503L43.7705 132.654C33.2987 138.501 20.6877 129.593 23.2061 118.308L28.4893 94.6328C29.6146 89.5892 27.8442 84.3571 23.8633 80.9219L5.13086 64.7578C-3.81349 57.0396 0.966063 42.7298 12.9873 41.5381L38.0146 39.0576C43.3214 38.5317 47.9398 35.3089 50.1074 30.5967L60.292 8.4541Z" stroke="black" stroke-opacity="0.15"/>
</svg>
