<svg width="146" height="135" viewBox="0 0 146 135" fill="none" xmlns="http://www.w3.org/2000/svg">
<path d="M59.8379 8.24559C64.8949 -2.74854 81.1051 -2.74853 86.1621 8.2456L96.3467 30.3875C98.4372 34.9324 102.897 38.0511 108.034 38.5602L133.062 41.0404C145.488 42.2719 150.497 57.1097 141.196 65.1359L122.463 81.3006C118.618 84.6186 116.915 89.6648 117.999 94.5243L123.282 118.199C125.905 129.954 112.791 139.125 101.985 133.091L80.2234 120.939C75.7565 118.445 70.2435 118.445 65.7766 120.939L44.0145 133.091C33.209 139.125 20.0947 129.954 22.7179 118.199L28.0008 94.5243C29.0852 89.6648 27.3816 84.6186 23.5365 81.3006L4.80385 65.1359C-4.49748 57.1097 0.511737 42.2719 12.9385 41.0404L37.9656 38.5602C43.1027 38.0511 47.5628 34.9324 49.6533 30.3875L59.8379 8.24559Z" fill="#FFDF59"/>
</svg>
