<svg width="29" height="25" viewBox="0 0 29 25" fill="none" xmlns="http://www.w3.org/2000/svg">
<path d="M25.8767 22.4848C26.3725 20.903 28.6981 5.13291 28.9847 2.02539C29.0713 1.08379 28.7858 0.458778 28.2249 0.179568C27.5471 -0.159221 26.5433 0.0101742 25.3777 0.447096C23.7804 1.04524 3.35754 10.0582 2.17728 10.5792C1.05885 11.0734 0 11.612 0 12.3924C0 12.9414 0.313611 13.2498 1.17688 13.5699C2.075 13.9029 4.33771 14.6155 5.6742 14.9987C6.96124 15.3679 8.42588 15.0478 9.24643 14.5174C10.1164 13.9555 20.161 6.97055 20.8815 6.35839C21.602 5.74623 22.1764 6.53012 21.5874 7.14345C20.9984 7.75561 14.1046 14.7101 13.1952 15.6728C12.0914 16.8422 12.8749 18.0536 13.6156 18.5385C14.4609 19.0922 20.5431 23.3318 21.4592 24.0117C22.3753 24.6916 23.3038 25 24.1547 25C25.0056 25 25.453 23.8364 25.8767 22.4848Z" fill="#222222"/>
</svg>
