<svg width="34" height="20" viewBox="0 0 34 20" fill="none" xmlns="http://www.w3.org/2000/svg">
<path fill-rule="evenodd" clip-rule="evenodd" d="M4.99492 0H1.27532C0.212564 0 0 0.495579 0 1.0419C0 2.01779 1.26104 6.85768 5.87158 13.2588C8.94529 17.6303 13.2758 20 17.2165 20C19.5809 20 19.8734 19.4737 19.8734 18.5672V15.2632C19.8734 14.2105 20.0974 14.0004 20.846 14.0004C21.3978 14.0004 22.3435 14.2737 24.5503 16.3814C27.0724 18.8794 27.4881 20 28.9067 20H32.6263C33.6891 20 34.2204 19.4737 33.9139 18.4351C33.5785 17.3999 32.3744 15.8979 30.7766 14.1176C29.9096 13.1027 28.6092 12.0099 28.2151 11.4634C27.6634 10.7608 27.821 10.4485 28.2151 9.8241C28.2151 9.8241 32.7469 3.50095 33.2198 1.35432C33.4562 0.573579 33.2198 0 32.0949 0H28.3753C27.4296 0 26.9935 0.495579 26.757 1.0419C26.757 1.0419 24.8656 5.60863 22.1859 8.57505C21.3189 9.43368 20.9249 9.70695 20.4519 9.70695C20.2155 9.70695 19.8733 9.43369 19.8733 8.65316V1.35432C19.8733 0.417474 19.5989 0 18.8106 0H12.9655C12.3745 0 12.019 0.434736 12.019 0.846842C12.019 1.73484 13.3588 1.93968 13.4969 4.43768V9.86316C13.4969 11.0526 13.28 11.2683 12.8072 11.2683C11.5462 11.2683 8.47885 6.68116 6.65964 1.43232C6.30317 0.412106 5.94553 0 4.99492 0Z" fill="#1A1A1A"/>
</svg>
