<svg width="200" height="107" viewBox="0 0 200 107" fill="none" xmlns="http://www.w3.org/2000/svg">
<path d="M6.466 55.5279H8.99997V67.7609H6.466V55.5279ZM12.2504 61.6444C12.2504 61.0502 12.1048 60.5726 11.8136 60.2114C11.5223 59.8386 11.1145 59.5706 10.5903 59.4075C10.066 59.2444 9.44851 59.1629 8.73783 59.1629H6.74561C6.03493 59.1629 5.41746 59.2444 4.89319 59.4075C4.36892 59.5706 3.96115 59.8386 3.66989 60.2114C3.37863 60.5726 3.233 61.0502 3.233 61.6444C3.233 62.2269 3.37863 62.7046 3.66989 63.0774C3.96115 63.4502 4.36892 63.7182 4.89319 63.8813C5.41746 64.0444 6.03493 64.126 6.74561 64.126H8.73783C9.44851 64.126 10.066 64.0444 10.5903 63.8813C11.1145 63.7182 11.5223 63.4502 11.8136 63.0774C12.1048 62.7046 12.2504 62.2269 12.2504 61.6444ZM14.7844 61.6444C14.7844 62.623 14.5339 63.4677 14.033 64.1784C13.5436 64.8774 12.8679 65.4192 12.0058 65.8036C11.1553 66.1764 10.1941 66.3628 9.1223 66.3628H6.36114C5.2893 66.3628 4.32232 66.1764 3.46018 65.8036C2.6097 65.4192 1.93397 64.8774 1.433 64.1784C0.943686 63.4677 0.699027 62.623 0.699027 61.6444C0.699027 60.6541 0.943686 59.8095 1.433 59.1104C1.93397 58.4114 2.6097 57.8755 3.46018 57.5027C4.32232 57.1182 5.2893 56.926 6.36114 56.926H9.1223C10.1941 56.926 11.1553 57.1182 12.0058 57.5027C12.8679 57.8755 13.5436 58.4114 14.033 59.1104C14.5339 59.8095 14.7844 60.6541 14.7844 61.6444ZM18.7469 61.6444C18.7469 62.425 18.91 63.1182 19.2362 63.724C19.5624 64.3298 20.011 64.8075 20.5818 65.157C21.1527 65.5065 21.8168 65.6813 22.5741 65.6813C23.3313 65.6813 23.9954 65.5065 24.5663 65.157C25.1372 64.8075 25.5799 64.3298 25.8944 63.724C26.2206 63.1182 26.3838 62.425 26.3838 61.6444C26.3838 60.8638 26.2265 60.1706 25.9119 59.5648C25.5973 58.959 25.1546 58.4813 24.5838 58.1318C24.0129 57.7823 23.343 57.6075 22.5741 57.6075C21.8168 57.6075 21.1527 57.7823 20.5818 58.1318C20.011 58.4813 19.5624 58.959 19.2362 59.5648C18.91 60.1706 18.7469 60.8638 18.7469 61.6444ZM16.1081 61.6444C16.1081 60.7124 16.2712 59.8619 16.5974 59.093C16.9236 58.3124 17.378 57.6367 17.9605 57.0658C18.543 56.4949 19.2246 56.058 20.0051 55.7551C20.7974 55.4405 21.6537 55.2833 22.5741 55.2833C23.5061 55.2833 24.3624 55.4405 25.143 55.7551C25.9236 56.058 26.6051 56.4949 27.1876 57.0658C27.7818 57.6367 28.2362 58.3124 28.5507 59.093C28.8769 59.8619 29.0401 60.7124 29.0401 61.6444C29.0401 62.5648 28.8769 63.4211 28.5507 64.2133C28.2362 64.9939 27.7876 65.6755 27.2051 66.258C26.6342 66.8405 25.9527 67.2949 25.1605 67.6211C24.3799 67.9357 23.5177 68.0929 22.5741 68.0929C21.6304 68.0929 20.7624 67.9357 19.9702 67.6211C19.1896 67.2949 18.5081 66.8405 17.9255 66.258C17.343 65.6755 16.8945 64.9939 16.5799 64.2133C16.2653 63.4211 16.1081 62.5648 16.1081 61.6444ZM31.7933 62.3784V60.124H40.7758V62.3784H31.7933ZM39.1855 55.5279H41.6845V67.7609H39.1855V55.5279ZM30.9719 55.5279H33.471V67.7609H30.9719V55.5279ZM50.4166 59.6347L47.603 67.2366H44.7545L50.4166 54.9163L56.0787 67.2366H53.2302L50.4166 59.6347ZM54.7156 67.7609H46.1176V69.6832H43.6885V65.5764H57.1448V69.6832H54.7156V67.7609ZM68.3864 61.8017V60.5959C68.9806 60.5959 69.4757 60.5201 69.8718 60.3687C70.2679 60.2172 70.565 60.0133 70.7631 59.757C70.9728 59.4891 71.0776 59.1978 71.0776 58.8833C71.0776 58.5803 71.0019 58.3182 70.8505 58.0968C70.7106 57.8638 70.4893 57.6833 70.1864 57.5551C69.8951 57.4269 69.534 57.3629 69.1029 57.3629C68.6602 57.3629 68.2757 57.4328 67.9495 57.5726C67.6233 57.7007 67.367 57.8871 67.1806 58.1318C67.0058 58.3648 66.9184 58.6328 66.9184 58.9357H64.5942C64.5942 58.2367 64.7689 57.6192 65.1184 57.0833C65.4796 56.5357 65.998 56.1046 66.6738 55.7901C67.3495 55.4755 68.1592 55.3182 69.1029 55.3182C70.0699 55.3182 70.8796 55.4697 71.532 55.7726C72.1961 56.0755 72.7029 56.4774 73.0524 56.9784C73.4019 57.4794 73.5767 58.0386 73.5767 58.6561C73.5767 59.157 73.4427 59.6056 73.1747 60.0017C72.9068 60.3862 72.5398 60.7124 72.0737 60.9803C71.6077 61.2483 71.0602 61.4522 70.431 61.592C69.8019 61.7318 69.1204 61.8017 68.3864 61.8017ZM69.1378 68.0056C68.2757 68.0056 67.5243 67.9007 66.8835 67.691C66.2544 67.4813 65.7301 67.1958 65.3107 66.8347C64.9029 66.4619 64.5942 66.0425 64.3845 65.5764C64.1747 65.0988 64.0699 64.5978 64.0699 64.0735H66.5514C66.5747 64.4696 66.6912 64.8075 66.901 65.0871C67.1107 65.3667 67.3961 65.5823 67.7573 65.7337C68.1301 65.8735 68.567 65.9434 69.0679 65.9434C69.8252 65.9434 70.4077 65.7978 70.8155 65.5065C71.2233 65.2036 71.4272 64.7667 71.4272 64.1959C71.4272 63.8114 71.3106 63.4794 71.0776 63.1997C70.8563 62.9085 70.5184 62.6871 70.064 62.5357C69.6097 62.3842 69.0505 62.3085 68.3864 62.3085V60.9803C69.4466 60.9803 70.3903 61.1027 71.2174 61.3473C72.0563 61.5803 72.7145 61.9531 73.1922 62.4658C73.6815 62.9667 73.9262 63.6308 73.9262 64.458C73.9262 65.157 73.7456 65.7745 73.3844 66.3104C73.0233 66.8463 72.4815 67.2658 71.7592 67.5687C71.0485 67.8599 70.1747 68.0056 69.1378 68.0056ZM77.2949 64.9823L77.592 63.0075H83.4638L83.7609 64.9823H77.2949ZM80.4929 59.4949L78.658 63.7065L78.7104 64.2658L77.1026 67.7609H74.2891L80.4929 54.8114L86.6968 67.7609H83.8657L82.2929 64.3706L82.3279 63.7415L80.4929 59.4949ZM101.183 65.5065V55.5279H103.665V65.5065H105.465V69.9803H103.105V67.7609H88.0937V55.5279H90.5928V65.5065H94.6646V55.5279H97.0937V65.5065H101.183ZM118.523 58.1668L107.496 68.3725L107.584 65.1221L118.611 54.9163L118.523 58.1668ZM109.908 55.5279V65.7687L107.496 68.3725V55.5279H109.908ZM118.611 54.9163V67.7609H116.199V57.5901L118.611 54.9163ZM120.045 57.7823V55.5279H129.133V57.7823H125.83V67.7609H123.331V57.7823H120.045ZM140.461 55.5279H142.995V67.7609H140.461V55.5279ZM130.553 55.5279H133.052V67.7609H130.553V55.5279ZM132.073 62.0813V59.9667H134.502C135.469 59.9667 136.29 60.124 136.966 60.4386C137.653 60.7532 138.178 61.2017 138.539 61.7842C138.9 62.3667 139.081 63.0599 139.081 63.8638C139.081 64.6561 138.9 65.3493 138.539 65.9434C138.178 66.5259 137.653 66.9745 136.966 67.2891C136.29 67.6036 135.469 67.7609 134.502 67.7609H132.073V65.6463H134.502C134.945 65.6463 135.323 65.5823 135.638 65.4541C135.964 65.3143 136.215 65.1104 136.389 64.8425C136.564 64.5745 136.652 64.2483 136.652 63.8638C136.652 63.4794 136.564 63.1531 136.389 62.8852C136.215 62.6172 135.964 62.4192 135.638 62.291C135.323 62.1512 134.945 62.0813 134.502 62.0813H132.073ZM1.39805 72.5279H8.28347V74.7823H3.89707V84.7609H1.39805V72.5279ZM10.8624 78.6444C10.8624 79.425 11.0255 80.1182 11.3517 80.724C11.6779 81.3298 12.1264 81.8075 12.6973 82.157C13.2682 82.5065 13.9322 82.6813 14.6895 82.6813C15.4468 82.6813 16.1109 82.5065 16.6818 82.157C17.2526 81.8075 17.6953 81.3298 18.0099 80.724C18.3361 80.1182 18.4992 79.425 18.4992 78.6444C18.4992 77.8638 18.3419 77.1706 18.0274 76.5648C17.7128 75.959 17.2701 75.4813 16.6992 75.1318C16.1284 74.7823 15.4585 74.6075 14.6895 74.6075C13.9322 74.6075 13.2682 74.7823 12.6973 75.1318C12.1264 75.4813 11.6779 75.959 11.3517 76.5648C11.0255 77.1706 10.8624 77.8638 10.8624 78.6444ZM8.22353 78.6444C8.22353 77.7124 8.38664 76.8619 8.71285 76.093C9.03906 75.3124 9.49343 74.6367 10.076 74.0658C10.6585 73.4949 11.34 73.058 12.1206 72.7551C12.9128 72.4405 13.7691 72.2833 14.6895 72.2833C15.6216 72.2833 16.4779 72.4405 17.2585 72.7551C18.039 73.058 18.7206 73.4949 19.3031 74.0658C19.8973 74.6367 20.3516 75.3124 20.6662 76.093C20.9924 76.8619 21.1555 77.7124 21.1555 78.6444C21.1555 79.5648 20.9924 80.4211 20.6662 81.2133C20.3516 81.9939 19.9031 82.6755 19.3206 83.258C18.7497 83.8405 18.0682 84.2949 17.2759 84.6211C16.4953 84.9357 15.6332 85.0929 14.6895 85.0929C13.7458 85.0929 12.8779 84.9357 12.0857 84.6211C11.3051 84.2949 10.6235 83.8405 10.041 83.258C9.45848 82.6755 9.00994 81.9939 8.69537 81.2133C8.38081 80.4211 8.22353 79.5648 8.22353 78.6444ZM23.0874 72.5279H25.5864V84.7609H23.0874V72.5279ZM24.6078 74.6425V72.5279H27.0369C28.0039 72.5279 28.8252 72.6852 29.501 72.9998C30.1884 73.3143 30.7126 73.7629 31.0738 74.3454C31.4349 74.9279 31.6155 75.6211 31.6155 76.425C31.6155 77.2172 31.4349 77.9104 31.0738 78.5046C30.7126 79.0871 30.1884 79.5357 29.501 79.8502C28.8252 80.1648 28.0039 80.3221 27.0369 80.3221H24.6078V78.2075H27.0369C27.701 78.2075 28.2253 78.0561 28.6097 77.7532C28.9942 77.4502 29.1864 77.0075 29.1864 76.425C29.1864 75.8308 28.9942 75.3881 28.6097 75.0968C28.2253 74.7939 27.701 74.6425 27.0369 74.6425H24.6078ZM35.4887 78.6444C35.4887 79.425 35.6518 80.1182 35.978 80.724C36.3042 81.3298 36.7528 81.8075 37.3237 82.157C37.8945 82.5065 38.5586 82.6813 39.3159 82.6813C40.0732 82.6813 40.7372 82.5065 41.3081 82.157C41.879 81.8075 42.3217 81.3298 42.6363 80.724C42.9625 80.1182 43.1256 79.425 43.1256 78.6444C43.1256 77.8638 42.9683 77.1706 42.6537 76.5648C42.3392 75.959 41.8965 75.4813 41.3256 75.1318C40.7547 74.7823 40.0848 74.6075 39.3159 74.6075C38.5586 74.6075 37.8945 74.7823 37.3237 75.1318C36.7528 75.4813 36.3042 75.959 35.978 76.5648C35.6518 77.1706 35.4887 77.8638 35.4887 78.6444ZM32.8499 78.6444C32.8499 77.7124 33.013 76.8619 33.3392 76.093C33.6654 75.3124 34.1198 74.6367 34.7023 74.0658C35.2848 73.4949 35.9664 73.058 36.747 72.7551C37.5392 72.4405 38.3955 72.2833 39.3159 72.2833C40.2479 72.2833 41.1042 72.4405 41.8848 72.7551C42.6654 73.058 43.3469 73.4949 43.9295 74.0658C44.5236 74.6367 44.978 75.3124 45.2926 76.093C45.6188 76.8619 45.7819 77.7124 45.7819 78.6444C45.7819 79.5648 45.6188 80.4211 45.2926 81.2133C44.978 81.9939 44.5295 82.6755 43.9469 83.258C43.3761 83.8405 42.6945 84.2949 41.9023 84.6211C41.1217 84.9357 40.2596 85.0929 39.3159 85.0929C38.3722 85.0929 37.5042 84.9357 36.712 84.6211C35.9314 84.2949 35.2499 83.8405 34.6674 83.258C34.0848 82.6755 33.6363 81.9939 33.3217 81.2133C33.0072 80.4211 32.8499 79.5648 32.8499 78.6444ZM53.2837 76.6347L50.4701 84.2366H47.6216L53.2837 71.9163L58.9458 84.2366H56.0973L53.2837 76.6347ZM57.5827 84.7609H48.9847V86.6832H46.5556V82.5764H60.0119V86.6832H57.5827V84.7609ZM63.6153 78.6444C63.6153 79.4483 63.7958 80.1531 64.157 80.759C64.5298 81.3531 65.0133 81.8133 65.6075 82.1395C66.2017 82.4541 66.8483 82.6114 67.5473 82.6114C68.1298 82.6114 68.6482 82.5357 69.1026 82.3842C69.557 82.2327 69.9647 82.0289 70.3259 81.7726C70.6987 81.5162 71.0191 81.2366 71.2871 80.9337V83.7473C70.7861 84.1434 70.2385 84.4522 69.6444 84.6735C69.0618 84.8949 68.322 85.0056 67.4249 85.0056C66.4929 85.0056 65.625 84.8541 64.8211 84.5512C64.0288 84.2483 63.3356 83.8114 62.7415 83.2405C62.1589 82.6696 61.7046 81.9997 61.3784 81.2308C61.0638 80.4502 60.9065 79.5881 60.9065 78.6444C60.9065 77.7007 61.0638 76.8444 61.3784 76.0755C61.7046 75.2949 62.1589 74.6192 62.7415 74.0483C63.3356 73.4774 64.0288 73.0405 64.8211 72.7376C65.625 72.4347 66.4929 72.2833 67.4249 72.2833C68.322 72.2833 69.0618 72.3939 69.6444 72.6153C70.2385 72.8367 70.7861 73.1454 71.2871 73.5415V76.3551C71.0191 76.0522 70.6987 75.7726 70.3259 75.5163C69.9647 75.26 69.557 75.0561 69.1026 74.9046C68.6482 74.7532 68.1298 74.6774 67.5473 74.6774C66.8483 74.6774 66.2017 74.8405 65.6075 75.1668C65.0133 75.4813 64.5298 75.9357 64.157 76.5299C63.7958 77.124 63.6153 77.8289 63.6153 78.6444ZM73.7737 72.5279H76.3426V84.7609H73.7737V72.5279ZM80.694 72.5279H83.6649L78.597 78.2599L83.927 84.7609H80.8863L75.6086 78.3298L80.694 72.5279ZM96.3034 75.1668L85.2762 85.3725L85.3636 82.1221L96.3907 71.9163L96.3034 75.1668ZM87.6879 72.5279V82.7687L85.2762 85.3725V72.5279H87.6879ZM96.3907 71.9163V84.7609H93.9791V74.5901L96.3907 71.9163ZM105.567 72.5279H108.625L104.868 78.4522L108.887 84.7609H105.829L103.4 80.3745L100.883 84.7609H97.8252L101.949 78.4522L98.2621 72.5279H101.32L103.417 76.3726L105.567 72.5279ZM3.233 89.5279L8.33589 95.2949L2.97086 101.761H0.0174757L5.41746 95.2599L0.279611 89.5279H3.233ZM7.72425 89.5279H10.2932V101.761H7.72425V89.5279ZM14.6097 89.5279H17.6504L12.5126 95.2599L17.9126 101.761H14.8718L9.68152 95.2949L14.6097 89.5279ZM30.2918 92.1668L19.2646 102.373L19.352 99.1221L30.3791 88.9163L30.2918 92.1668ZM21.6762 89.5279V99.7687L19.2646 102.373V89.5279H21.6762ZM30.3791 88.9163V101.761H27.9675V91.5901L30.3791 88.9163ZM34.9068 95.557V94.4211H36.8816C37.2427 94.4211 37.5573 94.3629 37.8253 94.2464C38.0932 94.1299 38.2971 93.9609 38.4369 93.7396C38.5884 93.5182 38.6641 93.2561 38.6641 92.9532C38.6641 92.4871 38.501 92.1318 38.1748 91.8871C37.8602 91.6425 37.4292 91.5202 36.8816 91.5202H35.536V99.7687H37.1437C37.5631 99.7687 37.9418 99.7104 38.2796 99.5939C38.6175 99.4658 38.8796 99.2677 39.066 98.9997C39.2641 98.7318 39.3631 98.3881 39.3631 97.9687C39.3631 97.6658 39.3049 97.4095 39.1884 97.1997C39.0835 96.9784 38.9262 96.7978 38.7165 96.658C38.5185 96.5065 38.2855 96.4017 38.0175 96.3434C37.7495 96.2735 37.4583 96.2386 37.1437 96.2386H34.9068V94.8755H37.3709C37.9651 94.8755 38.5301 94.9396 39.066 95.0677C39.6136 95.1959 40.1029 95.3998 40.534 95.6794C40.9651 95.9473 41.3029 96.2968 41.5476 96.7279C41.8039 97.159 41.932 97.6774 41.932 98.2832C41.932 99.0871 41.7398 99.7454 41.3554 100.258C40.9825 100.771 40.4524 101.149 39.7651 101.394C39.0777 101.639 38.2796 101.761 37.3709 101.761H33.0369V89.5279H37.1088C37.9243 89.5279 38.6408 89.6444 39.2583 89.8774C39.8757 90.0988 40.3592 90.4367 40.7088 90.891C41.0583 91.3454 41.233 91.9221 41.233 92.6211C41.233 93.2386 41.0583 93.7687 40.7088 94.2114C40.3592 94.6541 39.8757 94.992 39.2583 95.225C38.6408 95.4464 37.9243 95.557 37.1088 95.557H34.9068ZM46.0014 95.6444C46.0014 96.425 46.1645 97.1182 46.4907 97.724C46.817 98.3298 47.2655 98.8075 47.8364 99.157C48.4072 99.5065 49.0713 99.6813 49.8286 99.6813C50.5859 99.6813 51.2499 99.5065 51.8208 99.157C52.3917 98.8075 52.8344 98.3298 53.149 97.724C53.4752 97.1182 53.6383 96.425 53.6383 95.6444C53.6383 94.8638 53.481 94.1706 53.1664 93.5648C52.8519 92.959 52.4092 92.4813 51.8383 92.1318C51.2674 91.7823 50.5975 91.6075 49.8286 91.6075C49.0713 91.6075 48.4072 91.7823 47.8364 92.1318C47.2655 92.4813 46.817 92.959 46.4907 93.5648C46.1645 94.1706 46.0014 94.8638 46.0014 95.6444ZM43.3626 95.6444C43.3626 94.7124 43.5257 93.8619 43.8519 93.093C44.1781 92.3124 44.6325 91.6367 45.215 91.0658C45.7975 90.4949 46.4791 90.058 47.2597 89.7551C48.0519 89.4405 48.9082 89.2833 49.8286 89.2833C50.7606 89.2833 51.6169 89.4405 52.3975 89.7551C53.1781 90.058 53.8596 90.4949 54.4422 91.0658C55.0363 91.6367 55.4907 92.3124 55.8053 93.093C56.1315 93.8619 56.2946 94.7124 56.2946 95.6444C56.2946 96.5648 56.1315 97.4211 55.8053 98.2133C55.4907 98.9939 55.0422 99.6755 54.4596 100.258C53.8888 100.841 53.2072 101.295 52.415 101.621C51.6344 101.936 50.7723 102.093 49.8286 102.093C48.8849 102.093 48.0169 101.936 47.2247 101.621C46.4441 101.295 45.7626 100.841 45.1801 100.258C44.5975 99.6755 44.149 98.9939 43.8344 98.2133C43.5199 97.4211 43.3626 96.5648 43.3626 95.6444ZM56.4741 91.7823V89.5279H65.5615V91.7823H62.2586V101.761H59.7596V91.7823H56.4741ZM67.8027 96.3784V94.124H76.7852V96.3784H67.8027ZM75.1949 89.5279H77.694V101.761H75.1949V89.5279ZM66.9814 89.5279H69.4804V101.761H66.9814V89.5279ZM90.2357 89.5279H92.7697V101.761H90.2357V89.5279ZM80.327 89.5279H82.8261V101.761H80.327V89.5279ZM81.8474 96.0813V93.9667H84.2765C85.2435 93.9667 86.0649 94.124 86.7406 94.4386C87.428 94.7532 87.9523 95.2017 88.3134 95.7842C88.6746 96.3667 88.8552 97.0599 88.8552 97.8638C88.8552 98.6561 88.6746 99.3493 88.3134 99.9434C87.9523 100.526 87.428 100.974 86.7406 101.289C86.0649 101.604 85.2435 101.761 84.2765 101.761H81.8474V99.6463H84.2765C84.7193 99.6463 85.0979 99.5823 85.4125 99.4541C85.7387 99.3143 85.9892 99.1104 86.1639 98.8425C86.3387 98.5745 86.4261 98.2483 86.4261 97.8638C86.4261 97.4794 86.3387 97.1531 86.1639 96.8852C85.9892 96.6172 85.7387 96.4192 85.4125 96.291C85.0979 96.1512 84.7193 96.0813 84.2765 96.0813H81.8474ZM101.949 89.5279H105.007L101.25 95.4522L105.269 101.761H102.211L99.782 97.3745L97.2655 101.761H94.2072L98.3315 95.4522L94.6441 89.5279H97.7024L99.7994 93.3726L101.949 89.5279Z" fill="#1A1A1A"/>
<path d="M135.561 12.8847C135.561 12.8847 134.872 37.2692 151.526 40.0509C168.179 42.8325 180.811 21.8343 180.811 21.8343C180.811 21.8343 156.498 5.83998 154.129 5.83998C151.76 5.83998 142.173 3.20954 140.616 3.20954C139.059 3.20954 135.561 12.8696 135.561 12.8696" fill="#ED1845"/>
<path d="M192.148 8.56108C189.683 10.1938 186.941 12.8242 183.043 14.986C179.145 17.1478 170.288 12.4916 164.819 8.98438C161.155 6.64116 150.975 3.16414 149.529 2.12103C147.187 0.427874 143.73 -1.08388 139.446 1.04769C135.148 3.19437 135.148 5.83994 135.148 5.83994C135.148 5.83994 133.068 5.83994 130.727 9.61931C130.727 9.61931 134.928 10.8136 135.575 12.9603C135.933 14.1697 139.804 5.53759 148.895 6.85281C151.086 7.17028 151.21 8.74249 150.975 9.84607C150.48 12.2044 140.617 19.2491 151.458 28.1836C159.02 34.412 175.866 23.1495 178.36 22.5448C183.952 21.1993 197.424 15.6058 199.614 11.9625C201.722 7.66915 194.628 6.89816 192.148 8.53085" fill="#231F20"/>
<path d="M93 42.9999H157V107" stroke="#231F20" stroke-width="3"/>
</svg>
